<?xml version="1.0" encoding="UTF-8" standalone="no"?>
<svg
   xmlns:svg="http://www.w3.org/2000/svg"
   xmlns="http://www.w3.org/2000/svg"
   width="360" height="180" viewBox="0 0 360 180" > 
<g transform="translate(180,90) scale(1,-1)" style="fill:none;stroke:#ff99ff;stroke-width:0.01">

  <polyline points="26.956674,60.105925 26.980076,60.091309 26.974096,60.082682 26.980737,60.082686 26.990695,60.074398 26.993358,60.062785 27.000678,60.060462 27.0074,60.050171 27.019396,60.045194 27.018074,60.040883 27.026662,60.035576 27.029298,60.021974 27.011424,60.010373 26.982919,60.014021 26.980389,60.024311 26.976374,60.02961 26.980262,60.034248 26.97346,60.035568 26.966122,60.040543 26.968777,60.047845 26.961467,60.046183 26.969441,60.051827 26.948102,60.080027 26.948756,60.086332 26.942739,60.087993 26.941379,60.095961 26.956674,60.105925" />
  
  <polyline points="27.190405,59.867003 27.215673,59.861363 27.229712,59.846397 27.215551,59.841562 27.201381,59.834484 27.190224,59.833751 27.172434,59.844982 27.176977,59.860668 27.190405,59.867003" />
  
  <polyline points="26.952224,59.797111 26.92323,59.809048 26.921729,59.81465 26.915031,59.818381 26.907612,59.815013 26.896465,59.815751 26.902448,59.803802 26.918783,59.805683 26.952224,59.797111" />
  
  <polyline points="27.83093,60.034171 27.824927,60.024143 27.836356,60.020837 27.849321,60.021475 27.857632,60.008841 27.869791,60.006247 27.880007,60.011932 27.87586,60.018429 27.884397,60.014779 27.898483,60.003541 27.89219,59.983092 27.889533,59.991378 27.884076,60.002559 27.858122,59.999851 27.859349,59.991575 27.850599,59.986597 27.84053,59.986301 27.827428,59.979552 27.819674,59.985711 27.806749,59.986148 27.80545,59.991908 27.794687,59.992691 27.796294,59.999871 27.810142,60.007697 27.80315,60.016007 27.798243,60.021428 27.800521,60.026447 27.817276,60.034973 27.83093,60.034171" />
  
  <polyline points="28.006173,60.037623 28.010316,60.03198 28.008206,60.029838 28.012664,60.025349 28.0241,60.022385 28.031306,60.022617 28.042472,60.01994 28.052889,60.02043 28.058279,60.017797 28.046407,60.016311 28.033181,60.017278 28.020916,60.02169 28.009121,60.021924 28.005634,60.020655 27.999715,60.025014 27.994327,60.026921 27.999957,60.032489 28.00064,60.03565 28.006173,60.037623" />
  
  <polyline points="28.380511,60.046128 28.401691,60.03546 28.401931,60.00516 28.389935,60.001454 28.372217,60.011043 28.364187,60.019134 28.343276,60.018995 28.343935,60.035356 28.368651,60.026053 28.36868,60.026749 28.380511,60.046128" />
  
</g>
</svg>
