<?xml version="1.0" encoding="UTF-8" standalone="no"?>
<svg
   xmlns:svg="http://www.w3.org/2000/svg"
   xmlns="http://www.w3.org/2000/svg"
   width="360" height="180" viewBox="0 0 360 180" >
<g transform="translate(180,90) scale(1,-1)" style="fill:none;stroke:#ff00ff;stroke-width:0.01">

  <polyline points="29.995998,69.456266 29.619873,69.491377 29.360614,69.515202 29.117789,69.573759 28.826522,69.632755 28.425498,69.726996 28.126114,69.818487 27.914022,69.858948 27.731878,69.873602 27.647835,69.93336 27.479367,69.983183 27.326492,69.942101 27.011032,69.929948 26.811113,69.902301 26.471474,69.848311 26.281824,69.802869 26.000106,69.744188 26.08059,69.672858 26.101201,69.612215 25.938123,69.574784 25.820636,69.533985 25.656824,69.476798 25.748158,69.359005 25.756842,69.276544 25.788248,69.169564 25.800058,69.07705 25.757446,69.00155 25.653839,68.930437 25.53852,68.886314 25.388344,68.877311 25.305534,68.807875 25.26916,68.689351 25.211637,68.614832 25.1611,68.552901 25.03405,68.600991 24.847781,68.639818 24.677248,68.657727 24.468383,68.70736 24.276893,68.739224 24.14612,68.767051 24.032549,68.7937 23.924045,68.793822 23.882225,68.744128 23.861103,68.699691 23.832805,68.658942 23.628195,68.625433 23.474968,68.605014 23.373037,68.57825 23.35075,68.628522 23.327116,68.656 23.150569,68.62355 22.891255,68.628045 22.608505,68.620292 22.452091,68.634938 22.398695,68.702965 22.287903,68.786919 22.1969,68.876326 22.069091,68.967448 21.950673,69.038431 21.796068,69.114266 21.585041,69.189329 21.449233,69.248677 21.323955,69.279586 21.163958,69.297204 21.068826,69.263553 21.028346,69.200179 21.017924,69.154379 21.087136,69.081954 21.105664,69.017992 21.03126,68.991733 20.871589,69.00907 20.721588,69.038501 20.609528,69.074719 20.580929,69.060303" />
  
</g>
</svg>
