<?xml version="1.0" encoding="UTF-8" standalone="no"?>
<svg
   xmlns:svg="http://www.w3.org/2000/svg"
   xmlns="http://www.w3.org/2000/svg"
   width="360" height="180" viewBox="0 0 360 180" >
<g transform="translate(180,90) scale(1,-1)" style="fill:none;stroke:#ff00ff;stroke-width:0.01">

  <polyline points="-8.290895,70.974152 -8.394470,70.959137 -8.409182,70.960251 -8.419495,70.964981 -8.431946,70.967743 -8.460327,70.970520 -8.494753,70.969147 -8.565615,70.964142 -8.620302,70.959137 -8.631716,70.955536 -8.937500,70.840271 -8.948915,70.831360 -8.954773,70.821640 -8.988892,70.811081 -9.005615,70.808014 -9.043091,70.803864 -9.058899,70.803864 -9.071411,70.806641 -9.076416,70.808853 -9.120058,70.857758 -9.119753,70.863022 -9.113892,70.867462 -9.105591,70.871628 -8.934448,70.922745 -8.920595,70.926071 -8.887512,70.931931 -8.763674,70.950531 -8.581423,70.991638 -8.510866,71.013321 -8.498903,71.022217 -8.452271,71.058014 -8.442507,71.072495 -8.433657,71.081650 -8.381958,71.120804 -8.355837,71.133026 -8.344482,71.136658 -8.326416,71.140549 -8.128906,71.170807 -8.109194,71.173294 -7.997253,71.180817 -7.983644,71.178864 -7.971131,71.176071 -7.959778,71.172470 -7.949769,71.167740 -7.931946,71.156937 -7.927003,71.150818 -7.927552,71.145523 -7.981690,71.047745 -7.985047,71.042740 -7.990845,71.038315 -8.008362,71.030258 -8.118652,71.003586 -8.290895,70.974152" />

  <polyline points="19.181938,74.359711 19.069164,74.343048 19.036110,74.359711 18.966385,74.381927 18.898884,74.411652 18.854164,74.433319 18.790276,74.476089 18.791943,74.481659 18.825554,74.499420 18.837219,74.503326 18.853329,74.505829 18.927773,74.512497 19.127495,74.523605 19.148052,74.523315 19.162495,74.520264 19.281940,74.483597 19.299721,74.474991 19.299999,74.468597 19.283054,74.440811 19.234161,74.394440 19.191105,74.364426 19.181938,74.359711" />

  <polyline points="25.016109,76.466385 24.991104,76.435257 24.968052,76.436371 24.953049,76.439697 24.941383,76.443863 24.936382,76.448868 24.941940,76.455551 24.949718,76.461655 25.065273,76.530548 25.140553,76.556641 25.191105,76.573883 25.281940,76.603592 25.307499,76.612198 25.328053,76.622482 25.396107,76.659988 25.410088,76.673965 25.413883,76.684143 25.447495,76.698868 25.460274,76.703323 25.495274,76.708603 25.537498,76.711655 25.563332,76.709717 25.582218,76.706650 25.577496,76.697754 25.424717,76.629150 25.315830,76.596939 25.224995,76.567490 25.037220,76.484985 25.029442,76.478867 25.016109,76.466385" />

  <polyline points="23.285553,77.264709 23.229717,77.248596 23.214161,77.244141 23.178608,77.238586 23.158329,77.236374 23.135273,77.235260 23.107220,77.235535 23.079998,77.236923 23.063610,77.240540 23.044720,77.249420 23.038609,77.254440 23.036385,77.259995 23.046387,77.265274 23.069164,77.266663 23.097496,77.266388 23.124165,77.264160 23.149719,77.264435 23.216106,77.269150 23.236660,77.271378 23.272221,77.276932 23.293331,77.275543 23.295551,77.269989 23.285553,77.264709" />

  <polyline points="23.336109,78.197479 23.459717,78.155823 23.374439,78.107208 23.360828,78.102768 23.338886,78.100815 23.216106,78.094437 23.185829,78.094711 23.131386,78.093597 23.112217,78.090820 23.098885,78.086380 23.090832,78.080276 23.056385,78.052200 23.051388,78.045532 23.057220,78.021652 23.059719,78.016098 23.074997,78.001099 23.084995,77.996368 23.112774,77.988586 23.165272,77.978592 23.281387,77.960266 23.344997,77.951935 23.387218,77.946091 23.421940,77.939423 23.574440,77.891937 23.599998,77.877762 23.609718,77.873306 23.636662,77.865265 23.657497,77.862488 23.838886,77.849152 23.867218,77.847488 23.890274,77.847488 23.936108,77.850540 23.973606,77.856094 24.019444,77.867752 24.033054,77.872208 24.041386,77.878311 24.054718,77.882477 24.076385,77.884720 24.227772,77.890823 24.334995,77.884155 24.527775,77.853317 24.544720,77.849716 24.554165,77.845261 24.559719,77.840271 24.557774,77.833878 24.563332,77.828873 24.576385,77.824997 24.643887,77.811096 24.761665,77.786926 24.849442,77.770264 24.882774,77.763321 24.908607,77.755264 24.910275,77.749710 24.901939,77.743866 24.888050,77.739426 24.850273,77.733871 24.754444,77.729431 24.522499,77.715271 24.479717,77.711380 24.263611,77.683868 24.207771,77.675537 24.175827,77.668320 24.082497,77.637772 24.002777,77.603043 23.992218,77.597763 23.978607,77.584991 23.962772,77.564697 23.938606,77.538589 23.908886,77.508881 23.901108,77.503052 23.890553,77.497757 23.741940,77.451096 23.710827,77.443588 23.627220,77.434982 23.554718,77.423599 23.477219,77.405548 23.464439,77.401093 23.443886,77.390549 23.418327,77.381653 23.390274,77.373596 23.372219,77.370819 23.348885,77.369705 23.324165,77.370529 23.301662,77.378860 23.292221,77.383331 23.275555,77.386658 23.234993,77.392212 23.203884,77.393326 23.100830,77.383041 23.083054,77.380264 22.958050,77.351654 22.920273,77.338318 22.910275,77.333054 22.903049,77.327209 22.898331,77.320267 22.897217,77.314148 22.903049,77.309143 22.905552,77.303314 22.904442,77.297211 22.899719,77.290543 22.869442,77.283051 22.788609,77.266388 22.770832,77.263321 22.641106,77.253052 22.619995,77.254440 22.500000,77.261406 22.491383,77.259995 22.471107,77.258041 22.448330,77.256653 22.423607,77.257217 22.386662,77.287766 22.384163,77.293320 22.384995,77.304428 22.391106,77.308868 22.403606,77.313599 22.421108,77.316376 22.446941,77.316940 22.464718,77.319992 22.494717,77.327209 22.500000,77.331680 22.501942,77.333328 22.496105,77.362488 22.493328,77.368317 22.481106,77.378311 22.422497,77.405258 22.409996,77.415268 22.407497,77.420822 22.584442,77.475815 22.692493,77.493042 22.712494,77.503601 22.774719,77.542480 22.778332,77.547760 22.764999,77.551926 22.493050,77.568878 22.464996,77.570267 22.436108,77.570541 22.412773,77.569153 22.371109,77.564987 22.350552,77.562759 22.314442,77.556931 22.299164,77.553314 22.286663,77.548874 22.279442,77.542755 22.270554,77.529160 22.263332,77.523041 22.253609,77.517761 22.240829,77.513321 22.210552,77.506104 22.192493,77.503052 22.174717,77.500275 22.133606,77.495819 22.086941,77.493042 21.840553,77.483047 21.788609,77.481659 21.733051,77.484711 21.647774,77.486374 21.619164,77.486649 21.595829,77.485260 21.459438,77.475815 21.438885,77.473602 21.385830,77.464706 21.347218,77.458878 21.309441,77.453598 21.268608,77.449142 21.207497,77.442474 21.166664,77.438034 21.120552,77.434982 21.089165,77.435806 20.951939,77.440811 20.892773,77.443039 20.878883,77.446930 20.868885,77.451935 20.862217,77.456940 20.858887,77.462494 20.843887,77.541931 20.874165,77.561920 20.883331,77.567215 20.960827,77.585266 21.015831,77.585815 21.068054,77.587204 21.129162,77.592484 21.185272,77.600815 21.200272,77.604431 21.224716,77.613602 21.243607,77.624146 21.244160,77.630539 21.237774,77.641663 21.237495,77.663879 21.239994,77.696365 21.250553,77.720261 21.254719,77.726929 21.459160,77.829437 21.644997,77.912491 21.539719,77.945816 21.446106,77.955261 21.323608,77.972214 21.266388,77.987488 21.208885,78.002777 21.118885,78.025269 21.081665,78.030273 21.038052,78.035538 21.019997,78.038589 20.971939,78.048325 20.888607,78.071655 20.877495,78.076096 20.870274,78.081100 20.866940,78.086655 20.866940,78.093048 20.870831,78.099716 20.890274,78.110260 20.903049,78.114990 20.934162,78.122482 20.974163,78.127762 21.425274,78.183319 21.468605,78.187759 21.711662,78.202774 21.837498,78.209152 21.865273,78.209717 21.946106,78.208878 22.146664,78.199707 22.399162,78.192474 22.439995,78.197479 22.456104,78.201096 22.469440,78.205826 22.479996,78.211105 22.484718,78.217758 22.498329,78.222214 22.500000,78.222588 22.514442,78.225815 22.834995,78.250275 22.865551,78.250000 22.949440,78.248032 22.982773,78.246933 23.219162,78.222214 23.254997,78.215546 23.336109,78.197479" />

  <polyline points="21.501663,78.565536 21.533054,78.565262 21.571663,78.571381 21.601662,78.579437 21.614998,78.583878 21.664440,78.595261 21.689716,78.596649 21.721107,78.596375 21.755554,78.595535 21.782219,78.593597 21.804996,78.590820 21.888885,78.575546 22.028885,78.580826 22.118885,78.544434 22.226105,78.493591 22.239994,78.483322 22.242771,78.477768 22.233330,78.464157 22.225273,78.334152 22.227219,78.322220 22.231384,78.298599 22.235550,78.274994 22.264164,78.267212 22.271942,78.263611 22.163330,78.244431 22.138607,78.243042 22.025276,78.241364 21.995827,78.242752 21.980827,78.246094 21.925552,78.249710 21.895828,78.251099 21.778332,78.253601 21.723049,78.252487 21.628052,78.247208 21.423050,78.229156 21.272499,78.221100 21.142494,78.207764 21.090275,78.199417 21.020832,78.208038 21.018147,78.213043 21.009441,78.217484 20.987217,78.219986 20.957497,78.221375 20.870831,78.223602 20.843887,78.224152 20.787888,78.215759 20.774887,78.214424 20.763720,78.212593 20.744884,78.208099 20.743052,78.204765 20.743052,78.201088 20.710552,78.191360 20.697773,78.186646 20.671108,78.187485 20.634163,78.193863 20.626942,78.198868 20.705051,78.242981 20.745888,78.250320 20.753553,78.253151 20.755888,78.257149 20.779999,78.284424 20.757774,78.293320 20.738884,78.296371 20.671940,78.304153 20.540276,78.306366 20.480274,78.309143 20.469162,78.313599 20.471939,78.319153 20.523052,78.337204 20.535831,78.341660 20.622772,78.338318 20.650551,78.339157 20.669163,78.342209 20.682217,78.346649 20.678608,78.377197 20.663883,78.387207 20.539440,78.423309 20.509441,78.430817 20.346664,78.448029 20.251942,78.451660 20.225273,78.453598 20.153049,78.460541 20.140209,78.464630 20.124718,78.472214 20.142666,78.469604 20.171108,78.488586 20.287220,78.498322 20.598331,78.521927 20.778332,78.539429 20.922218,78.546936 20.974163,78.546646 21.030552,78.548035 21.055832,78.549423 21.088329,78.556931 21.101387,78.561371 21.111664,78.566666 21.126106,78.578873 21.117775,78.582489 21.102776,78.586380 21.103050,78.592484 21.123608,78.603043 21.166386,78.616089 21.182774,78.619705 21.208050,78.621094 21.301662,78.619431 21.329441,78.618866 21.424717,78.608871 21.443607,78.605820 21.458607,78.601929 21.469715,78.597488 21.476662,78.586105 21.476105,78.579987 21.479439,78.574432 21.501663,78.565536" />

  <polyline points="26.847496,78.707489 26.904163,78.697205 26.956383,78.699417 26.985271,78.699417 27.012775,78.698318 27.017498,78.693039 26.952496,78.651657 26.939438,78.646652 26.918884,78.643875 26.871941,78.640274 26.764164,78.636658 26.743607,78.634155 26.735828,78.623871 26.694996,78.657761 26.681664,78.661926 26.585831,78.678589 26.486382,78.695526 26.468884,78.699142 26.463608,78.704163 26.396385,78.770828 26.399719,78.777206 26.410275,78.789978 26.420273,78.795822 26.448605,78.805252 26.464161,78.809418 26.485271,78.812195 26.508888,78.813873 26.543610,78.812485 26.599998,78.808029 26.613609,78.803864 26.622772,78.799423 26.628052,78.794144 26.628883,78.788589 26.633884,78.783325 26.652496,78.774155 26.784164,78.721649 26.847496,78.707489" />

  <polyline points="11.271944,78.606934 11.267221,78.538040 11.413887,78.546936 11.438332,78.545258 11.453053,78.541092 11.464443,78.536652 11.469442,78.530273 11.470831,78.523605 11.475554,78.517212 11.491665,78.506653 11.584164,78.476379 11.628054,78.463608 11.684721,78.454437 11.762499,78.442749 11.821110,78.441086 11.880552,78.414154 11.874720,78.408600 11.872498,78.402206 11.895832,78.386108 12.007500,78.331940 12.099165,78.287766 12.161665,78.211929 12.166109,78.205826 12.163610,78.199707 12.147221,78.196091 12.120552,78.195816 12.078331,78.208038 12.064165,78.211929 12.023054,78.217209 11.944721,78.221375 11.924166,78.224152 11.889442,78.230820 11.875275,78.234711 11.864164,78.239426 11.822498,78.266098 11.814720,78.271378 11.851664,78.290817 11.853886,78.297211 11.846109,78.302475 11.835276,78.307205 11.820831,78.311371 11.613052,78.367203 11.528055,78.398880 11.343609,78.444702 11.322498,78.447205 11.294722,78.448318 11.236942,78.445816 11.191666,78.434418 11.164721,78.432755 11.122219,78.437759 11.107498,78.441925 11.073332,78.455826 11.064999,78.461380 10.995552,78.518326 10.949720,78.561920 10.944721,78.568054 10.941109,78.581665 10.936110,78.587769 10.922499,78.599426 10.900555,78.616379 10.892221,78.621643 10.863609,78.637207 10.727497,78.699142 10.661665,78.721100 10.649721,78.725815 10.545553,78.768600 10.536665,78.773880 10.526110,78.786102 10.487219,78.890274 10.488609,78.896378 10.509165,78.899429 10.537220,78.901093 10.565832,78.901382 10.594721,78.900269 10.825830,78.877472 10.863331,78.870819 10.893888,78.863037 10.909164,78.858871 10.994164,78.833878 11.006109,78.829163 11.152584,78.750000 11.170277,78.738586 11.183609,78.726929 11.118330,78.707214 11.154444,78.660812 11.266943,78.613037 11.271944,78.606934" />

  <polyline points="29.030552,78.916092 29.034721,78.911102 29.051388,78.901657 29.072773,78.898331 29.103050,78.896103 29.306107,78.896652 29.413609,78.899429 29.440273,78.900269 29.489162,78.903320 29.554718,78.910812 29.603329,78.913879 29.630276,78.914703 29.657772,78.913040 29.679161,78.909988 29.696106,78.906097 29.704163,78.901382 29.708050,78.896378 29.693607,78.891373 29.671661,78.888885 29.571941,78.883606 29.501389,78.878036 29.424438,78.864990 29.337776,78.847214 29.316109,78.844986 29.286663,78.844986 29.254997,78.845825 29.118053,78.858597 29.053886,78.868317 28.998604,78.878860 28.964161,78.886108 28.913052,78.897217 28.878609,78.904709 28.848331,78.906647 28.821663,78.906097 28.775555,78.901932 28.643051,78.887772 28.496384,78.888046 28.448051,78.884720 28.423885,78.882751 28.329163,78.866089 28.178051,78.839432 28.140274,78.832764 28.124165,78.828598 28.113331,78.822769 28.095551,78.811646 28.056385,78.824158 28.019718,78.867477 28.145275,78.911652 28.223049,78.914993 28.252499,78.915268 28.282776,78.913040 28.312218,78.913040 28.339718,78.914429 28.361385,78.916931 28.380550,78.920258 28.396942,78.924423 28.424717,78.934418 28.428883,78.940536 28.428883,78.951935 28.613052,78.959991 28.639996,78.960815 28.718327,78.958603 28.865551,78.952774 28.891663,78.949997 28.927773,78.943863 28.996662,78.929153 29.022221,78.920822 29.030552,78.916092" />

  <polyline points="30.209438,78.976379 30.201939,78.961105 30.181385,78.962204 30.127495,78.968872 30.110554,78.972488 30.098053,78.976654 30.082218,78.986099 30.070553,78.996094 30.066940,79.001099 30.086384,79.004440 30.247494,79.007217 30.272774,79.006653 30.310276,79.001663 30.332775,78.993866 30.336109,78.988876 30.332775,78.984146 30.310555,78.981659 30.253887,78.981094 30.229160,78.979706 30.209438,78.976379" />

  <polyline points="21.226105,79.037491 21.204716,79.026932 21.188049,79.023315 21.161663,79.021927 21.125828,79.022766 21.066387,79.026093 21.039997,79.024704 20.999439,79.018051 20.982494,79.014160 20.954994,79.016098 20.943050,79.020538 20.923607,79.029984 20.929996,79.034714 20.953327,79.036926 21.021664,79.036102 21.103886,79.039703 21.150829,79.044983 21.173328,79.045822 21.198883,79.045822 21.218605,79.042480 21.226105,79.037491" />

  <polyline points="20.833054,79.054153 20.723885,79.017761 20.707218,79.014160 20.497215,79.008331 20.417774,78.996094 20.371941,78.991653 20.342495,78.990814 20.290554,79.007767 20.262497,79.015823 20.238605,79.018326 20.206104,79.018326 20.138329,79.020538 20.058331,79.033051 20.046108,79.037491 20.049164,79.042755 20.097218,79.117752 20.117218,79.120819 20.140274,79.123032 20.199718,79.124695 20.496941,79.113876 20.705830,79.090820 20.725826,79.087494 20.741940,79.083878 20.789440,79.072495 20.829163,79.059708 20.833054,79.054153" />

  <polyline points="20.007500,79.242203 19.963051,79.221649 19.954716,79.226654 19.954441,79.233047 19.957771,79.246094 19.960827,79.251389 20.027775,79.312759 20.044720,79.316666 20.068329,79.318878 20.143608,79.320267 20.168884,79.319153 20.165550,79.313034 20.130829,79.297760 20.007500,79.242203" />

  <polyline points="20.109440,79.365814 20.171661,79.350266 20.179996,79.344986 20.180275,79.338882 20.166386,79.334427 20.142773,79.331940 20.059441,79.349426 20.034721,79.351929 19.893330,79.345825 19.842773,79.341934 19.795551,79.337204 19.768608,79.335541 19.738327,79.334717 19.701385,79.335541 19.676662,79.338043 19.659996,79.341660 19.651386,79.346649 19.628330,79.388321 19.682495,79.399155 19.729996,79.403870 19.763885,79.403870 19.806942,79.400543 20.030277,79.377762 20.075554,79.371918 20.109440,79.365814" />

  <polyline points="10.922775,79.651093 10.781666,79.650269 10.755833,79.659714 10.738331,79.679428 10.712219,79.713608 10.726387,79.717758 10.760555,79.718872 10.886665,79.722214 10.917776,79.721100 10.945276,79.719147 10.981941,79.711929 11.034998,79.700821 11.068888,79.675812 11.074442,79.669708 11.076109,79.662766 10.952776,79.652771 10.922775,79.651093" />

  <polyline points="11.000555,79.740265 11.013611,79.735535 11.003332,79.730820 10.973053,79.729156 10.925276,79.734146 10.863052,79.736374 10.824720,79.735809 10.755278,79.736649 10.668888,79.741364 10.644999,79.743866 10.639166,79.750000 10.651110,79.761108 10.661110,79.765823 10.693331,79.773880 10.756109,79.783325 10.783888,79.781662 10.867775,79.771927 10.901110,79.764160 11.000555,79.740265" />

  <polyline points="16.819164,79.872208 16.841942,79.869431 16.877220,79.869705 16.897495,79.873032 16.906940,79.878311 16.908886,79.885269 16.896107,79.896378 16.881664,79.900543 16.869164,79.911652 16.864719,79.924149 16.870552,79.930267 16.896664,79.939423 16.926662,79.948318 16.956661,79.956940 16.977219,79.960266 17.039165,79.956940 17.226940,79.940811 17.280552,79.936096 17.370831,79.924149 17.548607,79.893600 17.566940,79.889984 17.860275,79.805542 17.874165,79.801376 18.050274,79.744980 18.073608,79.735809 18.083332,79.730820 18.092773,79.725815 18.098331,79.720261 18.093052,79.706650 18.086941,79.700546 18.077221,79.695251 18.063885,79.690536 18.046665,79.685806 17.979439,79.670258 17.942219,79.663040 17.914719,79.661377 17.894440,79.658035 17.877773,79.654160 17.851387,79.644989 17.841663,79.639709 17.793888,79.612762 17.737774,79.561096 17.731384,79.543320 17.765553,79.543594 17.779999,79.487762 17.775276,79.421097 17.769444,79.414993 17.760277,79.409714 17.747215,79.404984 17.727493,79.401657 17.657772,79.394440 17.641663,79.390274 17.632217,79.384995 17.629997,79.378036 17.635551,79.372482 17.653049,79.368866 17.682217,79.367203 17.819717,79.387497 17.847775,79.393600 17.877220,79.401932 17.932217,79.419983 17.958050,79.429153 17.986382,79.445526 18.011387,79.462204 18.017498,79.468323 18.034996,79.514999 18.033607,79.521103 18.042221,79.534149 18.084442,79.575546 18.094162,79.580826 18.163330,79.612198 18.193607,79.620819 18.237774,79.626373 18.264999,79.628036 18.330551,79.629425 18.356941,79.628311 18.658886,79.559418 18.702774,79.547211 18.742493,79.534149 18.859718,79.450546 18.876942,79.314148 18.870552,79.308029 18.850830,79.297211 18.851387,79.248322 18.915829,79.169708 18.920551,79.164154 18.937218,79.160263 18.978607,79.154160 19.124439,79.145538 19.186661,79.145264 19.232773,79.149994 19.249161,79.153870 19.258888,79.159149 19.272221,79.171371 19.291943,79.182205 19.314999,79.184418 19.348053,79.184708 19.723606,79.151093 19.799164,79.127762 19.799721,79.121368 19.809998,79.099152 19.906662,79.013885 19.930828,79.011383 19.966663,79.010818 19.992771,79.012207 20.060555,79.010269 20.262497,78.989700 20.302219,78.983322 20.314163,78.978867 20.322220,78.973877 20.346107,78.964996 20.377773,78.957489 20.433331,78.947479 20.453049,78.944138 20.492771,78.938034 20.516388,78.935257 20.752777,78.915817 20.780277,78.913605 20.811943,78.912201 20.876385,78.912201 20.934719,78.913605 20.960827,78.915268 20.988327,78.913040 21.066666,78.900269 21.082218,78.896378 21.093887,78.892212 21.124718,78.884430 21.242771,78.872757 21.270275,78.870529 21.371941,78.867477 21.534721,78.842758 21.546108,78.838318 21.549164,78.767761 21.544720,78.760818 21.534164,78.755554 21.488884,78.735260 21.376663,78.687485 21.394440,78.665817 21.393887,78.659424 21.386383,78.653320 21.354996,78.653595 21.202496,78.668320 21.129162,78.641098 21.116108,78.636383 21.081387,78.637207 21.054443,78.639435 20.938049,78.655823 20.922771,78.659714 20.911385,78.664154 20.859440,78.676926 20.770832,78.688034 20.743885,78.689972 20.718327,78.688583 20.676662,78.683319 20.660275,78.679428 20.646942,78.674988 20.629997,78.663605 20.623051,78.657486 20.623051,78.651382 20.626663,78.645828 20.626663,78.639435 20.619717,78.633331 20.603607,78.629700 20.584442,78.626648 20.558609,78.624420 20.526943,78.624420 20.503887,78.626923 20.484718,78.630264 20.453884,78.637772 20.411663,78.643600 20.379997,78.643600 20.229160,78.643326 20.200829,78.642487 20.107773,78.638885 20.030830,78.619141 19.761387,78.618042 19.710827,78.614990 19.688606,78.612762 19.656940,78.604980 19.581108,78.577484 19.577774,78.570541 19.578331,78.564423 19.582497,78.558868 19.598606,78.548874 19.633884,78.535812 19.673328,78.516937 19.681385,78.512207 19.668884,78.507492 19.649998,78.504440 19.624996,78.502777 19.556385,78.504166 19.494160,78.503876 19.472218,78.501663 19.378609,78.486099 19.356941,78.483597 19.216938,78.471649 19.161106,78.469986 19.008888,78.460815 18.984161,78.459152 18.965549,78.456100 18.962772,78.449142 18.967216,78.443588 19.003887,78.424423 19.052776,78.394714 19.057220,78.389160 19.062496,78.377197 19.064999,78.358597 19.061943,78.351929 19.046944,78.340271 19.022499,78.331100 18.999439,78.259995 19.037777,78.198029 19.094997,78.102478 19.092220,78.095535 19.083054,78.090271 19.071110,78.085541 18.874165,78.035263 18.859440,78.031662 18.838329,78.029160 18.784721,78.027206 18.751663,78.027771 18.699718,78.031372 18.681107,78.034424 18.635551,78.045532 18.601387,78.052200 18.579163,78.054703 18.552498,78.055252 18.439995,78.029434 18.410828,78.021652 18.333885,77.898331 18.362774,77.877762 18.378883,77.867752 18.424164,77.856934 18.447216,77.848328 18.448330,77.841934 18.454163,77.776382 18.449162,77.762772 18.362495,77.635544 18.300274,77.519440 18.292774,77.506378 18.284721,77.501099 18.270554,77.497208 18.236660,77.490814 18.213882,77.488876 18.011387,77.491928 17.989994,77.494431 17.978607,77.498871 17.973885,77.504440 17.955830,77.507217 17.927494,77.508331 17.907497,77.506104 17.778885,77.490540 17.738327,77.471100 17.657219,77.420822 17.560829,77.346375 17.498329,77.243317 17.418606,77.176926 17.343330,77.064148 17.348053,77.058594 17.346386,77.051926 17.335831,77.047211 17.325829,77.043869 17.303886,77.042206 17.276665,77.043045 17.228329,77.046371 17.207497,77.048874 17.138050,77.054428 17.110554,77.054153 17.094440,77.050812 17.095829,77.044708 17.103886,77.039703 17.176384,77.021652 17.230827,77.006378 17.281940,76.990814 17.293053,76.986374 17.312218,76.977203 17.320274,76.972488 17.318607,76.965546 17.311108,76.959991 17.293331,76.949997 17.272774,76.940536 17.221382,76.917206 17.048332,76.851089 16.943607,76.815262 16.933605,76.810532 16.919163,76.799713 16.917774,76.792755 16.919441,76.786652 16.927219,76.781662 16.941662,76.778046 17.026943,76.769714 17.047218,76.766663 17.096107,76.756943 17.110275,76.753326 17.176384,76.727768 17.184162,76.723038 17.204441,76.707489 17.202774,76.700821 17.198330,76.694702 16.997215,76.595261 16.859161,76.574158 16.822498,76.569153 16.798607,76.567764 16.748051,76.566376 16.718605,76.566666 16.612774,76.570541 16.571941,76.574997 16.336662,76.653046 16.304718,76.693863 16.299721,76.699417 16.291664,76.704163 16.280552,76.708603 16.239162,76.713043 16.013611,76.744431 15.978609,76.750275 15.964165,76.753601 15.938332,76.761383 15.903887,76.774155 15.835276,76.799423 15.766388,76.824707 15.754999,76.828873 15.728609,76.836655 15.714165,76.839981 15.623053,76.860535 15.605276,76.863312 15.584164,76.865540 15.529999,76.867203 15.500555,76.874985 15.498053,76.879974 15.504999,76.885269 15.524166,76.894989 15.543331,76.904434 15.568609,76.912491 15.587219,76.914993 15.716108,76.926651 15.876387,76.943314 15.889166,76.947479 15.911665,76.956100 16.011665,76.971924 16.051941,76.976379 16.143330,76.975815 16.167496,76.974152 16.185272,76.971375 16.307220,76.971649 16.449162,76.979980 16.517220,76.984711 16.529999,76.988876 16.531109,76.994141 16.519718,76.998596 16.498604,77.000824 16.471382,77.001663 16.358608,77.003326 16.331108,77.003052 16.101387,77.018600 16.083332,77.021652 16.074997,77.026382 16.064442,77.037491 16.065552,77.044434 16.056942,77.069153 16.040276,77.078873 16.015831,77.080551 15.994164,77.079987 15.875553,77.067215 15.859720,77.063873 15.853052,77.059708 15.849165,77.053589 15.865274,77.036926 15.882219,77.027206 15.827776,77.010269 15.762777,77.004715 15.597498,77.001663 15.401943,77.001389 15.374441,77.002213 15.350275,77.003601 15.250555,77.015823 15.232498,77.018600 15.131664,77.056931 15.052221,77.099152 15.035831,77.125259 14.739719,77.176376 14.718330,77.178589 14.665833,77.180817 14.578886,77.179703 14.532499,77.176376 14.494997,77.170822 14.467220,77.171646 14.387220,77.188309 14.374998,77.192200 14.308054,77.237762 14.143888,77.296371 14.137499,77.301651 14.134722,77.318878 14.141109,77.331375 14.116108,77.356094 14.069164,77.373306 13.981110,77.402206 13.920832,77.497482 13.914165,77.522217 13.914165,77.527771 14.057499,77.558594 14.114998,77.566940 14.159721,77.571106 14.181942,77.573044 14.325830,77.583328 14.354719,77.583878 14.479164,77.578873 14.504444,77.577484 14.536110,77.570541 14.545553,77.565811 14.585831,77.540268 14.591942,77.534714 14.594721,77.528595 14.591387,77.522217 14.581665,77.517487 14.555832,77.509430 14.539721,77.505829 14.526943,77.501938 14.529720,77.495529 14.539165,77.490814 14.558054,77.488037 14.589720,77.488037 14.713331,77.488312 14.732498,77.491089 14.752222,77.500549 14.758888,77.506104 14.762499,77.512207 14.876211,77.546341 14.939999,77.553040 15.077497,77.555817 15.111942,77.549423 15.152777,77.544434 15.200275,77.540817 15.415276,77.527481 15.440554,77.526093 15.498053,77.527206 15.574720,77.530823 15.626108,77.533325 15.651665,77.534424 15.680277,77.534988 15.740553,77.533875 15.791109,77.530823 15.834997,77.526382 15.872498,77.520538 15.932386,77.502213 15.992887,77.486542 16.009220,77.481873 16.016554,77.479370 16.026888,77.473541 16.033386,77.466873 16.080276,77.449707 16.110554,77.442749 16.132217,77.439697 16.194717,77.434418 16.223049,77.434982 16.307499,77.464996 16.305553,77.471375 16.293610,77.475540 16.253330,77.480820 16.203049,77.483871 16.083496,77.506142 16.072330,77.507980 16.053997,77.512161 15.994164,77.531982 15.988830,77.534981 15.922775,77.560257 15.913887,77.564987 15.771944,77.576385 15.613052,77.582764 15.235554,77.609985 15.216665,77.613037 15.194443,77.615265 15.140276,77.617477 15.114719,77.617477 14.989719,77.616089 14.912777,77.614700 14.883888,77.615540 14.738886,77.653046 14.739164,77.658600 14.752222,77.662766 14.865831,77.679703 14.888611,77.681656 15.105553,77.696640 15.203609,77.709991 15.428610,77.729980 15.451387,77.731934 15.643888,77.745529 15.753887,77.746094 15.779999,77.747208 16.005276,77.758881 16.221382,77.770828 16.687775,77.796936 16.800552,77.806931 16.900272,77.871918 16.992218,77.901093 17.006107,77.931366 16.980274,77.933044 16.953884,77.931931 16.883331,77.926376 16.842773,77.921371 16.739994,77.901657 16.725826,77.897766 16.714996,77.893051 16.710552,77.886932 16.708885,77.879974 16.710827,77.873871 16.706104,77.867752 16.695274,77.863037 16.664719,77.857208 16.444160,77.848877 16.414719,77.848328 16.291107,77.850815 16.150272,77.848602 15.981665,77.835266 15.918888,77.829437 15.869719,77.827774 15.840553,77.828598 15.814720,77.830276 15.769720,77.835266 15.728054,77.840271 15.708887,77.843323 15.661665,77.854431 15.649166,77.858871 15.636665,77.863602 15.618330,77.873306 15.395277,77.866379 15.348886,77.862488 15.332220,77.859146 15.234720,77.831375 15.174166,77.809708 15.133888,77.797485 15.094442,77.792206 15.048609,77.788040 14.876387,77.783875 14.735830,77.767212 14.713053,77.765274 14.608887,77.758606 14.453331,77.750549 14.424166,77.751389 14.239998,77.764709 14.233608,77.769989 14.223886,77.774994 14.204443,77.777771 14.149166,77.775543 14.110275,77.770264 14.094164,77.766663 14.055277,77.754440 14.042221,77.743317 14.032499,77.738586 14.019444,77.734421 13.961388,77.719437 13.941942,77.716660 13.761110,77.727478 13.751389,77.732208 13.724998,77.754166 13.721664,77.760544 13.734442,77.764435 13.766666,77.771378 13.805277,77.783875 13.814999,77.788589 13.818331,77.794983 13.818054,77.801651 13.814720,77.807755 13.808332,77.813309 13.798332,77.818329 13.772221,77.826385 13.755833,77.829712 13.736109,77.832489 13.713331,77.834717 13.676664,77.864151 13.628330,77.950546 13.588886,78.049423 13.595552,78.054977 13.611942,78.058319 13.876942,78.092758 13.940275,78.092209 13.966942,78.090820 13.986942,78.088043 14.036665,78.077774 14.096386,78.062759 14.109720,78.058594 14.234720,78.008881 14.244720,78.004166 14.257500,77.993317 14.257500,77.986374 14.283333,77.964432 14.306387,77.962204 14.332499,77.960815 14.355831,77.962769 14.365831,77.967758 14.365831,77.974701 14.347219,78.015823 14.340832,78.021378 14.331110,78.026093 14.268610,78.046097 14.232498,78.066086 14.219442,78.076935 14.216108,78.083328 14.219719,78.089432 14.233053,78.093597 14.249720,78.096939 14.276388,78.098328 14.309721,78.098328 14.339720,78.097488 14.386110,78.093323 14.406109,78.090546 14.472498,78.090546 14.552498,78.094437 14.622774,78.101089 14.643055,78.103867 14.736664,78.111923 14.763332,78.113037 14.796665,78.113037 14.823332,78.111649 14.909164,78.101654 14.965832,78.100815 14.989164,78.102768 15.009443,78.105545 15.023054,78.109711 15.033609,78.114426 15.056665,78.148605 15.221943,78.197479 15.263611,78.209717 15.294443,78.216934 15.332220,78.223038 15.438053,78.235535 15.461664,78.237488 15.492220,78.238037 15.518888,78.236649 15.542221,78.234421 15.581942,78.228592 15.598331,78.224991 15.637777,78.219437 15.661110,78.217209 15.694721,78.216934 15.718609,78.218872 15.735830,78.222214 15.736942,78.229156 15.727497,78.233871 15.629164,78.254990 15.600830,78.269714 15.593054,78.286926 15.593887,78.293869 15.601387,78.299149 15.765833,78.335266 15.793331,78.336655 15.994997,78.344147 16.102497,78.356369 16.133053,78.355545 16.239437,78.342484 16.266388,78.340820 16.475552,78.333603 16.536385,78.331665 16.719162,78.328598 16.770554,78.330276 16.818886,78.333878 16.881939,78.341660 17.045551,78.370255 17.081387,78.376648 17.293610,78.416382 17.301662,78.420258 17.292774,78.425262 17.267776,78.433868 17.244438,78.436096 17.216938,78.436371 17.192493,78.434708 16.926105,78.396942 16.917774,78.391373 16.878883,78.385544 16.851387,78.384430 16.824440,78.386108 16.606663,78.405258 16.590553,78.408875 16.584164,78.427475 16.573051,78.438583 16.552776,78.440262 16.524998,78.439148 16.500553,78.437195 16.437496,78.429428 16.406662,78.430542 16.331665,78.449707 16.328884,78.452209 16.464161,78.525543 16.542221,78.566086 16.691383,78.612762 16.802219,78.639160 16.820553,78.642487 16.828884,78.648041 16.838886,78.660263 16.836941,78.666382 16.831108,78.671921 16.810829,78.674988 16.786663,78.675812 16.721939,78.668045 16.665272,78.665817 16.634163,78.666931 16.617496,78.670532 16.615273,78.676651 16.620274,78.682755 16.618053,78.688873 16.571110,78.713318 16.550552,78.716385 16.522221,78.715271 16.504166,78.711929 16.492493,78.707214 16.476105,78.696365 16.471382,78.690262 16.469994,78.683319 16.460274,78.671097 16.328609,78.573318 16.320831,78.567764 16.309441,78.563034 16.279999,78.554977 16.262218,78.551651 16.154716,78.531937 16.104443,78.521378 16.072126,78.507858 16.058887,78.498322 16.054443,78.492203 16.046665,78.486649 16.032219,78.482758 16.014442,78.479431 15.993330,78.476929 15.965553,78.475540 15.903610,78.474701 15.747776,78.466660 15.723331,78.464706 15.705832,78.461380 15.691387,78.457214 15.646111,78.452774 15.587776,78.451096 15.481386,78.450821 15.464165,78.451660 15.427458,78.458176 15.363886,78.472763 15.350554,78.476929 15.298054,78.500549 15.193331,78.588043 15.204443,78.593048 15.229998,78.604431 15.240831,78.609146 15.341665,78.609421 15.394165,78.612762 15.411943,78.616089 15.444998,78.630264 15.452776,78.635818 15.500555,78.710266 15.501389,78.717209 15.484720,78.805252 15.481941,78.811371 15.401110,78.843323 15.379997,78.844711 15.361664,78.841370 15.317776,78.829163 15.295553,78.819717 15.219719,78.771927 15.198053,78.734421 15.197498,78.728867 15.219997,78.675262 15.034998,78.601089 15.020832,78.596939 14.992775,78.595825 14.965275,78.597214 14.944721,78.599991 14.910555,78.606934 14.893332,78.610535 14.862497,78.618042 14.848886,78.622208 14.804998,78.641663 14.805553,78.648605 14.816387,78.653320 14.830553,78.657211 14.841387,78.662201 14.845276,78.668320 14.846386,78.681931 14.837219,78.700546 14.818054,78.728043 14.814720,78.730820 14.698608,78.726379 14.677498,78.723602 14.616941,78.708038 14.531666,78.682755 14.526943,78.656097 14.532499,78.621643 14.540833,78.578323 14.455832,78.531937 14.385555,78.497757 14.392221,78.485260 14.398888,78.479706 14.408888,78.474991 14.422499,78.470825 14.443054,78.468048 14.490831,78.463882 14.545832,78.461105 14.569719,78.458878 14.610554,78.453323 14.661388,78.443039 14.674721,78.438873 14.717497,78.406372 14.729998,78.388596 14.726387,78.383881 14.688332,78.377762 14.637220,78.374420 14.606386,78.373596 14.579165,78.373871 14.453331,78.378036 14.364998,78.386383 14.295553,78.338593 14.302221,78.333054 14.325275,78.306091 14.192776,78.273315 14.111387,78.255554 14.098053,78.281097 14.091387,78.284988 14.071110,78.286377 13.989998,78.285812 13.753611,78.265823 13.743608,78.260818 13.757500,78.250000 13.784443,78.241653 13.814999,78.234146 13.831942,78.230820 13.852221,78.221375 13.858887,78.215820 13.855553,78.209427 13.822220,78.202774 13.798609,78.200546 13.718330,78.196365 13.627775,78.194138 13.573887,78.196930 13.392221,78.207489 13.236942,78.216934 13.183054,78.219437 13.149443,78.219437 13.122498,78.217758 13.079165,78.213043 13.069443,78.208038 13.063332,78.202484 13.050276,78.198318 13.030277,78.195526 13.006666,78.197479 12.979164,78.205826 12.947498,78.219986 12.919443,78.234985 12.911943,78.240540 12.914999,78.246643 12.944443,78.254990 12.954165,78.259995 12.956942,78.266098 12.948332,78.288040 12.944443,78.294144 12.878330,78.348877 12.871109,78.354431 12.833054,78.360260 12.802498,78.360809 12.744720,78.358597 12.717497,78.359985 12.699999,78.363312 12.612219,78.385544 12.584164,78.393600 12.371386,78.475540 12.360554,78.480270 12.377220,78.483871 12.397499,78.486649 12.540276,78.499710 12.571110,78.500549 12.716387,78.495819 12.750832,78.496094 12.901943,78.498032 12.929443,78.499420 13.093609,78.514999 13.113886,78.517761 13.144444,78.525543 13.188610,78.537201 13.198608,78.540817 13.181110,78.544144 13.156666,78.546097 13.097776,78.548035 13.053331,78.543045 13.036386,78.539703 12.974998,78.530548 12.868608,78.523880 12.841108,78.522491 12.809998,78.523041 12.663887,78.533325 12.483053,78.543594 12.378885,78.546936 12.153053,78.597214 12.043331,78.609711 12.000832,78.614700 11.979443,78.617477 11.925554,78.627197 11.910831,78.631363 11.650276,78.730270 11.646111,78.733597 11.641666,78.738586 11.641109,78.741364 11.664721,78.763321 11.707775,78.795258 11.726942,78.804977 11.740274,78.809143 11.791388,78.819992 11.819443,78.821655 11.844442,78.819717 11.859442,78.815536 11.896111,78.809143 11.916666,78.811920 11.929998,78.816086 11.936110,78.821655 11.931665,78.827774 11.919998,78.832489 11.875275,78.844711 11.838610,78.851089 11.816666,78.853867 11.791388,78.855820 11.734163,78.858032 11.687220,78.862488 11.646666,78.868317 11.609720,78.874985 11.576109,78.882202 11.433054,78.916656 11.417776,78.920822 11.343609,78.948318 11.333332,78.960541 11.335554,78.966660 11.413054,78.972763 11.469719,78.976089 11.537777,78.977478 11.602497,78.976379 11.675831,78.969437 11.829998,78.951385 11.860275,78.943314 11.984997,78.926376 12.229164,78.895538 12.251110,78.893051 12.279720,78.891937 12.304443,78.892487 12.470831,78.901093 12.495552,78.903320 12.505554,78.908035 12.500832,78.918320 12.444164,78.992203 12.429165,78.996094 12.403887,78.998032 12.367775,78.998032 12.303331,78.996368 12.274721,78.994705 12.222498,78.984146 12.117220,78.969711 12.092497,78.967484 12.063887,78.967484 12.041943,78.969986 12.023333,78.973312 11.986109,78.979980 11.981665,78.986099 11.898054,79.028870 11.845552,79.039429 11.781111,79.054703 11.755278,79.075821 11.801943,79.113876 11.900331,79.171753 11.906332,79.174591 11.950554,79.196640 11.985830,79.203598 12.014721,79.205261 12.051388,79.205551 12.073608,79.225540 12.101664,79.253876 12.117496,79.290817 12.113052,79.295822 12.101109,79.300537 12.085554,79.304428 12.070831,79.304428 11.985275,79.286102 11.918887,79.243713 11.917387,79.240036 11.909054,79.237541 11.868330,79.224152 11.834997,79.224701 11.788610,79.236649 11.721386,79.277481 11.716387,79.283600 11.705276,79.301376 11.705276,79.318329 11.686110,79.321655 11.663887,79.321655 11.638611,79.319443 11.600830,79.306091 11.555277,79.278320 11.635832,79.245819 11.707499,79.203049 11.715832,79.197754 11.720831,79.191650 11.723608,79.178040 11.714998,79.166092 11.704998,79.161377 11.687498,79.157761 11.652498,79.150543 11.413332,79.113037 11.236385,79.093048 11.188887,79.123306 11.166943,79.195251 11.146666,79.231659 11.141388,79.237762 11.023333,79.293045 10.910276,79.327484 10.897778,79.332214 10.876387,79.342209 10.858332,79.353043 10.843887,79.364700 10.853886,79.407211 10.863609,79.412201 10.881109,79.415817 10.902777,79.418869 10.916388,79.436920 10.918331,79.443039 10.910831,79.456100 10.896387,79.467484 10.878054,79.478317 10.840275,79.492477 10.823887,79.496368 10.804165,79.499420 10.734163,79.506943 10.714165,79.510269 10.697777,79.514160 10.680832,79.532761 10.676943,79.544983 10.678886,79.551086 10.692776,79.555542 10.744442,79.559982 10.782221,79.560532 10.918888,79.559143 11.025831,79.555817 11.114164,79.551926 11.144444,79.552200 11.180277,79.559418 11.120831,79.569153 11.023333,79.578598 10.969164,79.582214 10.911388,79.584991 10.888054,79.587494 10.868053,79.590820 10.851664,79.594711 10.853886,79.599716 10.863886,79.604431 10.963886,79.640549 10.986109,79.643326 11.016109,79.644989 11.050554,79.644714 11.104998,79.641098 11.128609,79.638596 11.366108,79.634995 11.380831,79.652206 11.261944,79.684143 11.236385,79.693588 11.205553,79.709152 11.199720,79.716095 11.192497,79.772217 11.198887,79.777771 11.229164,79.779434 11.341108,79.781097 11.375830,79.780548 11.396111,79.777206 11.445276,79.765274 11.472498,79.764999 11.506943,79.765823 11.533609,79.768051 11.548054,79.772217 11.554443,79.777771 11.556942,79.783875 11.551664,79.790268 11.569719,79.812195 11.673887,79.832214 11.696386,79.834991 11.788610,79.839706 11.819719,79.839981 11.839998,79.836655 11.848886,79.831375 11.938887,79.768875 12.046110,79.690536 12.050831,79.685806 12.106386,79.674988 12.149443,79.669144 12.276943,79.662201 12.311388,79.661926 12.341665,79.663315 12.357220,79.687485 12.356108,79.694138 12.345276,79.713318 12.311110,79.735260 12.298887,79.739975 12.278887,79.743317 12.224442,79.747208 12.204720,79.750549 12.164444,79.782486 12.160831,79.803040 12.163610,79.809143 12.201942,79.833328 12.224720,79.836105 12.329720,79.836105 12.384722,79.832214 12.404720,79.828873 12.436943,79.820831 12.465275,79.812195 12.489998,79.802475 12.543888,79.777481 12.544722,79.771927 12.537777,79.766388 12.596943,79.756378 12.787777,79.773605 12.837498,79.778595 12.875275,79.785538 12.890276,79.789703 12.912498,79.799423 12.957775,79.811920 13.014721,79.822220 13.350554,79.849991 13.377775,79.851929 13.412777,79.852768 13.525555,79.852203 13.560555,79.853043 13.641943,79.859146 13.735275,79.870255 13.789721,79.874420 13.824720,79.875259 13.848053,79.872482 13.867775,79.868866 13.883333,79.864990 13.910555,79.856094 13.949720,79.835541 13.957499,79.829987 13.961388,79.823883 13.969164,79.773041 13.965553,79.766937 13.911665,79.735260 13.900276,79.730545 13.884722,79.726379 13.823608,79.716934 13.731665,79.705826 13.628330,79.696640 13.589998,79.696640 13.318054,79.694138 13.046387,79.690262 13.015833,79.688583 12.867496,79.643051 12.701387,79.597763 12.682775,79.594147 12.638054,79.588593 12.611664,79.586380 12.577776,79.585541 12.523888,79.589432 12.493330,79.590820 12.471109,79.587769 12.464165,79.582214 12.450830,79.571381 12.447777,79.566376 12.514166,79.551086 12.537220,79.548325 12.567776,79.547211 12.605553,79.547211 12.631664,79.549423 12.791943,79.568604 12.998608,79.586380 13.028887,79.588043 13.275000,79.597488 13.331942,79.594147 13.465275,79.584152 13.484442,79.580826 13.492775,79.568329 13.485275,79.562759 13.430277,79.531937 13.419165,79.527206 13.370831,79.514709 13.344721,79.512497 13.288054,79.515823 13.265276,79.514435 13.256666,79.478043 13.257221,79.471375 13.272499,79.467209 13.420277,79.439423 13.439165,79.436096 13.472775,79.435257 13.487497,79.439423 13.487219,79.446365 13.483053,79.452484 13.475275,79.458038 13.452497,79.467484 13.436943,79.478592 13.447777,79.483322 13.474165,79.485535 13.571665,79.486923 13.594442,79.484146 13.768332,79.433044 13.873608,79.391937 13.914721,79.358322 13.914721,79.351379 13.903887,79.319153 13.889166,79.302765 13.889442,79.295822 13.893055,79.289703 13.908054,79.278595 14.018610,79.264999 14.058887,79.260269 14.073887,79.264160 14.084721,79.269150 14.099720,79.279984 14.151943,79.332214 14.155832,79.338318 14.026388,79.446091 14.011389,79.456940 13.966387,79.469437 13.954998,79.474152 13.936386,79.484421 13.928610,79.489975 13.883053,79.535263 13.886944,79.541367 13.924442,79.561920 13.935831,79.566666 13.977497,79.579712 14.007776,79.588043 14.072220,79.603867 14.110275,79.610535 14.136944,79.609985 14.400000,79.730270 14.439442,79.750824 14.466942,79.766663 14.514999,79.799423 14.530554,79.804153 14.557775,79.806091 14.584997,79.804153 14.769165,79.781937 14.845276,79.768051 14.860275,79.763885 15.013332,79.709152 15.027498,79.698029 15.037220,79.679703 15.059164,79.669983 15.132774,79.642212 15.199442,79.624985 15.255278,79.614426 15.269999,79.610260 15.291666,79.600540 15.290833,79.593597 15.290833,79.561371 15.298054,79.529160 15.301109,79.523041 15.440533,79.378021 15.483053,79.339157 15.489719,79.333603 15.510832,79.323883 15.651388,79.273880 15.767498,79.240265 15.777777,79.235260 15.790833,79.224152 15.786110,79.218048 15.777777,79.212769 15.729719,79.186920 15.714443,79.110809 15.771387,79.148880 15.783054,79.153595 15.813332,79.161652 15.842775,79.162766 15.868053,79.160812 15.889442,79.157761 15.917221,79.149429 15.974998,79.126373 16.092495,79.074158 16.132217,79.053864 16.136940,79.041656 16.132217,79.035538 16.126106,79.022491 16.124996,79.015549 16.132217,78.996933 16.148052,78.986649 16.320831,78.918045 16.334442,78.913879 16.351387,78.910263 16.393051,78.904434 16.421383,78.902771 16.449997,78.903870 16.495548,78.915817 16.496941,78.922760 16.492771,78.935257 16.462215,78.960266 16.448883,78.964432 16.406940,78.970261 16.393608,78.974426 16.374165,78.984146 16.321110,79.040817 16.291107,79.088593 16.281109,79.093323 16.257500,79.101089 16.239994,79.104706 16.229996,79.109421 16.195274,79.136658 16.176662,79.153320 16.150829,79.188309 16.154716,79.208878 16.153606,79.221924 16.151108,79.228043 16.144997,79.233871 16.138607,79.239151 16.122219,79.249710 16.081940,79.269150 16.023331,79.292206 16.009441,79.296371 15.973886,79.324707 15.940275,79.385269 15.892498,79.496643 15.874165,79.564148 15.801109,79.624985 15.787777,79.635818 15.738886,79.664429 15.696665,79.686371 15.686943,79.698318 15.647499,79.764999 15.638054,79.827209 15.644165,79.840271 15.652777,79.845825 15.678610,79.862198 15.691109,79.866928 15.707220,79.870819 15.731110,79.873596 15.797777,79.875259 15.836664,79.874985 15.867775,79.873306 16.006107,79.863037 16.071941,79.860535 16.110828,79.860260 16.130829,79.863602 16.139717,79.869141 16.133053,79.874695 16.122498,79.879425 16.096943,79.888596 16.040554,79.899155 15.995831,79.911652 15.952776,79.931366 15.949999,79.937485 15.975554,79.968048 16.022774,80.008881 16.048332,80.018326 16.064999,80.022491 16.279442,80.060806 16.307774,80.062759 16.334995,80.060532 16.521664,80.044144 16.540554,80.040543 16.555275,80.036377 16.566109,80.031372 16.564163,80.024429 16.569164,80.012207 16.725826,79.903320 16.790276,79.880814 16.819164,79.872208" />

  <polyline points="36.849159,80.139984 36.769157,80.139709 36.696114,80.141693 36.604713,80.149719 36.590546,80.154984 36.609161,80.159988 36.639717,80.162491 36.719711,80.162766 36.760277,80.160812 36.834160,80.149155 36.853325,80.144714 36.849159,80.139984" />

  <polyline points="27.837776,80.110260 27.771942,80.110260 27.733051,80.111649 27.699162,80.113876 27.679440,80.117477 27.674164,80.122757 27.701107,80.153870 27.719162,80.158035 27.800831,80.172485 27.821941,80.175812 27.878178,80.166061 27.986382,80.157761 28.059719,80.148331 28.074440,80.144150 28.066940,80.138885 28.045830,80.135544 27.982216,80.125534 27.837776,80.110260" />

  <polyline points="32.366386,80.094437 32.315269,80.089432 32.287498,80.088043 32.216934,80.090546 32.151382,80.091370 32.091103,80.090271 31.739716,80.080551 31.684719,80.077774 31.582497,80.069443 31.554718,80.070267 31.449440,80.085815 31.476662,80.105820 31.493607,80.110809 31.791943,80.128036 32.121658,80.145264 32.330826,80.160538 32.591103,80.179977 32.751106,80.190536 32.893326,80.196365 33.030823,80.214432 33.261108,80.240265 33.286659,80.242477 33.317215,80.243042 33.386383,80.241089 33.424438,80.238876 33.523880,80.231094 33.602219,80.221375 33.624992,80.217758 33.637497,80.213318 33.624435,80.206940 33.603607,80.203049 33.580551,80.199997 33.508888,80.191925 33.274437,80.174423 32.939430,80.148041 32.896385,80.141373 32.825554,80.133041 32.695824,80.122208 32.529434,80.114151 32.504166,80.112198 32.479156,80.109985 32.366386,80.094437" />

  <polyline points="18.553329,80.245529 18.456661,80.238037 18.389439,80.259995 18.370831,80.263885 18.347775,80.266937 18.274166,80.275269 18.246662,80.277771 18.214996,80.279434 18.138329,80.281097 18.119442,80.284714 18.141663,80.308319 18.219162,80.337769 18.301941,80.358597 18.320274,80.362488 18.352219,80.360809 18.379719,80.358322 18.588051,80.338593 18.606663,80.334991 18.748882,80.306931 18.758610,80.301926 18.632774,80.259720 18.604164,80.250549 18.553329,80.245529" />

  <polyline points="24.335831,80.384155 24.308887,80.382202 24.197773,80.383331 24.161942,80.384995 24.135830,80.387772 24.128609,80.393051 24.130829,80.399155 24.162216,80.437195 24.169163,80.443863 24.179718,80.449707 24.196941,80.454163 24.232773,80.452484 24.254444,80.449142 24.381107,80.395264 24.383331,80.389709 24.335831,80.384155" />

  <polyline points="19.933331,80.477478 20.007500,80.469437 20.030552,80.466095 20.039719,80.461105 20.100552,80.405823 20.169994,80.410812 20.188885,80.414429 20.211384,80.417480 20.237774,80.419708 20.329441,80.421097 20.365829,80.419708 20.415829,80.413879 20.429718,80.409424 20.434162,80.403870 20.429790,80.390686 20.434441,80.385269 20.527775,80.320831 20.572498,80.302200 20.608330,80.294434 20.622772,80.291656 20.647774,80.292480 20.666664,80.296097 20.682217,80.300812 20.727219,80.306931 20.779442,80.311371 20.812775,80.311920 20.834995,80.308868 20.841106,80.305817 20.829441,80.300537 20.783333,80.286926 20.748051,80.271103 20.743328,80.264435 20.804718,80.223312 20.813610,80.218323 20.826664,80.213882 20.853329,80.211105 20.881939,80.211380 20.943329,80.212204 21.095829,80.215271 21.125275,80.216660 21.300552,80.239975 21.483330,80.266388 21.697216,80.273605 21.802776,80.272491 21.838329,80.271103 21.860554,80.267761 21.868607,80.262772 21.872498,80.257217 21.879997,80.246094 21.898331,80.217758 21.892220,80.204987 21.876385,80.200546 21.761108,80.177475 21.729717,80.168594 21.686661,80.154160 21.658886,80.144440 21.619164,80.129425 21.607220,80.124146 21.598606,80.118317 21.606941,80.113312 21.637497,80.111099 21.666939,80.112488 21.727219,80.138885 21.746105,80.142487 21.798054,80.146942 21.829720,80.146103 21.856106,80.143600 22.054165,80.108597 22.128052,80.075546 22.196384,80.026093 22.188885,80.011932 22.192772,79.986923 22.204994,79.982483 22.226383,79.979156 22.257500,79.978317 22.287498,79.981094 22.354996,79.995255 22.363884,80.001389 22.321110,80.032211 22.335831,80.035263 22.361664,80.037491 22.419163,80.169708 22.449440,80.258041 22.455273,80.264999 22.500000,80.275162 22.559998,80.286652 22.572773,80.291656 22.578609,80.298599 22.562775,80.308594 22.549999,80.313034 22.532776,80.316940 22.506386,80.319717 22.500000,80.320099 22.408607,80.325546 22.386662,80.328873 22.336941,80.352768 22.333332,80.358597 22.335831,80.370819 22.361107,80.410263 22.384995,80.423599 22.408329,80.426651 22.498051,80.429153 22.612217,80.426651 22.679440,80.422760 22.679440,80.418045 22.678051,80.406937 22.676662,80.400543 22.664440,80.387207 22.651661,80.381927 22.632774,80.369980 22.617496,80.357208 22.616108,80.350815 22.619442,80.345261 22.623886,80.341095 22.694996,80.328323 22.716938,80.324997 22.749161,80.324158 22.829998,80.405258 22.834995,80.410538 22.833885,80.436920 22.886940,80.490265 22.938328,80.478043 22.955551,80.474152 23.127773,80.461380 23.258053,80.453049 23.284721,80.450272 23.306385,80.446930 23.323608,80.443039 23.360828,80.429428 23.350830,80.423599 23.317776,80.406372 23.301109,80.401932 23.277496,80.399155 23.243885,80.398605 23.203327,80.399719 23.173050,80.398331 23.153049,80.394714 23.136383,80.390274 23.123329,80.385269 23.130829,80.380264 23.208050,80.360809 23.268608,80.350266 23.308887,80.349152 23.330551,80.345825 23.347496,80.341934 23.350273,80.336105 23.308331,80.283325 23.295277,80.278046 23.242493,80.265549 23.196106,80.259995 23.169716,80.257767 23.139717,80.256653 23.086941,80.252487 23.047497,80.244980 23.001110,80.162491 22.999718,80.156097 23.014721,80.146103 23.063332,80.128036 23.079998,80.124146 23.101387,80.120819 23.152775,80.115265 23.183052,80.113312 23.215828,80.113602 23.228882,80.118866 23.221382,80.123871 23.175827,80.136383 23.118328,80.153046 23.094162,80.161926 23.086384,80.167206 23.225273,80.189697 23.248051,80.192474 23.429440,80.207764 23.469162,80.206650 23.476662,80.205826 23.485271,80.202209 23.492771,80.196930 23.498329,80.185806 23.491940,80.178864 23.472218,80.175262 23.462494,80.169434 23.489162,80.154709 23.539719,80.131088 23.557499,80.128586 23.596664,80.135818 23.613052,80.140274 23.626385,80.145264 23.751389,80.207214 23.729996,80.227203 23.727493,80.232758 23.718052,80.256653 23.734718,80.294434 23.741383,80.301086 23.761387,80.304703 23.788887,80.303314 23.796108,80.298325 23.815552,80.288589 23.844162,80.280273 23.866665,80.278046 23.993885,80.269714 24.021111,80.268051 24.029999,80.272766 24.018055,80.277206 23.984993,80.285263 23.951660,80.293045 23.909161,80.299988 23.892494,80.303864 23.912495,80.307480 23.939438,80.309418 23.979439,80.308319 24.216938,80.294434 24.305832,80.284714 24.338051,80.283875 24.358051,80.287491 24.371941,80.292480 24.398052,80.313309 24.398884,80.318329 24.396664,80.323883 24.361107,80.325546 24.290833,80.325546 24.229439,80.330276 24.203327,80.333054 24.182217,80.336380 24.146385,80.349991 24.151939,80.355545 24.189438,80.363312 24.213051,80.366089 24.273609,80.368591 24.307499,80.368866 24.347775,80.367752 24.506107,80.344986 24.527222,80.341370 24.560276,80.333603 24.597496,80.314423 24.602497,80.311371 24.551941,80.306641 24.481106,80.298325 24.472218,80.293869 24.460827,80.267761 24.467773,80.262497 24.479439,80.258041 24.500553,80.254715 24.532497,80.253601 24.555832,80.256378 24.723606,80.289429 24.740551,80.293869 24.746662,80.299423 24.754444,80.317764 24.763054,80.329437 24.768887,80.334717 24.779720,80.340820 24.793610,80.345825 24.814163,80.349426 24.836384,80.350815 24.859997,80.338318 24.884995,80.323608 24.891663,80.318329 24.853329,80.279984 24.842773,80.273880 24.801109,80.258606 24.779720,80.246643 24.809998,80.247757 24.982216,80.254990 25.105831,80.262207 25.183331,80.268600 25.289440,80.274994 25.351662,80.274994 25.343887,80.268326 25.332775,80.262497 25.309162,80.259720 25.255276,80.255829 25.231663,80.253326 25.225552,80.247757 25.256386,80.228043 25.267776,80.223312 25.450272,80.224991 25.461384,80.231094 25.475552,80.236099 25.508888,80.236374 25.543610,80.234421 25.698883,80.215820 25.723885,80.181656 25.720736,80.173042 25.733330,80.168594 25.863884,80.171646 25.893887,80.172760 26.081665,80.185806 26.242493,80.186371 26.598053,80.184708 26.637218,80.183319 26.799999,80.172211 26.900829,80.148880 26.916107,80.144714 26.977493,80.122757 27.146107,80.107758 27.182217,80.106934 27.221661,80.099991 27.236660,80.095825 27.237217,80.090271 27.167774,80.021927 27.144997,80.004440 27.101109,79.967484 27.121384,79.958328 27.165550,79.939697 27.228882,79.920258 27.238884,79.915817 27.244160,79.910538 27.244995,79.904984 27.240829,79.898880 27.223606,79.885269 27.188606,79.867752 27.174164,79.862762 27.142220,79.853592 27.060276,79.839157 27.034164,79.837494 26.946941,79.834717 26.868607,79.829163 26.848331,79.825821 26.834164,79.820831 26.814442,79.808319 26.806107,79.801376 26.794720,79.795532 26.780552,79.790543 26.754719,79.788879 26.667774,79.785812 26.644718,79.783051 26.627773,79.778870 26.531109,79.748322 26.532219,79.742477 26.537777,79.737488 26.534443,79.731369 26.486382,79.717758 26.469440,79.713608 26.449718,79.709991 26.193050,79.664993 26.037777,79.645828 25.816109,79.618317 25.803886,79.614426 25.808331,79.604431 25.826107,79.596100 25.845276,79.592484 25.871941,79.585266 25.903049,79.571655 25.942219,79.541367 25.976940,79.510818 25.973606,79.504715 25.802776,79.433868 25.730827,79.409988 25.714718,79.405823 25.676662,79.398880 25.632774,79.393326 25.583054,79.389709 25.533333,79.385818 25.443050,79.375809 25.386383,79.365265 25.354717,79.356644 25.298054,79.346100 25.195549,79.330826 25.149162,79.326385 25.050274,79.329163 24.986107,79.332764 24.962772,79.335541 24.956661,79.340820 24.947495,79.368866 24.932495,79.373032 24.872498,79.377197 24.798607,79.371368 24.776943,79.368591 24.745548,79.359985 24.711105,79.351929 24.618328,79.334152 24.578053,79.327774 24.535275,79.322220 24.492218,79.316940 24.443329,79.312759 24.391384,79.309708 24.361107,79.309418 24.306107,79.306931 24.281666,79.304977 24.266388,79.300537 24.256943,79.294708 24.267776,79.266388 24.274166,79.261383 24.269997,79.248871 24.232494,79.224991 24.116940,79.196930 24.059719,79.186920 23.909161,79.176376 23.789165,79.174423 23.759163,79.174149 23.667774,79.179703 23.610554,79.178040 23.511665,79.178864 23.407497,79.182755 23.311943,79.187759 23.252220,79.191650 22.973885,79.213608 22.926662,79.219147 22.891663,79.226379 22.825829,79.241364 22.779442,79.253052 22.737217,79.265549 22.695549,79.278320 22.661385,79.291931 22.646942,79.301926 22.641106,79.313034 22.644718,79.331665 22.655830,79.359985 22.685551,79.368866 22.736382,79.380539 22.771385,79.386658 22.837498,79.407486 22.813053,79.405548 22.675827,79.398880 22.614719,79.397766 22.486107,79.396942 22.382774,79.399719 22.284721,79.404434 22.210827,79.406372 22.176941,79.406647 22.146385,79.405823 22.094719,79.402481 21.931938,79.385818 21.866108,79.377762 21.803329,79.368866 21.755276,79.364426 21.728050,79.363037 21.694439,79.363312 21.674164,79.366379 21.653885,79.369705 21.605831,79.381088 21.569443,79.388321 21.523052,79.391373 21.438328,79.394150 21.374996,79.394989 21.347775,79.393600 21.190830,79.383331 21.074440,79.371368 20.968884,79.364700 20.936108,79.366089 20.794998,79.373871 20.791107,79.379700 20.776665,79.421921 20.748329,79.454987 20.743328,79.459427 20.671383,79.452484 20.650551,79.449417 20.596107,79.446365 20.521664,79.448029 20.273331,79.454987 20.223328,79.460266 20.110828,79.480820 20.064720,79.492752 19.930550,79.516663 19.830276,79.527481 19.720829,79.542480 19.703327,79.544983 19.686108,79.548599 19.673328,79.553040 19.659996,79.563599 19.655273,79.569153 19.636108,79.597763 19.635551,79.603867 19.642773,79.609985 19.659996,79.613876 19.676662,79.616379 19.738884,79.625534 19.763332,79.627762 19.863331,79.628860 19.925274,79.630539 20.119717,79.641937 20.150829,79.642761 20.188885,79.642212 20.214161,79.639709 20.231106,79.635818 20.243885,79.631363 20.264999,79.622208 20.273609,79.616928 20.298885,79.608322 20.357773,79.598328 20.378883,79.594986 20.399998,79.591934 20.424995,79.589432 20.567497,79.584991 20.629440,79.586655 20.694996,79.587204 20.808052,79.584991 20.874996,79.582214 20.904163,79.580276 20.929161,79.577484 21.020554,79.565811 21.062218,79.559418 21.095551,79.558029 21.123051,79.559418 21.144161,79.562485 21.155273,79.567764 21.151661,79.573318 21.139164,79.577774 21.101940,79.584991 21.022774,79.592209 20.914162,79.601379 20.855553,79.605255 20.784164,79.607483 20.675274,79.616653 20.654163,79.619980 20.637497,79.623596 20.477493,79.675262 20.476662,79.679977 20.490829,79.684418 21.001663,79.710541 21.092495,79.713608 21.182495,79.714996 21.279999,79.716385 21.387775,79.715271 21.501942,79.712769 21.679440,79.706650 21.708607,79.704437 21.776108,79.701385 21.839165,79.702774 21.860554,79.705826 21.868885,79.711655 21.868885,79.716660 21.860828,79.721649 21.844440,79.725540 21.836662,79.730545 21.844997,79.736374 21.863331,79.740265 21.881664,79.743866 21.973885,79.752777 22.019444,79.756378 22.154442,79.764999 22.266941,79.769150 22.310555,79.774994 22.329163,79.778595 22.344440,79.783051 22.341106,79.788589 22.328884,79.793045 22.312496,79.796936 22.248882,79.800812 22.217216,79.799988 22.192219,79.798035 22.076385,79.784988 22.054718,79.781937 22.017776,79.774429 21.952496,79.765823 21.795551,79.763885 21.734718,79.776382 21.734440,79.781372 21.739437,79.788040 21.763054,79.798599 21.778053,79.803040 21.799721,79.806091 21.834995,79.805817 21.859997,79.808029 21.878330,79.811920 21.890274,79.816940 21.873608,79.820831 21.852497,79.824158 21.699440,79.833878 21.664162,79.834152 21.413330,79.828049 21.138050,79.814697 20.813332,79.801651 20.750000,79.799988 20.654995,79.797760 20.591942,79.796371 20.486660,79.796371 20.423607,79.794983 20.391941,79.794144 20.335552,79.791092 20.258053,79.784988 20.162773,79.774994 20.084721,79.761383 19.926662,79.741928 19.570274,79.711929 19.542221,79.710266 19.511108,79.709427 19.481106,79.711105 19.463882,79.714996 19.454994,79.719986 19.449997,79.725540 19.441105,79.730545 19.427773,79.734711 19.402218,79.737198 19.014442,79.726089 18.829720,79.718597 18.801941,79.716934 18.771385,79.717484 18.753609,79.721100 18.744438,79.726089 18.707497,79.747208 18.667034,79.763603 18.583054,79.789429 18.542774,79.785812 18.471661,79.782761 18.452496,79.792755 18.287777,79.863602 18.154163,79.909988 18.244160,79.928589 18.356384,79.943039 18.482773,79.953049 18.514721,79.954163 18.584721,79.951660 18.634163,79.956650 18.655273,79.959717 18.669163,79.964432 18.679440,79.969711 18.681938,79.975266 18.768055,79.973312 18.805832,79.969986 18.809441,79.994705 18.736107,80.023880 18.575275,80.037201 18.544441,80.038879 18.509163,80.039978 18.336384,80.044983 18.239716,80.042206 18.211662,80.050812 18.153606,80.074158 18.154716,80.076935 18.199997,80.070831 18.226940,80.068329 18.266388,80.068054 18.298885,80.068878 18.352219,80.073044 18.366386,80.077484 18.359997,80.081940 18.062775,80.126083 18.007500,80.128036 17.938328,80.125534 17.797497,80.123596 17.783054,80.127762 17.785275,80.133331 17.869164,80.153595 17.886662,80.157486 18.038330,80.185257 18.167496,80.185806 18.203327,80.184708 18.223328,80.174988 18.254719,80.173035 18.406940,80.171097 18.424164,80.173874 18.438328,80.178314 18.448605,80.183868 18.594162,80.184708 18.610554,80.167755 18.624718,80.163605 18.643330,80.159988 18.674438,80.158035 18.710274,80.156937 18.724438,80.161652 18.766109,80.181656 18.756386,80.186646 18.755276,80.201096 18.894997,80.189423 18.913330,80.185806 19.184441,80.117203 19.198051,80.112762 19.207497,80.107758 19.217773,80.096649 19.227219,80.091660 19.241104,80.087494 19.263332,80.084152 19.289997,80.081665 19.318886,80.083328 19.340553,80.086380 19.387497,80.107208 19.580276,80.144714 19.584164,80.151382 19.574718,80.156372 19.561108,80.160812 19.543053,80.164429 19.480549,80.168320 19.404995,80.170258 19.368885,80.169983 19.310555,80.174423 19.223885,80.193588 19.209995,80.197754 19.200550,80.202774 19.099163,80.258041 18.979996,80.336655 19.023888,80.350540 19.060829,80.350540 19.097218,80.349426 19.156662,80.345261 19.211384,80.340271 19.261665,80.334717 19.330276,80.325272 19.385551,80.314148 19.409161,80.304977 19.423885,80.294434 19.428883,80.288879 19.438328,80.283875 19.600830,80.224701 19.614719,80.220535 19.632774,80.216660 19.655273,80.213608 19.687496,80.213043 19.808609,80.212494 19.837776,80.213882 19.852497,80.218597 19.843330,80.223602 19.829720,80.227768 19.807220,80.231094 19.812775,80.275818 19.858608,80.339706 19.916939,80.375259 19.910553,80.378036 19.723328,80.396378 19.689995,80.395264 19.581940,80.386932 19.548607,80.386108 19.512218,80.387207 19.484718,80.389709 19.474995,80.394714 19.464996,80.405823 19.459160,80.417480 19.458328,80.423874 19.463329,80.454712 19.474438,80.459991 19.489437,80.464706 19.642494,80.499420 19.668884,80.501663 19.701107,80.499710 19.933331,80.477478" />

  <polyline points="24.264999,80.471100 24.234440,80.469986 24.159439,80.470535 24.065830,80.477478 23.981663,80.485535 23.974438,80.490540 23.984718,80.496368 24.037788,80.503494 24.048332,80.504990 24.075829,80.506943 24.106663,80.508331 24.137218,80.509430 24.174995,80.509155 24.201385,80.506378 24.285553,80.486374 24.292774,80.481369 24.285553,80.474701 24.264999,80.471100" />

  <polyline points="19.933331,80.477478 19.914997,80.481094 19.849720,80.497482 19.844719,80.503052 19.848885,80.509720 19.909996,80.528046 19.951939,80.534988 19.986660,80.537201 20.023609,80.535812 20.051388,80.533325 20.069996,80.529434 20.102497,80.521378 20.130276,80.512772 20.126106,80.505829 20.080551,80.499710 20.000553,80.485260 19.966385,80.476929 19.933331,80.477478" />

  <polyline points="20.753609,80.621368 20.726662,80.619141 20.689716,80.632751 20.666664,80.636108 20.638607,80.638596 20.573608,80.642487 20.550274,80.645538 20.499161,80.657761 20.514999,80.662201 20.611107,80.665817 20.751663,80.660538 20.774998,80.657486 20.788887,80.653046 20.793331,80.647491 20.784721,80.641373 20.753609,80.621368" />

  <polyline points="21.330276,80.700272 21.330830,80.695526 21.347218,80.688873 21.360828,80.684708 21.364998,80.678864 21.353329,80.674988 21.329998,80.672211 21.268055,80.669144 21.240829,80.666931 21.193886,80.661102 21.134441,80.649719 21.113052,80.649429 21.094719,80.653320 21.080830,80.657761 21.062496,80.661652 21.048885,80.665817 21.030552,80.675812 21.026386,80.681656 21.026665,80.687759 21.046387,80.691650 21.073608,80.693588 21.097218,80.696640 21.152218,80.696365 21.192219,80.703873 21.215828,80.706940 21.288887,80.707489 21.316666,80.704712 21.330276,80.700272" />

  <polyline points="20.819164,80.719147 20.881939,80.717484 20.931664,80.721375 20.960827,80.719986 20.979439,80.716095 20.993050,80.711929 21.002220,80.706940 21.006664,80.701385 20.994160,80.695816 20.970829,80.693039 20.939716,80.691360 20.873051,80.681656 20.833607,80.674149 20.806385,80.701660 20.787777,80.705261 20.750553,80.706650 20.663330,80.710541 20.527496,80.742477 20.518330,80.747482 20.518330,80.759995 20.519997,80.762497 20.589718,80.764160 20.632217,80.763321 20.655552,80.760269 20.664997,80.755264 20.664719,80.742752 20.683605,80.739151 20.819164,80.719147" />
         
</g>
</svg>
