<?xml version="1.0" encoding="UTF-8" standalone="no"?>
<svg
   xmlns:svg="http://www.w3.org/2000/svg"
   xmlns="http://www.w3.org/2000/svg"
   width="360" height="180" viewBox="0 0 360 180" >
<g transform="translate(180,90) scale(1,-1)" style="fill:none;stroke:#ff00ff;stroke-width:0.01">

  <polyline points="24.167007,65.814026 24.16861,65.819992 24.166664,65.830551 24.160553,65.839996 24.031387,66.020264 23.967777,66.072495 23.948608,66.101379 23.940277,66.121384 23.930832,66.135544 23.925552,66.139999 23.912498,66.148331 23.89333,66.155273 23.879444,66.158051 23.864166,66.159164 23.848053,66.161377 23.820274,66.166656 23.808331,66.169708 23.754719,66.184998 23.735275,66.19194 23.727776,66.195831 23.722221,66.200272 23.719166,66.204987 23.684719,66.263321 23.666386,66.302216 23.661942,66.31221 23.660831,66.317215 23.639164,66.430542 23.640274,66.436096 23.646664,66.448318 23.652222,66.454712 23.658886,66.460541 23.666386,66.465271 23.725277,66.500824 23.80722,66.537766 23.826942,66.543884 23.861942,66.548599 23.871944,66.551666 23.878609,66.55722 23.884163,66.563889 23.887497,66.569992 23.891941,66.581665 23.902775,66.680267 23.900833,66.712494 23.891109,66.737778 23.889999,66.743042 23.893608,66.749161 23.936943,66.786942 23.948055,66.788879 23.987778,66.790268 23.999722,66.791382 24.006386,66.794998 24.007774,66.800552 24.00111,66.810272 23.949997,66.870819 23.941109,66.87999 23.935833,66.884155 23.866943,66.931107 23.787777,66.981384 23.757774,66.991943 23.744442,67 23.73111,67.008331 23.68111,67.047485 23.580555,67.147491 23.571663,67.156662 23.570553,67.161942 23.586666,67.234985 23.594444,67.246384 23.605553,67.25943 23.614441,67.263321 23.624722,67.266388 23.63583,67.2686 23.683052,67.275543 23.708054,67.278046 23.731667,67.281662 23.741665,67.284714 23.749722,67.289444 23.773331,67.314438 23.781944,67.326385 23.783054,67.332214 23.768887,67.410828 23.767776,67.416107 23.761944,67.420273 23.734997,67.426102 23.581944,67.449997 23.549164,67.453323 23.536663,67.451935 23.527496,67.448044 23.511944,67.438599 23.500553,67.436386 23.486942,67.438049 23.474442,67.441101 23.464165,67.444717 23.44833,67.452499 23.43111,67.465546 23.428886,67.47583 23.429996,67.485825 23.433331,67.491943 23.471943,67.556381 23.507774,67.665543 23.491386,67.712494 23.469997,67.81694 23.471107,67.822769 23.48333,67.863052 23.486942,67.869156 23.492496,67.875824 23.511108,67.883606 23.545555,67.889999 23.596386,67.895264 23.607777,67.897491 23.644722,67.913055 23.652775,67.918045 23.659721,67.923599 23.665554,67.929993 23.667221,67.936386 23.666111,67.941666 23.656944,67.950821 23.648888,67.954712 23.638332,67.958054 23.531666,67.992493 23.394444,68.042496 23.376942,68.055542 23.367496,68.064713 23.353333,68.083603 23.066944,68.286377 23.058609,68.290268 23.048054,68.293884 22.969444,68.317764 22.936386,68.32222 22.910275,68.328323 22.899719,68.331665 22.863609,68.357498 22.82972,68.383881 22.823608,68.388046 22.673885,68.420822 22.659721,68.422485 22.581665,68.427216 22.5,68.440132 22.430553,68.45166 22.371944,68.463608 22.1675,68.464432 22.150833,68.465546 22.063889,68.476105 22.050552,68.479156 22.041943,68.483047 22.038055,68.487778 22.035,68.498047 22.022499,68.506653 22.003887,68.51944 21.997776,68.523605 21.959442,68.543884 21.933887,68.555267 21.897221,68.569992 21.881386,68.572495 21.864719,68.573608 21.824718,68.570267 21.809166,68.570541 21.773331,68.574432 21.7575,68.576935 21.735554,68.583603 21.71833,68.59111 21.710552,68.600555 21.711109,68.606384 21.714165,68.612488 21.710278,68.617218 21.701664,68.620819 21.642776,68.642487 21.623055,68.649429 21.601109,68.656097 21.585278,68.6586 21.550552,68.661652 21.500832,68.66832 21.487499,68.671387 21.465553,68.678055 21.452774,68.686661 21.448608,68.691101 21.420555,68.724152 21.216663,68.816101 21.207775,68.819717 21.081387,68.866653 21.058887,68.873322 21.024719,68.877487 20.990833,68.87944 20.959442,68.87999 20.944721,68.881378 20.915276,68.886658 20.904163,68.889999 20.895275,68.8936 20.888611,68.898041 20.882774,68.907776 20.883053,68.91333 20.888885,68.925827 20.915554,68.939438 20.93111,68.946381 20.938332,68.952774 20.938889,68.958328 20.932777,68.968323 20.928608,68.973053 20.908886,68.98555 20.884441,68.997498 20.866665,69.00499 20.846386,69.011932 20.791664,69.023331 20.744164,69.031097 20.650063,69.043793 20.604164,69.053055 20.580929,69.060303" />

</g>
</svg>
