<?xml version="1.0" encoding="UTF-8" standalone="no"?>
<svg
   xmlns:svg="http://www.w3.org/2000/svg"
   xmlns="http://www.w3.org/2000/svg"
   width="360" height="180" viewBox="0 0 360 180" >
<g transform="translate(180,90) scale(1,-1)" style="fill:none;stroke:#ff00ff;stroke-width:0.01">

  <polyline points="10.616272,53.406698 10.618991,53.399334 10.62868,53.4263 10.647954,53.444251 10.672676,53.448288 10.694616,53.443333 10.698819,53.461311 10.711181,53.462099 10.741417,53.465289 10.764863,53.479937 10.788283,53.488041 10.804821,53.493711 10.814556,53.509212 10.820177,53.525541 10.817509,53.536993 10.809307,53.545192 10.802486,53.554203 10.814887,53.55498 10.825905,53.554944 10.836924,53.554907 10.860348,53.555642 10.886583,53.562083 10.897622,53.563675 10.91132,53.555448 10.926335,53.54149 10.945716,53.552037 10.96367,53.556046 10.981617,53.557599 10.98867,53.570645 10.997168,53.58859 10.994587,53.603316 10.991969,53.614772 10.976836,53.618926 10.971392,53.624672 10.95767,53.631269 10.956367,53.636996 10.952344,53.646004 10.940027,53.655045 10.930491,53.665709 10.938871,53.672217 10.959566,53.668865 10.970742,53.676995 10.959845,53.689304 10.943343,53.696726 10.919971,53.708259 10.904851,53.716488 10.896638,53.723874 10.886914,53.720636 10.877259,53.72312 10.873034,53.716593 10.872941,53.708418 10.886626,53.696111 10.883784,53.689582 10.869916,53.685541 10.857425,53.680677 10.858636,53.665145 10.853014,53.656174 10.821342,53.664443 10.79652,53.667781 10.786961,53.679246 10.762019,53.668688 10.762156,53.684213 10.747218,53.713668 10.739056,53.729215 10.736504,53.755379 10.749105,53.773339 10.769937,53.78147 10.754811,53.792953 10.739645,53.800347 10.727237,53.806915 10.707909,53.814315 10.699526,53.804514 10.695264,53.789799 10.706209,53.772609 10.686812,53.767739 10.66196,53.77432 10.644025,53.782522 10.63155,53.777634 10.627359,53.769464 10.632826,53.757196 10.636894,53.742478 10.62167,53.737594 10.599584,53.741706 10.578872,53.744996 10.591395,53.766235 10.591459,53.781766 10.577641,53.785048 10.556894,53.785064 10.543038,53.776081 10.536096,53.764643 10.520864,53.751575 10.51669,53.737684 10.504252,53.732787 10.484918,53.730342 10.476633,53.72871 10.461454,53.740154 10.450407,53.742607 10.439358,53.740155 10.428311,53.736068 10.429695,53.724627 10.425558,53.711553 10.411759,53.71155 10.399338,53.71318 10.388295,53.714809 10.378641,53.711536 10.370377,53.703361 10.375917,53.691109 10.395223,53.692753 10.414532,53.692759 10.428326,53.684593 10.429707,53.678058 10.426953,53.668257 10.410414,53.667436 10.398012,53.665798 10.386998,53.658442 10.371862,53.647001 10.376012,53.637204 10.398052,53.630683 10.425593,53.620894 10.444867,53.602935 10.476511,53.592317 10.477885,53.584967 10.472381,53.577619 10.465503,53.571904 10.447627,53.569455 10.433877,53.569455 10.414626,53.570268 10.398123,53.571896 10.381628,53.568622 10.369264,53.562898 10.351402,53.557983 10.3253,53.550606 10.307442,53.546501 10.303338,53.53996 10.297874,53.529333 10.282775,53.524409 10.267663,53.523569 10.266311,53.517847 10.267713,53.510495 10.269108,53.504777 10.267762,53.49742 10.243051,53.494925 10.225233,53.486717 10.212913,53.478518 10.203335,53.471957 10.193745,53.467848 10.184161,53.462099 10.217111,53.462178 10.236328,53.462217 10.254188,53.458164 10.269327,53.446746 10.276225,53.43613 10.285881,53.420611 10.299614,53.414091 10.316057,53.417386 10.344846,53.41824 10.340708,53.428863 10.328349,53.435389 10.3201,53.442736 10.315964,53.450087 10.329679,53.45174 10.339296,53.446029 10.368115,53.438702 10.383209,53.432989 10.394192,53.423185 10.38598,53.413371 10.383253,53.404376 10.418894,53.392125 10.44767,53.382315 10.477805,53.377404 10.524363,53.365931 10.55723,53.364264 10.591477,53.364214 10.603848,53.378097 10.609379,53.394444" />
  
  <polyline class="inside" points="10.495763,53.579245 10.514996,53.559635 10.54111,53.554716 10.548,53.563695 10.548019,53.574312 10.545281,53.581664 10.531524,53.580042 10.526028,53.584128 10.5109,53.587404 10.495763,53.579245" />

  <polyline class="inside" points="10.582002,53.598898 10.532508,53.606289 10.531915,53.625875 10.510665,53.634624 10.496541,53.64897 10.528491,53.65772 10.558081,53.668557 10.58762,53.662234 10.59347,53.647526 10.592219,53.634925 10.590383,53.623378 10.595643,53.611125 10.582002,53.598898" />
  
  <polyline class="inside" points="10.537856,53.715312 10.541406,53.717058 10.550212,53.703065 10.564402,53.702701 10.576801,53.69709 10.589826,53.704421 10.603442,53.712108 10.592236,53.719466 10.582789,53.724378 10.563296,53.72929 10.537856,53.715312" />
  
  <polyline class="inside" points="10.627081,53.697768 10.625821,53.676053 10.642946,53.669717 10.663654,53.668258 10.682535,53.66156 10.705507,53.651709 10.707933,53.664312 10.707997,53.676576 10.713384,53.688118 10.710493,53.698273 10.701654,53.70284 10.692205,53.704609 10.688599,53.694116 10.690303,53.680804 10.676693,53.674873 10.666086,53.683659 10.659011,53.689984 10.65727,53.698749 10.652554,53.705074 10.637153,53.704416 10.627081,53.697768" />
  
  <polyline class="inside" points="10.761405,53.628852 10.778485,53.624957 10.787254,53.615134 10.787827,53.613033 10.787816,53.611634 10.78781,53.610934 10.783653,53.607097 10.776539,53.602217 10.769998,53.594886 10.773497,53.589978 10.772846,53.581931 10.763976,53.578105 10.752188,53.578135 10.742797,53.583758 10.73698,53.594625 10.731742,53.604085 10.734178,53.615971 10.734235,53.624718 10.730755,53.633472 10.731991,53.641513 10.740265,53.643595 10.74854,53.645328 10.764465,53.643542 10.761405,53.628852" />

</g>
</svg>
