<?xml version="1.0" encoding="UTF-8" standalone="no"?>
<svg
   xmlns:svg="http://www.w3.org/2000/svg"
   xmlns="http://www.w3.org/2000/svg"
   width="360" height="180" viewBox="0 0 360 180" >
<g transform="translate(180,90) scale(1,-1)" style="fill:none;stroke:#ff00ff;stroke-width:0.01">

  <polyline points="30.854839,69.792313 30.902775,69.731934 30.943333,69.690552 30.94722,69.654434 30.951385,69.613876 30.950275,69.603607 30.945831,69.582214 30.936665,69.565826 30.920277,69.553329 30.91,69.548874 30.898888,69.545273 30.863888,69.536652 30.824718,69.531662 30.796944,69.530273 30.76722,69.530548 30.546108,69.544159 30.529163,69.546097 30.511387,69.549164 30.453331,69.567215 30.393055,69.590546 30.370552,69.603043 30.345554,69.615265 30.335552,69.619156 30.305275,69.630554 30.203609,69.663879 30.188332,69.666931 30.172497,69.668045 30.157497,69.668045 30.129444,69.666382 30.115833,69.66465 30.103333,69.663055 30.083885,69.656387 30.076385,69.652222 30.073608,69.646652 30.072777,69.631104 30.088055,69.627777 30.102219,69.628601 30.13179,69.628403 30.142776,69.628326 30.182499,69.589157 30.184998,69.582764 30.18222,69.574158 30.176388,69.566101 30.097775,69.503326 30.062775,69.487778 29.898609,69.43277 29.664997,69.373886 29.603333,69.360275 29.571941,69.353882 29.53833,69.347214 29.483608,69.34082 29.408333,69.333054 29.321663,69.319443 29.309998,69.315277 29.302219,69.310547 29.296944,69.304443 29.294441,69.298874 29.294167,69.29361 29.296665,69.2836 29.304165,69.269165 29.311665,69.25972 29.316666,69.255264 29.321663,69.245544 29.320251,69.242088 29.315628,69.230774 29.298332,69.193878 29.293053,69.18277 29.254444,69.119995 29.239166,69.107498 29.230553,69.101944 29.20472,69.085831 29.19611,69.080551 29.177776,69.070541 29.129719,69.04805 29.099163,69.036377 29.063332,69.02916 29.049721,69.02832 29.019997,69.031387 29.004776,69.035248 28.995337,69.038506 28.95734,69.05162" />

</g>
</svg>
