<?xml version="1.0" encoding="UTF-8" standalone="no"?>
<svg
   xmlns:svg="http://www.w3.org/2000/svg"
   xmlns="http://www.w3.org/2000/svg"
   width="360" height="180" viewBox="0 0 360 180" >
<g transform="translate(180,90) scale(1,-1)" style="fill:none;stroke:#ff00ff;stroke-width:0.01">

  <polyline points="20.580929,69.060303 20.609444,69.069443 20.674999,69.087219 20.697498,69.092773 20.723888,69.095825 20.738331,69.096375 20.773888,69.093597 20.82222,69.08638 20.835831,69.083603 20.935555,69.058609 20.980553,69.045273 21.033054,69.033325 21.059444,69.034439 21.067497,69.039154 21.074165,69.044998 21.084721,69.058044 21.101387,69.083328 21.109722,69.0961 21.112499,69.102219 21.113052,69.108047 21.079166,69.117767 21.066109,69.126389 21.053608,69.140549 21.042221,69.160828 21.028053,69.208054 21.032497,69.213043 21.039165,69.218887 21.054996,69.228607 21.320831,69.326111 21.681942,69.284714 21.994602,69.078369 22.041386,69.052216 22.208332,68.954987 22.203053,68.951111 22.197498,68.944717 22.194164,68.938599 22.19722,68.928055 22.278889,68.881653 22.346664,68.844711 22.34861,68.842499 22.363888,68.804718 22.36972,68.786102 22.398331,68.711105 22.5,68.728989 22.549999,68.737778 22.802776,68.691376 22.863609,68.693054 23.063889,68.695541 23.072498,68.691666 23.099163,68.674713 23.139442,68.649155 23.164719,68.637497 23.18861,68.631104 23.204166,68.628601 23.260555,68.636383 23.281944,68.642487 23.291386,68.646378 23.333054,68.659439 23.407776,68.680832 23.46722,68.691666 23.517498,68.698608 23.583054,68.705276 23.664165,68.71138 23.679722,68.710831 23.692776,68.712219 23.703609,68.715271 23.711941,68.719986 23.740833,68.742493 23.762497,68.75943 23.783886,68.776382 23.796108,68.789154 23.802219,68.795822 23.816666,68.819992 23.821388,68.825272 23.829998,68.829987 23.856388,68.832489 23.899441,68.833878 23.976387,68.832489 24.029163,68.82666 24.04472,68.823883 24.055553,68.820541 24.066109,68.81694 24.082775,68.809158 24.088608,68.804718 24.09222,68.799988 24.098053,68.795822 24.120552,68.7836 24.196663,68.751663 24.215553,68.746384 24.338333,68.713608 24.351387,68.710541 24.363331,68.708328 24.416943,68.70166 24.450275,68.698883 24.513332,68.695831 24.578888,68.691376 24.628887,68.68721 24.690277,68.676376 24.754444,68.660263 24.773331,68.652771 24.797775,68.640823 24.811665,68.632492 24.828888,68.619431 24.834442,68.61499 24.843624,68.606018 24.855862,68.59201 24.859203,68.587341 24.934917,68.580811 25.076385,68.621384 25.095833,68.629166 25.103333,68.63472 25.109722,68.641098 25.111385,68.646652 25.104721,68.656387 25.103054,68.666656 25.10611,68.678055 25.15472,68.767776 25.166664,68.785828 25.173054,68.792221 25.188332,68.803329 25.214443,68.81749 25.234165,68.825272 25.363888,68.873886 25.38472,68.880554 25.406944,68.886383 25.43111,68.890549 25.444443,68.891663 25.473331,68.892212 25.490276,68.890823 25.508053,68.888321 25.554443,68.880264 25.57111,68.878601 25.585552,68.878876 25.612221,68.881378 25.623333,68.884155 25.632221,68.888885 25.647499,68.899719 25.652775,68.906387 25.661388,68.911652 25.692219,68.933884 25.761108,68.989166 25.76833,69.045273 25.73222,69.109161 25.708332,69.206375 25.707775,69.211655 25.713333,69.255264 25.739441,69.318329 25.749722,69.336105 25.754997,69.342209 25.770554,69.353882 25.811665,69.368607 25.82972,69.378052 25.833611,69.384155 25.835831,69.389435 25.874165,69.486374 25.949165,69.578049 25.957497,69.590271 25.963608,69.601944 25.971107,69.618881 25.973331,69.624161 25.97472,69.630264 25.974163,69.635269 25.964722,69.649719 25.947777,69.658051 25.942497,69.662216 25.941944,69.667221 25.945831,69.673325 25.952774,69.679993 25.965832,69.691376 25.978333,69.701935 25.988331,69.706665 25.998886,69.710541 26.009998,69.713333 26.100555,69.726379 26.134441,69.734985 26.15583,69.742493 26.174164,69.751663 26.369442,69.849991 26.378052,69.854431 26.394997,69.865555 26.402222,69.871933 26.416111,69.889999 26.424164,69.901932 26.435833,69.914444 26.449997,69.927216 26.470554,69.935272 26.483055,69.937485 26.601944,69.950272 26.616386,69.95166 26.80658,69.952057 26.85722,69.948608 26.865276,69.944717 26.866108,69.934433 26.872219,69.929718 26.884998,69.926666 26.90361,69.924164 27.03722,69.908051 27.054443,69.907486 27.068886,69.9086 27.08083,69.910553 27.206108,69.933319 27.280552,69.94722 27.291943,69.949997 27.303055,69.953888 27.310276,69.960266 27.306942,69.970276 27.303886,69.975266 27.297497,69.979431 27.295555,69.984436 27.299999,69.990555 27.421387,70.016663 27.567497,70.063889 27.57333,70.068878 27.599442,70.072495 27.873055,70.088043 27.902496,70.088882 27.918888,70.088333 27.926556,70.087158 27.936108,70.084442 27.944164,70.080276 27.960552,70.06694 27.968887,70.057495 27.97472,70.04805 27.974998,70.04277 27.9725,70.037216 27.973331,70.016388 27.979164,70.006653 27.984722,70.002213 27.998055,69.993607 28.094166,69.938599 28.109997,69.930542 28.152496,69.915543 28.165833,69.912216 28.165833,69.912216 28.19722,69.906387 28.226665,69.902222 28.276108,69.896652 28.310276,69.890823 28.32333,69.887497 28.339165,69.87944 28.344719,69.874985 28.35833,69.85083 28.35833,69.845551 28.366665,69.836105 28.371944,69.831665 28.379719,69.827499 28.404999,69.821655 28.694721,69.7686 28.744164,69.75972 28.909721,69.733887 28.94611,69.728607 28.992222,69.722488 29.009441,69.720551 29.098888,69.708054 29.106667,69.703888 29.127499,69.685822 29.176109,69.635269 29.183887,69.626099 29.29472,69.49527 29.299721,69.48555 29.299721,69.48027 29.285553,69.463608 29.269165,69.451935 29.122219,69.370819 29.064163,69.343887 29.033333,69.330551 29.002499,69.317215 28.991665,69.313889 28.931664,69.288605 28.921944,69.284164 28.902775,69.274994 28.836388,69.242767 28.826942,69.238052 28.819164,69.231934 28.796665,69.188324 28.784164,69.160553 28.781666,69.149719 28.781944,69.134155 28.784443,69.123886 28.786942,69.119156 28.802219,69.105545 28.827499,69.093597 28.890553,69.071381 28.95734,69.05162" />

</g>
</svg>
