<?xml version="1.0" encoding="UTF-8" standalone="no"?>
<svg
   xmlns:svg="http://www.w3.org/2000/svg"
   xmlns="http://www.w3.org/2000/svg"
   width="360" height="180" viewBox="0 0 360 180" >
<g transform="translate(180,90) scale(1,-1)" style="fill:none;stroke:#ff00ff;stroke-width:0.01">

  <polyline points="8.425278,53.928055 8.422222,53.926384 8.413055,53.928055 8.406944,53.947777 8.407776,53.950829 8.411665,53.955551 8.422777,53.962776 8.43111,53.964722 8.441111,53.965553 8.455,53.963051 8.457222,53.960831 8.425278,53.928055" />
       
  <polyline points="8.695555,54.041107 8.691944,54.039993 8.681665,54.040833 8.676666,54.044716 8.673054,54.049438 8.666111,54.063889 8.6675,54.073326 8.668888,54.075829 8.671389,54.077774 8.678055,54.080826 8.690554,54.083611 8.693333,54.082497 8.699999,54.058609 8.697498,54.04361 8.695555,54.041107" />
       
  <polyline points="9.8434659,54.474643 9.845276,54.478607 9.843611,54.473053 9.851944,54.464439 9.863609,54.457497 9.870277,54.454437 9.878332,54.452774 9.893332,54.453888 10.006666,54.474236 10.101387,54.488884 10.110832,54.489998 10.126944,54.489716 10.368332,54.435555 10.609722,54.36055 10.633055,54.349998 10.638887,54.346664 10.643055,54.342216 10.646111,54.337219 10.652222,54.330826 10.679165,54.312492 10.685833,54.309441 10.690554,54.308327 10.706665,54.306938 10.764999,54.306664 10.779999,54.307777 10.787777,54.309715 10.802221,54.314995 10.82111,54.323608 10.827499,54.326942 10.835833,54.332222 10.843054,54.338608 10.885277,54.361938 10.956006,54.368835 11.016943,54.369995 11.044722,54.36972 11.073889,54.376389 11.094166,54.210274 11.094444,54.203888 11.093054,54.197495 11.064444,54.179718 11.055555,54.174721 10.887499,54.09333 10.877499,54.088882 10.86972,54.087494 10.839443,54.089996 10.824999,54.09166 10.801388,54.089439 10.766388,54.061104 10.758055,54.051941 10.754999,54.046661 10.754721,54.039993 10.756388,54.034439 10.763332,54.022217 10.770277,54.012772 10.783888,54.000549 10.789999,53.997215 10.801109,53.993889 10.822222,53.994164 10.861387,53.993889 10.870554,53.991943 10.879999,53.987778 10.883888,53.98333 10.884722,53.980553 10.889721,53.957771 10.890554,53.950829 10.863609,53.916939 10.818535,53.890053 10.836779,53.900938 10.791838,53.886707 10.73349,53.893604 10.736359,53.873305 10.716505,53.849368 10.681052,53.835578 10.58878,53.852569 10.619626,53.83291 10.645703,53.808077 10.696319,53.804047 10.772824,53.800073 10.747741,53.776687 10.648865,53.757521 10.633769,53.740367 10.666025,53.730129 10.557309,53.717441 10.524584,53.697799 10.483141,53.69236 10.513053,53.681458 10.497929,53.66372 10.491534,53.640243 10.536004,53.623566 10.594114,53.617015 10.540317,53.609204 10.4562,53.589157 10.408626,53.578392 10.333382,53.549233 10.264522,53.542384 10.218938,53.535359 10.202249,53.550417 10.193756,53.566522 10.202514,53.582486 10.230291,53.593045 10.254185,53.612873 10.227324,53.618888 10.2178,53.635484 10.175115,53.647387 10.212022,53.665975 10.217053,53.684409 10.156122,53.671918 10.109138,53.673411 10.095968,53.651244 10.056758,53.647931 10.018246,53.643181 9.9935637,53.598139 9.9900539,53.588273 9.9842188,53.568689 9.9559487,53.560186 9.7946892,53.561702 9.7778173,53.562253 9.783888,53.561386 9.774166,53.562775 9.741083,53.565002 9.724165,53.565552 9.699444,53.568329 9.681944,53.571938 9.66361,53.578606 9.575277,53.613609 9.56111,53.621666 9.546665,53.633606 9.437777,53.739441 9.430555,53.748604 9.417221,53.771111 9.407776,53.792221 9.394444,53.821388 9.393055,53.823883 9.337776,53.852776 9.327776,53.857216 9.286388,53.874443 9.278332,53.876663 9.234444,53.886383 9.220833,53.888885 9.205276,53.890549 9.063055,53.898048 8.993055,53.891106 8.983332,53.890274 8.967222,53.894997 8.947498,53.907219 8.9275,53.919716 8.913887,53.928604 8.899721,53.940826 8.883055,53.961105 8.849998,54.008888 8.837221,54.028328 8.836111,54.031105 8.840555,54.035271 8.846666,54.038605 8.854166,54.041107 8.86611,54.044167 8.880833,54.045273 8.890554,54.044167 8.926666,54.037216 8.945555,54.030548 8.960554,54.022217 8.971109,54.017776 8.978888,54.018608 9.000555,54.026108 9.003054,54.028053 9.01111,54.043884 9.012777,54.049995 9.017221,54.084999 8.971109,54.13166 8.85861,54.123886 8.8475,54.131104 8.844721,54.133049 8.829721,54.148048 8.824999,54.155273 8.812777,54.174995 8.816387,54.189995 8.823332,54.207222 8.841389,54.250549 8.842777,54.253326 8.845276,54.255272 8.853054,54.2575 8.88361,54.294167" />

</g>
</svg>
