<?xml version="1.0" encoding="utf-8"?>
<!-- Generator: Adobe Illustrator 16.0.0, SVG Export Plug-In . SVG Version: 6.00 Build 0)  -->
<!DOCTYPE svg PUBLIC "-//W3C//DTD SVG 1.1//EN" "http://www.w3.org/Graphics/SVG/1.1/DTD/svg11.dtd">
<svg version="1.1"
	 id="svg3915" xmlns:dc="http://purl.org/dc/elements/1.1/" xmlns:cc="http://creativecommons.org/ns#" xmlns:rdf="http://www.w3.org/1999/02/22-rdf-syntax-ns#" xmlns:svg="http://www.w3.org/2000/svg"
	 xmlns="http://www.w3.org/2000/svg" xmlns:xlink="http://www.w3.org/1999/xlink" x="0px" y="0px" width="111.429px"
	 height="167.143px" viewBox="0 0 111.429 167.143" enable-background="new 0 0 111.429 167.143" xml:space="preserve">
<g id="layer1" transform="translate(-445.71426,-355.21931)">
	<g id="text3923">
		<path id="path3928" fill="#2579BF" d="M521.124,430.63c5.441-5.441,8.162-12.006,8.162-19.696c0-7.689-2.721-14.255-8.162-19.695
			c-5.44-5.441-12.006-8.161-19.695-8.162c-7.69,0.001-14.255,2.721-19.696,8.162c-5.441,5.44-8.162,12.006-8.162,19.695
			c0,7.69,2.721,14.255,8.162,19.696c5.44,5.44,12.006,8.161,19.696,8.161C509.118,438.791,515.683,436.07,521.124,430.63
			 M557.143,410.933c-0.001,7.907-1.197,14.4-3.592,19.479l-39.609,84.225c-1.16,2.394-2.902,4.279-5.223,5.658
			c-2.25,1.378-4.68,2.067-7.291,2.067c-2.612,0-5.078-0.689-7.399-2.067c-2.249-1.379-3.917-3.265-5.006-5.658l-39.718-84.225
			c-2.394-5.078-3.591-11.571-3.591-19.479c0-15.379,5.441-28.51,16.323-39.392c10.881-10.882,24.012-16.322,39.392-16.322
			c15.379,0,28.51,5.44,39.392,16.322S557.142,395.555,557.143,410.933"/>
	</g>
</g>
</svg>
