<?xml version="1.0" encoding="utf-8"?>
<!-- Generator: Adobe Illustrator 16.0.0, SVG Export Plug-In . SVG Version: 6.00 Build 0)  -->
<!DOCTYPE svg PUBLIC "-//W3C//DTD SVG 1.1//EN" "http://www.w3.org/Graphics/SVG/1.1/DTD/svg11.dtd">
<svg version="1.1"
	 id="svg3915" xmlns:cc="http://creativecommons.org/ns#" xmlns:svg="http://www.w3.org/2000/svg" xmlns:dc="http://purl.org/dc/elements/1.1/" xmlns:rdf="http://www.w3.org/1999/02/22-rdf-syntax-ns#"
	 xmlns="http://www.w3.org/2000/svg" xmlns:xlink="http://www.w3.org/1999/xlink" x="0px" y="0px" width="12px" height="19.002px"
	 viewBox="-161.991 570.5 12 19.002" enable-background="new -161.991 570.5 12 19.002" xml:space="preserve">
<g>
	<g>
		<path fill="#2579BF" d="M-155.991,588.998c-0.324,0-0.633-0.086-0.918-0.254c-0.294-0.181-0.511-0.426-0.65-0.729l-3.562-7.554
			c-0.246-0.521-0.37-1.182-0.37-1.963c0-1.511,0.542-2.818,1.612-3.889c1.067-1.068,2.376-1.609,3.888-1.609
			s2.82,0.541,3.889,1.609c1.069,1.068,1.611,2.378,1.611,3.889c0,0.781-0.125,1.441-0.371,1.963l-3.554,7.56
			c-0.148,0.309-0.372,0.55-0.665,0.725C-155.357,588.911-155.665,588.998-155.991,588.998z M-155.991,576.164
			c-1.23,0-2.231,1.002-2.231,2.231c0,1.231,1.001,2.231,2.231,2.231c1.229,0,2.23-1,2.23-2.231
			C-153.76,577.166-154.761,576.164-155.991,576.164z"/>
		<path fill="#FFFFFF" d="M-155.991,573.5c1.38,0,2.559,0.486,3.535,1.463c0.977,0.979,1.465,2.155,1.465,3.535
			c0,0.711-0.107,1.293-0.323,1.75l-3.555,7.56c-0.104,0.215-0.26,0.384-0.468,0.508c-0.202,0.123-0.42,0.187-0.654,0.187
			c-0.235,0-0.456-0.062-0.664-0.187c-0.202-0.124-0.352-0.293-0.449-0.508l-3.563-7.56c-0.216-0.457-0.322-1.039-0.322-1.75
			c0-1.38,0.488-2.558,1.465-3.535C-158.551,573.986-157.371,573.5-155.991,573.5 M-155.991,581.129c1.508,0,2.73-1.226,2.73-2.731
			s-1.223-2.729-2.73-2.729s-2.731,1.224-2.731,2.729S-157.499,581.129-155.991,581.129 M-155.991,572.5
			c-1.649,0-3.077,0.59-4.242,1.756c-1.167,1.168-1.758,2.597-1.758,4.242c0,0.855,0.141,1.588,0.417,2.176l3.564,7.561
			c0.176,0.386,0.457,0.704,0.831,0.936c0.377,0.223,0.772,0.332,1.188,0.332c0.419,0,0.813-0.111,1.174-0.33
			c0.371-0.223,0.66-0.535,0.849-0.931l3.56-7.565c0.281-0.597,0.418-1.308,0.418-2.174c0-1.648-0.591-3.076-1.757-4.242
			C-152.914,573.09-154.343,572.5-155.991,572.5L-155.991,572.5z M-155.991,580.129c-0.955,0-1.731-0.776-1.731-1.731
			s0.777-1.729,1.731-1.729s1.73,0.774,1.73,1.729S-155.036,580.129-155.991,580.129L-155.991,580.129z"/>
	</g>
	<circle fill="#FFFFFF" cx="-155.992" cy="578.327" r="2.413"/>
</g>
</svg>
