<?xml version="1.0" encoding="utf-8"?>
<!-- Generator: Adobe Illustrator 16.0.0, SVG Export Plug-In . SVG Version: 6.00 Build 0)  -->
<!DOCTYPE svg PUBLIC "-//W3C//DTD SVG 1.1//EN" "http://www.w3.org/Graphics/SVG/1.1/DTD/svg11.dtd">
<svg version="1.1"
	 id="svg3915" xmlns:cc="http://creativecommons.org/ns#" xmlns:svg="http://www.w3.org/2000/svg" xmlns:dc="http://purl.org/dc/elements/1.1/" xmlns:rdf="http://www.w3.org/1999/02/22-rdf-syntax-ns#"
	 xmlns="http://www.w3.org/2000/svg" xmlns:xlink="http://www.w3.org/1999/xlink" x="0px" y="0px" width="15.341px"
	 height="19.924px" viewBox="56.263 569.5 15.341 19.924" enable-background="new 56.263 569.5 15.341 19.924" xml:space="preserve"
	>
<g>
	<g>
		<path fill="#2F3B46" d="M65.263,587.998c-0.324,0-0.633-0.086-0.918-0.254c-0.294-0.181-0.511-0.426-0.65-0.729l-3.562-9.554
			c-0.246-0.521-0.37-1.182-0.37-1.963c0-1.511,0.542-2.818,1.612-3.889c1.067-1.068,2.376-1.609,3.888-1.609
			s2.82,0.541,3.889,1.609c1.069,1.068,1.611,2.378,1.611,3.889c0,0.781-0.125,1.441-0.371,1.963l-3.554,9.56
			c-0.147,0.309-0.372,0.55-0.665,0.725C65.898,587.911,65.589,587.998,65.263,587.998z M65.263,573.164
			c-1.23,0-2.23,1.002-2.23,2.231c0,1.231,1,2.231,2.23,2.231s2.23-1,2.23-2.231C67.496,574.166,66.494,573.164,65.263,573.164z"/>
		<path fill="#FFFFFF" d="M65.263,570.5c1.381,0,2.559,0.486,3.535,1.463c0.977,0.979,1.465,2.155,1.465,3.535
			c0,0.711-0.107,1.293-0.322,1.75l-3.556,9.56c-0.104,0.215-0.26,0.384-0.468,0.508c-0.202,0.123-0.42,0.187-0.654,0.187
			s-0.455-0.062-0.664-0.187c-0.201-0.124-0.352-0.293-0.449-0.508l-3.563-9.56c-0.216-0.457-0.322-1.039-0.322-1.75
			c0-1.38,0.488-2.558,1.466-3.535C62.705,570.986,63.883,570.5,65.263,570.5 M65.263,578.129c1.508,0,2.73-1.226,2.73-2.731
			s-1.223-2.729-2.73-2.729s-2.73,1.224-2.73,2.729S63.755,578.129,65.263,578.129 M65.263,569.5c-1.648,0-3.076,0.59-4.242,1.756
			c-1.166,1.168-1.758,2.597-1.758,4.242c0,0.855,0.141,1.588,0.417,2.176l3.565,9.561c0.175,0.386,0.457,0.704,0.83,0.936
			c0.377,0.223,0.772,0.332,1.188,0.332c0.42,0,0.814-0.111,1.174-0.33c0.371-0.223,0.66-0.535,0.85-0.931l3.559-9.565
			c0.281-0.597,0.418-1.308,0.418-2.174c0-1.648-0.591-3.076-1.757-4.242C68.34,570.09,66.912,569.5,65.263,569.5L65.263,569.5z
			 M65.263,577.129c-0.955,0-1.73-0.776-1.73-1.731s0.777-1.729,1.73-1.729c0.954,0,1.73,0.774,1.73,1.729
			S66.218,577.129,65.263,577.129L65.263,577.129z"/>
	</g>
	<circle fill="#FFFFFF" cx="65.263" cy="575.327" r="2.412"/>
	<g>
		<path fill="#2F3B46" d="M62.263,588.998c-0.324,0-0.633-0.086-0.918-0.254c-0.294-0.181-0.511-0.426-0.65-0.729l-3.562-9.554
			c-0.246-0.521-0.37-1.182-0.37-1.963c0-1.511,0.542-2.818,1.612-3.889c1.067-1.068,2.376-1.609,3.888-1.609
			s2.82,0.541,3.889,1.609c1.069,1.068,1.611,2.378,1.611,3.889c0,0.781-0.125,1.441-0.371,1.963l-3.554,9.56
			c-0.147,0.309-0.372,0.55-0.665,0.725C62.898,588.911,62.589,588.998,62.263,588.998z M62.263,574.164
			c-1.23,0-2.23,1.002-2.23,2.231c0,1.231,1,2.231,2.23,2.231s2.23-1,2.23-2.231C64.496,575.166,63.494,574.164,62.263,574.164z"/>
		<path fill="#FFFFFF" d="M62.263,571.5c1.381,0,2.559,0.486,3.535,1.463c0.977,0.979,1.465,2.155,1.465,3.535
			c0,0.711-0.107,1.293-0.322,1.75l-3.556,9.56c-0.104,0.215-0.26,0.384-0.468,0.508c-0.202,0.123-0.42,0.187-0.654,0.187
			s-0.455-0.062-0.664-0.187c-0.201-0.124-0.352-0.293-0.449-0.508l-3.563-9.56c-0.216-0.457-0.322-1.039-0.322-1.75
			c0-1.38,0.488-2.558,1.466-3.535C59.705,571.986,60.883,571.5,62.263,571.5 M62.263,579.129c1.508,0,2.73-1.226,2.73-2.731
			s-1.223-2.729-2.73-2.729s-2.73,1.224-2.73,2.729S60.755,579.129,62.263,579.129 M62.263,570.5c-1.648,0-3.076,0.59-4.242,1.756
			c-1.166,1.168-1.758,2.597-1.758,4.242c0,0.855,0.141,1.588,0.417,2.176l3.565,9.561c0.175,0.386,0.457,0.704,0.83,0.936
			c0.377,0.223,0.772,0.332,1.188,0.332c0.42,0,0.814-0.111,1.174-0.33c0.371-0.223,0.66-0.535,0.85-0.931l3.559-9.565
			c0.281-0.597,0.418-1.308,0.418-2.174c0-1.648-0.591-3.076-1.757-4.242C65.34,571.09,63.912,570.5,62.263,570.5L62.263,570.5z
			 M62.263,578.129c-0.955,0-1.73-0.776-1.73-1.731s0.777-1.729,1.73-1.729c0.954,0,1.73,0.774,1.73,1.729
			S63.218,578.129,62.263,578.129L62.263,578.129z"/>
	</g>
	<circle fill="#FFFFFF" cx="62.263" cy="576.327" r="2.412"/>
</g>
</svg>
