<?xml version="1.0" encoding="utf-8"?>
<!-- Generator: Adobe Illustrator 16.0.0, SVG Export Plug-In . SVG Version: 6.00 Build 0)  -->
<!DOCTYPE svg PUBLIC "-//W3C//DTD SVG 1.1//EN" "http://www.w3.org/Graphics/SVG/1.1/DTD/svg11.dtd">
<svg version="1.1"
	 id="svg3915" xmlns:cc="http://creativecommons.org/ns#" xmlns:svg="http://www.w3.org/2000/svg" xmlns:dc="http://purl.org/dc/elements/1.1/" xmlns:rdf="http://www.w3.org/1999/02/22-rdf-syntax-ns#"
	 xmlns="http://www.w3.org/2000/svg" xmlns:xlink="http://www.w3.org/1999/xlink" x="0px" y="0px" width="21.599px" height="32.6px"
	 viewBox="91.463 518.601 21.599 32.6" enable-background="new 91.463 518.601 21.599 32.6" xml:space="preserve">
<g>
	<g>
		<path fill="#2F3B46" d="M102.263,550.3c-0.585,0-1.143-0.155-1.654-0.46c-0.531-0.325-0.918-0.767-1.168-1.315l-6.412-15.594
			c-0.441-0.938-0.666-2.127-0.666-3.531c0-2.72,0.977-5.074,2.9-7c1.924-1.924,4.277-2.897,7-2.897c2.721,0,5.076,0.976,7,2.897
			c1.925,1.926,2.9,4.28,2.9,7c0,1.405-0.225,2.594-0.668,3.531l-6.397,15.604c-0.267,0.556-0.668,0.99-1.196,1.307
			C103.407,550.143,102.853,550.3,102.263,550.3z M102.263,525.2c-2.214,0-4.016,1.801-4.016,4.016s1.802,4.018,4.016,4.018
			s4.016-1.803,4.016-4.018S104.478,525.2,102.263,525.2z"/>
		<path fill="#FFFFFF" d="M102.263,520.401c2.484,0,4.605,0.877,6.363,2.635c1.758,1.761,2.637,3.882,2.637,6.363
			c0,1.278-0.193,2.326-0.581,3.147l-6.397,15.604c-0.188,0.387-0.469,0.689-0.844,0.914c-0.363,0.223-0.756,0.334-1.178,0.334
			s-0.82-0.111-1.195-0.334c-0.363-0.225-0.633-0.527-0.809-0.914l-6.416-15.604c-0.387-0.821-0.58-1.869-0.58-3.147
			c0-2.481,0.879-4.604,2.637-6.363C97.657,521.278,99.778,520.401,102.263,520.401 M102.263,534.132
			c2.715,0,4.916-2.203,4.916-4.917c0-2.715-2.201-4.916-4.916-4.916s-4.916,2.201-4.916,4.916
			C97.347,531.929,99.548,534.132,102.263,534.132 M102.263,518.601c-2.968,0-5.538,1.064-7.636,3.163
			c-2.101,2.101-3.164,4.669-3.164,7.636c0,1.562,0.245,2.84,0.751,3.914l6.417,15.606c0.313,0.692,0.819,1.266,1.493,1.68
			c0.678,0.403,1.39,0.601,2.139,0.601c0.758,0,1.471-0.2,2.118-0.599c0.663-0.396,1.183-0.96,1.524-1.667l6.405-15.622
			c0.505-1.071,0.751-2.353,0.751-3.913c0-2.967-1.064-5.535-3.164-7.636S105.231,518.601,102.263,518.601L102.263,518.601z
			 M102.263,532.333c-1.718,0-3.115-1.398-3.115-3.117s1.397-3.116,3.115-3.116c1.719,0,3.116,1.397,3.116,3.116
			C105.379,530.934,103.981,532.333,102.263,532.333L102.263,532.333z"/>
	</g>
	<circle fill="#FFFFFF" cx="102.263" cy="529.285" r="3.488"/>
</g>
</svg>
