<?xml version="1.0" encoding="utf-8"?>
<!-- Generator: Adobe Illustrator 16.0.0, SVG Export Plug-In . SVG Version: 6.00 Build 0)  -->
<!DOCTYPE svg PUBLIC "-//W3C//DTD SVG 1.1//EN" "http://www.w3.org/Graphics/SVG/1.1/DTD/svg11.dtd">
<svg version="1.1"
	 id="svg3915" xmlns:cc="http://creativecommons.org/ns#" xmlns:svg="http://www.w3.org/2000/svg" xmlns:dc="http://purl.org/dc/elements/1.1/" xmlns:rdf="http://www.w3.org/1999/02/22-rdf-syntax-ns#"
	 xmlns="http://www.w3.org/2000/svg" xmlns:xlink="http://www.w3.org/1999/xlink" x="0px" y="0px" width="15px" height="18.002px"
	 viewBox="-203.737 571.5 15 18.002" enable-background="new -203.737 571.5 15 18.002" xml:space="preserve">
<g>
	<g>
		<path fill="#2579BF" d="M-194.737,587.998c-0.324,0-0.633-0.086-0.918-0.254c-0.294-0.181-0.511-0.426-0.65-0.729l-3.562-7.554
			c-0.246-0.521-0.37-1.182-0.37-1.963c0-1.511,0.542-2.818,1.612-3.889c1.068-1.068,2.376-1.609,3.888-1.609
			c1.512,0,2.82,0.541,3.889,1.609s1.611,2.378,1.611,3.889c0,0.781-0.125,1.441-0.371,1.963l-3.554,7.56
			c-0.148,0.309-0.372,0.55-0.665,0.725C-194.103,587.911-194.411,587.998-194.737,587.998z M-194.737,575.164
			c-1.23,0-2.231,1.002-2.231,2.231c0,1.231,1.001,2.231,2.231,2.231s2.231-1,2.231-2.231
			C-192.505,576.166-193.506,575.164-194.737,575.164z"/>
		<path fill="#FFFFFF" d="M-194.737,572.5c1.38,0,2.559,0.486,3.535,1.463c0.977,0.979,1.465,2.155,1.465,3.535
			c0,0.711-0.107,1.293-0.323,1.75l-3.555,7.56c-0.104,0.215-0.26,0.384-0.468,0.508c-0.202,0.123-0.42,0.187-0.654,0.187
			c-0.235,0-0.456-0.062-0.664-0.187c-0.202-0.124-0.352-0.293-0.449-0.508l-3.564-7.56c-0.215-0.457-0.322-1.039-0.322-1.75
			c0-1.38,0.488-2.558,1.465-3.535C-197.296,572.986-196.117,572.5-194.737,572.5 M-194.737,580.129
			c1.508,0,2.731-1.226,2.731-2.731s-1.223-2.729-2.731-2.729c-1.508,0-2.731,1.224-2.731,2.729S-196.245,580.129-194.737,580.129
			 M-194.737,571.5c-1.649,0-3.077,0.59-4.242,1.756c-1.167,1.168-1.758,2.597-1.758,4.242c0,0.855,0.141,1.588,0.417,2.176
			l3.565,7.561c0.175,0.386,0.457,0.704,0.831,0.936c0.377,0.223,0.772,0.332,1.187,0.332c0.419,0,0.814-0.111,1.174-0.33
			c0.371-0.223,0.66-0.535,0.849-0.931l3.559-7.565c0.281-0.597,0.418-1.308,0.418-2.174c0-1.648-0.591-3.076-1.757-4.242
			C-191.66,572.09-193.088,571.5-194.737,571.5L-194.737,571.5z M-194.737,579.129c-0.955,0-1.731-0.776-1.731-1.731
			s0.777-1.729,1.731-1.729c0.954,0,1.731,0.774,1.731,1.729S-193.782,579.129-194.737,579.129L-194.737,579.129z"/>
	</g>
	<circle fill="#FFFFFF" cx="-194.737" cy="577.327" r="2.412"/>
	<g>
		<path fill="#2579BF" d="M-197.737,588.998c-0.324,0-0.633-0.086-0.918-0.254c-0.294-0.181-0.511-0.426-0.65-0.729l-3.562-7.554
			c-0.246-0.521-0.37-1.182-0.37-1.963c0-1.511,0.542-2.818,1.612-3.889c1.068-1.068,2.376-1.609,3.888-1.609
			c1.512,0,2.82,0.541,3.889,1.609s1.611,2.378,1.611,3.889c0,0.781-0.125,1.441-0.371,1.963l-3.554,7.56
			c-0.148,0.309-0.372,0.55-0.665,0.725C-197.103,588.911-197.411,588.998-197.737,588.998z M-197.737,576.164
			c-1.23,0-2.231,1.002-2.231,2.231c0,1.231,1.001,2.231,2.231,2.231s2.231-1,2.231-2.231
			C-195.505,577.166-196.506,576.164-197.737,576.164z"/>
		<path fill="#FFFFFF" d="M-197.737,573.5c1.38,0,2.559,0.486,3.535,1.463c0.977,0.979,1.465,2.155,1.465,3.535
			c0,0.711-0.107,1.293-0.323,1.75l-3.555,7.56c-0.104,0.215-0.26,0.384-0.468,0.508c-0.202,0.123-0.42,0.187-0.654,0.187
			c-0.235,0-0.456-0.062-0.664-0.187c-0.202-0.124-0.352-0.293-0.449-0.508l-3.564-7.56c-0.215-0.457-0.322-1.039-0.322-1.75
			c0-1.38,0.488-2.558,1.465-3.535C-200.296,573.986-199.117,573.5-197.737,573.5 M-197.737,581.129
			c1.508,0,2.731-1.226,2.731-2.731s-1.223-2.729-2.731-2.729c-1.508,0-2.731,1.224-2.731,2.729S-199.245,581.129-197.737,581.129
			 M-197.737,572.5c-1.649,0-3.077,0.59-4.242,1.756c-1.167,1.168-1.758,2.597-1.758,4.242c0,0.855,0.141,1.588,0.417,2.176
			l3.565,7.561c0.175,0.386,0.457,0.704,0.831,0.936c0.377,0.223,0.772,0.332,1.187,0.332c0.419,0,0.814-0.111,1.174-0.33
			c0.371-0.223,0.66-0.535,0.849-0.931l3.559-7.565c0.281-0.597,0.418-1.308,0.418-2.174c0-1.648-0.591-3.076-1.757-4.242
			C-194.66,573.09-196.088,572.5-197.737,572.5L-197.737,572.5z M-197.737,580.129c-0.955,0-1.731-0.776-1.731-1.731
			s0.777-1.729,1.731-1.729c0.954,0,1.731,0.774,1.731,1.729S-196.782,580.129-197.737,580.129L-197.737,580.129z"/>
	</g>
	<circle fill="#FFFFFF" cx="-197.737" cy="578.327" r="2.412"/>
</g>
</svg>
