<?xml version="1.0" encoding="utf-8"?>
<!-- Generator: Adobe Illustrator 16.0.0, SVG Export Plug-In . SVG Version: 6.00 Build 0)  -->
<!DOCTYPE svg PUBLIC "-//W3C//DTD SVG 1.1//EN" "http://www.w3.org/Graphics/SVG/1.1/DTD/svg11.dtd">
<svg version="1.1"
	 id="svg3915" xmlns:cc="http://creativecommons.org/ns#" xmlns:svg="http://www.w3.org/2000/svg" xmlns:dc="http://purl.org/dc/elements/1.1/" xmlns:rdf="http://www.w3.org/1999/02/22-rdf-syntax-ns#"
	 xmlns="http://www.w3.org/2000/svg" xmlns:xlink="http://www.w3.org/1999/xlink" x="0px" y="0px" width="27.599px" height="35.6px"
	 viewBox="-208.62 517.101 27.599 35.6" enable-background="new -208.62 517.101 27.599 35.6" xml:space="preserve">
<g>
	<g>
		<path fill="#2579BF" d="M-191.737,547.3c-0.585,0-1.142-0.155-1.655-0.46c-0.767-0.472-0.556-1.369-0.402-2.024
			c0.032-0.136,0.077-0.326,0.093-0.438l-0.088-0.193l3.283-10.259c-0.052-0.061-0.104-0.123-0.156-0.189
			c-0.863-1.111-0.829-2.416-0.78-4.224c0.013-0.481,0.027-1.019,0.027-1.61c0-0.703-0.403-1.395-0.805-1.949
			c-0.753-0.271-1.589-0.527-2.4-0.776c-2.793-0.856-4.264-1.354-4.535-2.442c-0.068-0.271-0.104-0.808,0.417-1.33
			c1.924-1.924,4.278-2.897,7-2.897c2.721,0,5.076,0.976,7,2.897c1.925,1.926,2.9,4.28,2.9,7c0,1.405-0.224,2.594-0.667,3.531
			l-6.398,13.604c-0.267,0.556-0.668,0.99-1.197,1.307C-190.593,547.143-191.146,547.3-191.737,547.3z"/>
		<path fill="#FFFFFF" d="M-191.737,519.401c2.484,0,4.605,0.877,6.363,2.635c1.758,1.761,2.637,3.882,2.637,6.363
			c0,1.278-0.193,2.326-0.581,3.147l-6.398,13.604c-0.187,0.387-0.468,0.689-0.843,0.914c-0.363,0.223-0.756,0.334-1.178,0.334
			s-0.82-0.111-1.195-0.334c-0.363-0.225,0.283-1.556,0.107-1.94l3.349-10.464c0.091,0.061,0.172,0.089,0.243,0.089
			c0.435,0,0.51-1.063,0.493-2.388l0.319-0.996c-0.16-0.34-0.287-0.72-0.381-1.138c-0.01-0.353-0.018-0.694-0.018-1.016
			c0-2.716-1.047-4.764-3.762-4.764c-1.672,0,0.025,0.562,0.926,1.745c-3.089-1.164-7.627-1.978-6.443-3.162
			C-196.342,520.278-194.221,519.401-191.737,519.401 M-191.657,525.198c1.498,0.563,2.654,1.211,2.654,2.021
			c0,0.75,0.066,1.42,0.199,2.012c0.021,0.707,0.054,1.453,0.062,2.133l-0.735,2.299c-0.134-0.088-0.291-0.244-0.475-0.48
			c-0.856-1.102-0.563-2.566-0.563-5.281C-190.515,526.855-191.095,525.936-191.657,525.198 M-191.737,517.601
			c-2.968,0-5.538,1.064-7.636,3.163c-0.61,0.608-0.848,1.405-0.655,2.185c0.406,1.631,2.291,2.209,5.145,3.084
			c0.704,0.218,1.427,0.438,2.089,0.67c0.251,0.377,0.479,0.815,0.479,1.197c0,0.586-0.015,1.111-0.027,1.588
			c-0.049,1.832-0.088,3.297,0.834,4.614l-3.032,9.476l-0.211,0.66l0.111,0.246c-0.01,0.045-0.021,0.088-0.029,0.125
			c-0.154,0.654-0.514,2.188,0.793,2.991c0.679,0.403,1.39,0.601,2.139,0.601c0.758,0,1.471-0.2,2.118-0.599
			c0.664-0.396,1.183-0.96,1.524-1.667l6.406-13.622c0.505-1.071,0.751-2.353,0.751-3.913c0-2.967-1.064-5.535-3.164-7.636
			C-186.202,518.663-188.769,517.601-191.737,517.601L-191.737,517.601z"/>
	</g>
	<g>
		<path fill="#2579BF" d="M-197.737,550.3c-0.585,0-1.142-0.155-1.655-0.46c-0.53-0.325-0.918-0.767-1.168-1.315l-6.411-13.594
			c-0.442-0.938-0.666-2.127-0.666-3.531c0-2.72,0.976-5.074,2.9-7c1.924-1.924,4.278-2.897,7-2.897c2.721,0,5.076,0.976,7,2.897
			c1.925,1.926,2.9,4.28,2.9,7c0,1.405-0.224,2.594-0.667,3.531l-6.398,13.604c-0.267,0.556-0.668,0.99-1.197,1.307
			C-196.593,550.143-197.146,550.3-197.737,550.3z M-197.737,527.2c-2.214,0-4.016,1.801-4.016,4.016s1.802,4.018,4.016,4.018
			s4.016-1.803,4.016-4.018S-195.521,527.2-197.737,527.2z"/>
		<path fill="#FFFFFF" d="M-197.737,522.401c2.484,0,4.605,0.877,6.363,2.635c1.758,1.761,2.637,3.882,2.637,6.363
			c0,1.278-0.193,2.326-0.581,3.147l-6.398,13.604c-0.187,0.387-0.468,0.689-0.843,0.914c-0.363,0.223-0.756,0.334-1.178,0.334
			s-0.82-0.111-1.195-0.334c-0.363-0.225-0.633-0.527-0.809-0.914l-6.416-13.604c-0.387-0.821-0.58-1.869-0.58-3.147
			c0-2.481,0.879-4.604,2.637-6.363C-202.342,523.278-200.221,522.401-197.737,522.401 M-197.737,536.132
			c2.715,0,4.916-2.203,4.916-4.917c0-2.715-2.201-4.916-4.916-4.916c-2.715,0-4.916,2.201-4.916,4.916
			C-202.653,533.929-200.452,536.132-197.737,536.132 M-197.737,520.601c-2.968,0-5.538,1.064-7.636,3.163
			c-2.1,2.101-3.164,4.669-3.164,7.636c0,1.562,0.246,2.84,0.751,3.914l6.417,13.606c0.314,0.692,0.82,1.266,1.493,1.68
			c0.678,0.403,1.39,0.601,2.139,0.601c0.758,0,1.471-0.2,2.118-0.599c0.664-0.396,1.183-0.96,1.524-1.667l6.406-13.622
			c0.505-1.071,0.751-2.353,0.751-3.913c0-2.967-1.064-5.535-3.164-7.636C-192.202,521.663-194.769,520.601-197.737,520.601
			L-197.737,520.601z M-197.737,534.333c-1.718,0-3.116-1.398-3.116-3.117s1.398-3.116,3.116-3.116c1.718,0,3.116,1.397,3.116,3.116
			C-194.621,532.934-196.019,534.333-197.737,534.333L-197.737,534.333z"/>
	</g>
	<circle fill="#FFFFFF" cx="-197.737" cy="531.285" r="3.488"/>
</g>
</svg>
