<?xml version="1.0" encoding="UTF-8" standalone="no"?>
<svg
   xmlns:svg="http://www.w3.org/2000/svg"
   xmlns="http://www.w3.org/2000/svg"
   width="360" height="180" viewBox="0 0 360 180" >
<g transform="translate(180,90) scale(1,-1)" style="fill:none;stroke:#ff00ff;stroke-width:0.01">

  <polyline points="8.893055,54.461937 8.8375,54.461662 8.826944,54.462776 8.819443,54.465271 8.814722,54.469162 8.814165,54.472496 8.814165,54.497772 8.814999,54.500832 8.816944,54.503052 8.862221,54.524162 8.865833,54.525276 8.921389,54.524994 8.942499,54.523048 8.960554,54.519165 8.954721,54.509163 8.924999,54.474159 8.917776,54.467773 8.914721,54.46611 8.906944,54.463882 8.893055,54.461937" />

  <polyline points="8.662777,54.494164 8.632776,54.491386 8.616388,54.492775 8.612499,54.493889 8.610277,54.495827 8.597776,54.508888 8.591944,54.515549 8.590277,54.524719 8.59111,54.527771 8.593054,54.529999 8.599722,54.533333 8.642221,54.54583 8.691387,54.553886 8.702776,54.553886 8.710833,54.551666 8.711111,54.548607 8.709721,54.532494 8.708332,54.529716 8.691944,54.511383 8.685555,54.504715 8.680277,54.500832 8.67111,54.495827 8.662777,54.494164" />
  
  <polyline points="8.364443,54.613327 8.353611,54.612778 8.348888,54.613609 8.342222,54.616661 8.331944,54.623604 8.298054,54.658607 8.294998,54.66333 8.294443,54.666664 8.296665,54.672218 8.307499,54.687218 8.311943,54.691383 8.342777,54.707771 8.349722,54.710831 8.353888,54.711662 8.358055,54.710548 8.4,54.627777 8.368055,54.614441 8.364443,54.613327" />
  
  <polyline points="8.567778,54.685272 8.56361,54.684166 8.488333,54.685555 8.478333,54.686943 8.402498,54.70472 8.396944,54.708328 8.396944,54.713882 8.406387,54.729439 8.413332,54.735832 8.425833,54.742218 8.444721,54.748329 8.461666,54.751938 8.53861,54.755272 8.551109,54.753883 8.569721,54.750275 8.581944,54.746941 8.584721,54.744995 8.586943,54.74305 8.594721,54.721382 8.594999,54.71833 8.572222,54.689438 8.567778,54.685272" />
  
  <polyline points="8.88361,54.294167 8.83,54.293327 8.695555,54.270271 8.694166,54.267776 8.691111,54.266106 8.679998,54.266106 8.669443,54.266937 8.655554,54.26944 8.64361,54.273048 8.631666,54.27916 8.611944,54.301384 8.607222,54.308609 8.603054,54.316383 8.600277,54.324715 8.599165,54.330551 8.599443,54.333885 8.621944,54.378609 8.633888,54.392776 8.638887,54.39666 8.646111,54.399162 8.650833,54.399719 8.76861,54.410828 8.823332,54.41555 8.828054,54.414719 8.831388,54.413055 8.837776,54.406662 8.840555,54.404999 8.845833,54.404442 8.855555,54.405548 8.886944,54.414162 8.99472,54.451942 9.004999,54.460274 9.014999,54.471939 9.016388,54.474716 9.019444,54.49305 9.016943,54.498329 9.005554,54.508606 8.967777,54.541107 8.960278,54.54361 8.946943,54.546387 8.940277,54.549438 8.921665,54.559441 8.916111,54.562775 8.850832,54.620827 8.814165,54.668327 8.804998,54.685555 8.754444,54.711662 8.734444,54.721107 8.696943,54.746941 8.655554,54.800827 8.648611,54.810272 8.645555,54.814995 8.642221,54.826385 8.640554,54.838051 8.573443,54.850273 8.577277,54.861107 8.58055,54.867878 8.54561,54.870605 8.39011,54.86694 8.3025,54.859993 8.300554,54.857498 8.298054,54.848328 8.294443,54.825272 8.292221,54.789444 8.29361,54.783607 8.299999,54.773888 8.300554,54.767494 8.298611,54.740273 8.298332,54.738884 8.288332,54.737495 8.282221,54.744164 8.281111,54.746941 8.280554,54.752777 8.280554,54.774994 8.281387,54.818054 8.282776,54.835274 8.291111,54.894722 8.295555,54.906387 8.30361,54.926384 8.310833,54.93972 8.373333,55.033333 8.383055,55.045273 8.393332,55.053055 8.404999,55.056664 8.41111,55.056389 8.447222,55.053055 8.459444,55.049721 8.463055,55.04805 8.438332,55.024162 8.421665,55.013054 8.410276,55.009438 8.40111,55.008049 8.397499,55.00666 8.371944,54.994164 8.353888,54.973053 8.352221,54.966942 8.352777,54.951385 8.41663,54.926727 8.418464,54.917896 8.421297,54.913559 8.426464,54.910229 8.430631,54.908562 8.456798,54.900558 8.465631,54.899391 8.490464,54.900558 8.598331,54.905899 8.602464,54.913559 8.602797,54.917725 8.664545,54.913094" />
  
  <polyline points="9.445358,54.825401 9.441944,54.819717 9.437498,54.807777 9.439165,54.802216 9.578333,54.825554 9.660555,54.812218 9.785555,54.78611 9.889721,54.788887 9.896387,54.791664 9.905832,54.79277 9.916666,54.791107 9.935833,54.781944 9.961943,54.768608 9.972776,54.761108 9.976665,54.75666 10.036943,54.67115 10.037777,54.665321 10.039999,54.633072 10.032499,54.555275 10.010832,54.528885 10.006388,54.524719 10.000323,54.520866 9.970554,54.5075 9.893055,54.481941 9.871111,54.477493 9.849998,54.479164 9.845276,54.478607 9.843332,54.476105 9.8434659,54.474643" />
  
</g>
</svg>
