<?xml version="1.0" encoding="UTF-8" standalone="no"?>
<svg
   xmlns:svg="http://www.w3.org/2000/svg"
   xmlns="http://www.w3.org/2000/svg"
   width="360" height="180" viewBox="0 0 360 180" >
<g transform="translate(180,90) scale(1,-1)" style="fill:none;stroke:#ff00ff;stroke-width:0.01">

  <polyline points="9.5957852,55.36713 9.66111,55.287498 9.6675,55.28083 9.673332,55.277222 9.683887,55.272774 9.694443,55.268883 9.706944,55.265549 9.711111,55.261108 9.712221,55.258331 9.711666,55.244995 9.711388,55.241661 9.709999,55.238884 9.68861,55.196938 9.683054,55.192497 9.676388,55.189995 9.660555,55.185272 9.638611,55.180832 9.633888,55.181664 9.619999,55.191109 9.606943,55.193886 9.590555,55.193054 9.577221,55.190552 9.565277,55.187218 9.489443,55.151939 9.463055,55.128609 9.459166,55.123886 9.461943,55.11805 9.5075,55.050278 9.548611,55.032494 9.636389,55.016388 9.719166,54.99472 9.722776,54.99305 9.727499,54.989441 9.733055,54.982498 9.746666,54.947777 9.764166,54.901665 9.768055,54.891106 9.750277,54.84111 9.747221,54.836105 9.742777,54.831383 9.737221,54.827774 9.726665,54.827499 9.627777,54.851944 9.620554,54.85527 9.614166,54.890549 9.63361,54.901108 9.642776,54.902496 9.646944,54.906944 9.648054,54.913887 9.643888,54.918327 9.638611,54.922218 9.632221,54.925278 9.612778,54.928329 9.601944,54.928604 9.593054,54.926941 9.502777,54.868332 9.458055,54.838608 9.452776,54.834999 9.448332,54.830276 9.445358,54.825401" />
  
  <polyline points="8.664545,54.913094 8.654722,54.981941 8.676109,55.114166 8.561388,55.10083 8.561943,55.094719 8.560833,55.088051 8.556389,55.083328 8.504166,55.061943 8.495832,55.060272 8.487499,55.062775 8.480833,55.065826 8.471388,55.073608 8.468054,55.084999 8.456944,55.123886 8.458332,55.130554 8.469999,55.169998 8.471943,55.175827 8.475555,55.181389 8.483055,55.191109 8.488333,55.195 8.506388,55.197495 8.558054,55.19416 8.568054,55.193329 8.585554,55.188606 8.592777,55.185555 8.593616,55.179817 8.588333,55.176384 8.567221,55.16861 8.561666,55.164719 8.553888,55.154442 8.554443,55.149719 8.569166,55.144165 8.584753,55.140495 8.632158,55.132393 8.643888,55.131104 8.683611,55.1325 8.688889,55.136383 8.691387,55.14222 8.692221,55.149162 8.689444,55.160271 8.661388,55.203331 8.658054,55.258606 8.6618375,55.285518" />
  
  <polyline points="9.792500,55.074997 9.966110,55.012497 9.971943,55.008888 10.000000,54.983719 10.004721,54.979721 10.042221,54.940277 10.043888,54.937775 10.069166,54.895264 10.071943,54.889992 10.073055,54.880821 10.071110,54.874710 10.067499,54.873047 9.988888,54.859993 9.978611,54.858604 9.956388,54.858055 9.936388,54.860275 9.926943,54.862495 9.895832,54.871666 9.804165,54.899437 9.785831,54.906105 9.781387,54.910271 9.778610,54.915550 9.772499,54.928886 9.758333,54.961388 9.758610,54.978882 9.760555,54.981110 9.765276,54.980553 9.781387,54.969162 9.819166,54.946663 9.829166,54.941940 9.836943,54.939720 9.842222,54.939995 9.844166,54.942215 9.843611,54.945274 9.838888,54.970551 9.836111,54.976387 9.798887,55.011108 9.793610,55.014999 9.782776,55.015549 9.741943,55.012215 9.718054,55.009438 9.700832,55.009720 9.696665,55.010551 9.681110,55.015274 9.674721,55.018326 9.632221,55.046944 9.630554,55.049438 9.630833,55.052773 9.639444,55.058609 9.664721,55.067772 9.707777,55.080826 9.716944,55.082497 9.754166,55.084442 9.771944,55.080826 9.792500,55.074997"/> 

</g>
</svg>
