<?xml version="1.0" encoding="UTF-8" standalone="no"?>
<svg
   xmlns:svg="http://www.w3.org/2000/svg"
   xmlns="http://www.w3.org/2000/svg"
   width="360" height="180" viewBox="0 0 360 180" >
<g transform="translate(180,90) scale(1,-1)" style="fill:none;stroke:#ff00ff;stroke-width:0.01">

  <polyline points="11.513887,54.82972 11.564444,54.821938 11.6425,54.877777 11.641666,54.900833 11.641943,54.903885 11.643888,54.906105 11.648611,54.906662 11.656944,54.903885 11.708611,54.875275 11.735277,54.854996 11.844999,54.769997 11.849443,54.765831 11.861666,54.746109 11.862221,54.74305 11.858332,54.689438 11.85611,54.683327 11.844166,54.669441 11.833887,54.66111 11.785,54.639999 11.775555,54.640831 11.736387,54.645271 11.7225,54.651108 11.693888,54.655548 11.640554,54.662498 11.588333,54.663605 11.578888,54.66333 11.522499,54.641937 11.4725,54.622772 11.466389,54.619995 11.461388,54.618889 11.455555,54.619438 11.451387,54.620552 11.377222,54.64666 11.350277,54.658882 11.315277,54.675552 11.278055,54.699715 11.26222,54.707222 11.245832,54.711662 11.190554,54.725555 11.144444,54.736938 11.125555,54.740273 11.099165,54.742493 11.031666,54.756104 11.02611,54.758606 11.019722,54.762772 10.994999,54.782776 10.99111,54.787216 10.989891,54.790848 11.025276,54.814438 11.013611,54.890274 11.014444,54.895828 11.027498,54.910271 11.031944,54.914719 11.042221,54.92305 11.057777,54.934998 11.071388,54.940826 11.118889,54.950829 11.136389,54.953888 11.164444,54.956665 11.193144,54.957397 11.239721,54.957222 11.275555,54.949715 11.288332,54.943054 11.33111,54.919441 11.336111,54.91555 11.339998,54.911385 11.347221,54.896111 11.35111,54.891937 11.361111,54.883888 11.393332,54.86805 11.408888,54.862495 11.513887,54.82972" />

  <polyline points="12.038055,54.892494 12.060833,54.891106 12.079443,54.893608 12.085278,54.893608 12.095554,54.892494 12.103611,54.890274 12.110554,54.887497 12.119444,54.882217 12.136665,54.868607 12.168055,54.84166 12.169443,54.839165 12.16861,54.836105 12.166666,54.833885 12.158333,54.828606 12.11972,54.806389 12.107222,54.799721 12.08861,54.79361 12.078333,54.789162 12.071943,54.785828 12.055277,54.774719 11.981388,54.710274 11.969721,54.69944 11.963055,54.685272 11.960833,54.675827 11.958611,54.66333 11.959999,54.647774 11.963055,54.629715 11.967777,54.609444 11.974443,54.586937 11.978888,54.576111 11.98,54.570274 11.978611,54.567215 11.969166,54.562218 11.964443,54.561661 11.944721,54.567497 11.929443,54.572777 11.923054,54.576111 11.871944,54.651382 11.871111,54.667221 11.877777,54.687775 11.891943,54.701111 11.899166,54.718605 11.85611,54.774162 11.801943,54.839165 11.792776,54.844719 11.781944,54.848885 11.755554,54.854721 11.751944,54.859161 11.708611,54.936661 11.713333,54.941666 11.732222,54.954437 11.742222,54.95916 11.750832,54.960831 11.766943,54.961662 11.846666,54.956108 11.850587,54.954784 11.865035,54.947559 11.996944,54.903885 12.019999,54.896385 12.038055,54.892494" />

  <polyline points="10.432777,54.84166 10.407221,54.821388 10.399443,54.824165 10.248333,54.90416 10.243055,54.907776 10.190832,54.958054 10.185555,54.968048 10.184166,54.97361 10.18861,54.97805 10.285555,54.936104 10.306665,54.926941 10.440832,54.863884 10.432777,54.84166" />

  <polyline points="12.557499,54.964165 12.557499,54.960831 12.55611,54.957771 12.548054,54.949165 12.544722,54.94722 12.536665,54.945 12.520555,54.94416 12.501665,54.94722 12.472776,54.955826 12.463888,54.957497 12.404165,54.963051 12.377222,54.963051 12.361666,54.962219 12.338055,54.958885 12.311943,54.950554 12.308887,54.948883 12.264166,54.919167 12.183611,54.880272 12.16361,54.883049 12.150833,54.886108 12.115833,54.90416 12.132221,54.951385 12.135832,54.956665 12.177776,54.982498 12.311943,55.035271 12.395277,55.032494 12.452221,55.026939 12.506666,55.015831 12.527777,55.010277 12.532776,55.00666 12.536388,55.001938 12.554722,54.972221 12.557499,54.964165" />

  <polyline points="10.615,54.950272 10.565277,54.946106 10.555832,54.946938 10.549166,54.949997 10.516943,54.978882 10.513054,54.98333 10.49861,55.001663 10.49861,55.006386 10.504999,55.009438 10.622499,55.043884 10.631943,55.043327 10.674444,54.994438 10.677221,54.989441 10.674721,54.98333 10.67111,54.97805 10.666666,54.97361 10.615,54.950272" />

  <polyline points="10.756943,54.777222 10.714722,54.724998 10.703609,54.725555 10.697222,54.729164 10.688332,54.737495 10.674999,54.753883 10.655554,54.802498 10.651943,54.837219 10.681944,54.908607 10.693609,54.922218 10.736666,54.959717 10.766388,54.976944 10.773333,54.979721 10.790277,54.983887 10.796944,54.986938 10.801388,54.991104 10.850555,55.044998 10.886389,55.104721 10.891109,55.113052 10.907499,55.138611 10.911388,55.143608 10.925833,55.155273 10.93222,55.158882 10.935833,55.160271 10.944443,55.161659 10.949165,55.16111 10.955,55.157494 10.958887,55.152771 10.959721,55.149994 10.958887,55.14444 10.936943,55.089996 10.93111,55.075829 10.910555,55.028328 10.897778,55.001106 10.895832,54.997772 10.88611,54.988884 10.876944,54.98333 10.857777,54.967773 10.838888,54.943329 10.786943,54.843887 10.756943,54.777222" />

  <polyline points="8.46361,55.33416 8.452776,55.333885 8.439165,55.339996 8.429722,55.348053 8.403055,55.37944 8.388887,55.398048 8.356943,55.452217 8.360277,55.457771 8.365555,55.461662 8.380833,55.466385 8.389444,55.468048 8.401388,55.467499 8.458332,55.426384 8.461111,55.421387 8.473331,55.342499 8.471388,55.336388 8.46361,55.33416" />

  <polyline points="10.745277,55.482216 10.790554,55.362778 10.828333,55.306664 10.834721,55.293884 10.834444,55.290276 10.815832,55.205276 10.811666,55.186386 10.785555,55.128052 10.782776,55.122498 10.779444,55.117775 10.740276,55.067215 10.733332,55.064438 10.725555,55.062218 10.665554,55.060555 10.627222,55.060829 10.616388,55.060555 10.598888,55.058052 10.584166,55.052773 10.529444,55.029442 10.519444,55.02861 10.497776,55.028885 10.152777,55.084442 10.135277,55.117218 10.150555,55.121941 10.154444,55.126938 10.152777,55.132774 10.15,55.137497 10.11861,55.178886 10.108332,55.186386 10.09861,55.188049 10.005833,55.193329 9.896944,55.279716 9.896666,55.285828 9.888332,55.336662 9.88722,55.342216 9.810833,55.436661 9.768055,55.466942 9.728888,55.474159 9.684999,55.491104 9.678333,55.494438 9.675554,55.499161 9.679998,55.503609 9.74861,55.540276 9.813055,55.547493 9.824165,55.547218 9.832499,55.544716 9.834721,55.539993 9.835278,55.527496 9.8375,55.522499 9.843332,55.518883 9.856388,55.512497 9.864721,55.509995 9.883333,55.505829 9.895277,55.505554 9.904999,55.505829 9.921665,55.50972 9.935833,55.514999 10.000304,55.541264 10.073889,55.556664 10.124722,55.568054 10.148611,55.574165 10.164721,55.578606 10.177776,55.584442 10.2125,55.598885 10.289721,55.614998 10.298887,55.616661 10.309721,55.616943 10.327221,55.611938 10.399166,55.588882 10.405554,55.585548 10.484722,55.532494 10.47361,55.514999 10.452221,55.481667 10.445276,55.478607 10.427776,55.468048 10.422222,55.464439 10.416111,55.452774 10.4175,55.44722 10.420277,55.442497 10.425554,55.438606 10.437498,55.437775 10.468887,55.437218 10.478611,55.438049 10.600277,55.482773 10.60611,55.486382 10.608889,55.492493 10.614166,55.51944 10.617498,55.563889 10.612778,55.592499 10.607222,55.602493 10.603333,55.607216 10.610554,55.617218 10.613888,55.618607 10.619165,55.619164 10.626944,55.616661 10.634443,55.610275 10.658054,55.589996 10.662498,55.585274 10.744444,55.496666 10.747221,55.491104 10.745277,55.482216" />

  <polyline points="12.579443,55.551384 12.570833,55.549438 12.559999,55.550552 12.5525,55.553055 12.546665,55.556664 12.527222,55.572777 12.522221,55.576942 12.5175,55.58416 12.511665,55.606667 12.511944,55.609718 12.513887,55.612495 12.521839,55.619118 12.550278,55.63694 12.558611,55.642494 12.578333,55.666382 12.590277,55.681107 12.60611,55.696106 12.609999,55.694717 12.61611,55.688049 12.650122,55.640987 12.666943,55.616661 12.676388,55.598885 12.678333,55.593605 12.67861,55.590553 12.675833,55.588608 12.579443,55.551384" />

  <polyline points="10.630554,55.865555 10.639999,55.863609 10.650833,55.863609 10.658888,55.865829 10.663332,55.870277 10.665833,55.876389 10.666893,55.892586 10.666943,55.875549 10.665554,55.868607 10.613888,55.763329 10.608055,55.75972 10.600277,55.7575 10.589167,55.7575 10.544722,55.761108 10.534166,55.762497 10.527498,55.765831 10.524721,55.770828 10.511665,55.801941 10.511665,55.808052 10.516388,55.970833 10.523611,55.981384 10.540833,55.992775 10.547499,55.995827 10.555277,55.998055 10.562498,55.996109 10.560833,55.989441 10.557499,55.984161 10.556665,55.969719 10.560555,55.952774 10.619999,55.873055 10.623888,55.868889 10.630554,55.865555" />

  <polyline points="12.567221,55.992218 12.529999,55.949715 12.525555,55.94194 12.516943,55.925552 12.515554,55.919441 12.519165,55.911385 12.558875,55.867237 12.566944,55.857498 12.574444,55.848053 12.575832,55.845551 12.596388,55.798882 12.59861,55.793327 12.599998,55.76722 12.600277,55.75444 12.584166,55.735275 12.599443,55.707222 12.600277,55.704163 12.596109,55.69944 12.561388,55.666939 12.549999,55.657219 12.540833,55.650833 12.524166,55.639442 12.502777,55.631386 12.496944,55.606667 12.495554,55.603882 12.492222,55.602219 12.486666,55.601662 12.448055,55.604164 12.444721,55.604996 12.441666,55.607216 12.435833,55.614166 12.432499,55.615555 12.421665,55.616386 12.403889,55.616661 12.391388,55.613609 12.380833,55.609993 12.344444,55.593048 12.339458,55.590206 12.269444,55.559998 12.253332,55.552498 12.244444,55.54361 12.205832,55.50222 12.19611,55.490273 12.191666,55.482216 12.190832,55.478607 12.190554,55.465553 12.192778,55.457771 12.195276,55.452217 12.200554,55.444717 12.206665,55.438332 12.224165,55.427773 12.231667,55.424438 12.297777,55.403053 12.343611,55.401665 12.363888,55.398888 12.376665,55.395271 12.399443,55.381104 12.430555,55.361664 12.43611,55.357498 12.444166,55.348328 12.451944,55.336388 12.453609,55.330551 12.462776,55.29277 12.461666,55.286385 12.449165,55.276382 12.443333,55.272499 12.425833,55.261665 12.412498,55.255829 12.333887,55.234993 12.325277,55.23333 12.315554,55.232773 12.293888,55.233055 12.272499,55.233887 12.243889,55.236938 12.203333,55.22805 12.176109,55.220551 12.03611,55.173332 12.025555,55.169441 12.014999,55.161385 12.013054,55.158607 12.012777,55.155548 12.013054,55.152496 12.015276,55.150276 12.018055,55.148605 12.058054,55.133049 12.065554,55.130554 12.074999,55.128883 12.086943,55.128883 12.096109,55.12944 12.115,55.132774 12.130554,55.133606 12.149443,55.130272 12.173332,55.122772 12.179165,55.11972 12.18111,55.117218 12.181389,55.114166 12.173611,55.004997 12.173054,55.001389 12.171665,54.998886 12.166666,54.995552 12.158609,54.992775 12.071943,54.968605 12.041111,54.966385 12.013332,54.96833 11.994999,54.971382 11.978333,54.979164 11.953333,54.998886 11.949999,55.000275 11.945833,55.001938 11.936388,55.003326 11.913887,55.004715 11.910276,55.003326 11.896387,54.991386 11.895555,54.988327 11.896111,54.985832 11.900913,54.978825 11.859722,55.013885 11.840277,55.023331 11.730555,55.060555 11.783054,55.1325 11.797777,55.15583 11.74111,55.198883 11.730833,55.203606 11.717777,55.206665 11.694508,55.207603 11.683332,55.204163 11.658333,55.187218 11.612221,55.187218 11.553055,55.190826 11.543055,55.192772 11.518888,55.199997 11.453888,55.212494 11.427776,55.215828 11.416943,55.215828 11.400276,55.212219 11.350832,55.201385 11.323055,55.190552 11.30611,55.188889 11.272778,55.192772 11.262499,55.194443 11.253054,55.196388 11.246666,55.199715 11.244165,55.204437 11.187777,55.338882 11.218054,55.393608 11.217222,55.399162 11.203609,55.448883 11.149166,55.567497 11.144444,55.577499 11.089167,55.662773 11.083611,55.669998 11.075277,55.672775 10.994165,55.692497 10.879999,55.729439 10.87361,55.732498 10.878054,55.736938 10.88722,55.738327 10.897221,55.739166 10.940832,55.738884 10.953054,55.738052 11.129444,55.721664 11.138611,55.713608 11.152777,55.707771 11.16861,55.702774 11.189165,55.699165 11.201111,55.698051 11.211111,55.698883 11.343332,55.747498 11.486944,55.84166 11.496387,55.85083 11.5,55.85611 11.506388,55.867218 11.511665,55.87944 11.515833,55.891937 11.516388,55.898331 11.510277,55.914162 11.507776,55.918884 11.491665,55.930275 11.478611,55.936943 11.470276,55.939438 11.449165,55.942497 11.379721,55.946938 11.359722,55.949165 11.283333,55.971382 11.278055,55.975273 11.274166,55.979439 11.273333,55.991661 11.312777,55.98111 11.409166,55.961388 11.606388,55.936386 11.664444,55.941666 11.706388,55.950829 11.737778,55.959442 11.74472,55.962494 11.752777,55.964439 11.763887,55.964722 11.772778,55.962219 11.77861,55.958328 11.781944,55.954163 11.778332,55.948608 11.739721,55.921387 11.670277,55.890549 11.670555,55.814163 11.717499,55.793327 11.727499,55.794716 11.732777,55.794441 11.736387,55.793053 11.745277,55.784164 11.765554,55.758606 11.799721,55.687218 11.799999,55.683884 11.79444,55.661659 11.819721,55.674721 11.822498,55.676666 11.825554,55.682495 11.832083,55.707016 11.843611,55.764442 11.902777,55.925827 11.905277,55.927773 11.914165,55.929718 11.924999,55.928886 11.941111,55.924438 11.959444,55.917221 11.986944,55.904716 11.992777,55.901108 11.998888,55.89444 12.001389,55.88916 12.035276,55.806389 12.040554,55.793327 12.055555,55.751389 12.056944,55.742218 12.056389,55.736107 12.054443,55.729996 12.050833,55.724442 12.045555,55.720551 12.031111,55.715271 12.02611,55.714722 12.009722,55.715271 11.970554,55.717499 11.936666,55.676941 11.935833,55.653328 12.05722,55.653328 12.061943,55.658051 12.092222,55.698326 12.093887,55.711105 12.092222,55.722496 12.090832,55.72805 12.087776,55.738884 12.07222,55.764538 12.042221,55.919167 12.039721,55.924164 12.014721,55.956108 12.0075,55.959442 11.979166,55.956665 11.933887,55.949997 11.886665,55.936943 11.87611,55.936104 11.866388,55.937218 11.853611,55.943886 11.84861,55.947777 11.845833,55.952499 11.848331,55.958611 11.859444,55.96666 11.865833,55.969719 11.919167,55.994438 12.174166,56.103607 12.200277,56.112221 12.275,56.12722 12.290554,56.128883 12.301666,56.128609 12.312498,56.12722 12.331388,56.124161 12.514166,56.087776 12.533609,56.080826 12.612499,56.045273 12.618889,56.041939 12.61972,56.039444 12.618055,56.033882 12.593887,56.004715 12.584166,55.999443 12.573332,55.995827 12.567221,55.992218" />

  <polyline points="11.565832,56.67083 11.556665,56.669441 11.545832,56.67083 11.503054,56.70166 11.503332,56.707771 11.510277,56.710831 11.637777,56.722771 11.648054,56.723328 11.648611,56.719994 11.565832,56.67083" />

  <polyline points="8.924721,56.91861 8.878887,56.798607 8.831388,56.743332 8.769999,56.693604 8.766943,56.692215 8.744999,56.687218 8.734999,56.685555 8.655277,56.674164 8.636944,56.69722 8.603054,56.72583 8.563889,56.737221 8.554722,56.738884 8.542776,56.738609 8.524721,56.731384 8.519722,56.73111 8.514166,56.731941 8.510832,56.733604 8.509165,56.73555 8.509722,56.741661 8.54611,56.793327 8.617005,56.830849 8.647499,56.887215 8.65,56.889442 8.658054,56.891388 8.668888,56.892776 8.696943,56.89222 8.733332,56.894165 8.738888,56.894722 8.81361,56.904999 8.817221,56.906662 8.826387,56.914719 8.839167,56.935555 8.853333,56.95166 8.855833,56.953888 8.859722,56.955276 8.865276,56.955551 8.899721,56.955276 8.910831,56.948326 8.924721,56.922493 8.924721,56.91861" />

  <polyline points="9.974274,57.071732 10.12361,57.018326 10.146944,57.0075 10.157499,57.003052 10.179443,56.994164 10.204721,56.987495 10.218054,56.984161 10.228333,56.982498 10.245832,56.981941 10.311891,56.981304 10.288055,56.963051 10.282221,56.952217 10.272221,56.926384 10.269165,56.917221 10.268332,56.90416 10.281111,56.825554 10.28611,56.801666 10.286943,56.798882 10.305277,56.748055 10.240555,56.717773 10.159443,56.720551 10.154444,56.719994 9.866388,56.650276 9.886389,56.641937 9.933054,56.641663 10.003611,56.659164 10.077221,56.686104 10.177221,56.696388 10.316111,56.696106 10.33861,56.695274 10.3475,56.689995 10.353333,56.682777 10.360554,56.670273 10.361944,56.664444 10.363609,56.644997 10.363609,56.638885 10.35861,56.63166 10.340944,56.622604 10.331989,56.616249 10.329277,56.614441 10.312777,56.611774 10.307943,56.610443 10.285276,56.600555 10.273333,56.593048 10.245554,56.573326 10.218887,56.553055 10.210554,56.535553 10.187777,56.468605 10.230833,56.473053 10.22611,56.489166 10.224165,56.506943 10.223888,56.53833 10.230276,56.549438 10.236666,56.553604 10.308666,56.578159 10.329666,56.569992 10.330499,56.566162 10.358332,56.562218 10.360554,56.559715 10.36861,56.553329 10.414721,56.528053 10.425833,56.524162 10.508888,56.510826 10.530277,56.508331 10.584999,56.511383 10.646111,56.52166 10.765276,56.532494 10.786943,56.534164 10.844166,56.523888 10.85111,56.520828 10.860832,56.515831 10.872499,56.508888 10.960833,56.445 10.963055,56.439438 10.921389,56.343605 10.907499,56.328606 10.744999,56.163887 10.673887,56.187775 10.683054,56.189163 10.686388,56.19416 10.692221,56.206383 10.691944,56.212219 10.690554,56.217773 10.684444,56.221107 10.66861,56.226662 10.647499,56.229439 10.636389,56.229439 10.625555,56.228333 10.617777,56.226387 10.611111,56.22361 10.589722,56.207222 10.555277,56.176941 10.549166,56.166382 10.547777,56.159996 10.550554,56.154716 10.554165,56.149994 10.572222,56.132774 10.577776,56.123055 10.575554,56.116661 10.571388,56.111382 10.559999,56.103607 10.55361,56.10083 10.545832,56.098885 10.535831,56.098328 10.524166,56.09861 10.515276,56.10083 10.389999,56.161942 10.353054,56.195274 10.358332,56.199715 10.4275,56.221107 10.436943,56.221939 10.442499,56.21833 10.479443,56.220551 10.508333,56.264999 10.5075,56.270828 10.501944,56.274162 10.44861,56.291939 10.400555,56.290833 10.24679,56.178551 10.231943,56.166664 10.219166,56.151665 10.21611,56.146111 10.214998,56.139717 10.220833,56.129715 10.226387,56.125832 10.238888,56.119164 10.244165,56.114998 10.255833,56.095551 10.261665,56.07972 10.279722,56.018883 10.251944,55.920555 10.249722,55.914162 10.193054,55.833054 10.189165,55.828049 10.183054,55.824715 10.173054,55.826942 10.150555,55.834999 10.143888,55.838333 10.140276,55.843048 10.137499,55.848328 10.134998,55.859161 10.132221,55.864441 10.126665,55.868332 10.11972,55.871666 10.105555,55.87722 10.093887,55.878609 10.061388,55.878609 10.049721,55.878319 10.01229,55.874622 9.982498,55.871666 9.871666,55.849998 9.865555,55.846382 9.867222,55.840828 9.873888,55.837776 9.882221,55.835274 9.892221,55.833328 9.922777,55.828606 9.956388,55.824997 10,55.82164 10.040277,55.81694 10.048611,55.814438 10.045832,55.750275 9.992777,55.704994 9.831665,55.671387 9.811666,55.669441 9.802221,55.670273 9.737498,55.683773 9.732666,55.685276 9.725165,55.689606 9.687777,55.703606 9.671944,55.708885 9.649721,55.711388 9.638887,55.711388 9.55722,55.708885 9.549999,55.705826 9.552776,55.700554 9.558332,55.696663 9.566387,55.694443 9.574165,55.693329 9.585278,55.693329 9.616665,55.695 9.639444,55.692772 9.652777,55.686661 9.721722,55.653107 9.819166,55.604721 9.704166,55.531105 9.592777,55.426109 9.588333,55.421661 9.5875,55.414719 9.590277,55.410271 9.598055,55.401665 9.603611,55.397499 9.610275,55.39444 9.599998,55.378326 9.596943,55.373329 9.5957852,55.36713" />
  
  <polyline points="8.6618375,55.285518 8.662498,55.313606 8.663887,55.320549 8.662222,55.332497 8.638054,55.402771 8.623888,55.427498 8.612499,55.434715 8.599443,55.441109 8.589722,55.443054 8.53611,55.449165 8.48,55.453888 8.468054,55.454163 8.44972,55.451942 8.439999,55.452217 8.307499,55.553329 8.256943,55.491104 8.104166,55.537773 8.091389,55.544716 8.087221,55.548882 8.087221,55.554993 8.093332,55.565826 8.119444,55.59333 8.126665,55.603333 8.139444,55.624718 8.17861,55.710548 8.18222,55.723053 8.185555,55.74305 8.183611,55.755272 8.166388,55.848328 8.153332,55.899162 8.143055,55.938049 8.134443,55.959442 8.126665,55.979721 8.12611,55.983055 8.127222,55.98555 8.130833,55.986938 8.139444,55.984718 8.147499,55.976944 8.152222,55.968605 8.154722,55.963608 8.158333,55.953606 8.161943,55.942772 8.168055,55.920555 8.173332,55.897499 8.18222,55.839439 8.183332,55.81472 8.186388,55.809998 8.193609,55.808052 8.202221,55.809998 8.276667,55.834999 8.323889,55.85611 8.394165,55.891937 8.397221,55.897499 8.385277,55.923332 8.316944,56.010826 8.316944,56.01722 8.313055,56.046661 8.312498,56.050278 8.31111,56.053055 8.308887,56.054718 8.270832,56.074997 8.254999,56.082771 8.223888,56.092773 8.146111,56.111107 8.141109,56.111664 8.137499,56.110832 8.141109,56.102493 8.145277,56.080826 8.146387,56.071106 8.146387,56.067497 8.1425,55.999161 8.141943,55.996384 8.133333,55.994164 8.127222,55.994438 8.119165,55.996941 8.113888,56.000832 8.108332,56.017776 8.10111,56.052216 8.101665,56.071388 8.105555,56.11805 8.122776,56.349159 8.119999,56.450272 8.118332,56.53083 8.120832,56.549995 8.122776,56.556107 8.156111,56.637772 8.165277,56.653328 8.175554,56.66777 8.194721,56.691383 8.209166,56.707771 8.212221,56.709442 8.216665,56.710548 8.221109,56.709442 8.224165,56.707771 8.229166,56.703331 8.237778,56.687775 8.223331,56.664993 8.211388,56.653885 8.206388,56.646385 8.203888,56.638054 8.205832,56.635551 8.249722,56.604996 8.327221,56.579994 8.390554,56.582222 8.401667,56.581108 8.415833,56.578331 8.470833,56.561104 8.519165,56.543053 8.592222,56.503883 8.626665,56.478607 8.629721,56.476662 8.632776,56.475273 8.646944,56.472771 8.653055,56.472771 8.728333,56.482216 8.739443,56.486382 8.745832,56.49305 8.747221,56.498886 8.756914,56.548996 8.758055,56.549721 8.763054,56.553886 8.765554,56.556389 8.766109,56.558609 8.764444,56.564438 8.759443,56.568604 8.729443,56.579437 8.712776,56.58416 8.706665,56.587776 8.680832,56.614166 8.680277,56.617218 8.68111,56.619995 8.838333,56.715828 8.845554,56.729439 8.862778,56.750832 8.873055,56.762497 8.952499,56.804718 8.967499,56.805832 9.07,56.807777 9.075567,56.807449 9.105276,56.79583 9.111387,56.79277 9.113333,56.790276 9.152498,56.703888 9.144999,56.700829 9.134722,56.693329 9.055277,56.630554 9.053333,56.628052 9.043333,56.602219 9.043333,56.599159 9.04611,56.590553 9.055555,56.571663 9.058611,56.56694 9.064165,56.563049 9.073332,56.561386 9.081388,56.563332 9.09111,56.568886 9.093611,56.571388 9.101387,56.583611 9.100277,56.589996 9.098331,56.592773 9.0975,56.59861 9.099443,56.604439 9.103888,56.609161 9.106943,56.61055 9.177776,56.626663 9.210833,56.633049 9.225832,56.634438 9.248888,56.633331 9.274166,56.629997 9.280054,56.623165 9.284056,56.619164 9.284389,56.615334 9.283555,56.611832 9.281944,56.604164 9.273333,56.602219 9.264999,56.599159 9.251665,56.583328 9.250832,56.580276 9.2675,56.558327 9.278332,56.547775 9.312498,56.525551 9.317221,56.524994 9.321665,56.525551 9.371111,56.540833 9.373055,56.543053 9.373888,56.546104 9.37611,56.558884 9.376389,56.564995 9.370832,56.568886 9.361666,56.570549 9.344166,56.566383 9.323056,56.67638 9.32,56.681389 9.304443,56.699997 9.301943,56.702217 9.294722,56.704994 9.288887,56.705551 9.280277,56.704163 9.276388,56.703049 9.273333,56.701111 9.266388,56.695 9.260555,56.691383 9.186388,56.669716 9.180832,56.669441 9.173332,56.671944 9.169722,56.673882 9.166111,56.678055 9.164999,56.892494 9.1782,56.916031 9.290277,56.995552 9.301109,57 9.309444,57.001938 9.365555,57.012215 9.409721,57.018326 9.425554,57.019997 9.466944,57.01944 9.478054,57.018883 9.516943,57.016106 9.521944,57.015549 9.551109,57.007217 9.559166,57.004715 9.68611,57.038605 9.764166,57.053329 9.774721,57.054161 9.80722,57.050552 9.853611,57.045555 9.939999,57.054161 9.945,57.054993 9.951666,57.058327 9.966499,57.066544 9.974274,57.071732" />
  
  <polyline points="11.195833,57.310829 11.079166,57.250275 11.058332,57.240829 11.023888,57.229721 10.997499,57.223328 10.982222,57.221664 10.961943,57.238052 10.949999,57.245827 10.933887,57.250275 10.922499,57.250832 10.907776,57.248329 10.896111,57.24472 10.884722,57.245552 10.874998,57.247772 10.865,57.25222 10.855,57.260826 10.854443,57.263054 10.860554,57.26722 10.918055,57.301109 10.921389,57.302773 11.025833,57.320274 11.144444,57.331383 11.150276,57.331665 11.183887,57.327499 11.188889,57.326385 11.191944,57.324997 11.194443,57.322777 11.196943,57.314163 11.195833,57.310829" />

  <polyline points="10.432499,57.592216 10.43111,57.579163 10.435833,57.551384 10.438332,57.543327 10.444721,57.532776 10.448332,57.528328 10.453054,57.524162 10.528055,57.413887 10.542221,57.229996 10.534721,57.223885 10.530832,57.221664 10.513332,57.214722 10.453333,57.184715 10.442778,57.176666 10.423887,57.157219 10.414165,57.143326 10.336616,56.991665 10.244999,56.989716 10.228054,56.991104 10.218611,56.992775 10.193054,57.002777 10.151943,57.024719 10.11972,57.041664 10.031944,57.083046 10.020832,57.086929 10.011665,57.089157 10.006666,57.089989 10.000276,57.089668 9.5,57.046387 9.289444,57.004715 9.269722,56.998329 9.255278,56.996109 9.243889,56.995552 9.233889,56.997215 9.221388,57.001389 9.203609,57.011665 9.181389,57.023888 9.159166,57.035271 9.140554,57.04277 9.115549,57.052773 9.11861,57.04805 9.120277,57.039162 9.115833,57.034996 9.107498,57.032494 9.03861,57.01194 9.032776,57.011665 9.027777,57.012772 9.027222,57.015549 9.02861,57.018608 9.027498,57.021111 9.021387,57.024437 9.010555,57.025833 9.000555,57.024994 8.885832,56.997498 8.827166,56.971069 8.775,56.951942 8.766109,56.949715 8.754999,56.950554 8.735554,56.956665 8.724443,56.957497 8.68111,56.949997 8.673332,56.94722 8.670832,56.945274 8.619165,56.885551 8.617222,56.873329 8.617777,56.863052 8.616943,56.856941 8.611666,56.84861 8.607498,56.844162 8.572498,56.819443 8.563889,56.813606 8.559999,56.812218 8.533054,56.803886 8.514444,56.800552 8.50111,56.797218 8.491665,56.792496 8.487221,56.788055 8.48361,56.782494 8.482777,56.779999 8.463055,56.697777 8.415797,56.678127 8.441713,56.674347 8.445214,56.674011 8.48838,56.670345 8.514444,56.66777 8.519444,56.66861 8.535831,56.673882 8.550833,56.68222 8.570276,56.688889 8.58,56.68972 8.584999,56.689163 8.591389,56.686104 8.594999,56.680832 8.607222,56.630554 8.598888,56.60833 8.5975,56.60611 8.554998,56.582497 8.549444,56.582222 8.541388,56.584442 8.532221,56.589439 8.524166,56.595276 8.478054,56.631386 8.459099,56.642181 8.457266,56.645184 8.453599,56.649185 8.448765,56.653015 8.436932,56.65852 8.398278,56.672043 8.368332,56.677216 8.248888,56.698608 8.240276,56.707222 8.238609,56.712776 8.235554,56.736938 8.234999,56.755554 8.235832,56.768883 8.236387,56.775551 8.245832,56.806664 8.256109,56.822777 8.264166,56.832771 8.290554,56.860275 8.336666,56.905548 8.378887,56.945549 8.450554,57.004997 8.577221,57.096107 8.603888,57.114716 8.617222,57.121666 8.624166,57.124443 8.628611,57.125275 8.639444,57.124718 8.654444,57.121666 8.713888,57.10611 8.737221,57.102219 8.766109,57.101105 8.804998,57.103882 8.846666,57.10833 8.894165,57.119995 9.017221,57.15361 9.079721,57.145271 9.161388,57.137497 9.19611,57.136108 9.243889,57.13694 9.265276,57.138885 9.384165,57.150276 9.389999,57.151108 9.406944,57.156944 9.458887,57.176109 9.47361,57.181664 9.495832,57.190277 9.540833,57.213882 9.546665,57.217499 9.580555,57.241104 9.649443,57.303329 9.707777,57.364998 9.720554,57.37944 9.731388,57.395271 9.763611,57.435555 9.772778,57.444717 9.793333,57.462219 9.94972,57.583611 9.960278,57.588333 9.971109,57.589439 10,57.589722 10.04361,57.588608 10.104166,57.589722 10.128611,57.590271 10.16111,57.592216 10.18111,57.594994 10.218332,57.602219 10.266943,57.613052 10.289721,57.620827 10.300833,57.625549 10.408333,57.673607 10.453333,57.697495 10.509998,57.725273 10.537498,57.737495 10.544167,57.740273 10.56111,57.745277 10.577221,57.746666 10.605276,57.744164 10.644999,57.737495 10.645953,57.736267 10.621944,57.727776 10.578054,57.710831 10.560276,57.702499 10.526388,57.683609 10.505554,57.666664 10.48111,57.645828 10.461666,57.628609 10.454721,57.622215 10.447498,57.614998 10.437777,57.603333 10.432499,57.592216" />

  <polyline points="8.710255,47.696808 8.678595,47.693344 8.675554,47.697495 8.673298,47.701771 8.670277,47.707497 8.670555,47.711105 8.675278,47.712494 8.698889,47.713608 8.705,47.713051 8.708332,47.710548 8.709721,47.70694 8.710255,47.696808" />

  <polyline points="12.729721,54.416664 12.68861,54.41555 12.68611,54.418327 12.696943,54.424995 12.702776,54.428329 12.706944,54.427773 12.727221,54.42305 12.731943,54.418884 12.729721,54.416664" />
  
</g>
</svg>
