<?xml version="1.0" encoding="UTF-8" standalone="no"?>
<svg
   xmlns:svg="http://www.w3.org/2000/svg"
   xmlns="http://www.w3.org/2000/svg"
   width="360" height="180" viewBox="0 0 360 180" >
<g transform="translate(180,90) scale(1,-1)" style="fill:none;stroke:#ff00ff;stroke-width:0.01">

  <polyline points="29.995998,69.456266 29.959754,69.38817 29.960332,69.175075 30.001116,69.034186 30.023288,68.863486 29.930797,68.732458 29.642313,68.560274 29.344468,68.302098 29.283711,68.080031 29.458925,67.777343 29.504011,67.555421 29.686991,67.370513 30.05182,67.263016 30.283889,67.173249 30.200043,67.009351 30.095152,66.877319 29.965477,66.800745 29.95469,66.66594 29.966376,66.436985 29.99807,66.284168 29.969727,66.102429 29.756745,66.052169 29.695951,65.947505 29.93187,65.874055 29.7116,65.625682 29.834164,65.588331 29.798054,65.537489 29.779163,65.530271 29.761387,65.523039 29.746109,65.514433 29.738331,65.481108 29.739719,65.455549 29.745552,65.414717 29.75,65.352766 29.749443,65.347761 29.747498,65.341932 29.706108,65.319715 29.679996,65.306929 29.66222,65.298872 29.620831,65.276655 29.605274,65.265821 29.598888,65.259718 29.596943,65.253874 29.596386,65.248884 29.599163,65.243605 29.603054,65.239439 29.609444,65.235273 29.626389,65.227491 29.639721,65.22444 29.652222,65.223326 29.665554,65.223326 29.737221,65.226652 29.787498,65.226377 29.813889,65.22444 29.827499,65.222486 29.843052,65.219984 29.853611,65.216108 29.866108,65.208052 29.869999,65.203321 29.872776,65.198316 29.874443,65.125822 29.873886,65.120817 29.864719,65.116651 29.836666,65.106932 29.806942,65.09915 29.773888,65.094709 29.726387,65.092497 29.683609,65.08444 29.664719,65.079161 29.65472,65.075544 29.637218,65.068327 29.628887,65.063047 29.622498,65.056379 29.616665,65.044996 29.609444,65.023039 29.606388,65.007215 29.606667,65.001661 29.609997,64.991941 29.636665,64.928053 29.644997,64.913877 29.652775,64.904707 29.671944,64.887205 29.714443,64.852217 29.730553,64.83943 29.736664,64.834989 29.754997,64.822493 29.774441,64.809706 29.794167,64.797209 29.804722,64.793882 29.818333,64.792494 29.843052,64.792494 29.891666,64.793043 29.926388,64.794706 29.950275,64.795545 30.048054,64.795545 30.074444,64.793608 30.087776,64.791654 30.115833,64.785826 30.126389,64.782484 30.140831,64.774153 30.144722,64.769987 30.209164,64.672773 30.210552,64.667768 30.208611,64.662489 30.199165,64.650267 30.186386,64.63777 30.178886,64.631651 30.170277,64.62805 30.141666,64.619429 30.072498,64.604429 30.033333,64.59915 30.020554,64.596098 29.980831,64.585829 29.974998,64.581098 29.974998,64.57443 29.986942,64.553053 30.00967,64.512861 30.011387,64.511656 30.048885,64.502485 30.068607,64.494718 30.087219,64.483045 30.088608,64.478331 30.088333,64.467771 30.083054,64.452207 30.061386,64.422483 30.053608,64.404997 30.065552,64.39694 30.118889,64.369154 30.12722,64.364988 30.135277,64.361372 30.156109,64.354154 30.170277,64.351377 30.196941,64.348875 30.321663,64.329435 30.359444,64.319715 30.389721,64.309431 30.552776,64.24832 30.560833,64.244429 30.566666,64.239988 30.573887,64.230818 30.576664,64.226103 30.578053,64.221373 30.611111,64.101652 30.614441,64.086653 30.611664,64.075819 30.608887,64.064985 30.595276,64.046934 30.558887,64.020552 30.54361,64.009993 30.52861,63.999998 30.488609,63.977774 30.471943,63.968885 30.398052,63.930548 30.27861,63.832769 30.263611,63.822218 30.255833,63.81777 30.210552,63.800825 30.134998,63.779997 30.114719,63.775274 30.063053,63.766661 30.033054,63.760824 30.013054,63.756384 30.004719,63.752775 29.996712,63.748022 29.993332,63.743605 29.995831,63.738882 30.00333,63.729437 30.206387,63.612776 30.228333,63.600553 30.244442,63.593046 30.254719,63.58972 30.308887,63.572493 30.357498,63.559996 30.391388,63.549993 30.399441,63.546102 30.452499,63.508047 30.461941,63.499159 30.472775,63.485548 30.477497,63.481108 30.481667,63.478605 30.648888,63.439718 30.714722,63.424436 30.91222,63.353605 31.186386,63.238325 31.219719,63.223051 31.236664,63.210272 31.242222,63.205549 31.245831,63.201109 31.383053,63.069158 31.514999,62.986936 31.524166,62.978331 31.570098,62.935042 31.798464,62.944207 32.081963,62.78866 32.337295,62.629038 32.632251,62.468351 32.784005,62.400982 32.777215,62.23717 32.638185,62.155766 32.50155,62.093298 32.784783,62.050313 32.898499,61.952918 32.855881,61.847093 32.731028,61.81138 32.599382,61.893697 32.425231,61.957501 32.235155,61.918579 32.052121,61.84892 32.013843,61.742969 32.249933,61.644463 32.291454,61.537245 32.389733,61.444252 32.355539,61.288675 32.226063,61.153041 32.067218,61.0466 31.90579,61.036243 31.656641,60.943145 31.501247,60.836285 31.280014,60.725784 31.102615,60.635567 30.901572,60.56205 30.77627,60.500566 30.700959,60.510645 30.614775,60.500155 30.635601,60.436123 30.528133,60.415072 30.438088,60.421556 30.300809,60.455614 30.163113,60.489815 30.120721,60.404541 30.146915,60.32374 29.993201,60.298087 29.97129,60.249551 30.066464,60.192374 30.047896,60.139352 29.973949,60.106449 29.957457,60.198823 29.844831,60.200186 29.759888,60.242549 29.722773,60.243509 29.727212,60.228639 29.668047,60.241003 29.564134,60.219927 29.521183,60.231238 29.426562,60.199058 29.453662,60.189317 29.443034,60.159932 29.162826,60.166557 29.128585,60.153925 28.990133,60.19121 28.997288,60.23552 28.897087,60.265261 28.829521,60.324713 28.752658,60.319174 28.744521,60.319707 28.618645,60.35434 28.438197,60.543975 28.703504,60.442385 28.582233,60.606871 28.696517,60.593619 28.644358,60.654236 28.739724,60.664324 28.77061,60.725563 28.697989,60.767699 28.696884,60.732537 28.65129,60.71389 28.656675,60.694752 28.58026,60.648134 28.565864,60.612878 28.471722,60.64774 28.401873,60.608364 28.280808,60.572099 28.237022,60.517894 27.997683,60.500673 27.857778,60.450392 27.760057,60.490528 27.738052,60.511383" />
  
</g>
</svg>
