<?xml version="1.0" encoding="UTF-8" standalone="no"?>
<svg
   xmlns:svg="http://www.w3.org/2000/svg"
   xmlns="http://www.w3.org/2000/svg"
   width="360" height="180" viewBox="0 0 360 180" >
<g transform="translate(180,90) scale(1,-1)" style="fill:none;stroke:#ff50ff;stroke-width:0.01">

  <polyline points="23.705826,59.927216 23.649437,59.92083 23.616386,59.925552 23.596664,59.923882 23.507221,59.91555 23.402222,59.900833 23.391109,59.901382 23.380554,59.903053 23.372776,59.906387 23.369999,59.911385 23.370831,59.916939 23.383884,59.925827 23.51833,59.958611 23.527775,59.959717 23.538326,59.960274 23.549438,59.959717 23.723328,59.933884 23.729439,59.931938 23.726383,59.929718 23.705826,59.927216" />

  <polyline points="22.833611,59.956383 22.843052,59.953331 22.940277,59.956665 22.981937,59.958611 23.001938,59.960548 23.054161,59.958611 23.068054,59.955551 23.072498,59.951111 23.071941,59.945549 23.05611,59.903328 23.049999,59.898605 23.040554,59.897217 23.018055,59.899994 22.945831,59.902222 22.927776,59.898605 22.9175,59.898331 22.885277,59.901939 22.87722,59.905273 22.847496,59.919441 22.807777,59.945274 22.803333,59.949715 22.802219,59.954994 22.808887,59.967499 22.814999,59.972496 22.823608,59.974716 22.830555,59.972221 22.831387,59.966942 22.829166,59.960831 22.833611,59.956383" />

  <polyline points="22.438885,59.995827 22.381382,59.986664 22.373329,59.989998 22.367714,60 22.353333,60.034164 22.348331,60.049438 22.349442,60.060829 22.351944,60.06694 22.357777,60.071663 22.364719,60.075829 22.404442,60.083885 22.415833,60.081383 22.434444,60.076385 22.440552,60.072495 22.445831,60.064438 22.451385,60.054993 22.452499,60.049721 22.450275,60.01416 22.447777,60.008049 22.442635,60 22.438885,59.995827" />

  <polyline points="21.598053,60.098053 21.520554,60.093605 21.51083,60.096664 21.484722,60.10833 21.485275,60.113884 21.501942,60.139442 21.52972,60.154716 21.552776,60.164444 21.562222,60.165833 21.596386,60.164993 21.633331,60.161659 21.646664,60.159721 21.655552,60.155548 21.655277,60.145554 21.638332,60.109993 21.635277,60.104721 21.598053,60.098053" />

  <polyline points="21.748886,60.111382 21.739166,60.109993 21.727776,60.110275 21.703331,60.112495 21.695274,60.115829 21.704441,60.166939 21.708885,60.179161 21.715553,60.183052 21.723331,60.186386 21.827221,60.190826 21.856388,60.191666 21.872776,60.184715 21.885277,60.177216 21.88472,60.171387 21.864719,60.154999 21.785,60.118889 21.748886,60.111382" />

  <polyline points="21.396664,60.178604 21.385277,60.156662 21.307499,60.173882 21.271942,60.184715 21.26833,60.188049 21.273888,60.193054 21.287498,60.201111 21.296108,60.203331 21.305553,60.204994 21.338886,60.204994 21.350277,60.20472 21.386387,60.188049 21.396664,60.178604" />

  <polyline points="22.000832,60.12944 21.990276,60.128883 21.962219,60.1325 21.952221,60.135277 21.943054,60.143883 21.93861,60.164719 21.937496,60.169998 21.942219,60.175827 21.949997,60.178886 22.032776,60.205276 22.060833,60.203888 22.07,60.195274 22.070274,60.190826 22.030552,60.142776 22.023888,60.138885 22.000832,60.12944" />

  <polyline points="25.84861,60.195549 25.829998,60.192497 25.818886,60.195274 25.813053,60.199165 25.810555,60.204163 25.814442,60.20916 25.821663,60.213051 25.839443,60.216942 25.851665,60.215553 25.874996,60.211105 25.86972,60.207771 25.855831,60.19944 25.84861,60.195549" />

  <polyline points="22.824444,60.227219 22.834999,60.193886 22.847221,60.124718 22.848053,60.119438 22.839165,60.096382 22.835831,60.09111 22.736111,60.003052 22.726665,60.001663 22.682217,59.997772 22.676109,60.001663 22.633331,60.004715 22.601109,59.98333 22.60133,60 22.600277,60.004997 22.572498,60.027496 22.528889,60.006104 22.521111,60.003052 22.511665,60.001663 22.472771,59.996941 22.469463,60 22.471132,60.072083 22.424164,60.10833 22.415276,60.152222 22.430275,60.194443 22.443607,60.213333 22.449718,60.21833 22.457497,60.221382 22.467777,60.221939 22.474163,60.218048 22.475277,60.212776 22.587776,60.202499 22.645275,60.210831 22.732498,60.219994 22.824444,60.227219" />

  <polyline points="22.242222,60.181107 22.224163,60.177498 22.215275,60.179443 22.214165,60.184715 22.212498,60.200829 22.217777,60.218605 22.222775,60.224442 22.228611,60.229164 22.235554,60.23333 22.242496,60.237221 22.250275,60.240273 22.284721,60.249443 22.294441,60.248604 22.30611,60.223053 22.302776,60.217773 22.291111,60.208054 22.264442,60.191383 22.242222,60.181107" />

  <polyline points="25.677219,60.234993 25.634998,60.198051 25.598053,60.207771 25.59111,60.210548 25.561665,60.260551 25.561108,60.265831 25.576664,60.290833 25.585552,60.293053 25.595276,60.291939 25.604721,60.288605 25.673885,60.250549 25.679722,60.246384 25.681942,60.241661 25.677219,60.234993" />

  <polyline points="22.34222,60.283051 22.335831,60.268326 22.33083,60.262497 22.320274,60.26194 22.310555,60.264999 22.297222,60.266937 22.285831,60.26722 22.277222,60.264999 22.234722,60.252777 22.226944,60.249718 22.213333,60.241661 22.218887,60.269722 22.209164,60.272499 22.144722,60.281105 22.141388,60.277771 22.179443,60.273605 22.180553,60.268326 22.177219,60.263054 22.169441,60.259995 22.151108,60.256104 22.129166,60.255829 22.078888,60.261383 22.071941,60.263885 22.068886,60.268608 22.069164,60.285271 22.069721,60.291107 22.075554,60.29583 22.096107,60.307777 22.20583,60.309166 22.21722,60.308884 22.241943,60.306389 22.318054,60.293327 22.34111,60.28833 22.34222,60.283051" />

  <polyline points="22.383331,60.28833 22.373608,60.286942 22.315277,60.316666 22.325275,60.334717 22.331108,60.339722 22.338886,60.342773 22.396664,60.351105 22.402775,60.349442 22.472221,60.327774 22.476944,60.323608 22.47361,60.318329 22.467499,60.313606 22.460552,60.309441 22.452774,60.306389 22.418888,60.296387 22.383331,60.28833" />

  <polyline points="21.982777,60.324165 21.972221,60.323608 21.959721,60.324715 21.946388,60.326942 21.899441,60.335274 21.818886,60.358055 21.796387,60.368607 21.789997,60.372498 21.785275,60.376938 21.784721,60.387772 21.804996,60.459442 21.807499,60.465553 21.816109,60.467773 21.826664,60.466385 21.896385,60.444443 21.933331,60.416664 21.996666,60.358887 21.999443,60.337494 21.997219,60.331383 21.982777,60.324165" />

  <polyline points="21.751663,60.498329 21.691666,60.450272 21.684444,60.452774 21.684998,60.458611 21.688889,60.469444 21.695,60.482216 21.699165,60.488884 21.73,60.520271 21.736664,60.524162 21.745552,60.526382 21.756943,60.526108 21.763332,60.522499 21.763885,60.515831 21.7575,60.503052 21.751663,60.498329" />

  <polyline points="21.328888,60.48111 21.323608,60.477493 21.275833,60.47805 21.23,60.547775 21.226944,60.552498 21.23111,60.556938 21.250275,60.554993 21.278053,60.540276 21.283886,60.535828 21.298332,60.522774 21.321388,60.495827 21.328888,60.48111" />

  <polyline points="21.48333,60.520271 21.432499,60.469719 21.419167,60.471664 21.409164,60.474442 21.324997,60.516106 21.321941,60.543053 21.332775,60.553886 21.338608,60.556389 21.358055,60.559441 21.369442,60.559166 21.392776,60.556664 21.457497,60.535828 21.47583,60.529442 21.480553,60.525276 21.48333,60.520271" />

  <polyline points="21.290276,60.612221 21.289165,60.561386 21.276665,60.562492 21.230553,60.590553 21.221107,60.599159 21.218052,60.603882 21.213886,60.613884 21.214165,60.61972 21.21833,60.623886 21.255833,60.643051 21.266666,60.643608 21.276108,60.634995 21.290276,60.612221" />

  <polyline points="21.327499,60.87722 21.318607,60.874992 21.263885,60.879166 21.245831,60.949997 21.254166,60.958885 21.268055,60.964722 21.286663,60.968605 21.296387,60.967773 21.304722,60.964439 21.321941,60.953606 21.3475,60.932495 21.35722,60.921944 21.327499,60.87722" />

  <polyline points="21.080276,63.281387 21.292221,63.239441 21.299721,63.243332 21.348331,63.254166 21.370552,63.256386 21.41333,63.251389 21.41861,63.246941 21.427219,63.196938 21.42083,63.192215 21.309998,63.15361 21.300552,63.151382 21.279442,63.148331 21.246944,63.144722 21.25222,63.152771 21.248055,63.156105 21.195,63.187492 21.186108,63.190826 21.182777,63.185555 21.18222,63.179993 21.175831,63.174995 21.165276,63.173607 21.151665,63.174438 21.144722,63.178329 21.132774,63.192215 21.098888,63.236107 21.081387,63.270554 21.079998,63.275833 21.080276,63.281387" />

  <polyline points="22.180832,63.265274 22.170277,63.263885 22.078331,63.279442 22.061108,63.289719 22.044167,63.301941 22.040833,63.306938 22.046387,63.310272 22.075275,63.317215 22.085831,63.318604 22.192497,63.321938 22.197498,63.32 22.206944,63.30555 22.209999,63.300827 22.207497,63.294716 22.186386,63.270828 22.180832,63.265274" />

  <polyline points="21.32333,63.289162 21.315552,63.287216 21.23333,63.320274 21.231941,63.325554 21.238331,63.330276 21.291111,63.349998 21.301666,63.351387 21.338608,63.351662 21.352219,63.350555 21.37611,63.345276 21.381107,63.34111 21.378887,63.334999 21.345554,63.301109 21.32333,63.289162" />

  <polyline points="22.873608,63.799995 22.868332,63.770554 22.853333,63.776939 22.816944,63.780548 22.770275,63.784164 22.750832,63.779716 22.706665,63.775276 22.679443,63.785271 22.672497,63.789162 22.671387,63.794441 22.672222,63.79805 22.676941,63.804443 22.683609,63.809441 22.703053,63.820549 22.80611,63.876938 22.866665,63.874161 22.880554,63.872772 22.89222,63.871109 22.897499,63.866943 22.916943,63.833054 22.918331,63.827774 22.917221,63.821938 22.911663,63.816383 22.887775,63.815277 22.879997,63.811386 22.876389,63.806107 22.873608,63.799995" />

  <polyline points="24.734997,64.944443 24.722775,64.944153 24.707497,64.946381 24.603054,64.961929 24.596107,64.96582 24.585831,64.972488 24.568054,64.990555 24.551666,65.024994 24.554996,65.031097 24.562222,65.035828 24.615555,65.056381 24.624996,65.059158 24.645832,65.063599 24.678055,65.068878 24.700832,65.071381 24.808609,65.078049 24.833611,65.078598 24.848053,65.077209 25.018887,65.04361 25.029999,65.040543 25.035,65.036102 25.029442,65.029709 25.021111,65.027771 25,65.025848 24.961109,65.024429 24.846664,65.003601 24.820274,64.963882 24.734997,64.944443" />

  <polyline points="24.462219,65.763885 24.449718,65.763611 24.436943,65.769714 24.440552,65.775833 24.454441,65.786102 24.465275,65.78833 24.48,65.786942 24.495831,65.784714 24.503052,65.780548 24.5,65.776657 24.462219,65.763885" />
  
  <polyline points="24.173332,65.793884 24.176666,65.789154 24.214443,65.774994 24.226109,65.771942 24.409443,65.766388 24.419998,65.768326 24.448952,65.794273 24.538609,65.795273 24.560833,65.819153 24.563332,65.830276 24.621666,65.886108 24.631386,65.88916 24.689163,65.896103 24.629997,65.854431 24.561943,65.79332 24.556389,65.786942 24.553886,65.775543 24.553608,65.764709 24.553333,65.753876 24.554722,65.732498 24.557499,65.727768 24.562775,65.723328 24.669167,65.654709 24.74472,65.645828 24.752499,65.650543 24.771664,65.656662 24.796108,65.658325 24.884441,65.649765 24.898052,65.647018 25.070274,65.61055 25.079441,65.606934 25.086666,65.603043 25.092735,65.591873 25.094719,65.573318 25.108887,65.565277 25.123333,65.557495 25.140831,65.551102 25.153332,65.551666 25.16972,65.559998 25.18222,65.560272 25.196941,65.558884 25.210552,65.556107 25.219719,65.55249 25.296665,65.519165 25.310833,65.511108 25.349163,65.480545 25.353333,65.476944 25.356941,65.450821 25.357498,65.445541 25.355274,65.410828 25.324997,65.345825 25.301109,65.29361 25.293053,65.266388 25.267498,65.169998 25.284721,65.110825 25.298054,65.108047 25.346943,65.096375 25.360832,65.088333 25.370552,65.079437 25.413055,65.034164 25.448608,64.960541 25.44722,64.954712 25.440552,64.949158 25.42083,64.944153 25.407497,64.944717 25.37611,64.954712 25.359997,64.962494 25.339165,64.974442 25.32333,64.981934 25.311943,64.983047 25.218609,64.989166 25.208054,64.987213 25.188332,64.96611 25.190277,64.961929 25.226665,64.931656 25.233608,64.927765 25.303055,64.903885 25.317219,64.902222 25.337219,64.907211 25.34861,64.9086 25.360832,64.906662 25.365555,64.902222 25.366943,64.891663 25.364166,64.83194 25.359722,64.826935 25.339996,64.82193 25.319443,64.817764 25.297497,64.814438 25.26083,64.813599 25.246387,64.814987 25.23333,64.817764 25.227497,64.820831 25.196388,64.843323 25.191387,64.847763 25.180275,64.866943 25.11972,64.905548 25.112778,64.909439 25.09972,64.912216 25.086388,64.912766 25.075832,64.910828 25,64.892212 24.803333,64.869156 24.73111,64.854431 24.542221,64.80249 24.536942,64.795822 24.535553,64.752213 24.535275,64.741379 24.424999,64.675278 24.376942,64.628601 24.371666,64.622208 24.36861,64.616104 24.367496,64.610275 24.367222,64.599442 24.375832,64.584991 24.376663,64.579712 24.359165,64.543045 24.34333,64.523605 24.335278,64.519714 24.278053,64.496933 24.209721,64.472763 24.119999,64.436386 23.999443,64.385818 23.992222,64.381104 23.929996,64.296936 23.923885,64.284988 23.926666,64.269165 23.855274,64.243881 23.722221,64.184158 23.711662,64.162903 23.694164,64.1586 23.652222,64.140823 23.60833,64.098328 23.602219,64.064438 23.511387,64.036377 23.434719,64.048874 23.420555,64.049988 23.395832,64.049988 23.38472,64.048599 23.379997,64.042221 23.371387,63.986938 23.368889,63.943604 23.371944,63.938889 23.318886,63.89666 23.206108,63.886665 23.195274,63.885277 23.152775,63.879166 23.143055,63.876938 23.066387,63.85083 22.923332,63.801109 22.918331,63.769165 22.925278,63.765274 22.930275,63.760826 22.931389,63.755829 22.899998,63.698608 22.824444,63.641388 22.780552,63.625832 22.752499,63.618332 22.740833,63.617775 22.733608,63.621666 22.706108,63.653885 22.707775,63.664993 22.702774,63.681107 22.699718,63.685829 22.680553,63.697777 22.668888,63.69944 22.656944,63.698883 22.589165,63.695549 22.502777,63.623886 22.5,63.617493 22.504166,63.607773 22.512981,63.598732 22.505276,63.583611 22.489441,63.565826 22.429443,63.498886 22.396385,63.472496 22.37611,63.489716 22.337776,63.518326 22.328888,63.52166 22.2925,63.527222 22.283886,63.524162 22.188053,63.463051 22.186108,63.446106 22.185555,63.440552 22.191666,63.430832 22.198055,63.421387 22.203053,63.417221 22.271942,63.386108 22.298611,63.375832 22.320274,63.369995 22.327221,63.366104 22.355553,63.339722 22.371387,63.315826 22.367775,63.310555 22.342777,63.279442 22.337219,63.273605 22.216942,63.236382 22.179722,63.230827 22.086109,63.222771 21.966663,63.183052 21.892776,63.206108 21.890831,63.253326 21.881943,63.25666 21.869164,63.256943 21.690277,63.20916 21.647221,63.19194 21.63361,63.193054 21.583054,63.208611 21.576111,63.212219 21.570831,63.21666 21.569443,63.221939 21.564442,63.226105 21.555553,63.229439 21.542774,63.231941 21.534164,63.228607 21.504166,63.214722 21.497776,63.209999 21.493053,63.197495 21.492496,63.19194 21.501663,63.159721 21.515274,63.129997 21.521942,63.120552 21.561108,63.083611 21.566387,63.079163 21.575275,63.075829 21.611385,63.068054 21.651665,63.049721 21.658607,63.04583 21.677776,63.033882 21.682777,63.029716 21.686108,63.024994 21.679722,63.019997 21.670277,63.017776 21.619999,63.018608 21.561108,63.037498 21.552219,63.040833 21.547222,63.045273 21.544441,63.05555 21.537498,63.059441 21.519722,63.066109 21.506107,63.067215 21.495552,63.065826 21.439163,63.042496 21.434719,63.035828 21.434166,63.030273 21.450554,63.006386 21.445831,62.967499 21.433331,62.943329 21.396385,62.886665 21.3825,62.86972 21.37722,62.863884 21.370831,62.859161 21.362499,62.855827 21.351944,62.854439 21.339722,62.854721 21.298054,62.860832 21.137497,62.791939 21.130276,62.787773 21.112499,62.774437 21.10611,62.76944 21.101944,62.762772 21.06472,62.612221 21.064163,62.596382 21.067497,62.59166 21.125275,62.547493 21.114998,62.491386 21.111664,62.45166 21.155552,62.412773 21.259163,62.375832 21.327774,62.352219 21.336666,62.348885 21.371666,62.259995 21.388611,62.208885 21.389999,62.203606 21.382774,62.185272 21.377777,62.179443 21.333885,62.153885 21.305832,62.108887 21.285553,62.069443 21.25333,62.005554 21.280277,61.948051 21.288887,61.944717 21.299603,61.941826 21.363331,61.929443 21.410553,61.890549 21.488052,61.803055 21.489441,61.797775 21.478333,61.772774 21.470833,61.760826 21.470276,61.755272 21.535275,61.653328 21.601387,61.601662 21.668053,61.546944 21.659721,61.533607 21.603333,61.544716 21.50333,61.573051 21.493332,61.573883 21.4725,61.562492 21.465275,61.550552 21.497498,61.519997 21.51083,61.512497 21.519444,61.509163 21.530552,61.44722 21.554443,61.309441 21.544441,61.276382 21.493889,61.23555 21.444443,61.167221 21.405552,61.030548 21.387775,60.940826 21.328331,60.865273 21.355553,60.814995 21.392498,60.755554 21.386108,60.686386 21.363609,60.686386 21.355,60.683609 21.354721,60.673607 21.358608,60.65361 21.418331,60.585274 21.429996,60.573326 21.452774,60.562492 21.47361,60.56472 21.489719,60.57 21.497219,60.573608 21.5075,60.574715 21.518608,60.574715 21.545555,60.570831 21.557499,60.568329 21.576942,60.562492 21.587776,60.51194 21.588333,60.506943 21.664165,60.552498 21.766388,60.599716 21.774998,60.60305 21.824444,60.619164 21.830555,60.594994 21.828888,60.58194 21.81361,60.575829 21.799999,60.56694 21.796944,60.561943 21.796665,60.555832 21.803055,60.482498 21.863052,60.471939 21.841663,60.508049 21.837498,60.518326 21.839722,60.524162 21.851944,60.524162 21.86972,60.524162 21.937496,60.521385 21.947498,60.518608 21.949165,60.513054 21.971107,60.488052 22.014442,60.465271 22.083611,60.443886 22.114719,60.448883 22.175831,60.431389 22.236664,60.408333 22.259163,60.398048 22.276943,60.385826 22.483608,60.391937 22.622776,60.393051 22.632221,60.391937 22.63361,60.38694 22.631386,60.381104 22.62611,60.374992 22.620277,60.370277 22.53611,60.312492 22.488052,60.284996 22.480274,60.281387 22.465275,60.266663 22.460278,60.261108 22.44722,60.244438 22.451385,60.240273 22.55595,60.213326 22.574997,60.210548 22.662777,60.222221 22.699165,60.229164 22.725555,60.234993 22.74361,60.239716 22.760555,60.244164 22.793888,60.254997 22.808331,60.26194 22.919167,60.304161 23.055832,60.353333 23.066944,60.35305 23.078888,60.350555 23.086941,60.346939 23.086388,60.34166 23.023052,60.286942 23.011387,60.277496 22.971107,60.25222 22.964443,60.248329 22.933609,60.234718 22.919998,60.227219 22.907219,60.21833 22.901386,60.213333 22.86972,60.179161 22.874443,60.145554 22.906109,60.126389 22.967499,60.111938 23.022499,60.129166 23.027775,60.128052 23.041943,60.120827 23.04361,60.116661 23.017288,60.101219 23.003609,60.091385 22.992496,60.081108 22.985554,60.062775 22.987778,60.057777 22.995831,60.054443 23.049442,60.03611 23.073887,60.031387 23.083885,60.032219 23.101665,60.036385 23.109444,60.039444 23.126389,60.044167 23.146664,60.046104 23.185555,60.048332 23.19833,60.047218 23.25,60.038605 23.25972,60.035553 23.22472,60.003326 23.218563,60 23.202496,59.993332 23.166939,59.985275 23.114441,59.972221 23.107777,59.96833 23.0975,59.935829 23.098053,59.930832 23.101109,59.926109 23.10722,59.922493 23.117496,59.922493 23.215549,59.924995 23.224995,59.926109 23.234718,59.932495 23.250549,59.945274 23.280273,59.979439 23.297009,60 23.311234,60.014832 23.317234,60.02066 23.33083,60.028328 23.335278,60.027496 23.338333,60.019997"/>
       
   <polyline points="23.493889,60.058327 23.519444,60.066109 23.53833,60.069717 23.546108,60.067215 23.5425,60.031105 23.537498,60.025276 23.521942,60.019165 23.479443,59.996666 23.430828,59.960274 23.426662,59.953888 23.434444,59.950554 23.50979,59.968491 23.561357,59.970669 23.61805,59.951942 23.628326,59.952217 23.701939,59.954437 23.797218,59.961937 24.074165,60.015274 24.216942,60.039444 24.281944,60.059441 24.285275,60.064438" />
   
   <polyline points="24.603333,60.121941 24.75111,60.13694 24.85083,60.136658 24.949436,60.135559 24.958878,60.136681 25.06583,60.156105 25.188053,60.18222 25.195274,60.186386 25.203331,60.202774 25.201111,60.207497 25.193333,60.210831 25.180832,60.213333 25.156109,60.216385 25.146385,60.219444 25.148888,60.22361 25.192219,60.239998 25.200832,60.241943 25.367775,60.255829 25.478886,60.248329 25.489441,60.245827 25.545277,60.311104 25.576111,60.328888 25.652775,60.360275 25.66222,60.362221 25.672497,60.362778 25.683331,60.36055 25.690277,60.356941 25.693386,60.345219 25.694553,60.342216 25.693554,60.339382 25.6675,60.337494 25.657497,60.337494 25.647778,60.335548 25.647778,60.301109 25.649719,60.296387 25.65361,60.291664 25.674164,60.275276 25.720554,60.248055 25.769444,60.234444 25.780277,60.232773 25.845833,60.264999 25.84111,60.26944 25.829166,60.270828 25.799999,60.26722 25.788055,60.268608 25.745552,60.28611 25.741665,60.29055 25.742775,60.298054 25.740442,60.307388 25.744776,60.310219 25.753887,60.31472 25.864998,60.279442 25.870831,60.275551 25.873886,60.270828 25.877777,60.260826 25.880554,60.251106 25.881664,60.245552 25.887497,60.241661 25.899166,60.240273 25.910275,60.240273 25.919998,60.241661 25.927776,60.244438 25.928608,60.248604 25.918053,60.351387 25.915276,60.355827 25.909443,60.360275 25.87833,60.379997 25.863609,60.385826 25.838333,60.395828 25.838055,60.401108 25.884163,60.391388 25.893608,60.388054 25.996109,60.344719 26.040554,60.322495 26.044441,60.318329 26.046387,60.313606 26.04361,60.30722 26.038055,60.301941 26.036942,60.296104 26.041943,60.293053 26.074444,60.293053 26.083054,60.294998 26.094444,60.306107 26.104721,60.318054 26.109722,60.324715 26.111664,60.330276 26.046665,60.415833 26.051388,60.427498 26.061108,60.423882 26.146111,60.393883 26.411388,60.391388 26.421665,60.391937 26.458611,60.416107 26.472775,60.426384 26.479164,60.431107 26.48222,60.436943 26.478333,60.446938 26.471664,60.455826 26.468052,60.460548 26.459442,60.469444 26.452774,60.483887 26.453888,60.494995 26.456944,60.500832 26.461941,60.5075 26.526943,60.565277 26.546089,60.581917 26.60722,60.63694 26.615555,60.640274 26.645554,60.645271 26.659164,60.647499 26.68861,60.644165 26.695274,60.640831 26.721943,60.617775 26.754997,60.577217 26.753887,60.571663 26.734997,60.575272 26.702499,60.586105 26.688889,60.597771 26.668331,60.607498 26.648888,60.608887 26.628887,60.608055 26.617222,60.605827 26.594997,60.598053 26.575832,60.585548 26.564163,60.574165 26.48,60.48555 26.474163,60.479164 26.473053,60.473328 26.474998,60.468605 26.483608,60.459999 26.497219,60.446938 26.503052,60.443054 26.56361,60.428055 26.666943,60.426666 26.739441,60.448883 26.811108,60.472771 26.905277,60.476105 26.952499,60.445549 26.960278,60.44194 26.967499,60.445274 27.020554,60.526939 27.025555,60.533333 27.031387,60.538887 27.215275,60.585548 27.223053,60.58194 27.270832,60.541939 27.271942,60.525276 27.295555,60.503883 27.473053,60.476387 27.472221,60.502495 27.476665,60.506386 27.606667,60.506104 27.671108,60.50444 27.738052,60.511383" />

</g>
</svg>
