<?xml version="1.0" encoding="UTF-8" standalone="no"?>
<svg
   xmlns:svg="http://www.w3.org/2000/svg"
   xmlns="http://www.w3.org/2000/svg"
   version="1.0"
   width="360" height="180" viewBox="0 0 360 180" >
<g transform="translate(180,90) scale(1,-1)" style="fill:none;stroke:#ff00ff;stroke-width:0.01">

  <polyline points="-6.655278,61.389442 -6.660278,61.388329 -6.668056,61.389442 -6.719167,61.407494 -6.845834,61.468048 -6.958334,61.598610 -6.962778,61.619164 -6.960000,61.622772 -6.944723,61.636665 -6.926390,61.641388 -6.912223,61.643608 -6.889445,61.644997 -6.728889,61.575829 -6.724445,61.573326 -6.709445,61.558327 -6.655278,61.433052 -6.641667,61.400833 -6.642222,61.397217 -6.655278,61.389442"/>
  
  <polyline points="-6.604167,61.821663 -6.630000,61.761108 -6.638889,61.750549 -6.652223,61.742775 -6.704722,61.777496 -6.836112,61.817772 -6.841111,61.817497 -6.866112,61.837494 -6.908890,61.901108 -6.908334,61.904716 -6.904723,61.907776 -6.864445,61.907494 -6.855834,61.906944 -6.783334,61.896942 -6.776945,61.895271 -6.661389,61.858887 -6.652223,61.853882 -6.604167,61.826111 -6.604167,61.821663"/>
  
  <polyline points="-7.049723,62.067772 -7.055000,62.060272 -7.062778,62.049438 -7.165278,62.023605 -7.185834,62.019722 -7.201667,62.018608 -7.191668,62.031105 -7.192223,62.039719 -7.193611,62.043327 -7.198334,62.049995 -7.211945,62.057495 -7.226667,62.064438 -7.232500,62.064720 -7.233334,62.060272 -7.251112,62.042770 -7.345556,62.052216 -7.352222,62.053886 -7.378056,62.064995 -7.381667,62.068054 -7.431111,62.116104 -7.433889,62.123604 -7.434445,62.127777 -7.435000,62.140274 -7.433612,62.143608 -7.426390,62.144722 -7.231112,62.159996 -7.223333,62.159439 -7.163073,62.128815 -7.056111,62.098610 -7.045000,62.094444 -7.041389,62.091385 -7.040278,62.087776 -7.041112,62.083054 -7.049723,62.067772"/>
  
  <polyline points="-6.706944,61.937492 -6.717778,61.933327 -6.725278,61.934441 -6.773056,61.949997 -6.869167,61.997498 -6.961112,62.046661 -7.034582,62.112110 -7.130308,62.125599 -7.232223,62.172493 -7.234723,62.175827 -7.235001,62.179993 -7.233612,62.193329 -7.232779,62.198051 -7.210834,62.284721 -7.195556,62.304718 -7.192223,62.307777 -7.135000,62.303886 -7.128056,62.302216 -7.087501,62.290833 -7.070556,62.284721 -7.065834,62.282219 -7.062500,62.279160 -7.057501,62.272499 -7.052222,62.257500 -7.045000,62.243332 -7.042500,62.239998 -7.036667,62.233604 -6.990834,62.193054 -6.973889,62.182495 -6.945834,62.168053 -6.916389,62.153885 -6.841390,62.124443 -6.735001,62.043610 -6.724723,62.034996 -6.718889,62.028610 -6.696389,61.979439 -6.696112,61.975273 -6.702500,61.940277 -6.706944,61.937492"/>
  
  <polyline points="-6.620001,62.229721 -6.623611,62.226662 -6.632223,62.227493 -6.658056,62.234444 -6.681390,62.242493 -6.685834,62.244995 -6.711667,62.293884 -6.720834,62.331383 -6.632223,62.259163 -6.625556,62.253326 -6.620278,62.238052 -6.619167,62.234444 -6.620001,62.229721"/>
  
  <polyline points="-6.657500,62.092499 -6.657500,62.055832 -6.669723,62.058609 -6.752778,62.092773 -6.921945,62.167221 -6.948056,62.182495 -6.964168,62.193329 -7.011111,62.226387 -7.025001,62.237778 -7.029445,62.244438 -7.062500,62.295830 -7.060278,62.313606 -6.958056,62.339165 -6.950278,62.338051 -6.938056,62.334160 -6.807222,62.290276 -6.735001,62.259995 -6.601111,62.196938 -6.597778,62.194160 -6.588056,62.134163 -6.649723,62.102493 -6.654167,62.099716 -6.656945,62.096107 -6.657500,62.092499"/>
  
  <polyline points="-6.418612,62.183884 -6.518056,62.168884 -6.527223,62.173882 -6.555556,62.196938 -6.572500,62.211662 -6.581944,62.224998 -6.588056,62.239716 -6.550858,62.250984 -6.548974,62.300900 -6.574403,62.349876 -6.541667,62.357498 -6.536667,62.342499 -6.522223,62.318054 -6.492778,62.291382 -6.488890,62.288330 -6.430000,62.268883 -6.397779,62.259995 -6.392222,62.258049 -6.388889,62.254997 -6.388612,62.250832 -6.389723,62.246109 -6.407223,62.191666 -6.408611,62.188606 -6.412223,62.185272 -6.418612,62.183884"/>
  
  <polyline points="-6.585834,62.256386 -6.595000,62.256104 -6.608334,62.258606 -6.613056,62.261108 -6.620001,62.266937 -6.664445,62.322495 -6.668056,62.329720 -6.668334,62.333885 -6.666667,62.347221 -6.665833,62.351944 -6.660833,62.372498 -6.654723,62.374161 -6.645834,62.374161 -6.638056,62.373055 -6.632223,62.370827 -6.573611,62.306389 -6.566389,62.296387 -6.561389,62.281387 -6.561111,62.276939 -6.561667,62.273331 -6.565556,62.265274 -6.572500,62.258888 -6.585834,62.256386"/>
  
  <polyline points="-6.406112,62.284439 -6.415001,62.284439 -6.422778,62.285553 -6.480278,62.297775 -6.488611,62.307495 -6.546945,62.383606 -6.545279,62.386940 -6.530834,62.394165 -6.525278,62.396111 -6.519167,62.396942 -6.498334,62.386383 -6.489167,62.381386 -6.391667,62.296944 -6.406112,62.284439"/>
  
</g>
</svg>
