<?xml version="1.0" encoding="UTF-8" standalone="no"?>
<svg
  xmlns:svg="http://www.w3.org/2000/svg"
  xmlns="http://www.w3.org/2000/svg"
  width="360" height="180" viewBox="0 0 360 180" >
<g transform="translate(180,90) scale(1,-1)" style="fill:none;stroke:#ff00ff;stroke-width:0.01">

  <polyline points="11.429192,58.98764 11.423054,58.926666 11.422777,58.920273 11.424999,58.903053 11.426109,58.897217 11.427776,58.893051 11.431944,58.888611 11.439165,58.885277 11.450832,58.883888 11.463055,58.883606 11.496666,58.88472 11.585833,58.89666 11.599968,58.899185 11.621387,58.904716 11.626665,58.909164 11.75111,59.090271 11.753054,59.097221 11.751944,59.102776 11.746387,59.112778 11.742222,59.117493 11.739443,59.122498 11.739443,59.12722 11.750832,59.174438 11.754444,59.188049 11.759165,59.200829 11.764721,59.211662 11.769547,59.217537 11.784721,59.23027 11.792288,59.236641 11.795277,59.239166 11.798332,59.245277 11.798887,59.257774 11.796944,59.275276 11.790833,59.303329 11.783054,59.324715 11.739166,59.429718 11.667776,59.59166 11.666248,59.595482 11.756388,59.635551 11.764166,59.638329 11.781666,59.642776 11.811666,59.646942 11.820555,59.648888 11.828333,59.651939 11.896387,59.695 11.900833,59.701111 11.902777,59.707771 11.903332,59.720276 11.903055,59.738327 11.898848,59.772469 11.896387,59.784721 11.891109,59.794716 11.886665,59.799164 11.881109,59.803886 11.869444,59.811661 11.81596,59.8461 11.852777,59.861382 11.875832,59.869995 11.956944,59.896942 11.968054,59.897774 11.98,59.896111 11.998055,59.890549 12.008333,59.888611 12.034166,59.886108 12.107222,59.885826 12.129721,59.88694 12.139999,59.888329 12.163055,59.896942 12.191944,59.910271 12.310276,59.968887 12.32361,59.976387 12.461943,60.063606 12.476944,60.076385 12.489166,60.098328 12.494165,60.111107 12.496387,60.11805 12.498333,60.124718 12.502777,60.144722 12.5075,60.169441 12.508055,60.175552 12.508333,60.181938 12.507776,60.193604 12.504444,60.210548 12.527777,60.33416 12.537777,60.343887 12.571943,60.378052 12.589722,60.399162 12.5975,60.424995 12.602777,60.442772 12.607498,60.462494 12.608055,60.468605 12.605833,60.479996 12.594444,60.516937 12.5875,60.526665 12.505833,60.629997 12.424999,60.710274 12.38611,60.750832 12.378887,60.760277 12.364721,60.779442 12.353611,60.799721 12.35111,60.804718 12.336111,60.835831 12.308611,60.887215 12.271944,60.946106 12.245554,60.973053 12.23361,60.980827 12.217222,60.99305 12.212776,60.997498 12.209999,61.002495 12.215555,61.006943 12.2225,61.010826 12.247776,61.018608 12.294167,61.029442 12.388054,61.050552 12.407776,61.053886 12.432499,61.054443 12.458055,61.053886 12.500277,61.050827 12.567221,61.04805 12.602221,61.049721 12.621944,61.053055 12.637825,61.057541 12.670277,61.087776 12.772221,61.200829 12.796665,61.244995 12.83111,61.312218 12.85611,61.362495 12.773888,61.414719 12.529999,61.566109 12.523054,61.567215 12.481388,61.569443 12.468332,61.569717 12.444721,61.568604 12.430277,61.569443 12.406666,61.573326 12.392776,61.580551 12.144444,61.717499 12.124443,61.728607 12.159443,61.844444 12.169998,61.878609 12.181665,61.912498 12.200277,61.963333 12.214998,62.006104 12.25861,62.142494 12.294617,62.258217 12.295832,62.261665 12.291666,62.272499 12.271387,62.308052 12.256388,62.327217 12.245344,62.337982 12.209999,62.389999 12.19972,62.404716 12.184444,62.423882 12.172222,62.437775 12.149166,62.460274 12.084721,62.52916 12.047499,62.589996 12.046665,62.665276 12.072777,62.715828 12.089443,62.749443 12.066666,62.803055 12.050278,62.838882 12.028889,62.892494 12.058332,62.91861 12.113333,62.967216 12.15111,62.999443 12.16861,63.015831 12.144165,63.045273 12.036943,63.173882 12.027491,63.182449 11.936388,63.272217 11.998888,63.323883 12.078333,63.388329 12.13722,63.436661 12.195,63.485275 12.17861,63.512215 12.139444,63.58416 12.153889,63.594994 12.346666,63.728882 12.473055,63.833328 12.530832,63.872772 12.633888,63.942772 12.681944,63.967216 12.794443,64.007217 12.846943,64.025269 12.938055,64.053329 12.988333,64.064438 13.032221,64.071106 13.135555,64.083603 13.193609,64.089996 13.23,64.093048 13.291388,64.086655 13.981667,64.013046 13.988333,64.018051 14.146666,64.173874 14.154722,64.185822 14.151388,64.333603 14.149721,64.344986 14.116388,64.470551 14.032499,64.488052 13.900833,64.507492 13.820276,64.529434 13.68222,64.571106 13.663332,64.577209 13.662498,64.582764 13.664999,64.589722 13.676943,64.607773 13.696943,64.62944 13.707499,64.639709 13.725571,64.652267 13.832777,64.733322 13.879166,64.771103 13.955832,64.835541 14.091389,64.949158 14.235277,65.048874 14.296438,65.102127 14.308832,65.115234 14.319443,65.12999 14.329166,65.149719 14.35611,65.208603 14.368889,65.246658 14.493055,65.313599 14.494444,65.358887 14.49361,65.376389 14.495277,65.446381 14.497221,65.516098 14.500555,65.585831 14.532221,65.696106 14.535,65.702774 14.539444,65.708878 14.565277,65.736374 14.588055,65.756943 14.603888,65.773331 14.621387,65.797211 14.631666,65.816666 14.634722,65.826935 14.608889,65.876389 14.580276,65.931107 14.569443,65.949432 14.540554,66.007492 14.534721,66.025269 14.519165,66.078888 14.509165,66.114716 14.504999,66.132492 14.717777,66.140549 14.981388,66.149155 15.025276,66.149994 15.468054,66.283875 15.446854,66.321381 15.400555,66.406937 15.371387,66.461655 15.362778,66.479996 15.527777,66.558044 15.625832,66.60582 15.73111,66.684998 16.009998,66.890823 16.353886,67.017776 16.40583,67.16333 16.399166,67.177765 16.361385,67.237778 16.337498,67.260818 16.261944,67.305542 16.220554,67.329987 16.20472,67.337494 16.161663,67.35582 16.138611,67.367493 16.111111,67.383606 16.104164,67.387772 16.089722,67.401657 16.086941,67.406662 16.085831,67.411652 16.192219,67.5 16.206108,67.501663 16.3825,67.515549 16.403332,67.529999 16.508331,67.609161 16.570274,67.656937 16.576942,67.665543 16.588055,67.68222 16.620277,67.732208 16.684719,67.832214 16.726944,67.899155 17.188332,68.030273 17.234547,68.062103 17.252583,68.07457 17.273609,68.090546 17.592499,68.029709 17.648888,68.01416 17.680275,68.00444 17.743332,67.984711 17.801941,67.964157 17.82,67.95694 17.831108,67.953598 17.858055,67.948608 17.884163,67.945541 17.93972,67.997772 18.135555,68.150269 18.155277,68.166107 18.103886,68.280823 18.085831,68.317764 18.069443,68.354431 18.053333,68.391098 18.04583,68.409439 18.058052,68.439987 18.081665,68.490829 18.090832,68.507767 18.099541,68.508926 18.149441,68.515274 18.358055,68.539154 18.611942,68.475266 18.952221,68.487778 19.41333,68.419434 19.543888,68.399719 19.71722,68.372772 19.860554,68.349991 19.898331,68.341385 19.923885,68.336655 19.937775,68.337494 19.948055,68.34082 19.956665,68.344711 19.964165,68.349716 19.976665,68.361374 20.006664,68.381104 20.030277,68.394989 20.048054,68.40332 20.075832,68.414719 20.167221,68.443878 20.175831,68.448044 20.198608,68.462769 20.208611,68.47583 20.211109,68.482208 20.088055,68.501663 19.956387,68.543884 20.063053,68.583054 20.177219,68.646942 20.202499,68.662216 20.238331,68.691376 20.313889,68.754715 20.350277,68.786652 20.31472,68.928329 20.238888,68.968597 20.096943,69.042221 20.535275,69.056381 20.580929,69.060303" />

</g>
</svg>
