<?xml version="1.0" encoding="UTF-8" standalone="no"?>
<svg
   xmlns:svg="http://www.w3.org/2000/svg"
   xmlns="http://www.w3.org/2000/svg"
   width="360" height="180" viewBox="0 0 360 180" >
<g transform="translate(180,90) scale(1,-1)" style="fill:none;stroke:#ff00ff;stroke-width:0.01">

  <polyline points="12.949049,53.829323 13.021166,53.871928 13.099028,53.884193 13.141917,53.893793 13.210462,53.895813 13.275496,53.877753 13.313903,53.870154 13.365559,53.853509 13.404859,53.835418 13.452108,53.831821 13.509626,53.820329 13.554393,53.816407 13.610835,53.800219 13.670839,53.796483 13.738825,53.79965 13.792755,53.814772 13.828484,53.833395 13.819657,53.842794 13.814278,53.848731 13.814656,53.854066 13.806565,53.858926 13.814822,53.862078 13.822803,53.864199 13.826626,53.865241 13.823681,53.868999 13.821183,53.874238 13.826511,53.879095 13.838533,53.878831 13.845338,53.878168 13.847935,53.877641 13.851865,53.889113 13.855521,53.896059 13.887592,53.910286 13.899614,53.910246 13.905305,53.913461 13.914294,53.918451 13.910201,53.926514 13.894405,53.942065 13.888786,53.94402 13.88403,53.944375 13.884211,53.947445 13.881472,53.94995 13.871929,53.952669 13.868925,53.952334 13.868634,53.950727 13.86488,53.950015 13.859113,53.950909 13.85745,53.950409 13.854403,53.951744 13.852083,53.953293 13.850608,53.957073 13.855231,53.960407 13.853485,53.963701 13.849767,53.967446 13.839362,53.976349 13.834272,53.98504 13.821036,53.988533 13.810716,53.995029 13.797927,53.995024 13.792681,53.997121 13.758207,54.014715 13.756911,54.027525 13.751439,54.02612 13.745432,54.027186 13.743458,54.030764 13.748466,54.034473 13.760784,54.035531 13.770775,54.041244 13.781861,54.046932 13.785042,54.051248 13.78428,54.057721 13.779016,54.056495 13.773775,54.060173 13.78285,54.062935 13.788686,54.064067 13.791362,54.072437 13.795769,54.078004 13.793508,54.083286 13.795123,54.086638 13.796427,54.090113 13.800807,54.093886 13.804603,54.093836 13.808894,54.098905 13.807081,54.102817 13.802231,54.105283 13.796846,54.106897 13.791449,54.107715 13.783471,54.113147 13.773615,54.118546 13.769378,54.124088 13.768681,54.126227 13.764213,54.126675 13.750354,54.132721 13.750766,54.135601 13.749317,54.140032 13.73552,54.13595 13.724164,54.143387 13.697133,54.149226 13.697278,54.157792 13.713616,54.160736 13.71589,54.167008 13.706832,54.171534 13.695982,54.17079 13.686453,54.167661 13.6756,54.162004 13.666924,54.159601 13.651362,54.152776 13.637605,54.146536 13.626076,54.140475 13.578108,54.13188 13.548537,54.130577 13.5286,54.130366 13.493256,54.125226 13.477522,54.118834 13.485864,54.101751 13.499791,54.09104 13.501881,54.08619 13.497917,54.083616 13.480448,54.08614 13.476466,54.087239 13.456689,54.092326 13.456951,54.096599 13.457203,54.099457 13.451946,54.104369 13.450629,54.101813 13.446968,54.102666 13.447638,54.105714 13.438177,54.113109 13.439847,54.120376 13.435678,54.126243 13.425248,54.139313 13.413257,54.146463 13.405536,54.147793 13.40964,54.150311 13.408025,54.151661 13.411245,54.155953 13.406985,54.155635 13.404947,54.15216 13.397002,54.144593 13.387469,54.142642 13.382219,54.145276 13.379784,54.150792 13.392822,54.157925 13.406467,54.162398 13.409037,54.165403 13.407212,54.168743 13.403934,54.169688 13.399619,54.169521 13.391813,54.171347 13.388898,54.174476 13.376445,54.176542 13.362164,54.169945 13.346153,54.166047 13.336992,54.167526 13.32339,54.160158 13.314224,54.160426 13.332641,54.170645 13.340313,54.173584 13.33608,54.176959 13.342158,54.178828 13.345161,54.17765 13.352226,54.182314 13.354466,54.181768 13.357636,54.182934 13.37037,54.180699 13.371371,54.182604 13.365922,54.184488 13.359617,54.185518 13.345631,54.181141 13.337155,54.182508 13.327295,54.182533 13.322102,54.190922 13.305862,54.204631 13.302004,54.215201 13.295069,54.227218 13.287176,54.233648 13.273737,54.237786 13.26327,54.239118 13.258495,54.240912 13.221335,54.240285 13.212333,54.239472 13.212026,54.242456 13.210949,54.244345 13.215921,54.248276 13.215315,54.250058 13.21055,54.251428 13.185391,54.263204 13.166727,54.279192 13.154671,54.267602 13.130205,54.268868 13.105094,54.28161 13.108402,54.300731 13.103396,54.309785 13.089637,54.318272 13.072862,54.349073 13.093854,54.367659 13.086207,54.375845 13.079654,54.381135 13.047757,54.380423 13.034625,54.391005 13.020748,54.415021 13.030083,54.424931 13.032142,54.435363 13.012835,54.439153 13.000104,54.436279 12.99623,54.427008 12.956949,54.422926 12.955887,54.417841 12.92577,54.413193 12.896449,54.400906 12.897132,54.393549 12.886525,54.387331 12.882176,54.370008 12.866586,54.361816 12.848117,54.351606 12.82177,54.351222 12.808209,54.34409 12.803336,54.371339 12.794271,54.37825 12.785069,54.380182 12.785459,54.395122 12.774676,54.390801 12.770607,54.371561 12.754029,54.37289 12.748186,54.383531 12.735814,54.37192 12.715653,54.37572 12.711039,54.399269 12.707133,54.408085 12.658286,54.408017 12.668806,54.388272 12.576888,54.353145 12.585524,54.375016 12.561776,54.372144 12.535442,54.364951 12.551484,54.354876 12.535925,54.336967 12.475794,54.328053 12.476785,54.302532 12.425337,54.296243 12.414886,54.275725 12.42123,54.262076 12.466006,54.256348 12.446072,54.245267 12.400289,54.250072 12.363683,54.271224 12.382801,54.279188 12.363853,54.300916 12.368876,54.313564 12.38799,54.310292 12.405852,54.329318 12.387614,54.341523 12.39837,54.346047 12.420004,54.335859 12.423131,54.36511 12.458076,54.378983 12.493719,54.383312 12.522732,54.37161 12.53176,54.384728 12.579818,54.388935 12.600924,54.391483 12.577961,54.405546 12.614148,54.408306 12.627503,54.417127 12.653466,54.413835 12.677371,54.423931 12.752278,54.414479 12.801444,54.411535 12.878281,54.41187 12.929097,54.435503 12.983509,54.437124 13.04531,54.445201 13.047916,54.461514 13.025451,54.458873 12.93431,54.448125 12.711134,54.445812 12.542082,54.456645 12.523627,54.484861 12.493669,54.472405 12.439847,54.392923 12.34271,54.333456 12.293377,54.282789 12.396258,54.224589 12.477566,54.209877 12.520074,54.18545 12.54693,54.157451 12.591565,54.121616 12.639911,54.093715 12.708292,54.063222 12.745247,54.01263 12.802107,53.965694 12.859527,53.941325 12.832299,53.903776 12.872902,53.872355 12.916648,53.850073 12.949049,53.829323" />

  <polyline points="13.71598,54.270657 13.729806,54.337008 13.754132,54.347252 13.709853,54.386419 13.665218,54.404016 13.619962,54.401083 13.56411,54.47444 13.568428,54.478157 13.659954,54.52076 13.679809,54.561762 13.635793,54.588081 13.497204,54.574608 13.451377,54.567252 13.390385,54.593743 13.381747,54.652089 13.426228,54.658262 13.43714,54.681102 13.380351,54.683444 13.281035,54.674261 13.225084,54.647369 13.2261,54.60654 13.170293,54.57423 13.141664,54.603246 13.097671,54.590596 13.056493,54.468309 13.127447,54.447913 13.148863,54.422214 13.202836,54.424774 13.23298,54.408621 13.241709,54.381073 13.230801,54.36678 13.22827,54.366487 13.191336,54.374464 13.172606,54.367686 13.155147,54.372551 13.13642,54.373433 13.107563,54.332914 13.148267,54.313911 13.139184,54.28679 13.178323,54.291358 13.203309,54.275872 13.266877,54.254895 13.316348,54.256015 13.317824,54.243919 13.392424,54.221066 13.426583,54.236474 13.407038,54.263363 13.418629,54.303006 13.457129,54.313531 13.481884,54.341629 13.556374,54.343176 13.580598,54.357402 13.619821,54.326573 13.642896,54.348319 13.678913,54.346989 13.629884,54.320042 13.688003,54.323484 13.658808,54.300296 13.676099,54.283837 13.695573,54.300573 13.71598,54.270657" />

</g>
</svg>
