<?xml version="1.0" encoding="UTF-8" standalone="no"?>
<svg
   xmlns:svg="http://www.w3.org/2000/svg"
   xmlns="http://www.w3.org/2000/svg"
   width="360" height="180" viewBox="0 0 360 180" >
<g transform="translate(180,90) scale(1,-1)" style="fill:none;stroke:#ff50ff;stroke-width:0.01">

  <polyline points="28.95734,69.05162 28.820553,68.844437 28.803333,68.815826 28.796108,68.804443 28.764164,68.757767 28.759163,68.751938 28.738609,68.734161 28.654999,68.679993 28.525833,68.589722 28.510277,68.578049 28.465832,68.540833 28.458611,68.534714 28.457497,68.531937 28.559998,68.385818 28.663055,68.239441 28.693333,68.197495 28.696663,68.193329 28.82333,68.172485 29.16,68.116653 29.356941,68.082489 29.38361,68.062485 29.539444,67.938889 29.691666,67.815277 29.727497,67.803329 29.902496,67.740829 30.02861,67.694717 30.109883,67.637686 30.678651,67.132876 30.475317,66.732974 30.188483,66.44282 30.321306,66.302739 30.415266,66.14621 30.557103,65.88059 30.179487,65.734026 30.134998,65.709152 30.135277,65.703598 30.13361,65.676941 30.123886,65.664993 30.111664,65.665268 30.085278,65.671387 30.068054,65.679443 30.03611,65.689987 30.024441,65.691101 29.992496,65.685272 29.818886,65.65332 29.834164,65.588333 29.798054,65.537491 29.779163,65.530273 29.761387,65.523041 29.746109,65.514435 29.738331,65.48111 29.739719,65.455551 29.745552,65.414719 29.75,65.352768 29.749443,65.347763 29.747498,65.341934 29.706108,65.319717 29.679996,65.306931 29.66222,65.298874 29.620831,65.276657 29.605274,65.265823 29.598888,65.25972 29.596943,65.253876 29.596386,65.248886 29.599163,65.243607 29.603054,65.239441 29.609444,65.235275 29.626389,65.227493 29.639721,65.224442 29.652222,65.223328 29.665554,65.223328 29.737221,65.226654 29.787498,65.226379 29.813889,65.224442 29.827499,65.222488 29.843052,65.219986 29.853611,65.21611 29.866108,65.208054 29.869999,65.203323 29.872776,65.198318 29.874443,65.125824 29.873886,65.120819 29.864719,65.116653 29.836666,65.106934 29.806942,65.099152 29.773888,65.094711 29.726387,65.092499 29.683609,65.084442 29.664719,65.079163 29.65472,65.075546 29.637218,65.068329 29.628887,65.063049 29.622498,65.056381 29.616665,65.044998 29.609444,65.023041 29.606388,65.007217 29.606667,65.001663 29.609997,64.991943 29.636665,64.928055 29.644997,64.913879 29.652775,64.904709 29.671944,64.887207 29.714443,64.852219 29.730553,64.839432 29.736664,64.834991 29.754997,64.822495 29.774441,64.809708 29.794167,64.797211 29.804722,64.793884 29.818333,64.792496 29.843052,64.792496 29.891666,64.793045 29.926388,64.794708 29.950275,64.795547 30.048054,64.795547 30.074444,64.79361 30.087776,64.791656 30.115833,64.785828 30.126389,64.782486 30.140831,64.774155 30.144722,64.769989 30.209164,64.672775 30.210552,64.66777 30.208611,64.662491 30.199165,64.650269 30.186386,64.637772 30.178886,64.631653 30.170277,64.628052 30.141666,64.619431 30.072498,64.604431 30.033333,64.599152 30.020554,64.5961 29.980831,64.585831 29.974998,64.5811 29.974998,64.574432 29.986942,64.553055 30.00967,64.512863 30.011387,64.511658 30.048885,64.502487 30.068607,64.49472 30.087219,64.483047 30.088608,64.478333 30.088333,64.467773 30.083054,64.452209 30.061386,64.422485 30.053608,64.404999 30.065552,64.396942 30.118889,64.369156 30.12722,64.36499 30.135277,64.361374 30.156109,64.354156 30.170277,64.351379 30.196941,64.348877 30.321663,64.329437 30.359444,64.319717 30.389721,64.309433 30.552776,64.248322 30.560833,64.244431 30.566666,64.23999 30.573887,64.23082 30.576664,64.226105 30.578053,64.221375 30.611111,64.101654 30.614441,64.086655 30.611664,64.075821 30.608887,64.064987 30.595276,64.046936 30.558887,64.020554 30.54361,64.009995 30.52861,64 30.488609,63.977776 30.471943,63.968887 30.398052,63.93055 30.27861,63.832771 30.263611,63.82222 30.255833,63.817772 30.210552,63.800827 30.134998,63.779999 30.114719,63.775276 30.063053,63.766663 30.033054,63.760826 30.013054,63.756386 30.004719,63.752777 29.996712,63.748024 29.993332,63.743607 29.995831,63.738884 30.00333,63.729439 30.206387,63.612778 30.228333,63.600555 30.244442,63.593048 30.254719,63.589722 30.308887,63.572495 30.357498,63.559998 30.391388,63.549995 30.399441,63.546104 30.452499,63.508049 30.461941,63.499161 30.472775,63.48555 30.477497,63.48111 30.481667,63.478607 30.648888,63.43972 30.714722,63.424438 30.91222,63.353607 31.186386,63.238327 31.219719,63.223053 31.236664,63.210274 31.242222,63.205551 31.245831,63.201111 31.383053,63.06916 31.514999,62.986938 31.524166,62.978333 31.570098,62.935044 31.798464,62.944209 32.081963,62.788662 32.337295,62.62904 32.632251,62.468353 32.784005,62.400984 32.777215,62.237172 32.638185,62.155768 32.50155,62.0933 32.784783,62.050315 32.898499,61.95292 32.855881,61.847095 32.731028,61.811382 32.599382,61.893699 32.425231,61.957503 32.235155,61.918581 32.052121,61.848922 32.013843,61.742971 32.249933,61.644465 32.291454,61.537247 32.389733,61.444254 32.355539,61.288677 32.226063,61.153043 32.067218,61.046602 31.90579,61.036245 31.656641,60.943147 31.501247,60.836287 31.280014,60.725786 31.102615,60.635569 30.901572,60.562052 30.77627,60.500568 30.700959,60.510647 30.614775,60.500157 30.635601,60.436125 30.528133,60.415074 30.438088,60.421558 30.300809,60.455616 30.163113,60.489817 30.120721,60.404543 30.146915,60.323742 29.993201,60.298089 29.97129,60.249553 30.066464,60.192376 30.047896,60.139354 29.973949,60.106451 29.957457,60.198825 29.844831,60.200188 29.759888,60.242551 29.722773,60.243511 29.727212,60.228641 29.668047,60.241005 29.564134,60.219929 29.521183,60.23124 29.426562,60.19906 29.453662,60.189319 29.443034,60.159934 29.162826,60.166559 29.128585,60.153927 28.990133,60.191212 28.997288,60.235522 28.897087,60.265263 28.829521,60.324715 28.752658,60.319176 28.744521,60.319709 28.618645,60.354342 28.438197,60.543977 28.703504,60.442387 28.582233,60.606873 28.696517,60.593621 28.644358,60.654238 28.739724,60.664326 28.77061,60.725565 28.697989,60.767701 28.696884,60.732539 28.65129,60.713892 28.656675,60.694754 28.58026,60.648136 28.565864,60.61288 28.471722,60.647742 28.401873,60.608366 28.280808,60.572101 28.237022,60.517896 27.997683,60.500675 27.857778,60.450394 27.760057,60.49053 27.738052,60.511383" />
  
</g>
</svg>
