<?xml version="1.0" encoding="UTF-8" standalone="no"?>
<svg
   xmlns:svg="http://www.w3.org/2000/svg"
   xmlns="http://www.w3.org/2000/svg"
   width="360" height="180" viewBox="0 0 360 180" >
<g transform="translate(180,90) scale(1,-1)" style="fill:none;stroke:#ff00ff;stroke-width:0.01">

  <polyline points="8.6618375,55.285518 8.6618353,55.285513 8.7044229,55.283737 8.718089,55.282821 8.7382112,55.279653 8.7581623,55.275552 8.765666,55.280029 8.7742941,55.283896 8.7843581,55.279657 8.80631,55.279951 8.8173344,55.278847 8.8285858,55.272122 8.8418251,55.270421 8.8493532,55.274267 8.8528265,55.27753 8.8594473,55.282354 8.8646575,55.284575 8.871381,55.286814 8.8796878,55.28735 8.8880766,55.285733 8.9016575,55.286765 8.9083477,55.289864 8.9089206,55.294609 8.9147398,55.300711 8.91765,55.303762 8.9221897,55.303818 8.9190472,55.306794 8.916578,55.311933 8.9102561,55.318747 8.9016558,55.325534 8.8952223,55.334933 8.8940731,55.344828 8.8923187,55.350839 8.8889277,55.359846 8.8809329,55.37009 8.8852141,55.377035 8.8818431,55.38561 8.8845587,55.393827 8.8850487,55.400725 8.8848301,55.406322 8.8967226,55.413132 8.9126362,55.413761 8.9284544,55.416969 8.9397071,55.420549 8.9485572,55.427542 8.9583092,55.430671 8.966574,55.432921 8.9731928,55.438594 8.9859722,55.441759 8.9896392,55.445245 8.9964019,55.447046 9.0054251,55.449304 9.0281484,55.45043 9.0389347,55.445822 9.050329,55.445519 9.0617822,55.443495 9.0785133,55.44239 9.0951859,55.443004 9.1095841,55.443592 9.1208919,55.445867 9.129195,55.447248 9.140492,55.449951 9.1525903,55.45137 9.1571016,55.452709 9.1599579,55.458335 9.1712456,55.461465 9.1773451,55.460667 9.1896105,55.456918 9.1957751,55.453967 9.2080618,55.449355 9.208246,55.44333 9.2082592,55.4429 9.2076984,55.436437 9.2077514,55.434716 9.2078044,55.432995 9.2101198,55.431727 9.2148159,55.427039 9.2180073,55.421905 9.2235379,55.414643 9.2298377,55.406958 9.2367907,55.402722 9.255038,55.401177 9.2663611,55.403008 9.2823846,55.399716 9.3007178,55.395151 9.3152811,55.389689 9.3328104,55.385974 9.3480658,55.383096 9.3654757,55.384539 9.3728574,55.391922 9.3811204,55.395007 9.390798,55.393381 9.4059511,55.393939 9.4203369,55.394489 9.4331971,55.395456 9.4483207,55.39687 9.4634975,55.396131 9.4748704,55.395791 9.4839903,55.394572 9.4976543,55.393387 9.5121059,55.390915 9.5303037,55.390192 9.5348486,55.390225 9.5424239,55.390282 9.5530783,55.388207 9.5607213,55.385248 9.5638183,55.382256 9.595783,55.367125 9.5957852,55.36713" />

</g>
</svg>
