<?xml version="1.0" encoding="UTF-8" standalone="no"?>
<svg
   xmlns:svg="http://www.w3.org/2000/svg"
   xmlns="http://www.w3.org/2000/svg"
   width="360" height="180" viewBox="0 0 360 180">
<g transform="translate(180,90) scale(1,-1)" style="fill:none;stroke:#ff00ff;stroke-width:0.01">

  <polyline points="23.990829,58.099998 23.978050,58.097771 23.962772,58.099434 23.952774,58.103607 23.944996,58.108604 23.938885,58.114441 23.938606,58.122765 23.939995,58.131935 23.943050,58.139992 23.947773,58.147217 23.955551,58.152489 23.964996,58.156654 23.979160,58.157768 23.994717,58.156097 24.006386,58.152771 24.016109,58.148605 24.022186,58.142746 24.024719,58.137215 24.025276,58.128876 24.015831,58.114441 24.009720,58.108330 24.001663,58.103325 23.990829,58.099998" />

  <polyline points="22.990829,58.597771 23.090832,58.564438 23.263054,58.496101 23.273052,58.491936 23.289165,58.482208 23.319717,58.461662 23.332218,58.449997 23.332775,58.441658 23.328053,58.434433 23.267498,58.429436 23.250000,58.430275 23.226105,58.436653 23.206104,58.444992 23.198051,58.449715 23.142494,58.443604 23.076942,58.413879 23.064163,58.385826 23.028610,58.357773 22.756943,58.240273 22.648884,58.230270 22.581940,58.241104 22.520554,58.242218 22.487495,58.242218 22.474995,58.241936 22.378330,58.223045 22.367496,58.219711 22.288609,58.188042 22.279163,58.183876 22.271664,58.178604 22.267220,58.171379 22.266388,58.163879 22.269165,58.156380 22.273609,58.149719 22.276108,58.142494 22.264721,58.102219 22.261944,58.093880 22.202496,57.986107 22.099163,57.930550 22.073330,57.916664 22.051662,57.909714 22.037777,57.908325 22.022221,57.909714 22.010277,57.913048 22.000553,57.916939 21.994160,57.922768 21.980549,57.958046 21.985828,57.976379 22.082218,58.076660 22.089718,58.081940 22.100552,58.085266 22.112495,58.083878 22.151108,58.086380 22.197216,58.137497 22.201385,58.144714 22.196941,58.151382 22.188606,58.156380 22.176941,58.159431 22.145275,58.158600 22.131664,58.160820 22.078609,58.170830 22.068607,58.174713 21.884441,58.252220 21.869717,58.262497 21.848606,58.278877 21.844162,58.285553 21.841385,58.293053 21.843887,58.299164 21.874439,58.339989 21.885273,58.343323 21.899162,58.342766 21.955551,58.343048 22.007500,58.353325 22.006386,58.359993 21.996384,58.381378 21.916664,58.457497 21.910275,58.463051 21.901939,58.468048 21.878052,58.474159 21.867775,58.478325 21.851387,58.487770 21.831940,58.504997 21.842773,58.508331 21.924995,58.517212 21.984718,58.516388 22.000553,58.514999 22.112495,58.492218 22.189163,58.544998 22.198330,58.549438 22.327221,58.577492 22.501663,58.602219 22.624165,58.593323 22.768330,58.600273 22.775761,58.606155 22.807774,58.616386 22.823608,58.616936 22.871662,58.617767 22.905273,58.617493 22.917217,58.616104 22.978882,58.601105 22.990829,58.597771" />

  <polyline points="23.364998,58.529991 23.227219,58.529716 23.215271,58.533051 23.091106,58.580276 23.071110,58.588326 23.064720,58.594154 23.060276,58.600830 23.057774,58.608330 23.060829,58.616386 23.068607,58.621658 23.140274,58.665825 23.149719,58.670273 23.173607,58.675827 23.186382,58.678047 23.200829,58.679161 23.216385,58.677773 23.247459,58.671051 23.271385,58.664436 23.317219,58.650826 23.339165,58.643326 23.347218,58.638603 23.394997,58.565544 23.399162,58.558884 23.396385,58.550827 23.376106,58.533051 23.364998,58.529991" />

  <polyline points="23.277222,58.963051 23.180550,58.961105 23.164719,58.962769 23.152496,58.965828 23.144440,58.970825 23.138050,58.976654 23.113331,59.017212 23.110828,59.024712 23.117218,59.030823 23.126663,59.034996 23.137775,59.038330 23.150829,59.040550 23.181385,59.042221 23.192165,59.041985 23.325829,59.037498 23.339718,59.035271 23.351940,59.031937 23.361942,59.027771 23.370274,59.023048 23.387218,59.004715 23.391663,58.998047 23.392220,58.989716 23.387497,58.982765 23.381107,58.976379 23.369995,58.973045 23.291943,58.964157 23.277222,58.963051" />

  <polyline points="22.749718,59.000000 22.801109,58.997215 22.843052,59.002220 22.860828,59.001663 22.929718,58.982491 22.952496,58.966934 23.043610,58.851105 23.048054,58.844437 23.045277,58.836380 23.021664,58.820549 23.005276,58.830551 22.960827,58.844994 22.948330,58.844437 22.884441,58.833054 22.865551,58.824440 22.868328,58.818886 22.882217,58.816666 22.888607,58.810822 22.887218,58.787773 22.884441,58.779716 22.848053,58.773605 22.815830,58.772766 22.798332,58.773605 22.784443,58.775826 22.778053,58.781662 22.777222,58.789993 22.783333,58.796104 22.792774,58.800270 22.803886,58.803604 22.823051,58.812210 22.829163,58.818329 22.826385,58.824165 22.812496,58.826385 22.798054,58.824997 22.775829,58.818604 22.747215,58.805550 22.739437,58.800270 22.721107,58.781662 22.701385,58.753883 22.692493,58.739433 22.689716,58.731102 22.680828,58.716660 22.674717,58.710548 22.666939,58.705269 22.646385,58.697769 22.624165,58.691101 22.595551,58.688324 22.565273,58.686653 22.547497,58.687210 22.531666,58.688599 22.517776,58.691101 22.479996,58.699715 22.469715,58.703606 22.465271,58.710274 22.469440,58.715546 22.471939,58.763611 22.449997,58.831383 22.445549,58.838043 22.426105,58.855270 22.404995,58.871658 22.390274,58.882210 22.381939,58.886940 22.369717,58.890274 22.336109,58.892220 22.276943,58.889435 22.245548,58.878601 22.229439,58.878044 22.177219,58.888885 22.164997,58.891937 22.063610,58.923607 22.053329,58.927773 22.044998,58.932495 22.042221,58.939987 22.046387,58.945267 22.052219,58.949715 22.064999,58.952217 22.191105,58.947487 22.375553,58.951660 22.434441,58.966385 22.468052,58.978043 22.487774,58.992218 22.523609,59.022491 22.575829,59.068604 22.699162,59.051384 22.694717,59.044159 22.698605,59.019989 22.703049,59.013611 22.719715,59.003609 22.733883,59.001389 22.749718,59.000000" />

  <polyline points="25.780277,59.628876 25.873051,59.598877 25.979996,59.632767 26.030830,59.622765 26.043610,59.619987 26.078053,59.600548 26.263054,59.585823 26.389717,59.561661 26.458328,59.541107 26.479996,59.533882 26.496105,59.532768 26.525276,59.536385 26.538052,59.539162 26.561665,59.545273 26.572498,59.549164 26.578053,59.555550 26.588886,59.559158 26.621662,59.557213 26.650551,59.553322 26.675827,59.547493 26.736938,59.522491 26.772774,59.503883 26.817219,59.480820 26.849720,59.469437 26.860275,59.465828 26.883606,59.459160 26.921383,59.450829 26.964718,59.444992 26.980827,59.443878 27.033333,59.442490 27.087498,59.442215 27.185272,59.446938 27.391106,59.448601 27.427219,59.448326 27.443607,59.447212 27.458050,59.445267 27.483051,59.439430 27.509998,59.434433 27.553051,59.428604 27.848053,59.406654 27.880550,59.407768 27.895275,59.409431 27.933331,59.417213 27.953884,59.425270 27.978050,59.440544 27.993050,59.451385 27.998882,59.457771 28.015831,59.478600 28.026386,59.474991 28.076107,59.453323 28.109440,59.436104 28.170273,59.397774 28.180828,59.389435 28.193886,59.375824 28.195274,59.369438 28.193607,59.363327 28.179321,59.328236 28.170359,59.309780 28.158232,59.297653 28.143995,59.290802 28.095490,59.283947 28.055418,59.279202 28.030111,59.277092 28.011129,59.279728 27.995840,59.284473 27.971060,59.287109 27.951551,59.285530 27.920444,59.275509 27.912537,59.271820 27.879847,59.228058 27.837219,59.150826 27.810555,59.102493 27.803329,59.085266 27.792221,59.063324 27.788052,59.058601 27.704994,58.985825 27.689438,58.979431 27.596943,58.931381 27.549999,58.907768 27.533886,58.902214 27.493607,58.881935 27.457218,58.852493 27.439438,58.834160 27.435551,58.829437 27.428608,58.819160 27.426105,58.813606 27.423050,58.801384 27.421661,58.788330 27.421661,58.781380 27.451107,58.686935 27.488049,58.576385 27.490551,58.570831 27.495827,58.559990 27.500832,58.548882 27.517498,58.509720 27.521385,58.498329 27.535275,58.450829 27.542496,58.413879 27.543610,58.393883 27.543331,58.373322 27.541943,58.367210 27.539165,58.361664 27.534996,58.356941 27.525829,58.348045 27.514999,58.339989 27.496662,58.328880 27.485828,58.320831 27.467216,58.303047 27.464718,58.297775 27.464439,58.283882 27.471661,58.226379 27.474163,58.213882 27.476662,58.208603 27.480549,58.203606 27.548885,58.136940 27.554165,58.132767 27.565830,58.125267 27.579998,58.119156 27.601940,58.109993 27.609718,58.107216 27.625275,58.101662 27.641106,58.096100 27.649998,58.094154 27.663052,58.087212 27.673328,58.078880 27.677219,58.074165 27.680828,58.062492 27.686661,57.965271 27.773331,57.902214 27.784721,57.898880 27.805275,57.891106 27.809998,57.888885 27.817497,57.883881 27.820274,57.881104 27.823051,57.873878 27.822773,57.869713 27.821110,57.865829 27.813885,57.860275 27.785275,57.848328 27.753052,57.839157 27.734993,57.835548 27.702217,57.831665 27.673607,57.830276 27.629997,57.828606 27.577221,57.822769 27.551388,57.819443 27.545830,57.817772 27.405830,57.684990 27.400829,57.678047 27.348053,57.595543 27.346943,57.591103 27.346943,57.586937 27.348053,57.583054 27.353329,57.568604 27.361664,57.547493 27.363331,57.544159 27.372059,57.535637 27.310276,57.531380 27.087219,57.562210 27.080551,57.563606 27.070274,57.567497 27.051662,57.588326 27.039440,57.599716 27.031940,57.604713 27.018608,57.611382 26.996105,57.618324 26.969994,57.623322 26.906105,57.633049 26.898331,57.633881 26.883884,57.633606 26.873051,57.630547 26.697773,57.575554 26.634995,57.555824 26.626385,57.551102 26.619995,57.544998 26.615273,57.533051 26.612774,57.529434 26.608887,57.526939 26.602776,57.525826 26.538887,57.522217 26.523609,57.523048 26.511387,57.526100 26.313332,57.604996 26.299164,57.611382 26.287498,57.618881 26.274166,57.629715 26.204441,57.694992 26.034996,57.823326 25.946941,57.853882 25.883053,57.855827 25.836384,57.860550 25.801388,57.865829 25.622772,57.916382 25.618053,57.918327 25.461105,57.994438 25.453327,57.999435 25.449440,58.005829 25.444996,58.020828 25.439995,58.026939 25.436108,58.029434 25.421661,58.035553 25.307499,58.081383 25.301662,58.083054 25.294998,58.084435 25.287220,58.084160 25.275555,58.081665 25.266941,58.076942 25.263054,58.069160 25.264442,58.061378 25.288887,58.047218 25.294720,58.041382 25.296944,58.038048 25.300274,58.026939 25.300552,58.018883 25.299999,58.014160 25.294441,58.007500 25.285831,58.003052 25.247215,57.992493 25.232494,57.992767 25.223885,57.997215 25.214996,58.005829 25.210827,58.012497 25.207218,58.028046 25.203884,58.039162 25.199718,58.049995 25.192493,58.059433 25.179718,58.070274 25.169994,58.074440 25.163052,58.075829 25.139164,58.076660 25.124439,58.076103 25.091663,58.071663 25.069996,58.065269 25.060829,58.061104 25.038330,58.050270 25.015831,58.039436 24.723885,57.964996 24.560555,57.955551 24.553608,57.954712 24.542774,57.951660 24.453049,57.913322 24.443329,57.904434 24.441105,57.900826 24.438328,57.892769 24.433884,57.885826 24.427773,57.879433 24.420273,57.874435 24.402496,57.870544 24.373051,57.868881 24.324440,57.870270 24.314980,57.871826 24.338051,57.923882 24.345829,57.939430 24.353886,57.954712 24.363052,57.968880 24.389996,58.002777 24.400829,58.016106 24.411942,58.029434 24.426105,58.040833 24.433884,58.046104 24.456661,58.076103 24.469994,58.122765 24.471661,58.131935 24.471107,58.148605 24.468884,58.156097 24.452496,58.182770 24.469440,58.239159 24.472771,58.247215 24.479160,58.253326 24.486938,58.258606 24.498051,58.261665 24.526665,58.274162 24.542496,58.284439 24.555275,58.296944 24.559998,58.303879 24.561665,58.313049 24.559441,58.320549 24.555553,58.327217 24.541386,58.338043 24.517776,58.353050 24.458885,58.378326 24.419716,58.386658 24.390553,58.390831 24.362495,58.391937 24.348331,58.390831 24.335552,58.388603 24.326107,58.384720 24.300552,58.359993 24.295830,58.352776 24.293053,58.336380 24.293331,58.328049 24.291943,58.318886 24.287220,58.311661 24.280830,58.305550 24.246105,58.276657 24.238049,58.271378 24.110554,58.232208 24.100552,58.236382 24.092773,58.241379 24.056664,58.267769 24.050552,58.273605 24.010830,58.298607 23.993050,58.307770 23.973328,58.315826 23.949718,58.322495 23.937775,58.325829 23.826385,58.354713 23.781666,58.350273 23.770832,58.346939 23.728607,58.370827 23.679161,58.425552 23.630829,58.523605 23.616940,58.526100 23.524719,58.558327 23.501110,58.576942 23.495548,58.694153 23.523331,58.735550 23.529442,58.741661 23.538887,58.746101 23.549442,58.743881 23.569443,58.735550 23.583332,58.733047 23.600830,58.732491 23.725552,58.744713 23.867496,58.766388 23.874996,58.768600 23.857220,58.778603 23.827221,58.791107 23.805275,58.798607 23.791386,58.800827 23.591663,58.788048 23.483051,58.809990 23.420273,58.903877 23.416107,58.910545 23.415550,58.918884 23.431107,58.939430 23.445549,58.940544 23.477219,58.937492 23.507500,58.937210 23.576942,58.947212 23.588329,58.950546 23.637775,58.970543 23.635551,58.978043 23.628330,59.000549 23.623329,59.015549 23.617218,59.021378 23.590553,59.035271 23.572220,59.044159 23.560276,59.047493 23.564720,59.040833 23.570831,59.035271 23.601387,59.022766 23.609440,59.017769 23.611942,59.010277 23.605553,59.004166 23.556385,58.987770 23.514164,58.981102 23.466385,58.984161 23.452496,58.986382 23.436108,58.997215 23.413609,59.012772 23.407219,59.018600 23.428329,59.051933 23.433052,59.059158 23.440830,59.064438 23.482494,59.089432 23.465549,59.191376 23.463051,59.198875 23.464161,59.206383 23.470551,59.212494 23.499718,59.225266 23.510830,59.228325 23.613609,59.239716 23.711384,59.231102 23.727219,59.229713 23.738605,59.232765 23.744995,59.239159 23.742493,59.246384 23.736382,59.252220 23.725552,59.264717 23.721382,59.271378 23.729439,59.276657 23.742218,59.278603 23.830830,59.289719 23.856941,59.284164 23.891106,59.273323 23.905273,59.270828 23.936108,59.272217 24.027222,59.287773 24.024166,59.356102 24.019997,59.362770 24.019444,59.371101 24.022774,59.379158 24.029163,59.385269 24.037220,59.390549 24.050274,59.392769 24.064999,59.393883 24.081108,59.392220 24.105274,59.385551 24.123608,59.376656 24.148052,59.361664 24.176662,59.348328 24.186661,59.344154 24.199162,59.342766 24.212215,59.344994 24.318886,59.425827 24.325275,59.431938 24.324440,59.456940 24.329163,59.464157 24.339165,59.468323 24.350552,59.471375 24.363609,59.473602 24.394718,59.474991 24.410828,59.473320 24.536663,59.457214 24.722771,59.452774 24.791943,59.510277 24.779163,59.520271 24.776943,59.527489 24.771664,59.557495 24.776665,59.564438 24.789997,59.566666 24.801941,59.563324 24.860554,59.545547 24.868607,59.540550 24.887218,59.523048 24.909439,59.507217 24.927494,59.506386 25.050552,59.511940 25.100552,59.526100 25.107220,59.532211 25.121941,59.533333 25.154442,59.531662 25.258331,59.514160 25.282776,59.509163 25.318886,59.498878 25.358887,59.490547 25.392494,59.485825 25.405926,59.490639 25.490829,59.561104 25.486938,59.568604 25.469440,59.648331 25.471107,59.656654 25.476383,59.663048 25.492771,59.664154 25.591663,59.603882 25.599163,59.598328 25.609997,59.585548 25.631939,59.568886 25.642773,59.565269 25.655552,59.562767 25.673885,59.562767 25.700829,59.568329 25.709995,59.572769 25.715271,59.579437 25.715271,59.588600 25.713329,59.596657 25.707771,59.603050 25.693329,59.614159 25.687775,59.620544 25.669163,59.653603 25.674717,59.659988 25.683605,59.664711 25.694439,59.668327 25.709160,59.666664 25.719994,59.662766 25.767498,59.640831 25.774719,59.635551 25.780277,59.628876" />

</g>
</svg>
