<?xml version="1.0" encoding="UTF-8" standalone="no"?>
<svg
   xmlns:svg="http://www.w3.org/2000/svg"
   xmlns="http://www.w3.org/2000/svg"
   width="360" height="180" viewBox="0 0 360 180">
<g transform="translate(180,90) scale(1,-1)" style="fill:none;stroke:#ff00ff;stroke-width:0.01">

  <polyline points="-23.608612,72.834991 -23.567501,72.83194 -23.511948,72.834152 -23.350555,72.843323 -23.154446,72.837494 -23.14389,72.836105 -23.12389,72.828049 -23.077499,72.797485 -23.061111,72.781662 -23.061668,72.775818 -23.055557,72.761383 -23.050835,72.757492 -23.03167,72.748032 -22.959721,72.717484 -22.938053,72.712494 -22.844723,72.693314 -22.728886,72.666382 -22.706387,72.659424 -22.699444,72.650818 -22.694906,72.640816 -22.680279,72.627197 -22.610279,72.607208 -22.589169,72.603043 -22.583889,72.602768 -22.464722,72.598038 -22.32,72.569153 -22.182499,72.540543 -21.984997,72.491928 -21.952499,72.483322 -21.941387,72.478867 -21.928612,72.470535 -21.927776,72.458878 -21.931389,72.404984 -21.932499,72.399155 -21.938889,72.394714 -21.961109,72.389435 -21.990276,72.385269 -22.013058,72.385269 -22.052223,72.386932 -22.069168,72.389435 -22.093613,72.39444 -22.220833,72.425262 -22.258057,72.438583 -22.310558,72.431931 -22.325001,72.427475 -22.350277,72.426651 -22.363613,72.4272 -22.548611,72.446091 -22.610001,72.454712 -22.624722,72.458878 -22.634167,72.463043 -22.650276,72.46666 -22.663334,72.466385 -22.739441,72.44693 -22.756947,72.44136 -22.765003,72.433868 -22.742496,72.389435 -22.731941,72.37886 -22.727497,72.376373 -22.675831,72.359711 -22.575558,72.34166 -22.561947,72.340271 -22.468056,72.333328 -22.134167,72.271652 -22.12389,72.164993 -22.125278,72.159149 -22.137501,72.14888 -22.152222,72.136658 -22.160278,72.133606 -22.189442,72.125809 -22.277225,72.113876 -22.31139,72.112762 -22.330555,72.113037 -22.368057,72.115265 -22.484165,72.128586 -22.5425,72.135818 -22.562778,72.138885 -22.578056,72.141663 -22.714443,72.169434 -22.973331,72.241653 -22.993332,72.251663 -23.001667,72.256378 -23.024723,72.277206 -23.026947,72.282211 -23.040558,72.292206 -23.049446,72.29776 -23.072777,72.307755 -23.087502,72.31192 -23.16222,72.329712 -23.270836,72.354156 -23.525833,72.395264 -23.875,72.451096 -24.000278,72.46582 -24.005001,72.482208 -24.000835,72.487198 -23.998333,72.492752 -24.001114,72.498596 -24.011112,72.50943 -24.06139,72.536102 -24.086945,72.545258 -24.101944,72.549423 -24.142498,72.552475 -24.16972,72.550812 -24.3475,72.583603 -24.360001,72.589157 -24.369167,72.594437 -24.375278,72.599991 -24.381111,72.611649 -24.484444,72.825821 -24.48333,72.830826 -24.473331,72.837204 -24.465,72.840546 -24.405556,72.853867 -24.387501,72.857483 -24.300835,72.866653 -24.262779,72.870529 -24.178333,72.871643 -24.006947,72.873871 -23.986942,72.873871 -23.949722,72.872482 -23.929165,72.871368 -23.786667,72.857758 -23.665554,72.843597 -23.647499,72.840271 -23.608612,72.834991" id="polyline212" />

  <polyline points="-24.896667,72.777771 -24.912777,72.776932 -25.034447,72.784424 -25.054722,72.787766 -25.214722,72.822769 -25.210831,72.851654 -25.156666,72.877197 -25.145832,72.881653 -25.133331,72.883331 -24.983608,72.902206 -24.945,72.904984 -24.785278,72.912201 -24.771389,72.910812 -24.769169,72.906097 -24.769447,72.901093 -24.772224,72.896652 -24.778336,72.895264 -24.865833,72.85054 -24.866112,72.838882 -24.874443,72.785538 -24.884724,72.780273 -24.896667,72.777771" id="polyline216" />

  <polyline points="-22.549168,73.007217 -22.528614,73.006104 -22.5,73.003998 -22.46833,73.001663 -22.447498,72.99942 -22.305557,72.981369 -22.242222,72.972763 -22.181389,72.953323 -22.146111,72.938873 -22.119446,72.929977 -22.101391,72.925812 -22.08778,72.925262 -22.031113,72.924149 -21.978611,72.934418 -21.96833,72.933868 -21.906666,72.920258 -21.901665,72.915543 -21.893333,72.901093 -21.891109,72.895264 -21.890556,72.888885 -22.008892,72.84137 -22.055836,72.830826 -22.074444,72.827209 -22.13361,72.826096 -22.152222,72.823608 -22.1875,72.81192 -22.191944,72.805817 -22.134724,72.794144 -22.083332,72.788879 -22.049446,72.786102 -22.009167,72.7836 -21.991108,72.780273 -21.961109,72.76944 -21.87389,72.719437 -21.865833,72.713882 -21.871666,72.707489 -21.896946,72.682755 -21.90472,72.676651 -21.915833,72.675812 -21.964443,72.678589 -22.009167,72.684982 -22.047222,72.690536 -22.266666,72.703323 -22.494999,72.708328 -22.5,72.707886 -22.529446,72.705261 -22.672501,72.741928 -22.789444,72.806641 -22.905834,72.836105 -22.948608,72.843323 -23.114723,72.868317 -23.132221,72.870529 -23.154167,72.871368 -23.398888,72.869705 -23.466389,72.868591 -23.681389,72.881653 -23.743053,72.892761 -23.813889,72.901657 -23.87611,72.906937 -24.029724,72.914154 -24.071667,72.914703 -24.16972,72.914154 -24.224998,72.911652 -24.320557,72.902771 -24.371944,72.899429 -24.489998,72.895264 -24.508057,72.894989 -24.528614,72.895828 -24.541389,72.897766 -24.567501,72.912766 -24.587223,72.951096 -24.58889,72.957489 -24.583332,72.968872 -24.576389,72.974991 -24.564724,72.978592 -24.5275,72.984146 -24.174442,73.001389 -24.02,73.006943 -23.944443,73.006653 -23.7925,73.011108 -23.599724,73.024994 -23.456944,73.04248 -23.386112,73.052475 -23.327499,73.059143 -23.273335,73.062759 -23.203888,73.064423 -23.163334,73.063873 -23.121944,73.061371 -23.082779,73.056091 -23.064724,73.052765 -22.942497,73.033051 -22.730278,73.017487 -22.549168,73.007217" id="polyline222" />

  <polyline points="-21.353333,73.09137 -21.363335,73.091095 -21.381111,73.094711 -21.439442,73.108597 -21.458054,73.113876 -21.462776,73.118591 -21.425278,73.130814 -21.406944,73.136108 -21.389442,73.13916 -21.365002,73.141373 -21.345001,73.141937 -21.239441,73.142487 -21.173054,73.13443 -21.191666,73.119431 -21.202221,73.11554 -21.221111,73.112198 -21.353333,73.09137" id="polyline224" />

  <polyline points="-24.360001,73.411926 -24.195553,73.399155 -23.849998,73.361923 -23.711666,73.340546 -23.638611,73.327209 -23.510002,73.303314 -23.268333,73.257767 -23.243889,73.248871 -23.209999,73.233597 -23.211109,73.228592 -23.218887,73.223602 -23.230831,73.219986 -23.25,73.217484 -23.27,73.21666 -23.618332,73.219437 -23.657776,73.220261 -23.741108,73.224701 -23.821388,73.232758 -24.010002,73.254166 -24.068058,73.261383 -24.125832,73.274704 -24.203888,73.28804 -24.22583,73.291092 -24.247219,73.293045 -24.288891,73.294434 -24.368889,73.290817 -24.41,73.291092 -24.494442,73.296371 -24.643055,73.306366 -24.806946,73.318878 -24.849998,73.322769 -24.907501,73.324432 -24.926109,73.324158 -24.960556,73.32222 -24.997219,73.31694 -25.003056,73.314697 -25.010281,73.309418 -24.988888,73.301651 -24.98222,73.301926 -24.963055,73.304703 -24.951389,73.308319 -24.924168,73.314423 -24.911388,73.316086 -24.888054,73.31694 -24.872501,73.313873 -24.794445,73.295822 -24.676945,73.280273 -24.562778,73.270828 -24.41972,73.26416 -24.287224,73.258041 -24.245277,73.256104 -24.190277,73.251099 -24.161667,73.248322 -24.146946,73.246094 -24.065277,73.231659 -23.947777,73.214157 -23.835556,73.202484 -23.757225,73.194702 -23.630554,73.184143 -23.610001,73.183044 -23.554722,73.184708 -23.497776,73.189423 -23.401112,73.1922 -23.294445,73.188309 -23.130833,73.181366 -23.091667,73.175812 -22.944164,73.147217 -22.93861,73.13472 -22.967777,73.108032 -22.976109,73.103867 -22.981941,73.101929 -22.996666,73.097488 -23.009167,73.094986 -23.058613,73.093048 -23.107224,73.096375 -23.127224,73.096375 -23.2075,73.095535 -23.341667,73.09082 -23.370834,73.088882 -23.38361,73.087204 -23.490833,73.075821 -23.593891,73.065811 -23.786945,73.051926 -23.891666,73.046646 -23.923054,73.045822 -23.941944,73.046371 -23.964443,73.048035 -23.984165,73.050537 -24.173611,73.043045 -24.248055,73.034424 -24.386944,73.023605 -24.403889,73.02388 -24.686111,73.056366 -24.785278,73.069153 -24.969166,73.096939 -25.010834,73.108322 -25.028614,73.112762 -25.046669,73.11499 -25.067501,73.116089 -25.102779,73.115814 -25.153053,73.111923 -25.187778,73.107208 -25.22472,73.107483 -25.430832,73.119141 -25.452499,73.121094 -25.493053,73.126923 -25.614166,73.154434 -25.678333,73.171097 -25.7075,73.180267 -25.712776,73.186371 -25.712498,73.19136 -25.709808,73.199295 -25.44611,73.294983 -25.354168,73.313034 -25.319721,73.318604 -25.301945,73.323318 -25.290836,73.327774 -25.285,73.332489 -25.284447,73.337494 -25.285557,73.342758 -25.288612,73.347488 -25.294445,73.352203 -25.301392,73.363602 -25.299446,73.378586 -25.284725,73.391373 -25.272503,73.397491 -25.256668,73.402771 -25.243053,73.405823 -25.203053,73.411102 -25.168888,73.411652 -25.067501,73.4086 -25.049446,73.409714 -24.934166,73.418869 -24.877224,73.424988 -24.727776,73.428589 -24.656666,73.423874 -24.466942,73.416656 -24.397499,73.414703 -24.360001,73.411926" id="polyline236" />

  <polyline points="-20.016113,73.88443 -20.09639,73.882751 -20.228054,73.914703 -20.234997,73.921097 -20.234722,73.926376 -20.23222,73.930267 -20.222775,73.933594 -20.179722,73.93692 -20.15472,73.936371 -20.113613,73.932755 -20.08139,73.924423 -20.047222,73.914429 -20.035278,73.909714 -20.00528,73.896103 -20.000557,73.891373 -20.003056,73.887497 -20.016113,73.88443" id="polyline250" />

  <polyline points="-20.926945,74.419983 -20.91222,74.419434 -20.895,74.421646 -20.864445,74.428314 -20.828613,74.429153 -20.806667,74.428589 -20.537502,74.402771 -20.53167,74.401382 -20.463333,74.366928 -20.448055,74.358032 -20.434444,74.349426 -20.432777,74.343597 -20.434444,74.337769 -20.442497,74.333328 -20.460278,74.321381 -20.463612,74.314697 -20.464165,74.310532 -20.462776,74.305542 -20.427776,74.273315 -20.326389,74.233597 -20.259167,74.224426 -20.224442,74.220825 -20.140835,74.210266 -20.125,74.204987 -20.12389,74.201096 -20.126389,74.19693 -20.142498,74.178314 -20.16111,74.168045 -20.177498,74.16304 -20.192776,74.160263 -20.213612,74.157761 -20.229164,74.156937 -20.363888,74.154984 -20.508892,74.14444 -20.698608,74.119141 -20.763336,74.110809 -20.780834,74.109421 -21.069447,74.089706 -21.111668,74.088593 -21.209999,74.086105 -21.290836,74.088318 -21.298336,74.094437 -21.315834,74.103867 -21.328335,74.109421 -21.356388,74.118317 -21.396111,74.12886 -21.430279,74.134995 -21.639721,74.161377 -21.670277,74.162766 -21.715832,74.169434 -21.778336,74.178864 -21.968056,74.210815 -21.988609,74.221649 -21.990833,74.227203 -21.989441,74.233047 -21.986664,74.2397 -21.962219,74.273041 -21.95472,74.281097 -21.866112,74.340271 -21.841389,74.35054 -21.680279,74.387772 -21.59639,74.405548 -21.557503,74.41304 -21.388054,74.440536 -21.367222,74.443863 -21.34639,74.446365 -21.262447,74.452484 -21.174442,74.453873 -21.057777,74.452774 -20.972221,74.446091 -20.958286,74.442841 -20.935555,74.423599 -20.926945,74.419983" id="polyline252" />

  <polyline points="-18.838612,74.538315 -18.860001,74.537201 -19.010834,74.542755 -19.158333,74.550262 -19.206944,74.572769 -19.215553,74.577484 -19.219997,74.5811 -19.217777,74.587204 -19.20472,74.594147 -19.187778,74.600266 -19.069168,74.63443 -19.017223,74.648041 -18.996109,74.65332 -18.866665,74.674988 -18.821945,74.67276 -18.807224,74.671097 -18.752781,74.656097 -18.748333,74.652481 -18.725277,74.629425 -18.720554,74.623596 -18.729443,74.613876 -18.739441,74.608871 -18.727776,74.586655 -18.72583,74.576096 -18.73,74.569717 -18.736111,74.563599 -18.765003,74.55304 -18.824444,74.540543 -18.838612,74.538315" id="polyline260" />

  <polyline points="-18.530003,74.712204 -18.458611,74.705261 -18.417498,74.705376 -18.404333,74.705536 -18.378,74.707039 -18.319721,74.710815 -18.308613,74.709991 -18.301113,74.708328 -18.300556,74.705261 -18.307503,74.702209 -18.339722,74.698868 -18.338446,74.690369 -18.351112,74.687363 -18.357277,74.684868 -18.361279,74.682533 -18.360777,74.679703 -18.355778,74.676872 -18.337111,74.670044 -18.321667,74.656372 -18.315277,74.651093 -18.315556,74.643051 -18.316666,74.638596 -18.36861,74.621368 -18.383057,74.620255 -18.473053,74.623596 -18.494164,74.627762 -18.500278,74.631088 -18.593613,74.717209 -18.590279,74.719986 -18.586945,74.7211 -18.559444,74.721924 -18.547779,74.719147 -18.530003,74.712204" id="polyline262" />

  <polyline points="-20.166943,74.897491 -20.151112,74.893875 -20.134724,74.895828 -20.130833,74.901093 -20.130554,74.907486 -20.133888,74.911926 -20.135555,74.91748 -20.128887,74.920532 -20.111111,74.923035 -20.053333,74.923599 -20.030556,74.923035 -19.984444,74.918045 -19.781113,74.884995 -19.745277,74.876923 -19.734444,74.870819 -19.730831,74.864426 -19.729164,74.858597 -19.73333,74.853317 -19.743053,74.847214 -19.862221,74.787201 -20.027225,74.716095 -20.054447,74.707764 -20.068333,74.704437 -20.084446,74.702774 -20.189167,74.701935 -20.23222,74.703598 -20.450832,74.731094 -20.471111,74.736374 -20.684444,74.806366 -20.687778,74.811646 -20.684166,74.81694 -20.668888,74.828049 -20.649723,74.837204 -20.619167,74.846649 -20.594723,74.857483 -20.583611,74.863037 -20.574169,74.869141 -20.56889,74.874985 -20.55389,74.898605 -20.546669,74.910538 -20.540836,74.92804 -20.551945,74.939697 -20.563335,74.951096 -20.589722,74.968597 -20.613613,74.979156 -20.611111,74.983047 -20.596939,74.991867 -20.576111,75.002487 -20.563057,75.008606 -20.513889,75.025543 -20.493053,75.030823 -20.461388,75.038315 -20.415276,75.047211 -20.38028,75.050262 -20.35611,75.051376 -20.32,75.050537 -20.29528,75.049713 -20.242775,75.044434 -20.230831,75.041656 -20.221111,75.041367 -20.18222,75.037201 -20.016945,75.012497 -19.993053,75.008881 -19.972775,75.003326 -19.963886,74.997757 -19.960556,74.992477 -19.960556,74.986099 -19.96833,74.980545 -19.978054,74.97554 -20.035835,74.954163 -20.049725,74.950821 -20.078335,74.946365 -20.100555,74.944977 -20.118332,74.94165 -20.181667,74.927765 -20.195278,74.923874 -20.199997,74.920258 -20.201942,74.914429 -20.183609,74.903046 -20.166943,74.897491" id="polyline266" />

  <polyline points="-17.808334,75.306091 -17.851665,75.288315 -17.869999,75.282211 -17.946945,75.263046 -17.969166,75.258041 -17.991665,75.254715 -18.033333,75.253326 -18.056389,75.25499 -18.103333,75.261383 -18.126389,75.263046 -18.131943,75.262497 -18.146667,75.258606 -18.205833,75.236099 -18.216389,75.231094 -18.215275,75.225266 -18.210831,75.221375 -17.986942,75.139709 -17.875,75.100266 -17.830002,75.089432 -17.761112,75.081375 -17.738331,75.079712 -17.715553,75.078873 -17.693054,75.079987 -17.5975,75.098328 -17.583057,75.104156 -17.583611,75.109985 -17.592777,75.121643 -17.535278,75.14444 -17.449997,75.158875 -17.433056,75.161377 -17.414444,75.161377 -17.395,75.1586 -17.344444,75.148331 -17.326946,75.142212 -17.320557,75.136932 -17.319721,75.131088 -17.400555,75.011108 -17.539169,74.948868 -17.60611,74.933319 -17.620834,74.931091 -17.639721,74.933044 -17.644165,74.937759 -17.607502,74.958038 -17.604446,74.963882 -17.600277,74.989151 -17.604721,74.993866 -17.62389,74.996643 -17.847778,75.028046 -17.872223,75.029434 -18.037781,75.031662 -18.058613,75.031937 -18.109165,75.029709 -18.13139,75.027481 -18.228054,75.011383 -18.324722,74.995255 -18.354168,74.991928 -18.409443,74.986374 -18.464722,74.981934 -18.509445,74.980545 -18.550278,74.988037 -18.579723,74.994141 -18.602779,74.997757 -18.648335,75.001099 -18.712776,75.003052 -18.74472,75.003052 -18.824722,75.000549 -18.869167,74.998032 -18.903332,74.99942 -18.907223,75.000275 -18.915554,75.004166 -18.923889,75.041931 -18.926388,75.07193 -18.926388,75.080276 -18.923889,75.086105 -18.916389,75.095535 -18.911945,75.100815 -18.841389,75.142761 -18.835278,75.148605 -18.8325,75.154434 -18.831669,75.203049 -18.835278,75.247208 -18.843891,75.278595 -18.858891,75.295822 -18.839169,75.328323 -18.730831,75.352478 -18.710556,75.355255 -18.565556,75.372208 -18.552502,75.373596 -18.529167,75.371094 -18.458889,75.356934 -18.442497,75.351379 -18.406387,75.330826 -18.396389,75.320267 -18.395832,75.315262 -18.388611,75.309143 -18.382221,75.305817 -18.362499,75.301376 -18.316113,75.299713 -18.256947,75.301086 -18.244164,75.302475 -18.150276,75.324432 -18.134167,75.33194 -18.130833,75.334991 -18.128056,75.34082 -18.132778,75.346649 -18.135555,75.363037 -18.137222,75.373596 -18.136387,75.379974 -18.131668,75.385269 -18.105556,75.413879 -18.09861,75.419708 -18.083611,75.421646 -18.064167,75.421097 -17.988609,75.406372 -17.970276,75.400269 -17.945,75.386932 -17.860001,75.358597 -17.847778,75.352768 -17.803333,75.310532 -17.808334,75.306091" id="polyline268" />
  
  <polyline points="-21.98222,75.991928 -21.980831,75.989151 -21.970833,75.984421 -21.87611,75.957214 -21.859165,75.954712 -21.589443,75.953598 -21.469166,75.954712 -21.405556,75.9561 -21.362499,75.959152 -21.299725,75.962494 -21.220833,75.966385 -21.157501,75.968597 -21.087223,75.968872 -20.824169,75.963882 -20.706665,75.96138 -20.609165,75.957764 -20.584724,75.956375 -20.510559,75.950821 -20.485554,75.948593 -20.424442,75.939423 -20.420277,75.938583 -20.397499,75.930267 -20.374168,75.926376 -20.360954,75.925323 -20.333332,75.923309 -20.285278,75.923035 -20.240833,75.923035 -20.208054,75.926086 -20.137222,75.930267 -19.988609,75.934418 -19.935276,75.930542 -19.825001,75.909149 -19.781944,75.898331 -19.757225,75.889435 -19.709721,75.868317 -19.699997,75.862762 -19.555836,75.771652 -19.557224,75.732758 -19.568058,75.729706 -19.578335,75.723877 -19.611389,75.67804 -19.611946,75.673599 -19.602501,75.668045 -19.510002,75.6297 -19.414444,75.571381 -19.396111,75.559982 -19.390556,75.554153 -19.383888,75.542755 -19.375278,75.524429 -19.335556,75.404984 -19.338055,75.399155 -19.345001,75.387772 -19.366112,75.36499 -19.368332,75.328049 -19.36972,75.31749 -19.378334,75.2836 -19.38361,75.265549 -19.386112,75.25972 -19.410278,75.236099 -19.453331,75.201935 -19.463333,75.19664 -19.585278,75.139435 -19.591946,75.136383 -19.610001,75.133041 -19.623333,75.132477 -19.648056,75.133331 -19.882778,75.145828 -19.898335,75.147217 -19.914722,75.150818 -19.990555,75.176651 -19.998886,75.180542 -20.001667,75.182755 -20.005001,75.187195 -20.014446,75.207489 -20.023056,75.249146 -20.010834,75.259995 -20.001945,75.262497 -19.97472,75.267487 -19.956944,75.272766 -19.951111,75.278595 -19.956665,75.284424 -19.965832,75.289978 -20.110832,75.326096 -20.135555,75.331665 -20.159443,75.334991 -20.180832,75.336105 -20.307503,75.335541 -20.351665,75.328873 -20.386665,75.318329 -20.407776,75.31192 -20.43972,75.303589 -20.48,75.29776 -20.536114,75.293869 -20.619446,75.289978 -20.642223,75.289429 -20.661388,75.289978 -20.685276,75.29248 -20.705555,75.295822 -20.965275,75.357483 -21.156387,75.399155 -21.169167,75.402771 -21.182777,75.408325 -21.188332,75.411926 -21.208889,75.426086 -21.207222,75.432205 -21.21611,75.455261 -21.223331,75.464706 -21.23333,75.470535 -21.274723,75.486923 -21.462498,75.538879 -21.501667,75.549713 -21.644165,75.582214 -21.687222,75.591934 -21.708332,75.595261 -21.808334,75.604706 -21.858055,75.611374 -21.90889,75.619705 -22.042778,75.647491 -22.089443,75.654984 -22.112221,75.657761 -22.157223,75.661377 -22.251114,75.664154 -22.262501,75.662766 -22.280556,75.659424 -22.286667,75.655258 -22.279167,75.647766 -22.273613,75.643875 -22.255836,75.639435 -22.226109,75.63443 -22.160831,75.629425 -22.110279,75.622208 -22.035,75.611374 -21.941109,75.594437 -21.838333,75.573883 -21.608891,75.524429 -21.543892,75.508606 -21.530556,75.504166 -21.406387,75.455551 -21.407223,75.453049 -21.427498,75.450272 -21.450554,75.449707 -21.497219,75.450272 -21.62611,75.461655 -21.697777,75.46582 -21.855556,75.471375 -21.994999,75.474991 -22.088612,75.475266 -22.113056,75.477478 -22.297779,75.498596 -22.320557,75.501389 -22.414722,75.515823 -22.45472,75.526382 -22.465275,75.531937 -22.468056,75.537766 -22.464443,75.546646 -22.46611,75.550537 -22.471664,75.554428 -22.476109,75.555252 -22.491108,75.553864 -22.5,75.551735 -22.505001,75.550537 -22.510559,75.540817 -22.511391,75.530823 -22.501945,75.522766 -22.49472,75.51944 -22.475555,75.512207 -22.428333,75.502777 -22.3825,75.496368 -22.075558,75.463043 -22.053333,75.461105 -21.964722,75.462494 -21.898056,75.46138 -21.828888,75.458878 -21.611668,75.444702 -21.547501,75.440262 -21.466663,75.431656 -21.439999,75.42804 -21.415001,75.423599 -21.397499,75.41832 -21.37389,75.407211 -21.369999,75.401932 -21.369446,75.395538 -21.367222,75.389709 -21.351112,75.373032 -21.339169,75.366928 -21.325558,75.361374 -21.300835,75.357208 -21.237778,75.353867 -21.213333,75.35054 -21.034447,75.319153 -21.007778,75.314423 -20.965553,75.303864 -20.901665,75.285812 -20.894165,75.280548 -20.876389,75.263321 -20.857224,75.252213 -20.817501,75.242752 -20.726944,75.228867 -20.653889,75.21582 -20.608891,75.20694 -20.588055,75.20166 -20.561947,75.19165 -20.546947,75.180267 -20.529724,75.16304 -20.520557,75.151932 -20.515003,75.140823 -20.532501,75.135818 -20.55389,75.132202 -20.670277,75.116089 -20.688889,75.115814 -20.708332,75.117203 -20.77417,75.126923 -20.814445,75.133881 -20.854168,75.138885 -20.889442,75.141937 -20.91222,75.142487 -20.934998,75.141937 -20.97583,75.138885 -21.191387,75.116379 -21.229721,75.111923 -21.2925,75.092484 -21.374722,75.064423 -21.399445,75.054703 -21.412498,75.049423 -21.436386,75.037491 -21.473331,75.025818 -21.560833,75.008041 -21.638054,74.993317 -21.736385,74.976089 -21.744442,74.976929 -21.758614,74.97998 -21.85611,75.006653 -21.861111,75.00943 -21.867222,75.014999 -21.869999,75.021652 -21.864723,75.027771 -21.863335,75.0336 -21.868057,75.045258 -21.886116,75.063934 -21.928886,75.078323 -22.127499,75.1297 -22.176388,75.137207 -22.34639,75.160538 -22.390835,75.166092 -22.418331,75.168045 -22.433609,75.167755 -22.436386,75.165817 -22.435555,75.163879 -22.425831,75.159149 -22.394722,75.149429 -22.288055,75.127472 -22.216389,75.11998 -22.171665,75.113312 -22.154446,75.108871 -21.970833,75.060532 -21.958054,75.056931 -21.946945,75.052765 -21.940556,75.047211 -21.942223,75.041367 -21.948608,75.034714 -21.959721,75.02916 -21.940556,75.005829 -21.896946,74.982483 -21.866665,74.972488 -21.849724,74.968048 -21.813335,74.96138 -21.765556,74.954987 -21.742496,74.953598 -21.6875,74.952484 -21.6675,74.953598 -21.549446,74.963882 -21.520836,74.967758 -21.475555,74.977478 -21.45472,74.982208 -21.414165,74.993866 -21.319168,75.026932 -21.2775,75.042206 -21.238331,75.058594 -21.22361,75.064423 -21.175556,75.078323 -21.147778,75.084717 -21.129723,75.087204 -21.092777,75.089981 -21.069447,75.088593 -21.046112,75.086105 -20.993053,75.074707 -20.944443,75.066086 -20.901943,75.063309 -20.856945,75.064148 -20.730278,75.069992 -20.709442,75.069992 -20.686386,75.068604 -20.662777,75.066086 -20.638889,75.06192 -20.629723,75.057205 -20.634167,75.035538 -20.683331,74.917206 -20.748886,74.861649 -20.761112,74.852768 -20.762779,74.846939 -20.760834,74.835541 -20.756947,74.829437 -20.751114,74.823608 -20.721943,74.801926 -20.703609,74.791656 -20.664722,74.774994 -20.638889,74.763885 -20.607777,74.748032 -20.603333,74.745255 -20.60611,74.736923 -20.615555,74.73082 -20.683331,74.701096 -20.751945,74.674149 -20.796947,74.665543 -20.855556,74.6586 -20.911945,74.656937 -20.978333,74.657211 -21.041946,74.660538 -21.066113,74.666931 -21.075001,74.670532 -21.094723,74.674988 -21.109722,74.675537 -21.116943,74.675262 -21.120277,74.674149 -21.123055,74.671371 -21.11972,74.661652 -21.115002,74.658875 -21.102501,74.655258 -21.017223,74.641663 -20.982777,74.638596 -20.93222,74.640823 -20.913612,74.640274 -20.898609,74.639709 -20.847778,74.635544 -20.660557,74.65387 -20.59111,74.666092 -20.549168,74.673035 -20.527225,74.673599 -20.192497,74.674698 -20.136112,74.671097 -20.049999,74.65332 -20.02528,74.643051 -20.012222,74.62915 -20.005001,74.624146 -19.816391,74.583328 -19.797501,74.580826 -19.714722,74.585266 -19.701664,74.59137 -19.698887,74.595261 -19.686386,74.604156 -19.628334,74.627197 -19.450554,74.680817 -19.433056,74.684143 -19.411388,74.685257 -19.392776,74.684708 -19.37389,74.683044 -19.352779,74.679153 -19.29528,74.660263 -19.284725,74.654984 -19.271667,74.646378 -19.276669,74.635544 -19.286945,74.625259 -19.296669,74.619431 -19.308891,74.609421 -19.316113,74.601089 -19.315002,74.5961 -19.286114,74.527206 -19.279167,74.521927 -19.265278,74.516937 -19.25,74.513046 -19.130833,74.500549 -19.028614,74.498322 -19.021114,74.497482 -19.005558,74.493591 -18.978611,74.48526 -18.977776,74.481659 -19.088055,74.421646 -19.16,74.402771 -19.173054,74.397766 -19.179165,74.391937 -19.164444,74.375534 -19.162498,74.365814 -19.167221,74.354156 -19.171665,74.349716 -19.179443,74.344437 -19.367779,74.264999 -19.377777,74.260818 -19.575558,74.236099 -19.596668,74.234711 -19.684998,74.237488 -19.830555,74.246368 -20.131668,74.272491 -20.212219,74.303589 -20.208611,74.309143 -20.238888,74.36499 -20.349445,74.438873 -20.363335,74.443039 -20.374443,74.444702 -20.381943,74.445526 -20.470833,74.450546 -20.503613,74.45166 -20.6175,74.454987 -20.751945,74.455826 -20.93111,74.459152 -21.018612,74.465271 -21.259167,74.471649 -21.340557,74.465546 -21.423332,74.458038 -21.53389,74.447754 -21.592499,74.443863 -21.616112,74.443588 -21.66111,74.447205 -21.727776,74.459991 -21.783333,74.472214 -21.817501,74.483871 -21.828613,74.494431 -21.828888,74.49971 -21.835556,74.511658 -21.841389,74.517487 -21.879444,74.544144 -21.884167,74.546936 -21.897499,74.5522 -22.025002,74.591095 -22.05278,74.5961 -22.082779,74.598328 -22.100555,74.596649 -22.109722,74.59166 -22.112221,74.589432 -22.106667,74.584717 -22.097778,74.5811 -22.021946,74.557205 -21.925278,74.521378 -21.779446,74.438583 -21.763336,74.425537 -21.765003,74.419434 -21.777225,74.408875 -21.826946,74.369431 -21.930832,74.334991 -21.963886,74.327209 -21.999165,74.320831 -22.068058,74.312759 -22.089722,74.312195 -22.251667,74.311096 -22.425831,74.313599 -22.438889,74.314697 -22.467499,74.313873 -22.479164,74.31192 -22.479164,74.30748 -22.46722,74.304977 -22.34528,74.284988 -22.318058,74.280823 -22.285835,74.280823 -22.250835,74.287201 -22.219444,74.294708 -22.202499,74.297211 -22.160278,74.300262 -22.142223,74.299988 -22.097778,74.296371 -22.074169,74.292206 -22.058056,74.287766 -22.053055,74.283875 -22.038055,74.256104 -22.041111,74.245255 -22.044167,74.239975 -22.049725,74.235809 -22.067223,74.22554 -22.100277,74.214432 -22.199444,74.184982 -22.206665,74.162766 -22.154167,74.118042 -22.163055,74.112762 -22.178333,74.106644 -22.195831,74.101654 -22.210556,74.098877 -22.251114,74.093597 -22.290001,74.092484 -22.350834,74.093323 -22.390835,74.095261 -22.429443,74.093872 -22.449722,74.09137 -22.462776,74.088043 -22.490555,74.078323 -22.492496,74.074432 -22.491943,74.073318 -22.480831,74.068329 -22.263336,74.027771 -22.248333,74.025543 -22.186111,74.020538 -22.119999,74.01915 -22.108852,74.019333 -22.101112,74.021103 -22.083332,74.020538 -22.06139,74.018326 -21.990833,74.001938 -21.982777,73.99942 -21.980553,73.998032 -21.862778,73.898605 -21.823055,73.858871 -21.819447,73.854431 -21.814167,73.844437 -21.815556,73.838593 -21.82,73.832489 -21.833611,73.822495 -21.837502,73.813599 -21.853889,73.7686 -21.853611,73.763321 -21.842777,73.669983 -21.821667,73.651093 -21.777225,73.652481 -21.767223,73.65387 -21.755558,73.659988 -21.721943,73.681366 -21.708611,73.69165 -21.70472,73.696091 -21.703053,73.701096 -21.758057,73.858322 -21.760281,73.864151 -21.781113,73.891663 -21.799999,73.904709 -21.812222,73.909149 -21.872501,73.919144 -21.884167,73.92276 -21.889442,73.926651 -21.915554,73.976379 -21.9175,73.981369 -21.914444,74.010544 -21.906387,74.016663 -21.888611,74.026093 -21.862499,74.036102 -21.748608,74.058319 -21.721664,74.06192 -21.7075,74.062485 -21.685833,74.061096 -21.568058,74.045258 -21.534168,74.039429 -21.488609,74.031097 -21.408333,74.014709 -21.317501,73.992996 -21.270836,73.97998 -21.043335,73.937485 -20.761112,73.891098 -20.71722,73.885269 -20.677498,73.881363 -20.634445,73.878311 -20.613888,73.87886 -20.543056,73.883041 -20.46833,73.890549 -20.424721,73.891937 -20.364723,73.890549 -20.309166,73.885269 -20.296112,73.883331 -20.283058,73.879974 -20.275833,73.873871 -20.263058,73.840271 -20.281944,73.796097 -20.287224,73.789978 -20.295002,73.786377 -20.333611,73.781372 -20.3475,73.781097 -20.420555,73.775818 -20.453888,73.770264 -20.472775,73.76416 -20.481388,73.758041 -20.533058,73.720825 -20.528614,73.705261 -20.51889,73.695816 -20.506947,73.690262 -20.493889,73.681931 -20.460831,73.646103 -20.458611,73.637497 -20.460278,73.631653 -20.462219,73.626648 -20.474167,73.5961 -20.490555,73.587494 -20.513058,73.575821 -20.518612,73.57193 -20.523613,73.565811 -20.525558,73.561096 -20.522778,73.556641 -20.515835,73.550537 -20.507504,73.545822 -20.470833,73.536926 -20.445553,73.5336 -20.421387,73.533325 -20.383888,73.533051 -20.369999,73.527206 -20.371944,73.522217 -20.428333,73.473877 -20.437222,73.468597 -20.452778,73.463318 -20.476944,73.457489 -20.501114,73.452774 -20.515835,73.450821 -20.531113,73.449997 -20.566391,73.448593 -20.611946,73.44693 -20.634167,73.44693 -20.65139,73.447479 -20.689999,73.450546 -20.781391,73.458878 -20.801666,73.459427 -20.931942,73.459991 -21.090279,73.453049 -21.13139,73.453049 -21.233887,73.453049 -21.387501,73.472214 -21.416943,73.478317 -21.436665,73.481094 -21.454445,73.482483 -21.488888,73.483597 -21.524445,73.481934 -21.560833,73.478043 -21.573612,73.475815 -21.613613,73.463043 -21.677498,73.384155 -21.763336,73.372208 -21.913055,73.344437 -21.933887,73.340271 -21.949165,73.335815 -21.976109,73.326385 -22.027225,73.308319 -22.068333,73.292206 -22.103611,73.277481 -22.163055,73.256104 -22.189442,73.25 -22.226665,73.245255 -22.248055,73.244141 -22.285557,73.244705 -22.379166,73.250549 -22.421665,73.25499 -22.462776,73.260818 -22.5,73.268295 -22.523613,73.273041 -22.563057,73.281937 -22.580555,73.287766 -22.616943,73.29776 -22.631668,73.300262 -22.736942,73.316086 -22.768612,73.318878 -22.826668,73.319717 -22.895554,73.317764 -22.93861,73.323044 -23.112499,73.35054 -23.128056,73.354706 -23.144165,73.359985 -23.16222,73.370255 -23.168331,73.375809 -23.186665,73.386932 -23.222775,73.398331 -23.28167,73.407761 -23.360832,73.408875 -23.375832,73.411102 -23.491802,73.440857 -23.50639,73.444702 -23.513058,73.452484 -23.521114,73.461929 -23.534447,73.468048 -23.555557,73.476089 -23.587223,73.484711 -23.71833,73.513885 -23.96722,73.587769 -23.983608,73.592758 -23.993332,73.598328 -23.999722,73.603867 -24.035278,73.660263 -24.032223,73.702484 -24.016113,73.711929 -23.997498,73.719986 -23.992775,73.720825 -23.982777,73.722214 -23.961388,73.7211 -23.855835,73.71582 -23.7225,73.710815 -23.605835,73.710815 -23.588055,73.710541 -23.548611,73.708328 -23.508057,73.703873 -23.485275,73.699707 -23.461945,73.694977 -23.383888,73.669434 -23.161388,73.631653 -23.126945,73.624146 -23.010834,73.596939 -22.911945,73.572495 -22.847778,73.555817 -22.829166,73.552475 -22.814445,73.551086 -22.694443,73.544434 -22.674168,73.545258 -22.543335,73.562195 -22.442776,73.586105 -22.256668,73.612488 -22.223053,73.61554 -22.203331,73.618042 -22.188889,73.621094 -22.178333,73.624695 -22.186111,73.626373 -22.210831,73.628586 -22.231941,73.62886 -22.273056,73.627472 -22.291389,73.626373 -22.417778,73.613602 -22.453888,73.608597 -22.4725,73.603043 -22.5,73.58902 -22.540836,73.580826 -22.645279,73.566666 -22.661945,73.564987 -22.7075,73.563034 -22.747219,73.563034 -22.81889,73.572769 -22.8475,73.579163 -22.861389,73.583054 -22.888889,73.591095 -22.906944,73.596649 -23.163334,73.654434 -23.489166,73.726654 -23.52639,73.731094 -23.564445,73.734146 -23.703888,73.733597 -23.762222,73.731369 -23.803333,73.733047 -23.847778,73.738312 -23.892223,73.746933 -23.916664,73.753601 -23.93,73.758881 -23.994164,73.795532 -24,73.800262 -23.999443,73.806091 -24.009167,73.811646 -24.027225,73.815262 -24.044167,73.814697 -24.149998,73.801651 -24.333332,73.776382 -24.340557,73.77388 -24.450554,73.701096 -24.45472,73.695816 -24.459721,73.685806 -24.464443,73.674988 -24.466663,73.669434 -24.46833,73.652771 -24.465275,73.641098 -24.459164,73.629425 -24.454445,73.623306 -24.431942,73.600815 -24.41222,73.583878 -24.4025,73.578598 -24.384167,73.563599 -24.38139,73.557755 -24.379166,73.550537 -24.398335,73.544434 -24.438889,73.535812 -24.450554,73.534988 -24.463055,73.535812 -24.486942,73.544983 -24.51778,73.554153 -24.537781,73.559143 -24.611946,73.571106 -24.642223,73.573044 -24.662777,73.57222 -24.691666,73.568054 -24.730553,73.569443 -24.847221,73.585815 -24.904446,73.594986 -24.959721,73.613037 -24.991665,73.626373 -24.994999,73.638046 -24.988888,73.648605 -24.976944,73.664993 -24.972775,73.669983 -24.965832,73.676086 -24.962219,73.682205 -24.960831,73.691925 -24.974167,73.703323 -24.982498,73.708328 -25.009445,73.718872 -25.053055,73.727768 -25.164444,73.741928 -25.183887,73.74498 -25.198887,73.74942 -25.415833,73.815811 -25.424721,73.819153 -25.435276,73.824707 -25.444443,73.834152 -25.464722,73.859146 -25.487499,73.888046 -25.491108,73.893875 -25.497498,73.898331 -25.507778,73.90387 -25.521667,73.909149 -25.655834,73.948029 -25.671944,73.951096 -25.686943,73.952484 -25.690556,73.952209 -25.703609,73.950546 -25.718609,73.946091 -25.72361,73.942749 -25.739441,73.928314 -25.738609,73.923874 -25.734165,73.919708 -25.706665,73.910263 -25.681667,73.901093 -25.586666,73.8647 -25.571945,73.85498 -25.566391,73.848877 -25.563057,73.843323 -25.561947,73.838882 -25.563614,73.832489 -25.569447,73.827774 -25.572777,73.821655 -25.56778,73.816376 -25.560833,73.810806 -25.551113,73.806366 -25.370834,73.74942 -25.308613,73.736099 -25.219166,73.718323 -25.122501,73.699417 -25.102222,73.694427 -25.089443,73.690262 -25.084446,73.684982 -25.085556,73.662491 -25.08889,73.656372 -25.109722,73.6436 -25.114166,73.639435 -25.114723,73.63472 -25.111668,73.62886 -25.091389,73.618042 -25.06778,73.607208 -25.02417,73.59166 -24.944443,73.573608 -24.831944,73.5522 -24.692776,73.525818 -24.676666,73.521652 -24.674168,73.516937 -24.674168,73.513321 -24.691387,73.497482 -24.699165,73.493317 -24.711666,73.490814 -24.925831,73.478317 -25.105278,73.471924 -25.242775,73.468048 -25.283058,73.466095 -25.315002,73.461655 -25.360001,73.449707 -25.49361,73.402206 -25.497498,73.396942 -25.491943,73.393326 -25.496666,73.337204 -25.721386,73.263611 -25.739166,73.258881 -25.769447,73.252487 -25.786945,73.25 -25.827499,73.246643 -25.863888,73.244705 -26.012501,73.242203 -26.134998,73.241653 -26.167221,73.243866 -26.185402,73.248093 -26.197777,73.251663 -26.211109,73.256943 -26.226944,73.2686 -26.237499,73.279709 -26.245831,73.284714 -26.269447,73.295258 -26.288612,73.300812 -26.394722,73.327484 -26.435276,73.337204 -26.457775,73.339981 -26.488331,73.341934 -26.501114,73.340271 -26.509724,73.337769 -26.531391,73.328873 -26.542778,73.325272 -26.57,73.319717 -26.631668,73.319443 -26.712776,73.322769 -26.752781,73.325546 -26.771114,73.327484 -26.817501,73.334991 -26.845833,73.34137 -26.939167,73.365265 -26.988888,73.3797 -27.019722,73.389984 -27.158333,73.440262 -27.190556,73.456375 -27.198887,73.46138 -27.213612,73.472214 -27.230278,73.483597 -27.240833,73.489151 -27.246387,73.491653 -27.261669,73.493866 -27.327499,73.493042 -27.337502,73.492477 -27.351944,73.488586 -27.453331,73.455261 -27.458611,73.443039 -27.457222,73.441086 -27.148476,73.359924 -27.083057,73.343323 -26.855835,73.302765 -26.840836,73.300537 -26.828056,73.299713 -26.68861,73.296646 -26.521667,73.287766 -26.502224,73.286377 -26.47583,73.283051 -26.452778,73.27916 -26.436111,73.274155 -26.422501,73.268875 -26.391666,73.253052 -26.388054,73.247208 -26.387501,73.241364 -26.396946,73.234985 -26.415833,73.231934 -26.464165,73.227203 -26.500278,73.22554 -26.547779,73.219986 -26.566666,73.216934 -26.584446,73.213043 -26.604446,73.204437 -26.609444,73.198868 -26.612221,73.192749 -26.611946,73.18692 -26.613335,73.181366 -26.618057,73.175537 -26.695831,73.133041 -26.711666,73.131088 -26.728054,73.130264 -26.760834,73.133331 -26.870834,73.150818 -26.91222,73.158875 -27.057503,73.184708 -27.074444,73.187195 -27.095833,73.189148 -27.111946,73.189697 -27.234722,73.182205 -27.33139,73.168594 -27.537224,73.160538 -27.596111,73.159424 -27.638054,73.156097 -27.653889,73.15416 -27.68111,73.149429 -27.715832,73.140549 -27.728054,73.133881 -27.728611,73.1297 -27.715275,73.125534 -27.693054,73.123032 -27.65889,73.123032 -27.589722,73.126083 -27.559166,73.128586 -27.540836,73.131653 -27.519722,73.133331 -27.487778,73.133881 -27.468056,73.132477 -27.449722,73.130539 -27.429443,73.125809 -27.41861,73.120529 -27.406387,73.109985 -27.363888,73.004715 -27.363888,72.99971 -27.367222,72.9897 -27.373055,72.983322 -27.440834,72.954712 -27.46611,72.947205 -27.484997,72.944977 -27.514725,72.939423 -27.522224,72.935806 -27.526112,72.931656 -27.516392,72.927475 -27.497498,72.924423 -27.480831,72.924423 -27.445831,72.927765 -27.344166,72.96138 -27.324169,72.968872 -27.315277,72.972763 -27.310001,72.977768 -27.314724,73.041092 -27.313614,73.0961 -27.297779,73.107758 -27.287781,73.113312 -27.265003,73.119705 -27.171944,73.142761 -27.158611,73.145828 -27.147778,73.147217 -27.109722,73.143875 -27.090557,73.141098 -27.054722,73.133041 -27.001114,73.124146 -26.956665,73.118866 -26.871944,73.111374 -26.729721,73.101379 -26.709999,73.100266 -26.664444,73.100266 -26.64389,73.102768 -26.595001,73.116379 -26.583057,73.121368 -26.567501,73.131653 -26.535278,73.154984 -26.494999,73.180267 -26.480831,73.187485 -26.466389,73.19136 -26.449165,73.193588 -26.427498,73.194427 -26.406944,73.194427 -26.323334,73.188583 -26.282501,73.188583 -26.205555,73.190811 -26.093334,73.19664 -26.054447,73.199707 -26.013615,73.199707 -25.991943,73.198029 -25.970554,73.196091 -25.8825,73.185806 -25.860279,73.183044 -25.850834,73.181091 -25.82,73.172211 -25.809723,73.166931 -25.803333,73.161377 -25.787224,73.151382 -25.776947,73.145828 -25.764168,73.141663 -25.7225,73.133881 -25.629723,73.117477 -25.43,73.093872 -25.386665,73.088882 -25.225945,73.081284 -25.15361,73.082489 -25.099724,73.083054 -25.06139,73.083328 -25.05389,73.082764 -25.048611,73.079163 -24.985554,73.01915 -24.986111,73.014435 -24.989441,73.008331 -24.996387,73.001938 -25.021114,72.986099 -25.131943,72.937759 -25.145554,72.932205 -25.159721,72.927475 -25.307503,72.893051 -25.319721,72.891373 -25.373333,72.891663 -25.410278,72.891937 -25.528889,72.894989 -25.640278,72.897217 -25.69389,72.897491 -25.712776,72.895538 -25.755001,72.884995 -25.781391,72.872757 -25.803055,72.861374 -25.809723,72.856094 -25.831669,72.844711 -25.851665,72.836105 -25.87611,72.827209 -25.90139,72.818878 -25.944721,72.805252 -25.989166,72.793594 -26.027225,72.787201 -26.184998,72.776382 -26.206387,72.775818 -26.260834,72.777771 -26.30389,72.785812 -26.538612,72.836105 -26.570557,72.844147 -26.59528,72.851654 -26.632778,72.863312 -26.66222,72.867477 -26.683609,72.869431 -26.716389,72.871094 -26.733055,72.871094 -26.777779,72.867477 -26.952499,72.842758 -27.085556,72.823883 -27.100834,72.82193 -27.134167,72.82193 -27.172775,72.827209 -27.234722,72.841934 -27.245277,72.845535 -27.282223,72.852768 -27.321945,72.857483 -27.345833,72.858032 -27.355835,72.857483 -27.369999,72.856094 -27.381943,72.851929 -27.384167,72.849716 -27.387222,72.844711 -27.388332,72.836655 -27.381943,72.827209 -27.372223,72.822769 -27.344444,72.818878 -27.16972,72.804977 -27.126667,72.805542 -27.108612,72.806091 -27.041111,72.812485 -26.920277,72.821655 -26.743053,72.831665 -26.69722,72.828323 -26.678612,72.825272 -26.428612,72.778046 -26.397778,72.770828 -26.394722,72.766098 -26.464165,72.751938 -26.502224,72.746368 -26.538055,72.742752 -26.616943,72.739151 -26.681942,72.731369 -26.699997,72.728592 -26.776669,72.713318 -26.779724,72.710541 -26.762222,72.7061 -26.740833,72.704437 -26.710831,72.704163 -26.660831,72.708878 -26.518612,72.722488 -26.345001,72.739151 -26.330833,72.738037 -26.315556,72.734985 -26.304722,72.727768 -26.305557,72.723602 -26.365833,72.633606 -26.372501,72.628311 -26.390835,72.618042 -26.4175,72.607758 -26.46611,72.587769 -26.474998,72.581375 -26.475277,72.576385 -26.462776,72.57222 -26.453331,72.572769 -26.421944,72.580276 -26.346668,72.613037 -26.323334,72.623306 -26.250557,72.669144 -26.13361,72.713318 -26.111946,72.712769 -26.075832,72.713882 -26.019722,72.719711 -25.9025,72.737198 -25.869999,72.743866 -25.840557,72.750275 -25.783333,72.7686 -25.728333,72.78804 -25.643612,72.816376 -25.622223,72.822769 -25.603333,72.827209 -25.566666,72.833054 -25.531113,72.834717 -25.493053,72.832764 -25.472775,72.829437 -25.191387,72.756378 -25.1325,72.748871 -24.842499,72.719437 -24.827225,72.715271 -24.726944,72.687485 -24.714722,72.683044 -24.699165,72.672211 -24.697498,72.669144 -24.701111,72.663315 -24.730282,72.656418 -24.737778,72.651657 -24.741665,72.646652 -24.741943,72.640823 -24.741386,72.636383 -24.723331,72.589157 -24.721386,72.585266 -24.661945,72.571381 -24.603054,72.549149 -24.607777,72.526382 -24.609444,72.523315 -24.614723,72.521103 -24.697498,72.497757 -24.712498,72.49498 -24.909164,72.460266 -25.083889,72.434143 -25.11972,72.431091 -25.159443,72.429703 -25.261391,72.428864 -25.299446,72.430542 -25.340836,72.434418 -25.377777,72.436371 -25.417221,72.437195 -25.477776,72.437759 -25.509167,72.436096 -25.635555,72.426086 -25.796112,72.425262 -25.816113,72.426086 -25.851391,72.425262 -25.895832,72.420532 -25.906666,72.416931 -25.908333,72.413879 -25.892498,72.406372 -25.79528,72.389984 -25.754169,72.386108 -25.715275,72.386108 -25.677223,72.388321 -25.645,72.391373 -25.595554,72.398331 -25.543335,72.40387 -25.508614,72.405823 -25.488888,72.405823 -25.351112,72.396942 -25.311111,72.391663 -25.309166,72.391373 -25.298058,72.388885 -25.289169,72.38443 -25.287502,72.381653 -25.292225,72.372482 -25.29528,72.368866 -25.304447,72.36499 -25.334167,72.345261 -25.466663,72.257217 -25.485275,72.238586 -25.493332,72.226929 -25.499443,72.214706 -25.528336,72.12442 -25.526669,72.121368 -25.513058,72.120255 -25.484997,72.121643 -25.455555,72.126083 -25.426666,72.131653 -25.413055,72.136108 -25.400276,72.141663 -25.390835,72.148041 -25.388889,72.153595 -25.388889,72.159424 -25.390835,72.165817 -25.394165,72.171646 -25.403332,72.182755 -25.406387,72.188583 -25.407776,72.193863 -25.406387,72.206375 -25.403332,72.212204 -25.372776,72.25943 -25.361389,72.27388 -25.21833,72.346375 -25.193611,72.357758 -25.163334,72.3647 -25.131111,72.367752 -24.923611,72.398331 -24.807503,72.427765 -24.588333,72.421097 -24.557503,72.41748 -24.520557,72.411926 -24.512222,72.408325 -24.50639,72.402771 -24.503334,72.396942 -24.497776,72.392487 -24.470276,72.376083 -24.436386,72.359985 -24.424168,72.354431 -24.41222,72.350266 -24.325558,72.328323 -24.063614,72.272217 -23.913612,72.260269 -23.838055,72.256653 -23.818611,72.255554 -23.756111,72.241928 -23.747219,72.236649 -23.712776,72.209717 -23.711109,72.205826 -23.70472,72.184708 -23.705833,72.176086 -23.646667,72.148041 -23.50528,72.130264 -23.254448,72.090271 -23.125,72.068878 -23.111111,72.065536 -23.095833,72.059418 -23.09111,72.055542 -23.089722,72.052765 -23.09,72.049423 -23.095833,72.043869 -23.103054,72.038589 -23.115276,72.033875 -23.184998,72.022766 -23.195278,72.017487 -23.194443,72.015549 -23.186386,72.010818 -23.164444,72.003876 -23.124722,71.995255 -23.101944,71.994141 -23.077225,71.998596 -23.067501,72.002487 -23.067223,72.00499 -23.064167,72.00943 -23.057503,72.012207 -23.043335,72.013046 -23.028614,72.011383 -22.859444,71.982758 -22.811947,71.974701 -22.737221,71.961105 -22.654999,71.943588 -22.571667,71.923309 -22.540279,71.914703 -22.522224,71.9086 -22.503613,71.900269 -22.494442,71.892761 -22.498608,71.886932 -22.505836,71.881653 -22.528614,71.874985 -22.543335,71.872482 -22.599998,71.86554 -22.737499,71.816666 -22.739166,71.812759 -22.742775,71.809143 -22.748608,71.804428 -22.759167,71.799149 -22.767223,71.796097 -22.781113,71.791656 -22.894722,71.75943 -22.925831,71.751389 -22.977776,71.741653 -22.990276,71.737762 -23.031113,71.722488 -23.122776,71.673035 -23.127224,71.668869 -23.129723,71.663315 -23.131943,71.653595 -23.13361,71.638321 -23.133057,71.6297 -23.125557,71.626083" />

</g>
</svg>
