<?xml version="1.0" encoding="UTF-8" standalone="no"?>
<svg
   xmlns:svg="http://www.w3.org/2000/svg"
   xmlns="http://www.w3.org/2000/svg"
   width="360" height="180" viewBox="0 0 360 180" >
<g transform="translate(180,90) scale(1,-1)" style="fill:none;stroke:#ff00ff;stroke-width:0.01">

  <polyline points="28.95734,69.05162 28.820553,68.844437 28.803333,68.815826 28.796108,68.804443 28.764164,68.757767 28.759163,68.751938 28.738609,68.734161 28.654999,68.679993 28.525833,68.589722 28.510277,68.578049 28.465832,68.540833 28.458611,68.534714 28.457497,68.531937 28.559998,68.385818 28.663055,68.239441 28.693333,68.197495 28.696663,68.193329 28.82333,68.172485 29.16,68.116653 29.356941,68.082489 29.38361,68.062485 29.539444,67.938889 29.691666,67.815277 29.727497,67.803329 29.902496,67.740829 30.02861,67.694717 29.977776,67.572495 29.964722,67.544434 29.95472,67.532776 29.932777,67.513885 29.899998,67.492493 29.881664,67.483597 29.745552,67.416382 29.525276,67.293884 29.156944,67.030823 29.134163,67.013611 29.092499,66.97583 29.087776,66.969986 29.083054,66.958603 29.079998,66.943604 29.075275,66.911377 29.074997,66.895828 29.074997,66.87999 29.077221,66.874985 29.086388,66.860825 29.09333,66.851379 29.097775,66.846939 29.123055,66.824707 29.134441,66.816101 29.202774,66.774429 29.221107,66.766937 29.246109,66.75499 29.25972,66.746658 29.273331,66.738327 29.318886,66.708878 29.329998,66.700272 29.350277,66.682495 29.359444,66.673325 29.385548,66.628311 29.414165,66.599991 29.554443,66.470276 29.567924,66.428574 29.573055,66.411377 29.574718,66.406937 29.577499,66.401657 29.583332,66.392212 29.590275,66.382767 29.625275,66.33638 29.638611,66.322495 29.770832,66.214157 29.782219,66.205276 29.799164,66.19249 29.826111,66.175552 29.849998,66.163605 29.876389,66.152222 29.897221,66.140823 29.910275,66.126938 29.918888,66.112778 29.94833,66.049713 30.032219,65.922211 30.09111,65.842773 30.096664,65.833328 30.102497,65.818604 30.134163,65.719162 30.134998,65.709152 30.135277,65.703598 30.13361,65.676941 30.123886,65.664993 30.111664,65.665268 30.085278,65.671387 30.068054,65.679443 30.03611,65.689987 30.024441,65.691101 29.992496,65.685272 29.818886,65.65332 29.834164,65.588333 29.798054,65.537491 29.779163,65.530273 29.761387,65.523041 29.746109,65.514435 29.738331,65.48111 29.739719,65.455551 29.745552,65.414719 29.75,65.352768 29.749443,65.347763 29.747498,65.341934 29.706108,65.319717 29.679996,65.306931 29.66222,65.298874 29.620831,65.276657 29.605274,65.265823 29.598888,65.25972 29.596943,65.253876 29.596386,65.248886 29.599163,65.243607 29.603054,65.239441 29.609444,65.235275 29.626389,65.227493 29.639721,65.224442 29.652222,65.223328 29.665554,65.223328 29.737221,65.226654 29.787498,65.226379 29.813889,65.224442 29.827499,65.222488 29.843052,65.219986 29.853611,65.21611 29.866108,65.208054 29.869999,65.203323 29.872776,65.198318 29.874443,65.125824 29.873886,65.120819 29.864719,65.116653 29.836666,65.106934 29.806942,65.099152 29.773888,65.094711 29.726387,65.092499 29.683609,65.084442 29.664719,65.079163 29.65472,65.075546 29.637218,65.068329 29.628887,65.063049 29.622498,65.056381 29.616665,65.044998 29.609444,65.023041 29.606388,65.007217 29.606667,65.001663 29.609997,64.991943 29.636665,64.928055 29.644997,64.913879 29.652775,64.904709 29.671944,64.887207 29.714443,64.852219 29.730553,64.839432 29.736664,64.834991 29.754997,64.822495 29.774441,64.809708 29.794167,64.797211 29.804722,64.793884 29.818333,64.792496 29.843052,64.792496 29.891666,64.793045 29.926388,64.794708 29.950275,64.795547 30.048054,64.795547 30.074444,64.79361 30.087776,64.791656 30.115833,64.785828 30.126389,64.782486 30.140831,64.774155 30.144722,64.769989 30.209164,64.672775 30.210552,64.66777 30.208611,64.662491 30.199165,64.650269 30.186386,64.637772 30.178886,64.631653 30.170277,64.628052 30.141666,64.619431 30.072498,64.604431 30.033333,64.599152 30.020554,64.5961 29.980831,64.585831 29.974998,64.5811 29.974998,64.574432 29.986942,64.553055 30.00967,64.512863 30.011387,64.511658 30.048885,64.502487 30.068607,64.49472 30.087219,64.483047 30.088608,64.478333 30.088333,64.467773 30.083054,64.452209 30.061386,64.422485 30.053608,64.404999 30.065552,64.396942 30.118889,64.369156 30.12722,64.36499 30.135277,64.361374 30.156109,64.354156 30.170277,64.351379 30.196941,64.348877 30.321663,64.329437 30.359444,64.319717 30.389721,64.309433 30.552776,64.248322 30.560833,64.244431 30.566666,64.23999 30.573887,64.23082 30.576664,64.226105 30.578053,64.221375 30.611111,64.101654 30.614441,64.086655 30.611664,64.075821 30.608887,64.064987 30.595276,64.046936 30.558887,64.020554 30.54361,64.009995 30.52861,64 30.488609,63.977776 30.471943,63.968887 30.398052,63.93055 30.27861,63.832771 30.263611,63.82222 30.255833,63.817772 30.210552,63.800827 30.134998,63.779999 30.114719,63.775276 30.063053,63.766663 30.033054,63.760826 30.013054,63.756386 30.004719,63.752777 29.996712,63.748024 29.993332,63.743607 29.995831,63.738884 30.00333,63.729439 30.206387,63.612778 30.228333,63.600555 30.244442,63.593048 30.254719,63.589722 30.308887,63.572495 30.357498,63.559998 30.391388,63.549995 30.399441,63.546104 30.452499,63.508049 30.461941,63.499161 30.472775,63.48555 30.477497,63.48111 30.481667,63.478607 30.648888,63.43972 30.714722,63.424438 30.91222,63.353607 31.186386,63.238327 31.219719,63.223053 31.236664,63.210274 31.242222,63.205551 31.245831,63.201111 31.383053,63.06916 31.514999,62.986938 31.524166,62.978333 31.588928,62.914413 31.574997,62.901382 31.521664,62.853333 31.501389,62.835548 31.480553,62.818886 31.467499,62.806389 31.429996,62.758888 31.321941,62.615273 31.310555,62.598053 31.294167,62.564163 31.280277,62.53611 31.269165,62.518608 31.25972,62.507774 31.251942,62.503326 31.082775,62.413055 30.964165,62.339165 30.834442,62.271385 30.7925,62.253883 30.704166,62.210548 30.6325,62.166107 30.396111,62.016663 30.300552,61.956108 30.203888,61.890549 30.155102,61.856346 30.142174,61.846954 30.005554,61.739441 29.991386,61.729439 29.809166,61.60833 29.79472,61.599159 29.683331,61.533882 29.652496,61.517776 29.497498,61.436661 29.362499,61.364166 29.348053,61.35527 29.334164,61.345276 29.301941,61.318329 29.285076,61.302864 29.277496,61.294716 29.271111,61.289444 29.249722,61.275833 29.213608,61.253326 29.174164,61.235275 29.157497,61.228882 29.071941,61.19944 28.970833,61.162773 28.820553,61.106941 28.812775,61.103333 28.719997,61.045273 28.674164,61.001663 28.652222,60.976105 28.638885,60.96611 28.631107,60.962494 28.622498,60.959717 28.612499,60.958885 28.577774,60.961662 28.547775,60.958885 28.529163,60.954994 28.520554,60.952217 28.466389,60.925278 28.388885,60.886665 28.351109,60.865829 28.344166,60.861382 28.338055,60.855827 28.334442,60.849998 28.332497,60.844162 28.326385,60.838882 28.298611,60.820549 28.269444,60.804161 28.246387,60.793327 28.093887,60.712219 27.88472,60.589165 27.807831,60.546402 27.806664,60.548607 27.789997,60.566109 27.785275,60.570549 27.774719,60.573883 27.762775,60.574715 27.75222,60.574165 27.74361,60.572495 27.739441,60.567497 27.734997,60.551666 27.734165,60.535553 27.738052,60.511383" />

</g>
</svg>
