<?xml version="1.0" encoding="UTF-8" standalone="no"?>
<!-- Generator: Adobe Illustrator 16.0.0, SVG Export Plug-In . SVG Version: 6.00 Build 0)  -->

<svg
   xmlns:dc="http://purl.org/dc/elements/1.1/"
   xmlns:cc="http://creativecommons.org/ns#"
   xmlns:rdf="http://www.w3.org/1999/02/22-rdf-syntax-ns#"
   xmlns:svg="http://www.w3.org/2000/svg"
   xmlns="http://www.w3.org/2000/svg"
   xmlns:sodipodi="http://sodipodi.sourceforge.net/DTD/sodipodi-0.dtd"
   xmlns:inkscape="http://www.inkscape.org/namespaces/inkscape"
   version="1.1"
   id="svg3915"
   x="0px"
   y="0px"
   width="111.429px"
   height="167.143px"
   viewBox="0 0 111.429 167.143"
   enable-background="new 0 0 111.429 167.143"
   xml:space="preserve"
   inkscape:version="0.48.4 r9939"
   sodipodi:docname="hivent_marker.svg"><metadata
     id="metadata10"><rdf:RDF><cc:Work
         rdf:about=""><dc:format>image/svg+xml</dc:format><dc:type
           rdf:resource="http://purl.org/dc/dcmitype/StillImage" /></cc:Work></rdf:RDF></metadata><defs
     id="defs8" /><sodipodi:namedview
     pagecolor="#ffffff"
     bordercolor="#666666"
     borderopacity="1"
     objecttolerance="10"
     gridtolerance="10"
     guidetolerance="10"
     inkscape:pageopacity="0"
     inkscape:pageshadow="2"
     inkscape:window-width="1600"
     inkscape:window-height="834"
     id="namedview6"
     showgrid="false"
     inkscape:zoom="3.993638856916471"
     inkscape:cx="1.682748693658112"
     inkscape:cy="118.966408831678"
     inkscape:window-x="0"
     inkscape:window-y="27"
     inkscape:window-maximized="1"
     inkscape:current-layer="layer1" /><g
     id="layer1"
     transform="translate(-445.71426,-355.21931)"><rect
       style="opacity:0.98000003589999996;fill:#ffffff;stroke:#000000;stroke-width:0;stroke-linecap:butt;stroke-linejoin:miter;stroke-miterlimit:4;stroke-opacity:1;stroke-dasharray:none;stroke-dashoffset:0;fill-opacity:1"
       id="rect2993"
       width="66.10512542724609"
       height="62.0987548828125"
       x="22.53583908081055"
       y="24.66642761230469"
       transform="translate(445.7142600000001,355.2193079553204)" /><g
       id="text3923"><path
         id="path3928"
         fill="#2579BF"
         d="M521.124,430.63c5.441-5.441,8.162-12.006,8.162-19.696c0-7.689-2.721-14.255-8.162-19.695    c-5.44-5.441-12.006-8.161-19.695-8.162c-7.69,0.001-14.255,2.721-19.696,8.162c-5.441,5.44-8.162,12.006-8.162,19.695    c0,7.69,2.721,14.255,8.162,19.696c5.44,5.44,12.006,8.161,19.696,8.161C509.118,438.791,515.683,436.07,521.124,430.63     M557.143,410.933c-0.001,7.907-1.197,14.4-3.592,19.479l-39.609,84.225c-1.16,2.394-2.902,4.279-5.223,5.658    c-2.25,1.378-4.68,2.067-7.291,2.067c-2.612,0-5.078-0.689-7.399-2.067c-2.249-1.379-3.917-3.265-5.006-5.658l-39.718-84.225    c-2.394-5.078-3.591-11.571-3.591-19.479c0-15.379,5.441-28.51,16.323-39.392c10.881-10.882,24.012-16.322,39.392-16.322    c15.379,0,28.51,5.44,39.392,16.322S557.142,395.555,557.143,410.933" /></g></g></svg>