<?xml version="1.0" encoding="utf-8"?>
<!-- Generator: Adobe Illustrator 16.0.0, SVG Export Plug-In . SVG Version: 6.00 Build 0)  -->
<!DOCTYPE svg PUBLIC "-//W3C//DTD SVG 1.1//EN" "http://www.w3.org/Graphics/SVG/1.1/DTD/svg11.dtd">
<svg version="1.1"
	 id="svg3915" xmlns:cc="http://creativecommons.org/ns#" xmlns:svg="http://www.w3.org/2000/svg" xmlns:dc="http://purl.org/dc/elements/1.1/" xmlns:rdf="http://www.w3.org/1999/02/22-rdf-syntax-ns#"
	 xmlns="http://www.w3.org/2000/svg" xmlns:xlink="http://www.w3.org/1999/xlink" x="0px" y="0px" width="21.599px" height="32.6px"
	 viewBox="-168.496 518.601 21.599 32.6" enable-background="new -168.496 518.601 21.599 32.6" xml:space="preserve">
<g>
	<g>
		<path fill="#2579BF" d="M-157.737,550.3c-0.585,0-1.142-0.155-1.655-0.46c-0.53-0.325-0.918-0.767-1.168-1.315l-6.411-13.594
			c-0.442-0.938-0.666-2.127-0.666-3.531c0-2.72,0.976-5.074,2.9-7c1.924-1.924,4.278-2.897,7-2.897c2.721,0,5.076,0.976,7,2.897
			c1.925,1.926,2.9,4.28,2.9,7c0,1.405-0.224,2.594-0.667,3.531l-6.398,13.604c-0.267,0.556-0.668,0.99-1.197,1.307
			C-156.593,550.143-157.146,550.3-157.737,550.3z M-157.737,527.2c-2.214,0-4.016,1.801-4.016,4.016s1.802,4.018,4.016,4.018
			s4.016-1.803,4.016-4.018S-155.521,527.2-157.737,527.2z"/>
		<path fill="#FFFFFF" d="M-157.737,522.401c2.484,0,4.605,0.877,6.363,2.635c1.758,1.761,2.637,3.882,2.637,6.363
			c0,1.278-0.193,2.326-0.581,3.147l-6.398,13.604c-0.187,0.387-0.468,0.689-0.843,0.914c-0.363,0.223-0.756,0.334-1.178,0.334
			s-0.82-0.111-1.195-0.334c-0.363-0.225-0.633-0.527-0.809-0.914l-6.416-13.604c-0.387-0.821-0.58-1.869-0.58-3.147
			c0-2.481,0.879-4.604,2.637-6.363C-162.342,523.278-160.221,522.401-157.737,522.401 M-157.737,536.132
			c2.715,0,4.916-2.203,4.916-4.917c0-2.715-2.201-4.916-4.916-4.916c-2.715,0-4.916,2.201-4.916,4.916
			C-162.653,533.929-160.452,536.132-157.737,536.132 M-157.737,520.601c-2.968,0-5.538,1.064-7.636,3.163
			c-2.1,2.101-3.164,4.669-3.164,7.636c0,1.562,0.246,2.84,0.751,3.914l6.417,13.606c0.314,0.692,0.82,1.266,1.493,1.68
			c0.678,0.403,1.39,0.601,2.139,0.601c0.758,0,1.471-0.2,2.118-0.599c0.664-0.396,1.183-0.96,1.524-1.667l6.406-13.622
			c0.505-1.071,0.751-2.353,0.751-3.913c0-2.967-1.064-5.535-3.164-7.636C-152.202,521.663-154.769,520.601-157.737,520.601
			L-157.737,520.601z M-157.737,534.333c-1.718,0-3.116-1.398-3.116-3.117s1.398-3.116,3.116-3.116c1.718,0,3.116,1.397,3.116,3.116
			C-154.621,532.934-156.019,534.333-157.737,534.333L-157.737,534.333z"/>
	</g>
	<circle fill="#FFFFFF" cx="-157.737" cy="531.285" r="3.488"/>
</g>
</svg>
