<?xml version="1.0" encoding="UTF-8" standalone="no"?>
<!-- Created with Inkscape (http://www.inkscape.org/) -->

<svg
   xmlns:dc="http://purl.org/dc/elements/1.1/"
   xmlns:cc="http://creativecommons.org/ns#"
   xmlns:rdf="http://www.w3.org/1999/02/22-rdf-syntax-ns#"
   xmlns:svg="http://www.w3.org/2000/svg"
   xmlns="http://www.w3.org/2000/svg"
   xmlns:xlink="http://www.w3.org/1999/xlink"
   xmlns:sodipodi="http://sodipodi.sourceforge.net/DTD/sodipodi-0.dtd"
   xmlns:inkscape="http://www.inkscape.org/namespaces/inkscape"
   version="1.2"
   width="650"
   height="380"
   id="svg2"
   inkscape:version="0.48.3.1 r9886"
   sodipodi:docname="logo_big.svg">
  <sodipodi:namedview
     pagecolor="#ffffff"
     bordercolor="#666666"
     borderopacity="1"
     objecttolerance="10"
     gridtolerance="10"
     guidetolerance="10"
     inkscape:pageopacity="0"
     inkscape:pageshadow="2"
     inkscape:window-width="1341"
     inkscape:window-height="768"
     id="namedview105"
     showgrid="false"
     fit-margin-top="0"
     fit-margin-left="0"
     fit-margin-right="0"
     fit-margin-bottom="0"
     inkscape:zoom="1.2362122"
     inkscape:cx="345.64198"
     inkscape:cy="174.5815"
     inkscape:window-x="0"
     inkscape:window-y="25"
     inkscape:window-maximized="0"
     inkscape:current-layer="svg2" />
  <defs
     id="defs4">
    <linearGradient
       id="linearGradient6927">
      <stop
         id="stop6929"
         style="stop-color:#ffffff;stop-opacity:1"
         offset="0" />
      <stop
         id="stop6931"
         style="stop-color:#929292;stop-opacity:1"
         offset="0.49576846" />
      <stop
         id="stop6933"
         style="stop-color:#ffffff;stop-opacity:1"
         offset="1" />
    </linearGradient>
    <linearGradient
       id="linearGradient6796">
      <stop
         id="stop6798"
         style="stop-color:#929292;stop-opacity:0"
         offset="0" />
      <stop
         id="stop6802"
         style="stop-color:#929292;stop-opacity:0.99607843"
         offset="0.49576846" />
      <stop
         id="stop6800"
         style="stop-color:#929292;stop-opacity:0"
         offset="1" />
    </linearGradient>
    <linearGradient
       id="linearGradient6673">
      <stop
         id="stop6675"
         style="stop-color:#929292;stop-opacity:1"
         offset="0" />
      <stop
         id="stop6677"
         style="stop-color:#929292;stop-opacity:0"
         offset="1" />
    </linearGradient>
    <linearGradient
       id="linearGradient4359">
      <stop
         id="stop4361"
         style="stop-color:#e7e7e7;stop-opacity:1"
         offset="0" />
      <stop
         id="stop4363"
         style="stop-color:#e7e7e7;stop-opacity:0"
         offset="1" />
    </linearGradient>
    <linearGradient
       id="linearGradient10810">
      <stop
         id="stop10812"
         style="stop-color:#ffffff;stop-opacity:1"
         offset="0" />
      <stop
         id="stop10814"
         style="stop-color:#ffffff;stop-opacity:0.48571429"
         offset="1" />
    </linearGradient>
    <linearGradient
       x1="-13.435029"
       y1="156.4427"
       x2="266.9328"
       y2="156.4427"
       id="linearGradient10816"
       xlink:href="#linearGradient10810"
       gradientUnits="userSpaceOnUse"
       gradientTransform="matrix(1.1500631,0,0,0.90361446,3.4303151,924.96366)" />
    <linearGradient
       x1="-1058.3904"
       y1="152.76776"
       x2="-970.47308"
       y2="152.76776"
       id="linearGradient4150"
       xlink:href="#linearGradient4144"
       gradientUnits="userSpaceOnUse"
       gradientTransform="matrix(1.9573257,0,0,0.97952756,2927.5051,-304.15797)" />
    <linearGradient
       id="linearGradient4144">
      <stop
         id="stop4146"
         style="stop-color:#d5d5d5;stop-opacity:1"
         offset="0" />
      <stop
         id="stop4148"
         style="stop-color:#ececec;stop-opacity:0"
         offset="1" />
    </linearGradient>
    <linearGradient
       x1="-1054.8406"
       y1="94.050186"
       x2="-968.61554"
       y2="94.050186"
       id="linearGradient4176"
       xlink:href="#linearGradient4144-2"
       gradientUnits="userSpaceOnUse"
       gradientTransform="matrix(0.54122169,0,0,1.0346457,-485.32975,-307.81048)" />
    <linearGradient
       id="linearGradient4144-2">
      <stop
         id="stop4146-5"
         style="stop-color:#d5d5d5;stop-opacity:1"
         offset="0" />
      <stop
         id="stop4148-5"
         style="stop-color:#ececec;stop-opacity:0"
         offset="1" />
    </linearGradient>
    <linearGradient
       x1="105.00536"
       y1="112.07175"
       x2="105.00536"
       y2="55.132095"
       id="linearGradient4365"
       xlink:href="#linearGradient4359"
       gradientUnits="userSpaceOnUse"
       gradientTransform="matrix(1.7135005,0,0,1.0135988,-139.34409,860.37336)" />
    <linearGradient
       x1="105.00536"
       y1="112.07175"
       x2="105.00536"
       y2="55.132095"
       id="linearGradient4365-5"
       xlink:href="#linearGradient4359-7"
       gradientUnits="userSpaceOnUse"
       gradientTransform="matrix(1.7135005,0,0,1.0135988,-139.34409,860.37336)" />
    <linearGradient
       id="linearGradient4144-2-7">
      <stop
         id="stop4146-5-0"
         style="stop-color:#d5d5d5;stop-opacity:1"
         offset="0" />
      <stop
         id="stop4148-5-3"
         style="stop-color:#ececec;stop-opacity:0"
         offset="1" />
    </linearGradient>
    <linearGradient
       x1="-1054.8406"
       y1="94.050186"
       x2="-968.61554"
       y2="94.050186"
       id="linearGradient4176-3"
       xlink:href="#linearGradient4144-2-7"
       gradientUnits="userSpaceOnUse"
       gradientTransform="matrix(0.54122169,0,0,1.0346457,-485.32975,-307.81048)" />
    <linearGradient
       id="linearGradient4144-4">
      <stop
         id="stop4146-0"
         style="stop-color:#d5d5d5;stop-opacity:1"
         offset="0" />
      <stop
         id="stop4148-9"
         style="stop-color:#ececec;stop-opacity:0"
         offset="1" />
    </linearGradient>
    <linearGradient
       x1="-1058.3904"
       y1="152.76776"
       x2="-970.47308"
       y2="152.76776"
       id="linearGradient4150-5"
       xlink:href="#linearGradient4144-4"
       gradientUnits="userSpaceOnUse"
       gradientTransform="matrix(1.9573257,0,0,0.97952756,2927.5051,-304.15797)" />
    <linearGradient
       x1="-13.435029"
       y1="156.4427"
       x2="266.9328"
       y2="156.4427"
       id="linearGradient10816-2"
       xlink:href="#linearGradient10810-4"
       gradientUnits="userSpaceOnUse"
       gradientTransform="matrix(1.1500631,0,0,0.90361446,3.4303151,924.96366)" />
    <linearGradient
       id="linearGradient10810-4">
      <stop
         id="stop10812-2"
         style="stop-color:#ffffff;stop-opacity:1"
         offset="0" />
      <stop
         id="stop10814-5"
         style="stop-color:#ffffff;stop-opacity:0.48571429"
         offset="1" />
    </linearGradient>
    <linearGradient
       id="linearGradient4359-7">
      <stop
         id="stop4361-0"
         style="stop-color:#e7e7e7;stop-opacity:1"
         offset="0" />
      <stop
         id="stop4363-4"
         style="stop-color:#e7e7e7;stop-opacity:0"
         offset="1" />
    </linearGradient>
    <filter
       color-interpolation-filters="sRGB"
       id="filter6385">
      <feGaussianBlur
         id="feGaussianBlur6387"
         stdDeviation="2.5585048" />
    </filter>
    <filter
       color-interpolation-filters="sRGB"
       id="filter6389">
      <feGaussianBlur
         id="feGaussianBlur6391"
         stdDeviation="2.5585048" />
    </filter>
    <filter
       color-interpolation-filters="sRGB"
       id="filter6393">
      <feGaussianBlur
         id="feGaussianBlur6395"
         stdDeviation="2.5585048" />
    </filter>
    <filter
       color-interpolation-filters="sRGB"
       id="filter6397">
      <feGaussianBlur
         id="feGaussianBlur6399"
         stdDeviation="2.5585048" />
    </filter>
    <filter
       color-interpolation-filters="sRGB"
       id="filter6401">
      <feGaussianBlur
         id="feGaussianBlur6403"
         stdDeviation="2.5585048" />
    </filter>
    <filter
       color-interpolation-filters="sRGB"
       id="filter6405">
      <feGaussianBlur
         id="feGaussianBlur6407"
         stdDeviation="2.5585048" />
    </filter>
    <filter
       color-interpolation-filters="sRGB"
       id="filter6409">
      <feGaussianBlur
         id="feGaussianBlur6411"
         stdDeviation="2.5585048" />
    </filter>
    <filter
       color-interpolation-filters="sRGB"
       id="filter6413">
      <feGaussianBlur
         id="feGaussianBlur6415"
         stdDeviation="2.5585048" />
    </filter>
    <filter
       x="-0.080947347"
       y="-0.51158243"
       width="1.1618947"
       height="2.0231647"
       color-interpolation-filters="sRGB"
       id="filter6417">
      <feGaussianBlur
         id="feGaussianBlur6419"
         stdDeviation="2.5585048" />
    </filter>
    <filter
       x="-0.018169476"
       y="-0.51158243"
       width="1.036339"
       height="2.0231647"
       color-interpolation-filters="sRGB"
       id="filter6421">
      <feGaussianBlur
         id="feGaussianBlur6423"
         stdDeviation="2.5585048" />
    </filter>
    <filter
       x="-0.037758473"
       y="-0.51158243"
       width="1.0755169"
       height="2.0231647"
       color-interpolation-filters="sRGB"
       id="filter6425">
      <feGaussianBlur
         id="feGaussianBlur6427"
         stdDeviation="2.5585048" />
    </filter>
    <filter
       x="-0.080947347"
       y="-0.51158243"
       width="1.1618947"
       height="2.0231647"
       color-interpolation-filters="sRGB"
       id="filter6429">
      <feGaussianBlur
         id="feGaussianBlur6431"
         stdDeviation="2.5585048" />
    </filter>
    <filter
       x="-0.080947347"
       y="-0.51158243"
       width="1.1618947"
       height="2.0231647"
       color-interpolation-filters="sRGB"
       id="filter6433">
      <feGaussianBlur
         id="feGaussianBlur6435"
         stdDeviation="2.5585048" />
    </filter>
    <filter
       x="-0.018169476"
       y="-0.51158243"
       width="1.036339"
       height="2.0231647"
       color-interpolation-filters="sRGB"
       id="filter6437">
      <feGaussianBlur
         id="feGaussianBlur6439"
         stdDeviation="2.5585048" />
    </filter>
    <filter
       x="-0.037758473"
       y="-0.51158243"
       width="1.0755169"
       height="2.0231647"
       color-interpolation-filters="sRGB"
       id="filter6441">
      <feGaussianBlur
         id="feGaussianBlur6443"
         stdDeviation="2.5585048" />
    </filter>
    <filter
       x="-0.080947347"
       y="-0.51158243"
       width="1.1618947"
       height="2.0231647"
       color-interpolation-filters="sRGB"
       id="filter6445">
      <feGaussianBlur
         id="feGaussianBlur6447"
         stdDeviation="2.5585048" />
    </filter>
    <filter
       color-interpolation-filters="sRGB"
       id="filter6489">
      <feGaussianBlur
         id="feGaussianBlur6491"
         stdDeviation="1.2792524" />
    </filter>
    <linearGradient
       x1="384.23975"
       y1="442.83615"
       x2="728.32001"
       y2="442.83615"
       id="linearGradient6714"
       xlink:href="#linearGradient6673"
       gradientUnits="userSpaceOnUse"
       gradientTransform="matrix(1,0,0,0.10539318,-15.65625,870.59595)"
       spreadMethod="reflect" />
    <linearGradient
       x1="13.739678"
       y1="442.83615"
       x2="728.32001"
       y2="442.83615"
       id="linearGradient6742"
       xlink:href="#linearGradient6796"
       gradientUnits="userSpaceOnUse"
       gradientTransform="matrix(1,0,0,0.10539318,-15.65625,14.996751)"
       spreadMethod="repeat" />
    <linearGradient
       x1="13.739678"
       y1="442.83615"
       x2="728.32001"
       y2="442.83615"
       id="linearGradient6806"
       xlink:href="#linearGradient6927"
       gradientUnits="userSpaceOnUse"
       gradientTransform="matrix(1,0,0,0.10539318,-15.65625,869.99675)"
       spreadMethod="repeat" />
    <linearGradient
       x1="13.739678"
       y1="442.83615"
       x2="728.32001"
       y2="442.83615"
       id="linearGradient6937"
       xlink:href="#linearGradient6927"
       gradientUnits="userSpaceOnUse"
       gradientTransform="matrix(1,0,0,0.10539318,-15.65625,12.983335)"
       spreadMethod="repeat" />
    <filter
       inkscape:collect="always"
       id="filter3888">
      <feGaussianBlur
         inkscape:collect="always"
         stdDeviation="1.8678759"
         id="feGaussianBlur3890" />
    </filter>
    <filter
       inkscape:collect="always"
       id="filter3908">
      <feGaussianBlur
         inkscape:collect="always"
         stdDeviation="1.8678759"
         id="feGaussianBlur3910" />
    </filter>
  </defs>
  <metadata
     id="metadata7">
    <rdf:RDF>
      <cc:Work
         rdf:about="">
        <dc:format>image/svg+xml</dc:format>
        <dc:type
           rdf:resource="http://purl.org/dc/dcmitype/StillImage" />
        <dc:title />
      </cc:Work>
    </rdf:RDF>
  </metadata>
  <g
     transform="matrix(1.311124,0,0,1.311124,-152.80892,-133.28384)"
     id="layer1">
    <g
       transform="matrix(1.3084244,0,0,1.3084244,83.923301,48.336628)"
       id="g4296">
      <path
         d="m 176.2247,193.72322 c 12.72285,4.63327 39.50994,5.52659 55.45797,-1.66808 3.31692,-1.87998 1.46116,-2.19988 -0.58535,-1.51583 -18.15438,5.97655 -45.63372,2.8179 -48.58712,-2.87083 -2.95341,-5.68867 12.72042,-9.75974 27.61755,-9.70619 l 0.3769,-0.86859 c -31.63677,-3.03722 -47.0028,11.99625 -34.27995,16.62952 z"
         id="path4167"
         style="font-size:medium;font-style:normal;font-variant:normal;font-weight:normal;font-stretch:normal;text-indent:0;text-align:start;text-decoration:none;line-height:normal;letter-spacing:normal;word-spacing:normal;text-transform:none;direction:ltr;block-progression:tb;writing-mode:lr-tb;text-anchor:start;baseline-shift:baseline;color:#000000;fill:#929292;fill-opacity:1;stroke:none;stroke-width:8.89999962;marker:none;visibility:visible;display:inline;overflow:visible;enable-background:accumulate;font-family:Sans;-inkscape-font-specification:Sans"
         inkscape:connector-curvature="0" />
      <path
         d="m 203.35441,164.47461 -1.04403,16.18438 c -0.14703,1.9711 -1.3456,3.24927 -3.08904,5.03205 -2.62276,2.59401 11.96425,-2.4094 11.96376,-4.88164 l 0.20903,-16.33479 z"
         id="path4169"
         style="font-size:medium;font-style:normal;font-variant:normal;font-weight:normal;font-stretch:normal;text-indent:0;text-align:start;text-decoration:none;line-height:normal;letter-spacing:normal;word-spacing:normal;text-transform:none;direction:ltr;block-progression:tb;writing-mode:lr-tb;text-anchor:start;baseline-shift:baseline;color:#000000;fill:#929292;fill-opacity:1;stroke:none;stroke-width:14.69999981;marker:none;visibility:visible;display:inline;overflow:visible;enable-background:accumulate;font-family:Sans;-inkscape-font-specification:Sans"
         inkscape:connector-curvature="0" />
      <path
         d="m 269.55344,150.42247 c 0.8697,-2.08234 -1.42895,-2.61957 -2.8105,-3.94519 -5.6094,-4.63568 -9.939,-10.61373 -12.4641,-16.66512 -1.46873,-3.5863 -2.02309,-6.61015 -4.53578,-5.25183 -2.51281,1.35832 -1.69383,2.29285 0.38086,7.13947 2.07462,4.84673 3.08908,10.84351 2.78195,13.29359 -4.34368,17.27239 -32.52788,18.68155 -39.86526,18.84058 -15.47565,0 -51.39432,-12.20474 -51.28395,-50.87928 0.11712,-40.962223 37.63375,-50.455972 51.57887,-50.455972 11.38569,0 22.13236,4.965963 27.99427,12.523005 2.07129,2.350364 3.18024,3.757096 5.02968,2.06994 2.33281,-2.128233 1.27712,-2.583952 -1.33198,-5.639333 -4.45353,-5.378162 -15.7062,-13.68441 -33.73273,-13.68441 -33.84236,0 -58.39035,24.722349 -58.39035,55.3961 0,30.67392 31.4019,55.23877 58.73047,55.54879 27.32854,0.30977 38.00454,-11.54158 41.93687,-14.73361 4.79696,-4.80281 7.82133,-5.01781 10.64125,-3.21181 4.30189,2.10753 4.47078,1.73728 5.34043,-0.34492 z"
         id="path4171"
         style="font-size:72px;font-style:normal;font-variant:normal;font-weight:normal;font-stretch:normal;line-height:125%;letter-spacing:0px;word-spacing:0px;fill:#929292;fill-opacity:1;stroke:none;font-family:LMRomanCaps10;-inkscape-font-specification:LMRomanCaps10"
         inkscape:connector-curvature="0" />
      <path
         d="m 207.96708,134.88087 c 15.27485,-7.99972 16.58145,-10.05396 22.38718,-15.65188 5.80576,-5.59778 7.08189,-10.24889 6.34515,-10.85102 -1.18753,-0.25075 -4.09317,3.45384 -10.79973,9.0586 -6.70657,5.60478 -14.10657,9.2173 -23.36642,13.93295 -9.25981,4.71562 -36.19087,13.2308 -48.84463,5.66637 -4.16547,-2.09329 -0.79535,-5.91421 -1.30046,-6.84755 -0.80126,-1.48085 -15.00741,3.16169 -9.03989,9.79661 11.9536,13.22961 49.34393,2.89564 64.6188,-5.10408 z"
         id="path4173"
         style="font-size:medium;font-style:normal;font-variant:normal;font-weight:normal;font-stretch:normal;text-indent:0;text-align:start;text-decoration:none;line-height:normal;letter-spacing:normal;word-spacing:normal;text-transform:none;direction:ltr;block-progression:tb;writing-mode:lr-tb;text-anchor:start;baseline-shift:baseline;color:#000000;fill:#edc082;fill-opacity:1;stroke:none;stroke-width:8.89999962;marker:none;visibility:visible;display:inline;overflow:visible;enable-background:accumulate;font-family:Sans;-inkscape-font-specification:Sans"
         inkscape:connector-curvature="0" />
      <path
         d="m 210.6537,48.504069 c -20.45453,0.207477 -26.59425,46.718942 -9.55049,81.963121 17.04385,35.24413 43.91457,47.72734 55.36783,34.09922 2.55911,-3.94828 2.04763,-7.16529 1.28563,-7.48724 -0.76201,-0.32161 -1.19306,2.58939 -2.85097,4.67197 -6.34212,7.87628 -26.49383,5.7459 -46.77971,-36.23822 -19.96071,-41.310828 -9.05975,-70.867766 2.38503,-73.605915 4.13016,-0.958005 8.05139,2.052252 8.30228,1.364255 0.65941,-0.990455 -2.84205,-4.744769 -8.1596,-4.767191 z"
         id="path4175"
         style="font-size:72px;font-style:normal;font-variant:normal;font-weight:normal;font-stretch:normal;line-height:125%;letter-spacing:0px;word-spacing:0px;fill:#edc082;fill-opacity:1;stroke:none;font-family:LMRomanCaps10;-inkscape-font-specification:LMRomanCaps10"
         inkscape:connector-curvature="0" />
      <path
         d="m 180.85608,56.642669 c -14.06753,10.26539 -16.58331,49.002411 -1.89979,79.365841 13.78715,28.50992 36.18049,41.90994 49.46576,38.85854 5.10043,-1.29354 5.22479,-3.12834 4.81089,-3.77633 -0.41385,-0.64809 -1.98296,-0.10563 -4.95764,0.13824 -9.26718,0.97009 -26.92252,-8.3569 -42.29628,-40.17468 -17.33505,-35.877048 -11.39353,-62.888807 -2.03393,-71.167752 3.60684,-3.146124 7.2226,-3.608701 7.29,-4.52292 0.14466,-1.38681 -4.38021,-2.742227 -10.37901,1.279061 z"
         id="path4177"
         style="font-size:72px;font-style:normal;font-variant:normal;font-weight:normal;font-stretch:normal;line-height:125%;letter-spacing:0px;word-spacing:0px;fill:#edc082;fill-opacity:1;stroke:none;font-family:LMRomanCaps10;-inkscape-font-specification:LMRomanCaps10"
         inkscape:connector-curvature="0" />
    </g>
    <g
       transform="scale(0.99858937,1.0014126)"
       id="text4221"
       style="font-size:197.39582825px;font-style:normal;font-variant:normal;font-weight:normal;font-stretch:normal;line-height:125%;letter-spacing:0px;word-spacing:0px;fill:#6d6d6d;fill-opacity:1;stroke:none;font-family:LMRomanCaps10;-inkscape-font-specification:LMRomanCaps10">
      <path
         d="m 182.29244,379.44974 0,-2.52753 -1.95679,0 c -6.27805,0 -6.44112,-0.89687 -6.44112,-3.83206 l 0,-42.96798 c 0,-2.93519 0.16307,-3.83206 6.44112,-3.83206 l 1.95679,0 0,-2.52752 c -2.85366,0.2446 -8.88712,0.2446 -11.98537,0.2446 -3.09826,0 -9.21325,0 -12.06691,-0.2446 l 0,2.52752 1.95679,0 c 6.27805,0 6.44112,0.89687 6.44112,3.83206 l 0,19.07876 -26.00908,0 0,-19.07876 c 0,-2.93519 0.16308,-3.83206 6.44112,-3.83206 l 1.9568,0 0,-2.52752 c -2.85366,0.2446 -8.88712,0.2446 -11.98537,0.2446 -3.09826,0 -9.21325,0 -12.06691,-0.2446 l 0,2.52752 1.95679,0 c 6.27805,0 6.44112,0.89687 6.44112,3.83206 l 0,42.96798 c 0,2.93519 -0.16307,3.83206 -6.44112,3.83206 l -1.95679,0 0,2.52753 c 2.85366,-0.2446 8.88712,-0.2446 11.98537,-0.2446 3.09826,0 9.21325,0 12.06691,0.2446 l 0,-2.52753 -1.9568,0 c -6.27804,0 -6.44112,-0.89687 -6.44112,-3.83206 l 0,-21.36169 26.00908,0 0,21.36169 c 0,2.93519 -0.16307,3.83206 -6.44112,3.83206 l -1.95679,0 0,2.52753 c 2.85366,-0.2446 8.88712,-0.2446 11.98537,-0.2446 3.09826,0 9.21325,0 12.06691,0.2446"
         id="path3185"
         style="font-size:81.53316498px;fill:#6d6d6d"
         inkscape:connector-curvature="0" />
      <path
         d="m 208.33846,379.44974 0,-2.03833 c -5.78885,0 -6.19652,-0.40767 -6.19652,-3.91359 l 0,-30.00421 c 0,-3.50592 0.40767,-3.91359 6.19652,-3.91359 l 0,-2.03833 -9.13171,0.2446 -9.13172,-0.2446 0,2.03833 c 5.78885,0 6.19652,0.40767 6.19652,3.91359 l 0,30.00421 c 0,3.50592 -0.40767,3.91359 -6.19652,3.91359 l 0,2.03833 9.13172,-0.2446 9.13171,0.2446"
         id="path3187"
         style="font-size:81.53316498px;fill:#6d6d6d"
         inkscape:connector-curvature="0" />
      <path
         d="m 244.76213,367.87203 c 0,-5.13659 -3.17979,-8.47945 -3.17979,-8.47945 -3.01673,-3.09826 -4.32127,-3.34286 -11.25158,-4.97352 -1.71219,-0.40767 -4.56586,-1.05994 -5.05506,-1.223 -4.07665,-1.63066 -5.38118,-4.81046 -5.38118,-7.25645 0,-3.75053 3.26133,-7.74565 8.72404,-7.74565 10.35471,0 11.82231,9.53938 12.14845,12.14844 0.16306,0.57073 0.16306,1.05993 1.05993,1.05993 1.05993,0 1.05993,-0.40767 1.05993,-1.9568 l 0,-11.08851 c 0,-1.30453 0,-1.95679 -0.81533,-1.95679 -0.4892,0 -0.57074,0.0815 -1.79373,1.87526 -0.40767,0.40766 -1.223,1.63066 -1.54913,2.11986 -3.09826,-3.01672 -6.84879,-3.99512 -10.19165,-3.99512 -7.41951,0 -12.80071,5.54426 -12.80071,11.90384 0,4.56585 2.60907,7.25645 3.58746,8.23485 2.446,2.44599 4.07667,2.77213 11.57771,4.48432 4.40279,1.05993 5.21813,1.223 7.09339,2.9352 0.40766,0.32613 2.60906,2.52753 2.60906,6.11498 0,4.07666 -3.1798,8.47945 -8.80558,8.47945 -2.11986,0 -6.52266,-0.32613 -10.02858,-3.17979 -3.66899,-2.85366 -3.91359,-6.84879 -3.99513,-9.05018 -0.0815,-0.65227 -0.7338,-0.7338 -0.97839,-0.7338 -1.05993,0 -1.05994,0.57073 -1.05994,2.03833 l 0,11.00698 c 0,1.30453 0,1.95679 0.81534,1.95679 0.48919,0 0.57073,-0.0815 1.79373,-1.87526 0.40766,-0.40767 1.22299,-1.63066 1.54913,-2.11986 2.36445,2.11986 6.60419,3.99512 11.90384,3.99512 7.90871,0 12.96377,-6.27806 12.96377,-12.71917"
         id="path3189"
         style="font-size:81.53316498px;fill:#6d6d6d"
         inkscape:connector-curvature="0" />
      <path
         d="m 294.25149,351.80999 -1.14146,-13.7791 -40.03278,0 -1.14147,13.7791 2.03833,0 c 0.7338,-10.27316 2.36447,-11.74077 11.41464,-11.74077 4.56586,0 4.81046,0 4.81046,3.50592 l 0,29.67808 c 0,3.26132 -0.32614,4.15819 -6.60419,4.15819 l -1.71219,0 0,2.03833 c 3.17979,-0.2446 7.99025,-0.2446 11.25157,-0.2446 3.26133,0 8.07179,0 11.25158,0.2446 l 0,-2.03833 -1.7122,0 c -6.27804,0 -6.60418,-0.89687 -6.60418,-4.15819 l 0,-29.67808 c 0,-3.50592 0.2446,-3.50592 4.81045,-3.50592 8.80558,0 10.59932,1.38607 11.33311,11.74077 l 2.03833,0"
         id="path3191"
         style="font-size:81.53316498px;fill:#6d6d6d"
         inkscape:connector-curvature="0" />
      <path
         d="m 344.94856,358.65878 c 0,-12.14843 -9.70246,-22.25855 -21.76936,-22.25855 -12.14843,0 -21.76935,10.11012 -21.76935,22.25855 0,12.3115 9.86552,21.93242 21.76935,21.93242 11.90383,0 21.76936,-9.62092 21.76936,-21.93242 m -7.01186,-0.89686 c 0,16.06201 -8.96865,20.70942 -14.7575,20.70942 -5.78885,0 -14.7575,-4.64741 -14.7575,-20.70942 0,-15.32822 9.29479,-19.32336 14.7575,-19.32336 5.54425,0 14.7575,4.07667 14.7575,19.32336"
         id="path3193"
         style="font-size:81.53316498px;fill:#6d6d6d"
         inkscape:connector-curvature="0" />
      <path
         d="m 413.16889,359.71871 0,-2.52753 -10.35472,0.2446 c -3.34285,0 -10.59931,0 -13.5345,-0.2446 l 0,2.52753 2.85366,0 c 7.82718,0 7.82718,1.14147 7.82718,3.91359 l 0,5.21813 c 0,9.8655 -12.63764,9.86551 -13.61603,9.86551 -7.41952,0 -22.91082,-4.23975 -22.91082,-27.15054 0,-23.07387 15.65437,-27.06902 22.34008,-27.06902 8.64251,0 16.9589,6.68574 18.83416,19.32336 0.16307,1.14147 0.2446,1.38607 1.30453,1.38607 1.30453,0 1.30454,-0.2446 1.30454,-1.9568 l 0,-19.32336 c 0,-1.38606 -1e-5,-1.95679 -0.89687,-1.95679 -0.32613,0 -0.65227,0 -1.30453,0.97839 l -4.23972,6.27806 c -2.52753,-2.44599 -7.338,-7.25645 -15.98051,-7.25645 -16.22508,0 -29.7596,13.20839 -29.7596,29.59654 0,16.38814 13.37146,29.67807 29.92267,29.67807 6.44111,0 13.45298,-2.11987 16.30663,-6.93032 1.05993,1.79373 4.32126,5.05505 5.21813,5.05505 0.73379,0 0.7338,-0.65226 0.7338,-1.87526 l 0,-14.18677 c 0,-3.58745 0.89687,-3.58746 5.95192,-3.58746"
         id="path3195"
         style="font-size:81.53316498px;fill:#6d6d6d"
         inkscape:connector-curvature="0" />
      <path
         d="m 457.16111,363.6323 -2.03833,0 c -0.65226,6.52265 -1.46761,13.77911 -12.88224,13.77911 l -5.13659,0 c -2.85366,0 -3.26132,-0.2446 -3.26132,-3.50593 l 0,-30.2488 c 0,-4.07666 1.223,-4.07666 7.33798,-4.07666 l 0,-2.03833 -10.02858,0.2446 -9.05018,-0.2446 0,2.03833 c 5.46272,0 5.87039,0.4892 5.87039,3.83206 l 0,30.16727 c 0,3.34286 -0.40767,3.83206 -5.87039,3.83206 l 0,2.03833 33.51013,0 1.54913,-15.81744"
         id="path3197"
         style="font-size:81.53316498px;fill:#6d6d6d"
         inkscape:connector-curvature="0" />
      <path
         d="m 508.17414,358.65878 c 0,-12.14843 -9.70246,-22.25855 -21.76935,-22.25855 -12.14843,0 -21.76936,10.11012 -21.76936,22.25855 0,12.3115 9.86553,21.93242 21.76936,21.93242 11.90383,0 21.76935,-9.62092 21.76935,-21.93242 m -7.01185,-0.89686 c 0,16.06201 -8.96865,20.70942 -14.7575,20.70942 -5.78885,0 -14.7575,-4.64741 -14.7575,-20.70942 0,-15.32822 9.29478,-19.32336 14.7575,-19.32336 5.54425,0 14.7575,4.07667 14.7575,19.32336"
         id="path3199"
         style="font-size:81.53316498px;fill:#6d6d6d"
         inkscape:connector-curvature="0" />
      <path
         d="m 555.52198,368.19816 c 0,-5.29965 -5.21813,-9.78398 -12.31151,-10.68084 5.78885,-1.223 10.43625,-4.892 10.43625,-9.62092 0,-5.13658 -5.70733,-10.35471 -14.59444,-10.35471 l -22.91082,0 0,2.03833 c 5.46272,0 5.87039,0.4892 5.87039,3.83206 l 0,30.16727 c 0,3.34286 -0.40767,3.83206 -5.87039,3.83206 l 0,2.03833 24.62302,0 c 9.05017,0 14.7575,-5.54426 14.7575,-11.25158 m -8.39791,-20.30176 c 0,2.93519 -2.11987,8.88712 -10.59932,8.88712 l -9.13171,0 0,-13.69757 c 0,-3.26133 0.40767,-3.50593 3.26133,-3.50593 l 7.82718,0 c 7.41951,0 8.64252,6.35959 8.64252,8.31638 m 1.63066,20.30176 c 0,3.66899 -2.6906,9.21325 -10.11011,9.21325 l -7.99025,0 c -2.85366,0 -3.26133,-0.2446 -3.26133,-3.50593 l 0,-15.32823 12.22997,0 c 6.93032,0 9.13172,6.19652 9.13172,9.62091"
         id="path3201"
         style="font-size:81.53316498px;fill:#6d6d6d"
         inkscape:connector-curvature="0" />
      <path
         d="m 602.81758,363.6323 -2.03833,0 c -1.38607,9.86551 -3.34287,13.77911 -13.77911,13.77911 l -8.80558,0 c -2.85366,0 -3.26133,-0.2446 -3.26133,-3.50593 l 0,-15.08363 5.70732,0 c 6.03345,0 7.01186,1.63067 7.01186,7.09338 l 2.03833,0 0,-16.2251 -2.03833,0 c 0,5.46272 -0.97841,7.09339 -7.01186,7.09339 l -5.70732,0 0,-13.45297 c 0,-3.26133 0.40767,-3.50593 3.26133,-3.50593 l 8.31638,0 c 9.45784,0 11.57771,2.85367 12.47458,11.74078 l 2.03833,0 -1.54913,-13.77911 -36.28226,0 0,2.03833 c 5.46271,0 5.87039,0.4892 5.87039,3.83206 l 0,29.92267 c 0,3.34286 -0.40768,3.83206 -5.87039,3.83206 l 0,2.03833 37.26065,0 2.36447,-15.81744"
         id="path3203"
         style="font-size:81.53316498px;fill:#6d6d6d"
         inkscape:connector-curvature="0" />
    </g>
  </g>
</svg>
