<?xml version="1.0" encoding="UTF-8" standalone="no"?>
<!-- Created with Inkscape (http://www.inkscape.org/) -->

<svg
   xmlns:dc="http://purl.org/dc/elements/1.1/"
   xmlns:cc="http://creativecommons.org/ns#"
   xmlns:rdf="http://www.w3.org/1999/02/22-rdf-syntax-ns#"
   xmlns:svg="http://www.w3.org/2000/svg"
   xmlns="http://www.w3.org/2000/svg"
   xmlns:xlink="http://www.w3.org/1999/xlink"
   xmlns:sodipodi="http://sodipodi.sourceforge.net/DTD/sodipodi-0.dtd"
   xmlns:inkscape="http://www.inkscape.org/namespaces/inkscape"
   version="1.2"
   width="106"
   height="14"
   id="svg2"
   inkscape:version="0.48.3.1 r9886"
   sodipodi:docname="logo_small.svg">
  <sodipodi:namedview
     pagecolor="#ffffff"
     bordercolor="#666666"
     borderopacity="1"
     objecttolerance="10"
     gridtolerance="10"
     guidetolerance="10"
     inkscape:pageopacity="0"
     inkscape:pageshadow="2"
     inkscape:window-width="1132"
     inkscape:window-height="622"
     id="namedview98"
     showgrid="false"
     showborder="true"
     inkscape:zoom="6.8157152"
     inkscape:cx="54.116584"
     inkscape:cy="8.5728934"
     inkscape:window-x="309"
     inkscape:window-y="275"
     inkscape:window-maximized="0"
     inkscape:current-layer="text6718" />
  <defs
     id="defs4">
    <linearGradient
       id="linearGradient6927">
      <stop
         id="stop6929"
         style="stop-color:#ffffff;stop-opacity:1"
         offset="0" />
      <stop
         id="stop6931"
         style="stop-color:#929292;stop-opacity:1"
         offset="0.49576846" />
      <stop
         id="stop6933"
         style="stop-color:#ffffff;stop-opacity:1"
         offset="1" />
    </linearGradient>
    <linearGradient
       id="linearGradient6796">
      <stop
         id="stop6798"
         style="stop-color:#929292;stop-opacity:0"
         offset="0" />
      <stop
         id="stop6802"
         style="stop-color:#929292;stop-opacity:0.99607843"
         offset="0.49576846" />
      <stop
         id="stop6800"
         style="stop-color:#929292;stop-opacity:0"
         offset="1" />
    </linearGradient>
    <linearGradient
       id="linearGradient6673">
      <stop
         id="stop6675"
         style="stop-color:#929292;stop-opacity:1"
         offset="0" />
      <stop
         id="stop6677"
         style="stop-color:#929292;stop-opacity:0"
         offset="1" />
    </linearGradient>
    <linearGradient
       id="linearGradient4359">
      <stop
         id="stop4361"
         style="stop-color:#e7e7e7;stop-opacity:1"
         offset="0" />
      <stop
         id="stop4363"
         style="stop-color:#e7e7e7;stop-opacity:0"
         offset="1" />
    </linearGradient>
    <linearGradient
       id="linearGradient10810">
      <stop
         id="stop10812"
         style="stop-color:#ffffff;stop-opacity:1"
         offset="0" />
      <stop
         id="stop10814"
         style="stop-color:#ffffff;stop-opacity:0.48571429"
         offset="1" />
    </linearGradient>
    <linearGradient
       x1="-13.435029"
       y1="156.4427"
       x2="266.9328"
       y2="156.4427"
       id="linearGradient10816"
       xlink:href="#linearGradient10810"
       gradientUnits="userSpaceOnUse"
       gradientTransform="matrix(1.1500631,0,0,0.90361446,3.4303151,924.96366)" />
    <linearGradient
       x1="-1058.3904"
       y1="152.76776"
       x2="-970.47308"
       y2="152.76776"
       id="linearGradient4150"
       xlink:href="#linearGradient4144"
       gradientUnits="userSpaceOnUse"
       gradientTransform="matrix(1.9573257,0,0,0.97952756,2927.5051,-304.15797)" />
    <linearGradient
       id="linearGradient4144">
      <stop
         id="stop4146"
         style="stop-color:#d5d5d5;stop-opacity:1"
         offset="0" />
      <stop
         id="stop4148"
         style="stop-color:#ececec;stop-opacity:0"
         offset="1" />
    </linearGradient>
    <linearGradient
       x1="-1054.8406"
       y1="94.050186"
       x2="-968.61554"
       y2="94.050186"
       id="linearGradient4176"
       xlink:href="#linearGradient4144-2"
       gradientUnits="userSpaceOnUse"
       gradientTransform="matrix(0.54122169,0,0,1.0346457,-485.32975,-307.81048)" />
    <linearGradient
       id="linearGradient4144-2">
      <stop
         id="stop4146-5"
         style="stop-color:#d5d5d5;stop-opacity:1"
         offset="0" />
      <stop
         id="stop4148-5"
         style="stop-color:#ececec;stop-opacity:0"
         offset="1" />
    </linearGradient>
    <linearGradient
       x1="105.00536"
       y1="112.07175"
       x2="105.00536"
       y2="55.132095"
       id="linearGradient4365"
       xlink:href="#linearGradient4359"
       gradientUnits="userSpaceOnUse"
       gradientTransform="matrix(1.7135005,0,0,1.0135988,-139.34409,860.37336)" />
    <linearGradient
       x1="105.00536"
       y1="112.07175"
       x2="105.00536"
       y2="55.132095"
       id="linearGradient4365-5"
       xlink:href="#linearGradient4359-7"
       gradientUnits="userSpaceOnUse"
       gradientTransform="matrix(1.7135005,0,0,1.0135988,-139.34409,860.37336)" />
    <linearGradient
       id="linearGradient4144-2-7">
      <stop
         id="stop4146-5-0"
         style="stop-color:#d5d5d5;stop-opacity:1"
         offset="0" />
      <stop
         id="stop4148-5-3"
         style="stop-color:#ececec;stop-opacity:0"
         offset="1" />
    </linearGradient>
    <linearGradient
       x1="-1054.8406"
       y1="94.050186"
       x2="-968.61554"
       y2="94.050186"
       id="linearGradient4176-3"
       xlink:href="#linearGradient4144-2-7"
       gradientUnits="userSpaceOnUse"
       gradientTransform="matrix(0.54122169,0,0,1.0346457,-485.32975,-307.81048)" />
    <linearGradient
       id="linearGradient4144-4">
      <stop
         id="stop4146-0"
         style="stop-color:#d5d5d5;stop-opacity:1"
         offset="0" />
      <stop
         id="stop4148-9"
         style="stop-color:#ececec;stop-opacity:0"
         offset="1" />
    </linearGradient>
    <linearGradient
       x1="-1058.3904"
       y1="152.76776"
       x2="-970.47308"
       y2="152.76776"
       id="linearGradient4150-5"
       xlink:href="#linearGradient4144-4"
       gradientUnits="userSpaceOnUse"
       gradientTransform="matrix(1.9573257,0,0,0.97952756,2927.5051,-304.15797)" />
    <linearGradient
       x1="-13.435029"
       y1="156.4427"
       x2="266.9328"
       y2="156.4427"
       id="linearGradient10816-2"
       xlink:href="#linearGradient10810-4"
       gradientUnits="userSpaceOnUse"
       gradientTransform="matrix(1.1500631,0,0,0.90361446,3.4303151,924.96366)" />
    <linearGradient
       id="linearGradient10810-4">
      <stop
         id="stop10812-2"
         style="stop-color:#ffffff;stop-opacity:1"
         offset="0" />
      <stop
         id="stop10814-5"
         style="stop-color:#ffffff;stop-opacity:0.48571429"
         offset="1" />
    </linearGradient>
    <linearGradient
       id="linearGradient4359-7">
      <stop
         id="stop4361-0"
         style="stop-color:#e7e7e7;stop-opacity:1"
         offset="0" />
      <stop
         id="stop4363-4"
         style="stop-color:#e7e7e7;stop-opacity:0"
         offset="1" />
    </linearGradient>
    <filter
       color-interpolation-filters="sRGB"
       id="filter6385">
      <feGaussianBlur
         id="feGaussianBlur6387"
         stdDeviation="2.5585048" />
    </filter>
    <filter
       color-interpolation-filters="sRGB"
       id="filter6389">
      <feGaussianBlur
         id="feGaussianBlur6391"
         stdDeviation="2.5585048" />
    </filter>
    <filter
       color-interpolation-filters="sRGB"
       id="filter6393">
      <feGaussianBlur
         id="feGaussianBlur6395"
         stdDeviation="2.5585048" />
    </filter>
    <filter
       color-interpolation-filters="sRGB"
       id="filter6397">
      <feGaussianBlur
         id="feGaussianBlur6399"
         stdDeviation="2.5585048" />
    </filter>
    <filter
       color-interpolation-filters="sRGB"
       id="filter6401">
      <feGaussianBlur
         id="feGaussianBlur6403"
         stdDeviation="2.5585048" />
    </filter>
    <filter
       color-interpolation-filters="sRGB"
       id="filter6405">
      <feGaussianBlur
         id="feGaussianBlur6407"
         stdDeviation="2.5585048" />
    </filter>
    <filter
       color-interpolation-filters="sRGB"
       id="filter6409">
      <feGaussianBlur
         id="feGaussianBlur6411"
         stdDeviation="2.5585048" />
    </filter>
    <filter
       color-interpolation-filters="sRGB"
       id="filter6413">
      <feGaussianBlur
         id="feGaussianBlur6415"
         stdDeviation="2.5585048" />
    </filter>
    <filter
       x="-0.080947347"
       y="-0.51158243"
       width="1.1618947"
       height="2.0231647"
       color-interpolation-filters="sRGB"
       id="filter6417">
      <feGaussianBlur
         id="feGaussianBlur6419"
         stdDeviation="2.5585048" />
    </filter>
    <filter
       x="-0.018169476"
       y="-0.51158243"
       width="1.036339"
       height="2.0231647"
       color-interpolation-filters="sRGB"
       id="filter6421">
      <feGaussianBlur
         id="feGaussianBlur6423"
         stdDeviation="2.5585048" />
    </filter>
    <filter
       x="-0.037758473"
       y="-0.51158243"
       width="1.0755169"
       height="2.0231647"
       color-interpolation-filters="sRGB"
       id="filter6425">
      <feGaussianBlur
         id="feGaussianBlur6427"
         stdDeviation="2.5585048" />
    </filter>
    <filter
       x="-0.080947347"
       y="-0.51158243"
       width="1.1618947"
       height="2.0231647"
       color-interpolation-filters="sRGB"
       id="filter6429">
      <feGaussianBlur
         id="feGaussianBlur6431"
         stdDeviation="2.5585048" />
    </filter>
    <filter
       x="-0.080947347"
       y="-0.51158243"
       width="1.1618947"
       height="2.0231647"
       color-interpolation-filters="sRGB"
       id="filter6433">
      <feGaussianBlur
         id="feGaussianBlur6435"
         stdDeviation="2.5585048" />
    </filter>
    <filter
       x="-0.018169476"
       y="-0.51158243"
       width="1.036339"
       height="2.0231647"
       color-interpolation-filters="sRGB"
       id="filter6437">
      <feGaussianBlur
         id="feGaussianBlur6439"
         stdDeviation="2.5585048" />
    </filter>
    <filter
       x="-0.037758473"
       y="-0.51158243"
       width="1.0755169"
       height="2.0231647"
       color-interpolation-filters="sRGB"
       id="filter6441">
      <feGaussianBlur
         id="feGaussianBlur6443"
         stdDeviation="2.5585048" />
    </filter>
    <filter
       x="-0.080947347"
       y="-0.51158243"
       width="1.1618947"
       height="2.0231647"
       color-interpolation-filters="sRGB"
       id="filter6445">
      <feGaussianBlur
         id="feGaussianBlur6447"
         stdDeviation="2.5585048" />
    </filter>
    <filter
       color-interpolation-filters="sRGB"
       id="filter6489">
      <feGaussianBlur
         id="feGaussianBlur6491"
         stdDeviation="1.2792524" />
    </filter>
    <linearGradient
       x1="384.23975"
       y1="442.83615"
       x2="728.32001"
       y2="442.83615"
       id="linearGradient6714"
       xlink:href="#linearGradient6673"
       gradientUnits="userSpaceOnUse"
       gradientTransform="matrix(1,0,0,0.10539318,-15.65625,870.59595)"
       spreadMethod="reflect" />
    <linearGradient
       x1="13.739678"
       y1="442.83615"
       x2="728.32001"
       y2="442.83615"
       id="linearGradient6742"
       xlink:href="#linearGradient6796"
       gradientUnits="userSpaceOnUse"
       gradientTransform="matrix(1,0,0,0.10539318,-15.65625,14.996751)"
       spreadMethod="repeat" />
    <linearGradient
       x1="13.739678"
       y1="442.83615"
       x2="728.32001"
       y2="442.83615"
       id="linearGradient6806"
       xlink:href="#linearGradient6927"
       gradientUnits="userSpaceOnUse"
       gradientTransform="matrix(1,0,0,0.10539318,-15.65625,869.99675)"
       spreadMethod="repeat" />
    <linearGradient
       x1="13.739678"
       y1="442.83615"
       x2="728.32001"
       y2="442.83615"
       id="linearGradient6937"
       xlink:href="#linearGradient6927"
       gradientUnits="userSpaceOnUse"
       gradientTransform="matrix(1,0,0,0.10539318,-15.65625,12.983335)"
       spreadMethod="repeat" />
  </defs>
  <metadata
     id="metadata7">
    <rdf:RDF>
      <cc:Work
         rdf:about="">
        <dc:format>image/svg+xml</dc:format>
        <dc:type
           rdf:resource="http://purl.org/dc/dcmitype/StillImage" />
        <dc:title />
      </cc:Work>
    </rdf:RDF>
  </metadata>
  <g
     transform="scale(0.99858939,1.0014126)"
     style="font-size:37.6083374px;font-style:normal;font-variant:normal;font-weight:normal;font-stretch:normal;line-height:125%;letter-spacing:0px;word-spacing:0px;fill:#898989;fill-opacity:1;stroke:none;font-family:LMRoman10;-inkscape-font-specification:LMRoman10"
     id="text6718">
    <path
       d="m 25.161474,12.262392 0,-0.481551 -0.372813,0 c -1.196109,0 -1.227178,-0.170873 -1.227178,-0.730093 l 0,-8.1863627 c 0,-0.5592197 0.03107,-0.7300931 1.227178,-0.7300931 l 0.372813,0 0,-0.4815508 c -0.543685,0.046602 -1.693195,0.046602 -2.283482,0.046602 -0.590288,0 -1.755331,0 -2.299017,-0.046602 l 0,0.4815508 0.372814,0 c 1.196109,0 1.227178,0.1708734 1.227178,0.7300931 l 0,3.6349315 -4.955313,0 0,-3.6349315 c 0,-0.5592197 0.03107,-0.7300931 1.227178,-0.7300931 l 0.372813,0 0,-0.4815508 c -0.543686,0.046602 -1.693195,0.046602 -2.283483,0.046602 -0.590287,0 -1.75533,0 -2.299016,-0.046602 l 0,0.4815508 0.372813,0 c 1.196109,0 1.227178,0.1708734 1.227178,0.7300931 l 0,8.1863627 c 0,0.55922 -0.03107,0.730093 -1.227178,0.730093 l -0.372813,0 0,0.481551 c 0.543686,-0.0466 1.693195,-0.0466 2.283483,-0.0466 0.590287,0 1.75533,0 2.299016,0.0466 l 0,-0.481551 -0.372813,0 c -1.196109,0 -1.227178,-0.170873 -1.227178,-0.730093 l 0,-4.0698804 4.955313,0 0,4.0698804 c 0,0.55922 -0.03107,0.730093 -1.227178,0.730093 l -0.372814,0 0,0.481551 c 0.543686,-0.0466 1.693196,-0.0466 2.283483,-0.0466 0.590287,0 1.755331,0 2.299016,0.0466"
       style="font-size:15.53389549px;fill:#898989;font-family:LMRomanCaps10;-inkscape-font-specification:LMRomanCaps10"
       id="path3074" />
    <path
       d="m 30.123826,12.262392 0,-0.388347 c -1.102906,0 -1.180576,-0.07767 -1.180576,-0.745627 l 0,-5.7164739 c 0,-0.6679568 0.07767,-0.745627 1.180576,-0.745627 l 0,-0.3883473 -1.739797,0.046602 -1.739796,-0.046602 0,0.3883473 c 1.102906,0 1.180576,0.07767 1.180576,0.745627 l 0,5.7164739 c 0,0.667957 -0.07767,0.745627 -1.180576,0.745627 l 0,0.388347 1.739796,-0.0466 1.739797,0.0466"
       style="font-size:15.53389549px;fill:#898989;font-family:LMRomanCaps10;-inkscape-font-specification:LMRomanCaps10"
       id="path3076" />
    <path
       d="m 37.063352,10.056579 c 0,-0.9786346 -0.605822,-1.6155252 -0.605822,-1.6155252 C 35.882776,7.8507663 35.634232,7.8041637 34.313852,7.4934861 33.987641,7.4158167 33.443954,7.2915455 33.350751,7.2604777 32.574057,6.9498001 32.325514,6.3439774 32.325514,5.877961 c 0,-0.7145585 0.621357,-1.4757201 1.662127,-1.4757201 1.972802,0 2.252415,1.8174663 2.31455,2.3145505 0.03107,0.1087371 0.03107,0.2019406 0.201941,0.2019406 0.20194,0 0.20194,-0.07767 0.20194,-0.3728135 l 0,-2.1126098 c 0,-0.2485421 0,-0.3728135 -0.155339,-0.3728135 -0.0932,0 -0.108737,0.015534 -0.341745,0.3572796 -0.07767,0.077669 -0.233009,0.310678 -0.295144,0.4038813 -0.590288,-0.5747536 -1.304848,-0.7611609 -1.941737,-0.7611609 -1.413583,0 -2.438822,1.0563061 -2.438822,2.2679488 0,0.8698972 0.497085,1.3825169 0.683492,1.5689234 0.466016,0.4660164 0.776696,0.5281528 2.205813,0.8543643 0.838829,0.2019404 0.994169,0.2330087 1.351449,0.5592202 0.07767,0.062136 0.497084,0.4815514 0.497084,1.1650421 0,0.776694 -0.605823,1.615525 -1.67766,1.615525 -0.403881,0 -1.242713,-0.06214 -1.91067,-0.605822 -0.699024,-0.543686 -0.745627,-1.304847 -0.761161,-1.7242621 -0.01553,-0.1242711 -0.139805,-0.1398051 -0.186406,-0.1398051 -0.201941,0 -0.201941,0.1087376 -0.201941,0.3883472 l 0,2.097076 c 0,0.248542 0,0.372814 0.155339,0.372814 0.0932,0 0.108738,-0.01553 0.341746,-0.35728 0.07767,-0.07767 0.233008,-0.310678 0.295144,-0.403881 0.450482,0.403881 1.258246,0.761161 2.267949,0.761161 1.506786,0 2.469889,-1.196112 2.469889,-2.423288"
       style="font-size:15.53389549px;fill:#898989;font-family:LMRomanCaps10;-inkscape-font-specification:LMRomanCaps10"
       id="path3078" />
    <path
       d="m 46.492183,6.9964015 -0.217475,-2.6252284 -7.627143,0 -0.217474,2.6252284 0.388347,0 c 0.139805,-1.9572689 0.450485,-2.236881 2.174746,-2.236881 0.869897,0 0.916499,7e-7 0.916499,0.6679575 l 0,5.654338 c 0,0.621355 -0.06214,0.792229 -1.258245,0.792229 l -0.326212,0 0,0.388347 c 0.605821,-0.0466 1.522322,-0.0466 2.143678,-0.0466 0.621355,0 1.537856,0 2.143677,0.0466 l 0,-0.388347 -0.326212,0 c -1.196108,0 -1.258245,-0.170874 -1.258245,-0.792229 l 0,-5.654338 c 0,-0.6679568 0.0466,-0.6679575 0.9165,-0.6679575 1.677659,0 2.019406,0.2640782 2.159211,2.236881 l 0.388348,0"
       style="font-size:15.53389549px;fill:#898989;font-family:LMRomanCaps10;-inkscape-font-specification:LMRomanCaps10"
       id="path3080" />
    <path
       d="m 56.151113,8.3012487 c 0,-2.3145481 -1.848536,-4.2407535 -4.147551,-4.2407535 -2.314548,0 -4.14755,1.9262054 -4.14755,4.2407535 0,2.3456163 1.879604,4.1786183 4.14755,4.1786183 2.267947,0 4.147551,-1.833002 4.147551,-4.1786183 M 54.815197,8.1303758 c 0,3.0601742 -1.708729,3.9456092 -2.811635,3.9456092 -1.102905,0 -2.811635,-0.885435 -2.811635,-3.9456092 0,-2.9203694 1.770865,-3.6815332 2.811635,-3.6815332 1.056304,0 2.811635,0.7766977 2.811635,3.6815332"
       style="font-size:15.53389549px;fill:#898989;font-family:LMRomanCaps10;-inkscape-font-specification:LMRomanCaps10"
       id="path3082" />
    <path
       d="m 69.148612,8.5031893 0,-0.4815507 -1.972805,0.046602 c -0.636889,0 -2.019407,-10e-8 -2.578626,-0.046602 l 0,0.4815507 0.543686,0 c 1.491252,0 1.491254,0.2174751 1.491254,0.745627 l 0,0.9941697 c 0,1.879599 -2.407754,1.879601 -2.594161,1.879601 -1.413583,0 -4.365024,-0.807767 -4.365024,-5.1727872 0,-4.396088 2.982509,-5.1572533 4.256287,-5.1572533 1.646591,0 3.231051,1.2737818 3.58833,3.6815332 0.03107,0.2174743 0.0466,0.2640762 0.248542,0.2640762 0.248542,0 0.248543,-0.046602 0.248543,-0.3728135 l 0,-3.6815332 c 0,-0.2640759 -1e-6,-0.3728135 -0.170873,-0.3728135 -0.06214,0 -0.124272,2e-7 -0.248543,0.1864068 L 66.78746,2.6935124 C 66.30591,2.227496 65.389408,1.3109957 63.742816,1.3109957 c -3.091242,0 -5.669872,2.5164942 -5.669872,5.6388041 0,3.1223102 2.547563,5.6543382 5.70094,5.6543382 1.227177,0 2.563093,-0.403882 3.106779,-1.320381 0.201941,0.341745 0.823297,0.963101 0.99417,0.963101 0.139804,0 0.139805,-0.124271 0.139805,-0.357279 l 0,-2.7028983 c 0,-0.6834907 0.170873,-0.6834914 1.133974,-0.6834914"
       style="font-size:15.53389549px;fill:#898989;font-family:LMRomanCaps10;-inkscape-font-specification:LMRomanCaps10"
       id="path3084" />
    <path
       d="m 77.530121,9.2488163 -0.388347,0 c -0.124271,1.2427107 -0.279613,2.6252287 -2.454356,2.6252287 l -0.978635,0 c -0.543686,0 -0.621356,-0.0466 -0.621356,-0.667958 l 0,-5.7630751 c 0,-0.776694 0.23301,-0.7766948 1.398051,-0.7766948 l 0,-0.3883473 -1.91067,0.046602 -1.724262,-0.046602 0,0.3883473 c 1.04077,0 1.118441,0.093204 1.118441,0.7300931 l 0,5.7475418 c 0,0.636889 -0.07767,0.730093 -1.118441,0.730093 l 0,0.388347 6.384431,0 0.295144,-3.0135757"
       style="font-size:15.53389549px;fill:#898989;font-family:LMRomanCaps10;-inkscape-font-specification:LMRomanCaps10"
       id="path3086" />
    <path
       d="m 87.249242,8.3012487 c 0,-2.3145481 -1.848536,-4.2407535 -4.14755,-4.2407535 -2.314548,0 -4.14755,1.9262054 -4.14755,4.2407535 0,2.3456163 1.879603,4.1786183 4.14755,4.1786183 2.267946,0 4.14755,-1.833002 4.14755,-4.1786183 M 85.913327,8.1303758 c 0,3.0601742 -1.70873,3.9456092 -2.811635,3.9456092 -1.102906,0 -2.811635,-0.885435 -2.811635,-3.9456092 0,-2.9203694 1.770865,-3.6815332 2.811635,-3.6815332 1.056304,0 2.811635,0.7766977 2.811635,3.6815332"
       style="font-size:15.53389549px;fill:#898989;font-family:LMRomanCaps10;-inkscape-font-specification:LMRomanCaps10"
       id="path3088" />
    <path
       d="m 96.270068,10.118714 c 0,-1.0097017 -0.994171,-1.8640672 -2.345618,-2.0349398 1.102905,-0.2330082 1.988338,-0.9320347 1.988338,-1.8329997 0,-0.9786344 -1.087374,-1.9728047 -2.780567,-1.9728047 l -4.365025,0 0,0.3883473 c 1.04077,0 1.118441,0.093204 1.118441,0.7300931 l 0,5.7475418 c 0,0.636889 -0.07767,0.730093 -1.118441,0.730093 l 0,0.388347 4.691237,0 c 1.72426,0 2.811635,-1.056306 2.811635,-2.143678 M 94.670077,6.2507745 c 0,0.5592197 -0.403883,1.6931946 -2.019407,1.6931946 l -1.739796,0 0,-2.6096944 c 0,-0.6213552 0.07767,-0.6679576 0.621356,-0.6679576 l 1.491254,0 c 1.413583,0 1.646593,1.2116443 1.646593,1.5844574 m 0.310677,3.8679395 c 0,0.699025 -0.512619,1.755331 -1.926203,1.755331 l -1.522321,0 c -0.543686,0 -0.621356,-0.0466 -0.621356,-0.667958 l 0,-2.9203722 2.330084,0 c 1.32038,0 1.739796,1.1805767 1.739796,1.8329992"
       style="font-size:15.53389549px;fill:#898989;font-family:LMRomanCaps10;-inkscape-font-specification:LMRomanCaps10"
       id="path3090" />
    <path
       d="m 105.28094,9.2488163 -0.38835,0 c -0.26407,1.8795997 -0.63689,2.6252287 -2.62523,2.6252287 l -1.67766,0 c -0.54368,0 -0.621353,-0.0466 -0.621353,-0.667958 l 0,-2.8737705 1.087373,0 c 1.14951,0 1.33592,0.3106789 1.33592,1.3514489 l 0.38834,0 0,-3.0912452 -0.38834,0 c 0,1.0407699 -0.18641,1.3514489 -1.33592,1.3514489 l -1.087373,0 0,-2.5630928 c 0,-0.6213552 0.07767,-0.6679575 0.621353,-0.6679575 l 1.58446,0 c 1.80193,0 2.20581,0.5436881 2.37669,2.236881 l 0.38834,0 -0.29514,-2.6252284 -6.912584,0 0,0.3883474 c 1.04077,0 1.118441,0.093204 1.118441,0.7300931 l 0,5.7009401 c 0,0.636889 -0.07767,0.730093 -1.118441,0.730093 l 0,0.388347 7.098994,0 0.45048,-3.0135757"
       style="font-size:15.53389549px;fill:#898989;font-family:LMRomanCaps10;-inkscape-font-specification:LMRomanCaps10"
       id="path3092" />
  </g>
  <g
     style="fill:#898989;fill-opacity:1;stroke:none"
     id="g6722"
     transform="matrix(0.34266358,0,0,0.34266358,96.627279,-155.06817)">
    <g
       style="fill:#898989;fill-opacity:1;stroke:none"
       id="g6724"
       transform="matrix(0.42106563,0,0,0.42106563,-281.62409,337.33821)">
      <g
         style="fill:#898989;fill-opacity:1;stroke:none"
         id="g6726"
         transform="matrix(1.4206666,0,0,1.4206666,-33.717357,-152.97154)">
        <path
           inkscape:connector-curvature="0"
           style="font-size:medium;font-style:normal;font-variant:normal;font-weight:normal;font-stretch:normal;text-indent:0;text-align:start;text-decoration:none;line-height:normal;letter-spacing:normal;word-spacing:normal;text-transform:none;direction:ltr;block-progression:tb;writing-mode:lr-tb;text-anchor:start;baseline-shift:baseline;color:#000000;fill:#898989;fill-opacity:1;stroke:none;stroke-width:8.89999962;marker:none;visibility:visible;display:inline;overflow:visible;enable-background:accumulate;font-family:Sans;-inkscape-font-specification:Sans"
           id="path6728"
           transform="matrix(2.3749267,0,0,2.3749267,668.83657,-801.15352)"
           d="m -254.00387,475.42021 c -0.55407,0.0612 -0.854,0.67928 -1.28738,0.98612 -1.25045,1.21264 -2.82945,1.99193 -4.37428,2.75603 -0.97428,0.40386 -1.99115,0.74807 -3.03459,0.90478 -1.2796,-0.0405 -2.63491,0.30822 -3.8347,-0.29572 -0.47642,-0.17031 -0.35514,-1.34469 -0.98112,-0.85833 -0.56573,0.23947 -1.88787,1.33669 -1.47784,1.94383 0.66701,0.94194 2.68439,0.75399 3.76706,0.78359 2.13607,0.0137 4.24078,-0.5631 6.19822,-1.38569 1.14603,-0.53676 2.27468,-1.14554 3.26621,-1.93753 0.73331,-0.70072 1.5919,-1.38394 1.92158,-2.38039 0.0546,-0.17911 0.0568,-0.45084 -0.16316,-0.51669 z" />
        <path
           inkscape:connector-curvature="0"
           style="font-size:medium;font-style:normal;font-variant:normal;font-weight:normal;font-stretch:normal;text-indent:0;text-align:start;text-decoration:none;line-height:normal;letter-spacing:normal;word-spacing:normal;text-transform:none;direction:ltr;block-progression:tb;writing-mode:lr-tb;text-anchor:start;baseline-shift:baseline;color:#000000;fill:#898989;fill-opacity:1;stroke:none;stroke-width:8.89999962;marker:none;visibility:visible;display:inline;overflow:visible;enable-background:accumulate;font-family:Sans;-inkscape-font-specification:Sans"
           id="path6730"
           d="m 51.311365,354.95311 c -6.516745,0.48489 -18.768841,2.5753 -15.605719,5.55649 1.226577,1.24364 3.030181,1.60974 4.644283,2.09688 5.349266,1.25053 10.911416,1.18894 16.356457,0.75055 3.942661,-0.37708 7.938309,-1.01879 11.580773,-2.62715 1.191972,-1.26643 -1.176422,-1.87941 -2.074629,-1.2109 -8.139651,1.15827 -20.318096,1.74 -21.961029,-0.16497 -1.296306,-1.50306 7.290131,-2.95483 10.609225,-3.1496 0.877005,0.0979 1.945256,-1.19378 0.478233,-1.2018 -1.341437,-0.0622 -2.685116,-0.0783 -4.027594,-0.0495 z" />
        <path
           inkscape:connector-curvature="0"
           style="font-size:medium;font-style:normal;font-variant:normal;font-weight:normal;font-stretch:normal;text-indent:0;text-align:start;text-decoration:none;line-height:normal;letter-spacing:normal;word-spacing:normal;text-transform:none;direction:ltr;block-progression:tb;writing-mode:lr-tb;text-anchor:start;baseline-shift:baseline;color:#000000;fill:#898989;fill-opacity:1;stroke:none;stroke-width:14.69999981;marker:none;visibility:visible;display:inline;overflow:visible;enable-background:accumulate;font-family:Sans;-inkscape-font-specification:Sans"
           id="path6732"
           transform="matrix(0.39679692,0,0,0.39293726,-168.89309,-28.294586)"
           d="m 559.46875,966.03125 a 1.986338,1.986338 0 0 0 -1.96875,1.875 l -0.78125,12.25 0,0.0312 c -0.0648,0.74133 -0.48807,1.24011 -1.78125,2.5625 -0.22692,0.2232 -0.47746,0.40847 -0.6875,1 -0.10727,0.3021 -0.19302,0.77411 -0.0625,1.28125 0.13052,0.50714 0.48687,0.95367 0.8125,1.1875 0.65126,0.46765 1.06057,0.4266 1.375,0.4375 0.31443,0.0109 0.57967,-0.0241 0.84375,-0.0625 1.05631,-0.15364 2.25291,-0.52929 3.59375,-1.03125 1.34084,-0.50196 2.74581,-1.0998 3.90625,-1.78125 0.58022,-0.34072 1.08744,-0.71068 1.5625,-1.15625 0.47014,-0.44094 1.11252,-1.00285 1.125,-2.1875 1.3e-4,-0.0124 0,-0.0187 0,-0.0312 l 0.15625,-12.34375 a 1.986338,1.986338 0 0 0 -2,-2.03125 l -6.09375,0 z" />
        <path
           inkscape:connector-curvature="0"
           style="font-size:72px;font-style:normal;font-variant:normal;font-weight:normal;font-stretch:normal;line-height:125%;letter-spacing:0px;word-spacing:0px;fill:#898989;fill-opacity:1;stroke:none;font-family:LMRomanCaps10;-inkscape-font-specification:LMRomanCaps10"
           id="path6734"
           d="m 56.09375,306.5625 c -8.547475,-0.13609 -17.189895,4.38851 -21.298421,12.00149 -3.613822,6.44835 -3.846235,14.84095 0.120534,21.19288 5.019575,8.3239 14.92761,13.76703 24.710141,12.58615 5.183986,-0.36014 10.252962,-2.42633 13.998996,-6.06162 1.246965,-1.94522 3.06907,-0.78665 4.682276,-0.26107 2.270983,-0.0963 2.4864,-3.57295 0.417993,-4.28599 -2.439384,-1.98374 -4.219909,-4.67022 -5.251754,-7.62026 -0.771557,-2.70267 -5.018787,-0.99387 -3.87746,1.47739 0.895456,1.95617 1.744588,4.02798 1.685195,6.22118 -1.180929,3.8109 -5.804562,6.86997 -9.315954,7.57767 -3.747049,0.74989 -7.893016,1.07843 -11.518933,-0.30649 -6.125163,-1.94215 -10.981203,-8.82005 -12.203242,-15.2979 -1.277797,-6.31668 -0.256345,-14.95849 4.877127,-19.25555 4.095973,-3.43592 9.671268,-4.94463 15.034575,-4.55751 3.658517,0.33915 7.355602,3.14075 9.558108,6.05346 1.510591,2.05395 4.964363,-0.59893 3.479783,-2.59127 -3.505894,-4.63382 -9.373342,-6.94044 -15.098964,-6.87256 z" />
        <path
           inkscape:connector-curvature="0"
           style="font-size:72px;font-style:normal;font-variant:normal;font-weight:normal;font-stretch:normal;line-height:125%;letter-spacing:0px;word-spacing:0px;fill:#898989;fill-opacity:1;stroke:none;font-family:LMRomanCaps10;-inkscape-font-specification:LMRomanCaps10"
           id="path6736"
           d="m 47.648348,310.20874 c -2.874764,8.08467 0.431199,18.03943 3.808797,24.54385 3.677791,6.86206 8.429143,11.53787 12.942838,13.84194 2.121773,1.26899 4.171688,2.93832 6.042979,1.25335 2.024669,-1.82308 1.275873,-6.19299 -2.375248,-2.77425 -3.453733,-1.78555 -9.043906,-6.32063 -13.358225,-14.37699 -4.23641,-7.91101 -4.261485,-14.85433 -3.887152,-19.77278 0.277392,-3.64472 1.35804,-5.02521 3.332854,-4.77614 2.357358,0.29731 0.917754,-2.79447 -1.508624,-2.77764 -4.17913,0.029 -4.338618,2.68048 -4.998219,4.83866 z" />
        <path
           inkscape:connector-curvature="0"
           style="font-size:72px;font-style:normal;font-variant:normal;font-weight:normal;font-stretch:normal;line-height:125%;letter-spacing:0px;word-spacing:0px;fill:#898989;fill-opacity:1;stroke:none;font-family:LMRomanCaps10;-inkscape-font-specification:LMRomanCaps10"
           id="path6738"
           d="m 44.096139,307.73453 c -2.527602,0.11458 -4.356777,3.29388 -4.646311,9.55728 -0.231539,6.13794 1.028911,13.28734 4.113515,19.60093 2.888254,5.91167 6.220685,9.58624 10.030655,12.33015 0.486216,0.38666 3.077952,2.7678 3.573457,3.08323 1.807023,1.3095 6.310547,1.73246 6.826743,-1.44228 -2.078754,0.11218 -5.483851,-2.53324 -6.798459,-3.60696 -2.996129,-2.44711 -6.958086,-6.02266 -10.09424,-12.44707 -3.531163,-7.23375 -4.075769,-14.07042 -3.878118,-18.94803 0.04048,-1.2614 -0.362165,-4.46236 3.152893,-5.41924 2.858109,-0.77805 1.3809,-2.87397 -2.280135,-2.70801 z" />
      </g>
    </g>
  </g>
</svg>
